<svg xmlns="http://www.w3.org/2000/svg" xmlns:xlink="http://www.w3.org/1999/xlink" width="787.884" height="324.884" viewBox="0 0 787.884 324.884"><defs><style>.cls-1,.cls-2{fill:#fff}.cls-3,.cls-4,.cls-5{fill:#151d41}.cls-3{font-size:51px;font-family:BalooTammudu2-Bold,&apos;Baloo Tammudu \32 &apos;;font-weight:700}.cls-4,.cls-5{font-size:13px;font-family:BalooTammudu2-SemiBold,&apos;Baloo Tammudu \32 &apos;;font-weight:600}.cls-5{font-size:119px}.cls-6,.cls-7,.cls-8{stroke:none}.cls-7{fill:#8e8efa}.cls-8{fill:rgba(142,142,250,.5)}.cls-9{filter:url(#Ellipse_219)}.cls-10{filter:url(#Ellipse_218)}</style><filter id="Ellipse_218" width="324.884" height="324.884" x="463" y="0" filterUnits="userSpaceOnUse"><feOffset dy="15" input="SourceAlpha"/><feGaussianBlur result="blur" stdDeviation="10"/><feFlood flood-color="#151d41" flood-opacity=".059"/><feComposite in2="blur" operator="in"/><feComposite in="SourceGraphic"/></filter><filter id="Ellipse_219" width="327.587" height="323.532" x="0" y="1" filterUnits="userSpaceOnUse"><feOffset dy="15" input="SourceAlpha"/><feGaussianBlur result="blur-2" stdDeviation="10"/><feFlood flood-color="#151d41" flood-opacity=".059"/><feComposite in2="blur-2" operator="in"/><feComposite in="SourceGraphic"/></filter></defs><g id="Group_34373" data-name="Group 34373" transform="translate(-930 -3174)"><g id="_1" data-name="1" transform="translate(1423 3189)"><g class="cls-10" transform="matrix(1, 0, 0, 1, -493, -15)"><ellipse id="Ellipse_218-2" cx="132.442" cy="132.442" class="cls-1" data-name="Ellipse 218" rx="132.442" ry="132.442" transform="translate(493 15)"/></g><g id="Subtraction_2" class="cls-2" data-name="Subtraction 2"><path d="M 7.500663757324219 197.6296234130859 L 7.500016689300537 7.790324211120605 C 11.51491260528564 8.09778881072998 15.50003242492676 8.648553848266602 19.41329002380371 9.438414573669434 C 25.6197566986084 10.69048118591309 31.72535705566406 12.55941390991211 37.56125640869141 14.99344730377197 C 43.29045867919922 17.38298034667969 48.81532287597656 20.33998107910156 53.98235702514648 23.78238105773926 C 59.10145568847656 27.19308090209961 63.91498947143555 31.10954856872559 68.28902435302734 35.42284774780273 C 72.66102600097656 39.73421478271484 76.63022613525391 44.47811508178711 80.08628845214844 49.52271270751953 C 83.57302093505859 54.61221313476563 86.56658935546875 60.0505485534668 88.98372650146484 65.68654632568359 C 91.44472503662109 71.42471313476563 93.33495330810547 77.42958068847656 94.60198974609375 83.53431701660156 C 95.90219116210938 89.79991149902344 96.56145477294922 96.25144958496094 96.56145477294922 102.7094497680664 C 96.56145477294922 109.1678161621094 95.90219116210938 115.6195449829102 94.60192108154297 121.8854141235352 C 93.33482360839844 127.9908447265625 91.44462585449219 133.9955444335938 88.98385620117188 139.7325744628906 C 86.56572723388672 145.3708190917969 83.57221984863281 150.8093109130859 80.08635711669922 155.8972473144531 C 76.63115692138672 160.9406127929688 72.66188812255859 165.6845550537109 68.28875732421875 169.9973754882813 C 63.91692352294922 174.3086547851563 59.10329055786133 178.2252502441406 53.981689453125 181.6381530761719 C 48.81415557861328 185.0804748535156 43.28915786743164 188.0375823974609 37.5611572265625 190.4266815185547 C 31.72532272338867 192.8606414794922 25.61968994140625 194.7295837402344 19.4140567779541 195.9814758300781 C 15.5006103515625 196.7713012695313 11.51505184173584 197.3221130371094 7.500663757324219 197.6296234130859 Z" class="cls-6" transform="translate(129.739 31.083)"/><path d="M 15.00062942504883 189.1702117919922 C 15.98179817199707 189.0060119628906 16.95865058898926 188.8258209228516 17.9308910369873 188.6295928955078 C 23.65676498413086 187.4744720458984 29.2900562286377 185.7501831054688 34.67397308349609 183.5046844482422 C 39.95859909057617 181.3004760742188 45.05605697631836 178.5721740722656 49.82268142700195 175.3969268798828 C 54.54826354980469 172.2478942871094 58.98943328857422 168.6344757080078 63.02238845825195 164.6574249267578 C 67.05489349365234 160.6805114746094 70.71434783935547 156.3070068359375 73.89918518066406 151.6583099365234 C 77.10922241210938 146.9729309082031 79.86531066894531 141.9660491943359 82.09117889404297 136.7760925292969 C 84.35447692871094 131.4994354248047 86.093017578125 125.9766387939453 87.25839233398438 120.3615951538086 C 88.45480346679688 114.5959320068359 89.06143188476563 108.6568908691406 89.06143188476563 102.7094345092773 C 89.06143188476563 96.76230621337891 88.45480346679688 90.82347106933594 87.25851440429688 85.05843353271484 C 86.09322357177734 79.44384765625 84.35459899902344 73.92080688476563 82.09088897705078 68.64267730712891 C 79.86614227294922 63.45522308349609 77.10997009277344 58.44842910766602 73.89913940429688 53.76168060302734 C 70.71351623535156 49.11184692382813 67.05418395996094 44.73847198486328 63.02285003662109 40.76305770874023 C 58.9876823425293 36.78388977050781 54.54684829711914 33.17068099975586 49.82405853271484 30.02405548095703 C 45.05688858032227 26.84809684753418 39.95976638793945 24.12001419067383 34.6741828918457 21.91551399230957 C 29.2900562286377 19.66988945007324 23.65680694580078 17.94559860229492 17.9294319152832 16.79018020629883 C 16.95744132995605 16.59399032592773 15.9810676574707 16.41385841369629 15.00006771087646 16.24968719482422 L 15.00062942504883 189.1702117919922 M 0.0006819051341153681 205.4200134277344 L 1.523844366602134e-05 205.4200134277344 L 1.523844366602134e-05 1.434326168237021e-05 C 7.03805685043335 0.00613934313878417 14.06872367858887 0.7084310054779053 20.89718246459961 2.086681127548218 C 27.58263969421387 3.435389280319214 34.16059875488281 5.448931217193604 40.44826507568359 8.071389198303223 C 46.62105560302734 10.64588928222656 52.57363891601563 13.83184814453125 58.14068222045898 17.54072189331055 C 63.6561393737793 21.21547317504883 68.84226226806641 25.4351806640625 73.55509948730469 30.08263969421387 C 78.26792907714844 34.73009872436523 82.54705810546875 39.84455490112305 86.2735595703125 45.28380584716797 C 90.03601837158203 50.77580642700195 93.26697540283203 56.64563751220703 95.87655639648438 62.7303466796875 C 98.53497314453125 68.92884826660156 100.5768051147461 75.41551208496094 101.9455184936523 82.01017761230469 C 103.3495178222656 88.77618408203125 104.0614318847656 95.74043273925781 104.0614318847656 102.7094345092773 C 104.0614318847656 109.6788024902344 103.3495178222656 116.6432189941406 101.9455184936523 123.4092636108398 C 100.5765991210938 130.0050964355469 98.53476715087891 136.4917602539063 95.87655639648438 142.6890563964844 C 93.26609802246094 148.7757568359375 90.03514099121094 154.6458129882813 86.2735595703125 160.1362152099609 C 82.54822540283203 165.5738525390625 78.26922607421875 170.6882629394531 73.55509948730469 175.3373870849609 C 68.84410095214844 179.9830932617188 63.65789031982422 184.2028045654297 58.14068222045898 187.8793487548828 C 52.57218170166016 191.5887603759766 46.61951446533203 194.7747192382813 40.44826507568359 197.3487243652344 C 34.16059875488281 199.9711456298828 27.58263969421387 201.9846801757813 20.89718246459961 203.3333892822266 C 14.06734848022461 204.7117614746094 7.03668212890625 205.4138031005859 0.0006819051341153681 205.4200134277344 Z" class="cls-7" transform="translate(129.739 31.083)"/></g><g id="Group_34370" data-name="Group 34370" transform="translate(32.347 35.849)"><g id="Path_65" class="cls-2" data-name="Path 65"><path d="M97.1,0A97.1,97.1,0,1,1,24.623,32.483,97.1,97.1,0,0,1,97.1,0Z" class="cls-6" transform="translate(0 0)"/><path d="M 97.10478210449219 2 C 90.16644287109375 2 83.24372863769531 2.7503662109375 76.52891540527344 4.230270385742188 C 69.99752044677734 5.66973876953125 63.60206604003906 7.812026977539063 57.52017211914063 10.59765625 C 51.55030822753906 13.33197021484375 45.84236145019531 16.70391845703125 40.55488586425781 20.61984252929688 C 35.31010437011719 24.50413513183594 30.4525146484375 28.94297790527344 26.11701965332031 33.81303405761719 C 18.49514770507813 42.3746337890625 12.5416259765625 52.0904541015625 8.421829223632813 62.6905517578125 C 4.160629272460938 73.65460968017578 2 85.23323822021484 2 97.10476684570313 C 2 103.5588226318359 2.650100708007813 110.0082168579102 3.932205200195313 116.2738189697266 C 5.181549072265625 122.3791580200195 7.045730590820313 128.3845825195313 9.47296142578125 134.1232147216797 C 11.85633850097656 139.7581329345703 14.80641174316406 145.1931915283203 18.24119567871094 150.27734375 C 21.64372253417969 155.3137359619141 25.55136108398438 160.0498199462891 29.85554504394531 164.35400390625 C 34.15972900390625 168.6581878662109 38.89578247070313 172.5657958984375 43.93217468261719 175.9683227539063 C 49.016357421875 179.4031372070313 54.45138549804688 182.3531799316406 60.0863037109375 184.7365570068359 C 65.82496643066406 187.1637878417969 71.83039093017578 189.0279846191406 77.93572998046875 190.2773132324219 C 84.20133209228516 191.5594177246094 90.65072631835938 192.2095336914063 97.10478210449219 192.2095336914063 C 103.558837890625 192.2095336914063 110.0082321166992 191.5594177246094 116.2738342285156 190.2773132324219 C 122.3791732788086 189.0279846191406 128.3845977783203 187.1637878417969 134.1232604980469 184.7365570068359 C 139.7581787109375 182.3531799316406 145.1932067871094 179.4031372070313 150.2773895263672 175.9683227539063 C 155.3137817382813 172.5657958984375 160.0498352050781 168.6581878662109 164.3540191650391 164.35400390625 C 168.658203125 160.0498199462891 172.5658264160156 155.3137359619141 175.9683532714844 150.27734375 C 179.4031524658203 145.1931915283203 182.3532257080078 139.7581329345703 184.7366027832031 134.1232147216797 C 187.1638336181641 128.3845825195313 189.0280151367188 122.3791580200195 190.2773590087891 116.2738189697266 C 191.5594635009766 110.0082168579102 192.2095642089844 103.5588226318359 192.2095642089844 97.10476684570313 C 192.2095642089844 90.65071105957031 191.5594635009766 84.20131683349609 190.2773590087891 77.93571472167969 C 189.0280151367188 71.83037567138672 187.1638336181641 65.824951171875 184.7366027832031 60.08631896972656 C 182.3532257080078 54.45140075683594 179.4031524658203 49.01634216308594 175.9683532714844 43.93218994140625 C 172.5658264160156 38.89579772949219 168.658203125 34.15971374511719 164.3540191650391 29.85552978515625 C 160.0498352050781 25.55134582519531 155.3137817382813 21.64373779296875 150.2773895263672 18.2412109375 C 145.1932067871094 14.806396484375 139.7581787109375 11.85633850097656 134.1232604980469 9.472976684570313 C 128.3845977783203 7.045745849609375 122.3791732788086 5.181549072265625 116.2738342285156 3.932220458984375 C 110.0082321166992 2.650115966796875 103.558837890625 2 97.10478210449219 2 M 97.10478210449219 0 C 150.7342834472656 0 194.2095642089844 43.47526550292969 194.2095642089844 97.10476684570313 C 194.2095642089844 150.7342681884766 150.7342834472656 194.2095336914063 97.10478210449219 194.2095336914063 C 43.47528076171875 194.2095336914063 0 150.7342681884766 0 97.10476684570313 C 0 72.32807922363281 9.279434204101563 49.71871948242188 24.62319946289063 32.48318481445313 C 42.33828735351563 12.58377075195313 68.25199127197266 0 97.10478210449219 0 Z" class="cls-8" transform="translate(0 0)"/></g></g><text id="_50_" class="cls-3" data-name="50%" transform="translate(126.312 139.456)"><tspan x="-49.113" y="0">50%</tspan></text><text id="Flexible_savings_plan" class="cls-4" data-name="Flexible savings plan" transform="translate(59.388 174.378)"><tspan x="0" y="0">FLEXIBLE SAVINGS PLAN</tspan></text></g><g id="_2" data-name="2" transform="translate(960 3190)"><g class="cls-9" transform="matrix(1, 0, 0, 1, -30, -16)"><ellipse id="Ellipse_219-2" cx="133.793" cy="131.766" class="cls-1" data-name="Ellipse 219" rx="133.793" ry="131.766" transform="translate(30 16)"/></g><g id="Subtraction_4" class="cls-2" data-name="Subtraction 4"><path d="M 7.500663757324219 197.6296234130859 L 7.500016689300537 7.790324211120605 C 11.51491260528564 8.09778881072998 15.50003242492676 8.648553848266602 19.41329002380371 9.438414573669434 C 25.6197566986084 10.69048118591309 31.72535705566406 12.55941390991211 37.56125640869141 14.99344730377197 C 43.29045867919922 17.38298034667969 48.81532287597656 20.33998107910156 53.98235702514648 23.78238105773926 C 59.10145568847656 27.19308090209961 63.91498947143555 31.10954856872559 68.28902435302734 35.42284774780273 C 72.66102600097656 39.73421478271484 76.63022613525391 44.47811508178711 80.08628845214844 49.52271270751953 C 83.57302093505859 54.61221313476563 86.56658935546875 60.0505485534668 88.98372650146484 65.68654632568359 C 91.44472503662109 71.42471313476563 93.33495330810547 77.42958068847656 94.60198974609375 83.53431701660156 C 95.90219116210938 89.79991149902344 96.56145477294922 96.25144958496094 96.56145477294922 102.7094497680664 C 96.56145477294922 109.1678161621094 95.90219116210938 115.6195449829102 94.60192108154297 121.8854141235352 C 93.33482360839844 127.9908447265625 91.44462585449219 133.9955444335938 88.98385620117188 139.7325744628906 C 86.56572723388672 145.3708190917969 83.57221984863281 150.8093109130859 80.08635711669922 155.8972473144531 C 76.63115692138672 160.9406127929688 72.66188812255859 165.6845550537109 68.28875732421875 169.9973754882813 C 63.91692352294922 174.3086547851563 59.10329055786133 178.2252502441406 53.981689453125 181.6381530761719 C 48.81415557861328 185.0804748535156 43.28915786743164 188.0375823974609 37.5611572265625 190.4266815185547 C 31.72532272338867 192.8606414794922 25.61968994140625 194.7295837402344 19.4140567779541 195.9814758300781 C 15.5006103515625 196.7713012695313 11.51505184173584 197.3221130371094 7.500663757324219 197.6296234130859 Z" class="cls-6" transform="translate(131.047 233.801) rotate(180)"/><path d="M 15.00062942504883 189.1702117919922 C 15.98179817199707 189.0060119628906 16.95865058898926 188.8258209228516 17.9308910369873 188.6295928955078 C 23.65676498413086 187.4744720458984 29.2900562286377 185.7501831054688 34.67397308349609 183.5046844482422 C 39.95859909057617 181.3004760742188 45.05605697631836 178.5721740722656 49.82268142700195 175.3969268798828 C 54.54826354980469 172.2478942871094 58.98943328857422 168.6344757080078 63.02238845825195 164.6574249267578 C 67.05489349365234 160.6805114746094 70.71434783935547 156.3070068359375 73.89918518066406 151.6583099365234 C 77.10922241210938 146.9729309082031 79.86531066894531 141.9660491943359 82.09117889404297 136.7760925292969 C 84.35447692871094 131.4994354248047 86.093017578125 125.9766387939453 87.25839233398438 120.3615951538086 C 88.45480346679688 114.5959320068359 89.06143188476563 108.6568908691406 89.06143188476563 102.7094345092773 C 89.06143188476563 96.76230621337891 88.45480346679688 90.82347106933594 87.25851440429688 85.05843353271484 C 86.09322357177734 79.44384765625 84.35459899902344 73.92080688476563 82.09088897705078 68.64267730712891 C 79.86614227294922 63.45522308349609 77.10997009277344 58.44842910766602 73.89913940429688 53.76168060302734 C 70.71351623535156 49.11184692382813 67.05418395996094 44.73847198486328 63.02285003662109 40.76305770874023 C 58.9876823425293 36.78388977050781 54.54684829711914 33.17068099975586 49.82405853271484 30.02405548095703 C 45.05688858032227 26.84809684753418 39.95976638793945 24.12001419067383 34.6741828918457 21.91551399230957 C 29.2900562286377 19.66988945007324 23.65680694580078 17.94559860229492 17.9294319152832 16.79018020629883 C 16.95744132995605 16.59399032592773 15.9810676574707 16.41385841369629 15.00006771087646 16.24968719482422 L 15.00062942504883 189.1702117919922 M 0.0006819051341153681 205.4200134277344 L 1.523844366602134e-05 205.4200134277344 L 1.523844366602134e-05 1.434326168237021e-05 C 7.03805685043335 0.00613934313878417 14.06872367858887 0.7084310054779053 20.89718246459961 2.086681127548218 C 27.58263969421387 3.435389280319214 34.16059875488281 5.448931217193604 40.44826507568359 8.071389198303223 C 46.62105560302734 10.64588928222656 52.57363891601563 13.83184814453125 58.14068222045898 17.54072189331055 C 63.6561393737793 21.21547317504883 68.84226226806641 25.4351806640625 73.55509948730469 30.08263969421387 C 78.26792907714844 34.73009872436523 82.54705810546875 39.84455490112305 86.2735595703125 45.28380584716797 C 90.03601837158203 50.77580642700195 93.26697540283203 56.64563751220703 95.87655639648438 62.7303466796875 C 98.53497314453125 68.92884826660156 100.5768051147461 75.41551208496094 101.9455184936523 82.01017761230469 C 103.3495178222656 88.77618408203125 104.0614318847656 95.74043273925781 104.0614318847656 102.7094345092773 C 104.0614318847656 109.6788024902344 103.3495178222656 116.6432189941406 101.9455184936523 123.4092636108398 C 100.5765991210938 130.0050964355469 98.53476715087891 136.4917602539063 95.87655639648438 142.6890563964844 C 93.26609802246094 148.7757568359375 90.03514099121094 154.6458129882813 86.2735595703125 160.1362152099609 C 82.54822540283203 165.5738525390625 78.26922607421875 170.6882629394531 73.55509948730469 175.3373870849609 C 68.84410095214844 179.9830932617188 63.65789031982422 184.2028045654297 58.14068222045898 187.8793487548828 C 52.57218170166016 191.5887603759766 46.61951446533203 194.7747192382813 40.44826507568359 197.3487243652344 C 34.16059875488281 199.9711456298828 27.58263969421387 201.9846801757813 20.89718246459961 203.3333892822266 C 14.06734848022461 204.7117614746094 7.03668212890625 205.4138031005859 0.0006819051341153681 205.4200134277344 Z" class="cls-7" transform="translate(131.047 233.801) rotate(180)"/></g><g id="Group_34371" data-name="Group 34371" transform="translate(33.572 33.146)"><g id="Path_65-2" class="cls-2" data-name="Path 65"><path d="M97.1,0A97.1,97.1,0,1,1,24.623,32.483,97.1,97.1,0,0,1,97.1,0Z" class="cls-6" transform="translate(0 0)"/><path d="M 97.10478210449219 2 C 90.16644287109375 2 83.24372863769531 2.7503662109375 76.52891540527344 4.230270385742188 C 69.99752044677734 5.66973876953125 63.60206604003906 7.812026977539063 57.52017211914063 10.59765625 C 51.55030822753906 13.33197021484375 45.84236145019531 16.70391845703125 40.55488586425781 20.61984252929688 C 35.31010437011719 24.50413513183594 30.4525146484375 28.94297790527344 26.11701965332031 33.81303405761719 C 18.49514770507813 42.3746337890625 12.5416259765625 52.0904541015625 8.421829223632813 62.6905517578125 C 4.160629272460938 73.65460968017578 2 85.23323822021484 2 97.10476684570313 C 2 103.5588226318359 2.650100708007813 110.0082168579102 3.932205200195313 116.2738189697266 C 5.181549072265625 122.3791580200195 7.045730590820313 128.3845825195313 9.47296142578125 134.1232147216797 C 11.85633850097656 139.7581329345703 14.80641174316406 145.1931915283203 18.24119567871094 150.27734375 C 21.64372253417969 155.3137359619141 25.55136108398438 160.0498199462891 29.85554504394531 164.35400390625 C 34.15972900390625 168.6581878662109 38.89578247070313 172.5657958984375 43.93217468261719 175.9683227539063 C 49.016357421875 179.4031372070313 54.45138549804688 182.3531799316406 60.0863037109375 184.7365570068359 C 65.82496643066406 187.1637878417969 71.83039093017578 189.0279846191406 77.93572998046875 190.2773132324219 C 84.20133209228516 191.5594177246094 90.65072631835938 192.2095336914063 97.10478210449219 192.2095336914063 C 103.558837890625 192.2095336914063 110.0082321166992 191.5594177246094 116.2738342285156 190.2773132324219 C 122.3791732788086 189.0279846191406 128.3845977783203 187.1637878417969 134.1232604980469 184.7365570068359 C 139.7581787109375 182.3531799316406 145.1932067871094 179.4031372070313 150.2773895263672 175.9683227539063 C 155.3137817382813 172.5657958984375 160.0498352050781 168.6581878662109 164.3540191650391 164.35400390625 C 168.658203125 160.0498199462891 172.5658264160156 155.3137359619141 175.9683532714844 150.27734375 C 179.4031524658203 145.1931915283203 182.3532257080078 139.7581329345703 184.7366027832031 134.1232147216797 C 187.1638336181641 128.3845825195313 189.0280151367188 122.3791580200195 190.2773590087891 116.2738189697266 C 191.5594635009766 110.0082168579102 192.2095642089844 103.5588226318359 192.2095642089844 97.10476684570313 C 192.2095642089844 90.65071105957031 191.5594635009766 84.20131683349609 190.2773590087891 77.93571472167969 C 189.0280151367188 71.83037567138672 187.1638336181641 65.824951171875 184.7366027832031 60.08631896972656 C 182.3532257080078 54.45140075683594 179.4031524658203 49.01634216308594 175.9683532714844 43.93218994140625 C 172.5658264160156 38.89579772949219 168.658203125 34.15971374511719 164.3540191650391 29.85552978515625 C 160.0498352050781 25.55134582519531 155.3137817382813 21.64373779296875 150.2773895263672 18.2412109375 C 145.1932067871094 14.806396484375 139.7581787109375 11.85633850097656 134.1232604980469 9.472976684570313 C 128.3845977783203 7.045745849609375 122.3791732788086 5.181549072265625 116.2738342285156 3.932220458984375 C 110.0082321166992 2.650115966796875 103.558837890625 2 97.10478210449219 2 M 97.10478210449219 0 C 150.7342834472656 0 194.2095642089844 43.47526550292969 194.2095642089844 97.10476684570313 C 194.2095642089844 150.7342681884766 150.7342834472656 194.2095336914063 97.10478210449219 194.2095336914063 C 43.47528076171875 194.2095336914063 0 150.7342681884766 0 97.10476684570313 C 0 72.32807922363281 9.279434204101563 49.71871948242188 24.62319946289063 32.48318481445313 C 42.33828735351563 12.58377075195313 68.25199127197266 0 97.10478210449219 0 Z" class="cls-8" transform="translate(0 0)"/></g></g><text id="_50_2" class="cls-3" data-name="50%" transform="translate(127.663 136.753)"><tspan x="-49.113" y="0">50%</tspan></text><text id="Instant_Loan_Access" class="cls-4" data-name="Instant Loan Access" transform="translate(68.786 179.874)"><tspan x="0" y="0">INSTANT LOAN ACCESS</tspan></text></g><text id="_" class="cls-5" data-name="+" transform="translate(1295 3365)"><tspan x="0" y="0">+</tspan></text></g></svg>