<svg id="Bills_illustration" data-name="Bills illustration" xmlns="http://www.w3.org/2000/svg" xmlns:xlink="http://www.w3.org/1999/xlink" width="552.292" height="541.286" viewBox="0 0 552.292 541.286">
  <defs>
    <style>
      .cls-1 {
        fill: url(#linear-gradient);
      }

      .cls-2 {
        fill: url(#linear-gradient-2);
      }

      .cls-3 {
        fill: #f4f7fa;
      }

      .cls-4 {
        clip-path: url(#clip-path);
      }

      .cls-5 {
        opacity: 0.7;
      }

      .cls-13, .cls-6 {
        fill: #fff;
      }

      .cls-7 {
        clip-path: url(#clip-path-2);
      }

      .cls-8 {
        fill: #fcfdfe;
      }

      .cls-9 {
        fill: url(#linear-gradient-5);
      }

      .cls-10 {
        fill: url(#linear-gradient-6);
      }

      .cls-11, .cls-14, .cls-36 {
        fill: url(#linear-gradient-7);
      }

      .cls-12 {
        fill: url(#linear-gradient-8);
      }

      .cls-13 {
        opacity: 0.48;
      }

      .cls-14, .cls-22, .cls-28, .cls-30 {
        opacity: 0.3;
      }

      .cls-15 {
        fill: #d8dee8;
      }

      .cls-16 {
        fill: url(#linear-gradient-11);
      }

      .cls-17 {
        fill: url(#linear-gradient-12);
      }

      .cls-18 {
        fill: url(#linear-gradient-13);
      }

      .cls-19 {
        fill: url(#linear-gradient-14);
      }

      .cls-20 {
        fill: url(#linear-gradient-15);
      }

      .cls-21 {
        fill: url(#linear-gradient-16);
      }

      .cls-22 {
        fill: url(#linear-gradient-17);
      }

      .cls-23 {
        fill: url(#linear-gradient-18);
      }

      .cls-24 {
        fill: url(#linear-gradient-19);
      }

      .cls-25 {
        fill: url(#linear-gradient-20);
      }

      .cls-26 {
        fill: url(#linear-gradient-21);
      }

      .cls-27 {
        fill: url(#linear-gradient-22);
      }

      .cls-28 {
        fill: url(#linear-gradient-23);
      }

      .cls-29 {
        fill: url(#linear-gradient-24);
      }

      .cls-30 {
        fill: url(#linear-gradient-25);
      }

      .cls-31 {
        fill: url(#linear-gradient-26);
      }

      .cls-32 {
        fill: url(#linear-gradient-27);
      }

      .cls-33 {
        fill: url(#linear-gradient-28);
      }

      .cls-34 {
        fill: url(#linear-gradient-29);
      }

      .cls-35 {
        fill: url(#linear-gradient-30);
      }

      .cls-36 {
        opacity: 0.1;
      }

      .cls-37 {
        fill: url(#linear-gradient-32);
      }

      .cls-38 {
        fill: url(#linear-gradient-33);
      }

      .cls-39 {
        fill: url(#linear-gradient-34);
      }

      .cls-40 {
        fill: url(#linear-gradient-35);
      }

      .cls-41 {
        fill: url(#linear-gradient-36);
      }

      .cls-42 {
        fill: url(#linear-gradient-37);
      }

      .cls-43 {
        fill: url(#linear-gradient-38);
      }

      .cls-44 {
        fill: #fec045;
      }

      .cls-45 {
        fill: url(#linear-gradient-39);
      }

      .cls-46 {
        opacity: 0.15;
        fill: url(#linear-gradient-40);
      }

      .cls-47 {
        opacity: 0.42;
      }

      .cls-48 {
        fill: url(#linear-gradient-41);
      }

      .cls-49 {
        fill: url(#linear-gradient-42);
      }

      .cls-50 {
        opacity: 0.26;
        fill: url(#linear-gradient-43);
      }

      .cls-51 {
        opacity: 0.53;
      }

      .cls-52 {
        fill: url(#linear-gradient-44);
      }

      .cls-53 {
        fill: url(#linear-gradient-45);
      }

      .cls-54 {
        fill: url(#linear-gradient-46);
      }

      .cls-55 {
        fill: url(#linear-gradient-47);
      }
    </style>
    <linearGradient id="linear-gradient" x1="0.734" y1="0.401" x2="1.267" y2="-0.166" gradientUnits="objectBoundingBox">
      <stop offset="0" stop-color="#ff9085"/>
      <stop offset="1" stop-color="#fb6fbb"/>
    </linearGradient>
    <linearGradient id="linear-gradient-2" x1="0.383" y1="0.207" x2="0.498" y2="0.686" gradientUnits="objectBoundingBox">
      <stop offset="0" stop-color="#6165d7"/>
      <stop offset="1" stop-color="#aa80f9"/>
    </linearGradient>
    <clipPath id="clip-path">
      <path id="Path_40047" data-name="Path 40047" class="cls-1" d="M1017.85,1060.65c19.731-13.932,23.261-50.434,18.429-74.929-5.644-28.6-20.413-29.358-23.069-51.94-4.946-42.049,44.234-56.665,42.609-99.464-1.326-34.988-34.7-38.5-34.406-77.307.2-28.018,17.688-39.642,9.839-64.08-.671-2.088-8.232-24.515-27.385-29.757-19.332-5.289-39.169,10.022-48.981,22.354-18.141,22.8-4.711,38.818-16.287,73.729-15.763,47.532-49.971,45.968-54.343,83.364-3.608,30.882,18.887,39.07,14.2,73.232-4.35,31.721-25.327,36.188-26.2,57.81C870.228,1023.4,977.6,1089.071,1017.85,1060.65Z" transform="translate(-872.229 -662.098)"/>
    </clipPath>
    <clipPath id="clip-path-2">
      <path id="Path_40054" data-name="Path 40054" class="cls-2" d="M648.413,1230.236c5.013.712,16.541-2.161,19.238-4.148,17.94-13.227,53.151-35.811,58.078-58.858.841-3.935-15.474-12.31-16.92-16.529-9.1-7.861-12.753-10.028-17.738-21.757-14.714-34.629,51.456-73.752-3.225-109.024-40.052-25.837-81.254-20.963-57.743-87.72s3.785-205.7-81.2-178.063c-48.779,15.859-22.882,85.3-55.895,122.134-31.37,35-23.394,73.149,12.981,109.4s8.184,48.608-14.989,83.7c-27.832,42.158,41.142,70.035,74.082,80.19C591.615,1157.728,653.646,1196.445,648.413,1230.236Z" transform="translate(-473.496 -750.549)"/>
    </clipPath>
    <linearGradient id="linear-gradient-5" x1="0.422" y1="0.517" x2="0.352" y2="0.841" gradientUnits="objectBoundingBox">
      <stop offset="0" stop-color="#40447e"/>
      <stop offset="1" stop-color="#3c3b6b"/>
    </linearGradient>
    <linearGradient id="linear-gradient-6" x1="0.48" y1="0.467" x2="0.372" y2="0.528" xlink:href="#linear-gradient-5"/>
    <linearGradient id="linear-gradient-7" x1="0" y1="0.5" x2="1" y2="0.5" xlink:href="#linear-gradient-5"/>
    <linearGradient id="linear-gradient-8" x1="0.638" y1="0.133" x2="-0.19" y2="2.082" gradientUnits="objectBoundingBox">
      <stop offset="0" stop-color="#ffc444"/>
      <stop offset="1" stop-color="#f36f56"/>
    </linearGradient>
    <linearGradient id="linear-gradient-11" x1="-20.404" y1="0.702" x2="-19.924" y2="0.433" gradientUnits="objectBoundingBox">
      <stop offset="0" stop-color="#aa80f9"/>
      <stop offset="1" stop-color="#6165d7"/>
    </linearGradient>
    <linearGradient id="linear-gradient-12" x1="8.126" y1="-1.07" x2="9.122" y2="-1.07" xlink:href="#linear-gradient-11"/>
    <linearGradient id="linear-gradient-13" x1="32.4" y1="-4.879" x2="33.624" y2="-6.656" xlink:href="#linear-gradient-8"/>
    <linearGradient id="linear-gradient-14" x1="13.539" y1="-16.17" x2="14.502" y2="-16.17" xlink:href="#linear-gradient-11"/>
    <linearGradient id="linear-gradient-15" x1="29.444" y1="-8.591" x2="30.455" y2="-10.469" xlink:href="#linear-gradient-8"/>
    <linearGradient id="linear-gradient-16" x1="-10.04" y1="0.836" x2="-10.841" y2="0.171" gradientUnits="objectBoundingBox">
      <stop offset="0" stop-color="#ab316d"/>
      <stop offset="1" stop-color="#792d3d"/>
    </linearGradient>
    <linearGradient id="linear-gradient-17" x1="-11.627" y1="0.836" x2="-12.543" y2="0.171" xlink:href="#linear-gradient-16"/>
    <linearGradient id="linear-gradient-18" x1="-17.639" y1="0.574" x2="-18.773" y2="-0.074" xlink:href="#linear-gradient-16"/>
    <linearGradient id="linear-gradient-19" x1="-7.509" y1="0.779" x2="-6.913" y2="0.353" xlink:href="#linear-gradient-11"/>
    <linearGradient id="linear-gradient-20" x1="-30.833" y1="0.501" x2="-29.833" y2="0.501" xlink:href="#linear-gradient-8"/>
    <linearGradient id="linear-gradient-21" x1="-15.412" y1="9.408" x2="-15.629" y2="9.119" gradientUnits="objectBoundingBox">
      <stop offset="0" stop-color="#444b8c"/>
      <stop offset="1" stop-color="#26264f"/>
    </linearGradient>
    <linearGradient id="linear-gradient-22" x1="-15.964" y1="9.922" x2="-15.444" y2="8.941" gradientUnits="objectBoundingBox">
      <stop offset="0" stop-color="#311944"/>
      <stop offset="1" stop-color="#893976"/>
    </linearGradient>
    <linearGradient id="linear-gradient-23" x1="-21.853" y1="9.275" x2="-20.35" y2="9.275" xlink:href="#linear-gradient-22"/>
    <linearGradient id="linear-gradient-24" x1="-62.61" y1="-0.445" x2="-60.99" y2="1.584" xlink:href="#linear-gradient-8"/>
    <linearGradient id="linear-gradient-25" x1="-7.606" y1="0.766" x2="-7" y2="0.258" xlink:href="#linear-gradient-11"/>
    <linearGradient id="linear-gradient-26" x1="-16.791" y1="6.461" x2="-16.738" y2="4.396" xlink:href="#linear-gradient-8"/>
    <linearGradient id="linear-gradient-27" x1="7.199" y1="4.721" x2="6.522" y2="3.075" gradientUnits="objectBoundingBox">
      <stop offset="0" stop-color="#311944"/>
      <stop offset="1" stop-color="#6b3976"/>
    </linearGradient>
    <linearGradient id="linear-gradient-28" x1="-45.447" y1="2.196" x2="-45.482" y2="5.275" xlink:href="#linear-gradient-8"/>
    <linearGradient id="linear-gradient-29" x1="10.073" y1="4.977" x2="9.053" y2="3.119" xlink:href="#linear-gradient-27"/>
    <linearGradient id="linear-gradient-30" x1="-9.652" y1="0.995" x2="-9.545" y2="0.008" xlink:href="#linear-gradient-11"/>
    <linearGradient id="linear-gradient-32" x1="0.422" y1="0.883" x2="-0.742" y2="0.718" xlink:href="#linear-gradient-22"/>
    <linearGradient id="linear-gradient-33" x1="-0.61" y1="0.769" x2="0.922" y2="0.858" gradientUnits="objectBoundingBox">
      <stop offset="0" stop-color="#e38ddd"/>
      <stop offset="1" stop-color="#9571f6"/>
    </linearGradient>
    <linearGradient id="linear-gradient-34" x1="-6.713" y1="0.851" x2="-2.572" y2="3.378" gradientUnits="objectBoundingBox">
      <stop offset="0" stop-color="#f57e53"/>
      <stop offset="0" stop-color="#f68252"/>
      <stop offset="0.04" stop-color="#f99a4d"/>
      <stop offset="0.08" stop-color="#fcad49"/>
      <stop offset="0.13" stop-color="#feba46"/>
      <stop offset="0.2" stop-color="#ffc244"/>
      <stop offset="0.32" stop-color="#ffc444"/>
      <stop offset="0.45" stop-color="#fdb946"/>
      <stop offset="0.69" stop-color="#f99c4c"/>
      <stop offset="1" stop-color="#f36f56"/>
    </linearGradient>
    <linearGradient id="linear-gradient-35" x1="-6.023" y1="2.226" x2="-5.095" y2="2.226" xlink:href="#linear-gradient"/>
    <linearGradient id="linear-gradient-36" x1="-6.685" y1="32.118" x2="-5.688" y2="32.118" xlink:href="#linear-gradient"/>
    <linearGradient id="linear-gradient-37" x1="-6.717" y1="30.806" x2="-5.719" y2="30.806" xlink:href="#linear-gradient"/>
    <linearGradient id="linear-gradient-38" x1="-6.748" y1="29.679" x2="-5.751" y2="29.679" xlink:href="#linear-gradient"/>
    <linearGradient id="linear-gradient-39" x1="-10.465" y1="2.702" x2="-9.578" y2="2.702" xlink:href="#linear-gradient"/>
    <linearGradient id="linear-gradient-40" x1="-0.684" y1="1.187" x2="0.901" y2="1.406" gradientUnits="objectBoundingBox">
      <stop offset="0" stop-color="#fb6fbb"/>
      <stop offset="1" stop-color="#ff9085"/>
    </linearGradient>
    <linearGradient id="linear-gradient-41" x1="-3.257" y1="3.709" x2="-2.27" y2="3.709" xlink:href="#linear-gradient-40"/>
    <linearGradient id="linear-gradient-42" x1="-2.615" y1="3.77" x2="-1.624" y2="3.77" xlink:href="#linear-gradient-40"/>
    <linearGradient id="linear-gradient-43" x1="-5.349" y1="1.748" x2="-4.354" y2="1.748" xlink:href="#linear-gradient"/>
    <linearGradient id="linear-gradient-44" x1="-0.335" y1="1.325" x2="3.134" y2="-2.462" xlink:href="#linear-gradient-16"/>
    <linearGradient id="linear-gradient-45" x1="-0.032" y1="1.208" x2="0.597" y2="0.374" gradientUnits="objectBoundingBox">
      <stop offset="0" stop-color="#fcb148"/>
      <stop offset="0.05" stop-color="#fdba46"/>
      <stop offset="0.14" stop-color="#ffc244"/>
      <stop offset="0.32" stop-color="#ffc444"/>
      <stop offset="0.48" stop-color="#fdb946"/>
      <stop offset="0.78" stop-color="#f99c4d"/>
      <stop offset="0.87" stop-color="#f8924f"/>
      <stop offset="1" stop-color="#f8924f"/>
    </linearGradient>
    <linearGradient id="linear-gradient-46" x1="0.66" y1="0.944" x2="0.229" y2="-0.194" xlink:href="#linear-gradient-45"/>
    <linearGradient id="linear-gradient-47" x1="-0.495" y1="1.321" x2="2.887" y2="-3.15" xlink:href="#linear-gradient-45"/>
  </defs>
  <path id="Path_40040" data-name="Path 40040" class="cls-3" d="M946.256,935.409C834.588,1078.236,573.1,1080.538,500.709,1001.2c-28.893-31.658-36.52-86.033-47.733-165.9-5.4-38.447-6.172-69.44-6.63-90.706-1.58-72.331-2.368-108.5,9.272-133.105,33.351-70.434,149.215-97.847,224.1-99.119q7.839-.133,15.819.1c87.682,2.62,186.636,39.116,247.662,117.111a261.574,261.574,0,0,1,17.639,25.48C1016.549,746.673,1007.176,857.5,946.256,935.409Z" transform="translate(-445.451 -512.313)"/>
  <path id="Path_40041" data-name="Path 40041" class="cls-1" d="M1017.85,1060.65c19.731-13.932,23.261-50.434,18.429-74.929-5.644-28.6-20.413-29.358-23.069-51.94-4.946-42.049,44.234-56.665,42.609-99.464-1.326-34.988-34.7-38.5-34.406-77.307.2-28.018,17.688-39.642,9.839-64.08-.671-2.088-8.232-24.515-27.385-29.757-19.332-5.289-39.169,10.022-48.981,22.354-18.141,22.8-4.711,38.818-16.287,73.729-15.763,47.532-49.971,45.968-54.343,83.364-3.608,30.882,18.887,39.07,14.2,73.232-4.35,31.721-25.327,36.188-26.2,57.81C870.228,1023.4,977.6,1089.071,1017.85,1060.65Z" transform="translate(-786.204 -631.906)"/>
  <g id="Group_34464" data-name="Group 34464" class="cls-4" transform="translate(86.025 30.192)">
    <g id="Group_34459" data-name="Group 34459" class="cls-5" transform="translate(48.852 -11.796)">
      <path id="Path_40042" data-name="Path 40042" class="cls-6" d="M1182.9,1037.29a.672.672,0,0,1-.343-.095,143.539,143.539,0,0,1-45.871-42.434c-11.3-16.391-22.979-33.337-22.047-54.53.718-16.126,8.22-24.74,17.72-35.647,9.056-10.4,20.328-23.339,28.219-47.308,4.5-13.68,10.1-30.707,5.783-51.091-2.505-11.83-7.135-18.526-11.219-24.432-4.277-6.186-7.972-11.528-7.256-20.693,1.131-14.682,8.972-24.059,18.052-34.918,5.5-6.583,11.2-13.392,16.192-22.235,14.021-24.859,14.394-58.32,1.092-99.466a.679.679,0,0,1,1.292-.417c13.422,41.523,13.013,75.348-1.209,100.55-5.053,8.952-10.788,15.807-16.327,22.439-8.93,10.683-16.642,19.9-17.738,34.15-.669,8.686,2.729,13.6,7.029,19.818,4.158,6.011,8.869,12.826,11.433,24.922,4.394,20.743-1.27,37.961-5.823,51.8-7.972,24.231-19.35,37.29-28.479,47.772-9.327,10.707-16.692,19.165-17.387,34.817-.923,20.737,10.631,37.492,21.806,53.7a142.134,142.134,0,0,0,45.443,42.039.679.679,0,0,1-.345,1.264Z" transform="translate(-1114.591 -603.576)"/>
    </g>
    <g id="Group_34460" data-name="Group 34460" class="cls-5" transform="translate(101.992 98.14)">
      <path id="Path_40043" data-name="Path 40043" class="cls-6" d="M1378.9,1252.022a.669.669,0,0,1-.506-.226.679.679,0,0,1,.052-.958c31.386-28.044,46.133-54.062,52.978-70.952,7.412-18.29,7.408-30.1,7.408-30.221a.679.679,0,0,1,.673-.685h0a.679.679,0,0,1,.679.673c0,.488.018,12.138-7.472,30.655-6.892,17.042-21.745,43.289-53.365,71.542A.675.675,0,0,1,1378.9,1252.022Z" transform="translate(-1378.224 -1148.98)"/>
    </g>
    <g id="Group_34461" data-name="Group 34461" class="cls-5" transform="translate(35.042 121.751)">
      <path id="Path_40044" data-name="Path 40044" class="cls-6" d="M1098.606,1406.185a.678.678,0,0,1-.429-.153c-17.518-14.311-30.84-30.55-39.592-48.257a119.986,119.986,0,0,1-12.213-45.006c-1.871-26.714,5.769-46.032,5.845-46.224a.679.679,0,1,1,1.26.508c-.077.189-7.611,19.268-5.749,45.685,1.719,24.361,12.013,60.14,51.307,92.244a.677.677,0,0,1-.429,1.209Z" transform="translate(-1046.078 -1266.119)"/>
    </g>
    <g id="Group_34462" data-name="Group 34462" class="cls-5" transform="translate(58.223 266.812)">
      <path id="Path_40045" data-name="Path 40045" class="cls-6" d="M1161.756,2080.963a.679.679,0,0,1-.189-1.33c46.278-13.578,70.412-38.248,82.508-56.552,13.086-19.8,15.277-36.575,15.3-36.742a.679.679,0,0,1,1.346.165c-.02.171-2.251,17.256-15.521,37.324-12.221,18.494-36.585,43.414-83.247,57.106A.7.7,0,0,1,1161.756,2080.963Z" transform="translate(-1161.08 -1985.779)"/>
    </g>
    <g id="Group_34463" data-name="Group 34463" class="cls-5" transform="translate(89.816 -31.533)">
      <path id="Path_40046" data-name="Path 40046" class="cls-6" d="M1346.523,622.031a.677.677,0,0,1-.5-.22c-26.47-28.7-29.693-58.656-27.736-78.72A102.873,102.873,0,0,1,1329,506.03a.679.679,0,1,1,1.179.671,101.426,101.426,0,0,0-10.544,36.577c-1.917,19.78,1.278,49.3,27.389,77.6a.677.677,0,0,1-.5,1.139Z" transform="translate(-1317.818 -505.657)"/>
    </g>
  </g>
  <path id="Path_40048" data-name="Path 40048" class="cls-2" d="M648.413,1230.236c5.013.712,16.541-2.161,19.238-4.148,17.94-13.227,53.151-35.811,58.078-58.858.841-3.935-15.474-12.31-16.92-16.529-9.1-7.861-12.753-10.028-17.738-21.757-14.714-34.629,51.456-73.752-3.225-109.024-40.052-25.837-81.254-20.963-57.743-87.72s3.785-205.7-81.2-178.063c-48.779,15.859-22.882,85.3-55.895,122.134-31.37,35-23.394,73.149,12.981,109.4s8.184,48.608-14.989,83.7c-27.832,42.158,41.142,70.035,74.082,80.19C591.615,1157.728,653.646,1196.445,648.413,1230.236Z" transform="translate(-467.843 -702.528)"/>
  <g id="Group_34466" data-name="Group 34466" class="cls-7" transform="translate(5.653 48.021)">
    <g id="Group_34465" data-name="Group 34465" class="cls-5" transform="translate(-7.044 -12.07)">
      <path id="Path_40049" data-name="Path 40049" class="cls-8" d="M1016.825,1150.638l.711-.806c-124.319-109.673-170.1-281.217-122.458-458.881l-1.03-.28c-22.576,84.2-24.142,170.313-4.509,249.023C910.173,1022.443,954.194,1095.386,1016.825,1150.638Z" transform="translate(-787.731 -690.67)"/>
      <path id="Path_40050" data-name="Path 40050" class="cls-8" d="M492.8,2407.621c45.292-2.159,114.855,16.652,155.07,41.926l.572-.913c-40.372-25.377-110.215-44.258-155.693-42.094Z" transform="translate(-481.825 -2060.541)"/>
      <path id="Path_40051" data-name="Path 40051" class="cls-8" d="M1407.29,2244.094l.907-.578c-13.263-20.824-15.489-47.554-6.615-79.448,6.506-23.382,18.719-48.949,36.3-75.991l-.9-.586c-17.645,27.133-29.9,52.8-36.431,76.3C1391.586,2195.978,1393.856,2223,1407.29,2244.094Z" transform="translate(-1202.354 -1805.936)"/>
      <path id="Path_40052" data-name="Path 40052" class="cls-8" d="M538.014,1580.365l.935-.532c-22.979-40.539-67.1-61.869-100.064-72.623l-.335,1.024C471.327,1518.929,515.194,1540.124,538.014,1580.365Z" transform="translate(-438.55 -1342.622)"/>
      <path id="Path_40053" data-name="Path 40053" class="cls-8" d="M875,925.079l1.056.2c10.28-51.482,51.6-87.938,75.316-105.089l-.629-.871C926.9,836.566,885.357,873.231,875,925.079Z" transform="translate(-787.026 -793.388)"/>
    </g>
  </g>
  <path id="Path_40055" data-name="Path 40055" class="cls-9" d="M1053.513,2950.956,520.29,2946.32v13.741c0,3.731,2.326,6.9,5.475,7.458l150.773,27.059a20.731,20.731,0,0,0,5.41.254l365.763-30.84c3.265-.276,5.8-3.457,5.8-7.289Z" transform="translate(-505.205 -2455.703)"/>
  <path id="Path_40056" data-name="Path 40056" class="cls-10" d="M859.394,1863.319l-355.7,25.135a10.6,10.6,0,0,1-11.542-10.683V1623.489A11.524,11.524,0,0,1,503.692,1612h355.7c5.241,0,9.474,4.652,9.474,10.389v229.88C868.878,1858,864.637,1862.952,859.394,1863.319Z" transform="translate(-482.737 -1390.339)"/>
  <path id="Path_40057" data-name="Path 40057" class="cls-11" d="M887.534,1863.319l-355.7,25.135a10.594,10.594,0,0,1-11.54-10.683V1623.489A11.522,11.522,0,0,1,531.83,1612h355.7c5.241,0,9.484,4.652,9.484,10.389v229.88C897.018,1858,892.777,1862.952,887.534,1863.319Z" transform="translate(-505.205 -1390.338)"/>
  <path id="Path_40058" data-name="Path 40058" class="cls-12" d="M937.74,1905.6l-331.3,21.834a8.682,8.682,0,0,1-9.389-8.762V1696.042a9.437,9.437,0,0,1,9.389-9.421l331.3-1.371c4.326-.018,7.825,3.793,7.825,8.512v202.777C945.565,1901.256,942.066,1905.311,937.74,1905.6Z" transform="translate(-566.493 -1448.823)"/>
  <path id="Path_40059" data-name="Path 40059" class="cls-6" d="M1489.762,1629.575a4.1,4.1,0,1,1-4.092-4.275A4.2,4.2,0,0,1,1489.762,1629.575Z" transform="translate(-1272.722 -1400.958)"/>
  <path id="Path_40060" data-name="Path 40060" class="cls-13" d="M801.832,1793.544c-27.413-14.755-48.981,3.941-69.791-14.513-12.614-11.183-6.422-19.522-21.945-36.234-17.192-18.51-28.387-12.3-45.665-28.947-21.848-21.064-10.921-37.451-29.739-52.575-22.83-18.343-47.451-1.365-69.184-18.959-9.373-7.589-14.513-18.623-17.2-30.356H527.043a6.753,6.753,0,0,0-6.753,6.746v263.6a6.2,6.2,0,0,0,6.753,6.267l362.52-25.732a5.843,5.843,0,0,0,4.37-2.671c-26.538-.968-42.841-9.863-53.264-19.06C820.281,1823.115,823.817,1805.372,801.832,1793.544Z" transform="translate(-505.205 -1390.307)"/>
  <path id="Path_40061" data-name="Path 40061" class="cls-11" d="M878.657,2852.867l-358.367,26.46,156.255,28.04a20.721,20.721,0,0,0,5.41.254l371.558-31.34L884.36,2853.046A27.127,27.127,0,0,0,878.657,2852.867Z" transform="translate(-505.205 -2381.027)"/>
  <path id="Path_40062" data-name="Path 40062" class="cls-14" d="M779.71,2899.176l298.353-22.356,92.338,12.58-295.783,23.9Z" transform="translate(-712.334 -2400.212)"/>
  <path id="Path_40063" data-name="Path 40063" class="cls-6" d="M1019.3,976.951v344.034a16.894,16.894,0,0,1-16,16.706l-2.9.179L707.83,1355.887a15.218,15.218,0,0,0,12.949-14.984V971.92l200,3.368Z" transform="translate(-654.943 -879.278)"/>
  <path id="Path_40064" data-name="Path 40064" class="cls-15" d="M1191.144,1407.472l-229.1,2.036v-40.057l229.1-.061Z" transform="translate(-857.912 -1196.631)"/>
  <path id="Path_40065" data-name="Path 40065" class="cls-15" d="M1185.448,1637.276l-151.688,2.459v-22.628l151.688-1.717Z" transform="translate(-915.176 -1393.045)"/>
  <path id="Path_40066" data-name="Path 40066" class="cls-15" d="M1885.784,1634.234l-37.274.6v-21.828l37.274-.421Z" transform="translate(-1565.699 -1390.809)"/>
  <path id="Path_40067" data-name="Path 40067" class="cls-15" d="M1127.358,1792.87l-93.6,2.149v-22.628l93.6-1.691Z" transform="translate(-915.176 -1517.05)"/>
  <path id="Path_40068" data-name="Path 40068" class="cls-15" d="M1885.784,1782.674l-37.274.855V1761.7l37.274-.673Z" transform="translate(-1565.699 -1509.329)"/>
  <path id="Path_40069" data-name="Path 40069" class="cls-15" d="M1152.268,1941.729l-118.508,3.519v-22.626l118.508-2.943Z" transform="translate(-915.176 -1636)"/>
  <path id="Path_40070" data-name="Path 40070" class="cls-15" d="M1885.784,1931.1l-37.274,1.107v-21.826l37.274-.925Z" transform="translate(-1565.699 -1627.84)"/>
  <path id="Path_40071" data-name="Path 40071" class="cls-15" d="M1085.525,2103.726l-51.765,1.887v-22.628l51.765-1.635Z" transform="translate(-915.176 -1765.083)"/>
  <path id="Path_40072" data-name="Path 40072" class="cls-15" d="M1885.784,2079.544l-37.274,1.359v-21.826l37.274-1.177Z" transform="translate(-1565.699 -1746.359)"/>
  <path id="Path_40073" data-name="Path 40073" class="cls-15" d="M962,1509.442v181.209l114.894-5.241,114.2-5.2V1507.93Zm222.732,164.707-110.227,4.866-105.466,4.654V1516.057l215.694-1.729Z" transform="translate(-857.88 -1307.246)"/>
  <path id="Path_40074" data-name="Path 40074" class="cls-15" d="M1070.56,2459.643,965.7,2464.75a3.786,3.786,0,0,0-3.656,3.644v25.785a3.337,3.337,0,0,0,3.656,3.263l104.864-5.845a3.677,3.677,0,0,0,3.487-3.576v-25.166A3.238,3.238,0,0,0,1070.56,2459.643Z" transform="translate(-857.912 -2067.12)"/>
  <path id="Path_40075" data-name="Path 40075" class="cls-15" d="M1674.537,2431.326l-99.46,4.838a3.63,3.63,0,0,0-3.467,3.543v25.1a3.2,3.2,0,0,0,3.467,3.183l99.46-5.539a3.533,3.533,0,0,0,3.308-3.479v-24.509a3.114,3.114,0,0,0-3.308-3.135Z" transform="translate(-1344.613 -2044.51)"/>
  <path id="Path_40076" data-name="Path 40076" class="cls-15" d="M1191.144,1190.884l-229.1-1.219V1163.11l229.1,1.441Z" transform="translate(-857.912 -1031.93)"/>
  <path id="Path_40077" data-name="Path 40077" class="cls-16" d="M2462.984,1451.84l-6.214,1.244s-32.616,41.626-27.956,57.467,27.956,3.727,27.956,3.727Z" transform="translate(-2028.668 -1262.462)"/>
  <path id="Path_40078" data-name="Path 40078" class="cls-17" d="M2732.645,2921.036c1.048.853,1.242,2.979,1.367,4.37a3.488,3.488,0,0,1,.016,1.153c-.508,1.6-3.612,1.768-8.48,2.266-7.694.786-9.984,1.391-10.584.246-.564-1.072.806-2.822.956-3.023.826-1.042,1.84-1.411,3.8-2.066,3.628-1.2,6.083-1.848,6.825-2.048C2731.189,2920.7,2731.957,2920.476,2732.645,2921.036Z" transform="translate(-2257.394 -2435.282)"/>
  <path id="Path_40079" data-name="Path 40079" class="cls-18" d="M2777.47,2887.32l-.77,8.766a4.76,4.76,0,0,0,4.894.6l1.979-8.617Z" transform="translate(-2306.795 -2408.595)"/>
  <path id="Path_40080" data-name="Path 40080" class="cls-19" d="M2411.837,2882.445c1.256,1.389,1.542,3.943.45,5.2s-2.689.308-7.269.445c-4.906.147-6.186,1.3-9.52.385-1.346-.373-3.725-1.276-3.681-2.237.032-.675,1.244-1.024,5.287-2.38,5.743-1.923,5.717-2.028,6.936-2.23C2407.1,2881.127,2410.176,2880.615,2411.837,2882.445Z" transform="translate(-1999.492 -2403.676)"/>
  <path id="Path_40081" data-name="Path 40081" class="cls-20" d="M2465.8,2847.85l-2.459,8.184a4.761,4.761,0,0,0,4.838.976l3.654-7.942Z" transform="translate(-2056.599 -2377.081)"/>
  <path id="Path_40082" data-name="Path 40082" class="cls-21" d="M2488.036,1958.58a766.869,766.869,0,0,1-24.227,181.631l9.417,2.534c7.964-7.426,18.01-19.117,22.86-35.635,3.007-10.254,2.006-15.521,3.914-28.135,3.038-20.078,9.194-30.6,15.555-46.792a266.383,266.383,0,0,0,16.1-64.447Z" transform="translate(-2056.974 -1667.059)"/>
  <path id="Path_40083" data-name="Path 40083" class="cls-22" d="M2519.48,2090.657c3.15-8.7,6.984-11.382,8.7-20.5,1.492-7.954-.559-10.538-.623-18.639-.127-16.144,7.891-21.491,10.562-34.791,1.449-7.21-8.022-25.416-16.708-41.144q.3-8.7.4-17l43.624,9.155a266.7,266.7,0,0,1-16.1,64.447c-6.361,16.192-12.518,26.714-15.555,46.792-1.909,12.612-.907,17.881-3.915,28.135-4.85,16.529-14.9,28.219-22.86,35.635l-.889-.24c8.029-10.464,10.52-19.351,10.885-26.375C2517.36,2108.869,2515.543,2101.53,2519.48,2090.657Z" transform="translate(-2090.756 -1667.059)"/>
  <path id="Path_40084" data-name="Path 40084" class="cls-23" d="M2734,1974.113q2.882,52.476,4.7,106.881,1.349,40.817,2,80.595l9.621,1.187a112.067,112.067,0,0,0,10.032-25.893c3.427-13.729,2.62-21.882,4.132-36.111,1.685-15.96,4.132-19.437,8.466-39.57,8.8-40.858,13.2-61.287,3.384-73.994C2773.14,1983.083,2763.151,1972.734,2734,1974.113Z" transform="translate(-2272.702 -1679.361)"/>
  <path id="Path_40085" data-name="Path 40085" class="cls-24" d="M2589.5,1430.43a164.826,164.826,0,0,0-35.331-5.9c-21.951-1.242-32.93-1.79-39.374,3.255-19.983,15.65-1.044,71.587-8.166,100.985-5.992,24.732-6.214,25.162-6.214,25.162-1.411,2.765-3.711,6.607-2.8,11.183.722,3.6,3.445,7.736,7.146,9.008,7.69,2.646,12.094-9.649,24.851-13.356,13.33-3.876,28.244,3.83,47.1,13.557,12,6.2,16.1,10.147,20.3,8.186,8.1-3.775,5.876-24.474,4.971-32.926C2598.4,1515.989,2594.356,1476.667,2589.5,1430.43Z" transform="translate(-2083.803 -1239.979)"/>
  <path id="Path_40086" data-name="Path 40086" class="cls-25" d="M2587.128,1714.065c.581-.129,1.613-3.991-.931-5.126-11.489-5.126-20.389,5.023-21.578,8.145l-1.189,3.122s5.708.446,9.248-.744S2582.418,1715.123,2587.128,1714.065Z" transform="translate(-2136.514 -1466.603)"/>
  <path id="Path_40087" data-name="Path 40087" class="cls-26" d="M2488.812,1685.658l20.221,1.02c.774.04,1.7-.919,1.51-1.572l-9.446-30.566a1.209,1.209,0,0,0-1.241-.806l-19.393.425c-.633.036-.978,1.282-.806,1.9l8.034,28.741A1.256,1.256,0,0,0,2488.812,1685.658Z" transform="translate(-2069.592 -1423.657)"/>
  <path id="Path_40088" data-name="Path 40088" class="cls-27" d="M2490.536,1681.643l20.332.955c.778.036,1.316-.522,1.125-1.175l-9.083-31.1a1.21,1.21,0,0,0-1.248-.806l-19.419,1.149a.99.99,0,0,0-.891,1.266l8.063,28.844a1.256,1.256,0,0,0,1.121.863Z" transform="translate(-2070.949 -1420.293)"/>
  <path id="Path_40089" data-name="Path 40089" class="cls-28" d="M2530.557,1663.111c-.6,2.822-3.146,2.217-5.221,5.644-2.634,4.344-.109,8.182-2.523,9.774-.738.484-1.983.776-4.233.189l.577,2.064a1.255,1.255,0,0,0,1.126.871l20.332.956c.778.036,1.316-.522,1.125-1.175l-9.083-31.1a1.209,1.209,0,0,0-1.248-.806l-2.917.173a11.243,11.243,0,0,0-.562,3.667C2528.032,1658.05,2531.261,1659.8,2530.557,1663.111Z" transform="translate(-2100.704 -1420.301)"/>
  <path id="Path_40090" data-name="Path 40090" class="cls-29" d="M2480.986,1701.424c-.115-.488.127-.992.492-1.008,1.479-.107,4.91-.149,6.8,1.492,2.461,2.133,5.644,6.023,2.963,7.986l-2.5,1.834a.4.4,0,0,1-.367.071c-.889-.276-4.636-1.451-5.039-1.744C2482.963,1709.781,2481.536,1703.79,2480.986,1701.424Z" transform="translate(-2070.665 -1460.898)"/>
  <path id="Path_40091" data-name="Path 40091" class="cls-30" d="M2517.591,1663.853c2.169-3.759,2.078-9.435,6.835-12.114,2.771-1.562,4.934-.831,8.7-.931,11.215-.3,13.364-7.357,21.122-7.766,12.018-.635,17.789,15.722,24.541,13.358,4.406-1.538,7.244-10.353,4.968-17.085-3.168-9.387-14.035-8.1-28.268-20.814-6.087-5.442-14.823-15.251-12.425-19.57,2.52-4.535,14.475,2.12,23.3-4.658,5.15-3.957,4.493-8.845,8.7-17.706,2.28-4.8,10.626-17.288,23.039-25.706,3.991,38.169,7.417,71.355,10.51,100.258.9,8.452,3.128,29.151-4.971,32.926-4.2,1.961-8.3-1.99-20.3-8.186-18.859-9.734-33.773-17.434-47.1-13.557-12.753,3.707-17.162,16-24.852,13.356a11.016,11.016,0,0,1-5.678-5.172C2512.557,1669.251,2515.956,1666.685,2517.591,1663.853Z" transform="translate(-2090.42 -1341.522)"/>
  <path id="Path_40092" data-name="Path 40092" class="cls-31" d="M2675.3,1345c-.014,1.671,4.136,10.03,9.734,14.083,5.644,4.09,12.753,3.866,14.87,4.392,4.91,1.209,5.541,1.183,5.644,1.671.528,2.377-12.856,10.482-26.686,8.522-8.466-1.193-16.164-6.023-15.69-8.559s8.929-1.181,11.449-5.8c1.752-3.211-.2-7.771-2.534-11.546C2674.337,1343.549,2673.049,1349.213,2675.3,1345Z" transform="translate(-2216.131 -1177.157)"/>
  <path id="Path_40093" data-name="Path 40093" class="cls-32" d="M2632.334,1294.333a8.894,8.894,0,0,1-4.209-9.306c.709-3.126,3.372-4.785,4.967-5.779,4.618-2.88,11.75-3.761,16.025-.28,2.534,2.062,2.419,8.9,2.451,10.1.046,1.357-.655,2.163-1.068,3.4-.575,1.717-1.459,4.434-2.866,8.946a22.283,22.283,0,0,0-2.681-2.79,19.6,19.6,0,0,0-4.166-2.8C2636.766,1293.93,2635.122,1295.794,2632.334,1294.333Z" transform="translate(-2188.022 -1122.626)"/>
  <path id="Path_40094" data-name="Path 40094" class="cls-33" d="M2667.651,1338.591a12.078,12.078,0,0,1-7.307,9.407c-5.9,2.34-12.826-10.1-10.459-14.561a7.992,7.992,0,0,1,5.3-3.406c1.33-.228,1.959.073,4.124-.343,2-.381,2.4-.806,3.156-.619.939.248,2.088,1.4,2.745,5.684.569-1.612,1.677-2.669,2.822-2.671a2.169,2.169,0,0,1,1.115.381C2670.638,1333.552,2670.187,1336.059,2667.651,1338.591Z" transform="translate(-2205.162 -1164.401)"/>
  <path id="Path_40095" data-name="Path 40095" class="cls-34" d="M2672.728,1324.331c-.179.337,1.153.968,1.907,2.4,1.463,2.772.2,7.526-2.576,9.2-1.649.99-2.62.173-5.615,1.226a14.443,14.443,0,0,0-4.054,2.217c.574,3.529,2.885,6.224,5.644,6.676,2.967.488,5.375-1.8,6.384-2.759a9.077,9.077,0,0,0,3.06-5.668c.236-3.1-1.83-3.928-1.008-6.339.4-1.209,1.3-2.078,1.564-4.181a8.587,8.587,0,0,0,.064-1.363C2675.867,1324.869,2672.994,1323.843,2672.728,1324.331Z" transform="translate(-2215.526 -1160.554)"/>
  <path id="Path_40096" data-name="Path 40096" class="cls-35" d="M2716.02,1465.987c3.352-5.084,10.02-10.078,16.152-9.629,17.911,1.292,39.989,49.539,24.851,68.65-11.556,14.587-47.251,15.295-79.833-9.941v-8.385c16.033,2.8,29.322,4.664,39.14,5.9,6.122.77,12.221,1.465,13.358-.933,1.717-3.628-10.546-8.818-15.222-22.374C2713.823,1487.418,2709.723,1475.539,2716.02,1465.987Z" transform="translate(-2227.343 -1266.047)"/>
  <g id="Group_34467" data-name="Group 34467" class="cls-5" transform="translate(265.979 86.486)">
    <path id="Path_40097" data-name="Path 40097" class="cls-15" d="M1863.375,943.083v74.691l-45.968-.143-8.71,10.028-12.842,14.763a3.915,3.915,0,0,1-2.278,1.31l-.073.075c-3.671,4.144-8.151,2.314-8.151-1.439v-25.027l-5.958-.054a14.23,14.23,0,0,1-9.518-3.773,14.88,14.88,0,0,1-4.878-11.072V941.38Z" transform="translate(-1765 -941.38)"/>
  </g>
  <path id="Path_40098" data-name="Path 40098" class="cls-36" d="M773.51,2288.5l1.25,136.415,21.3-1.173Z" transform="translate(-707.384 -1930.478)"/>
  <path id="Path_40099" data-name="Path 40099" class="cls-37" d="M1021.334,2368.8c.5,3.475-1.7,6.5-4.88,6.724l-214.478,15.319c-3.884.27-8.74-2.947-9.272-6.8l-19.375-141.805c-.522-3.83,3.515-7.23,7.416-7.244l214.841-4.435c3.2-.012,6.22,2.8,6.714,6.249Z" transform="translate(-707.203 -1884.217)"/>
  <path id="Path_40100" data-name="Path 40100" class="cls-38" d="M1036.122,2366.683c.5,3.5-1.7,6.539-4.912,6.763l-217.089,15.108a7.727,7.727,0,0,1-8.063-6.551l-19.5-142.567a6.064,6.064,0,0,1,6.186-7.009l217.463-4.747c3.225-.012,6.263,2.822,6.761,6.283Z" transform="translate(-717.752 -1881.917)"/>
  <g id="Group_34468" data-name="Group 34468" class="cls-5" transform="translate(108.569 438.224)">
    <path id="Path_40101" data-name="Path 40101" class="cls-3" d="M1026.589,2724.6l-37.036,1.566a3.618,3.618,0,0,1-3.628-2.683L984.131,2715a2.416,2.416,0,0,1,2.451-2.927l37.137-1.328a3.546,3.546,0,0,1,3.509,2.656l1.723,8.319A2.387,2.387,0,0,1,1026.589,2724.6Z" transform="translate(-984.073 -2705.832)"/>
    <path id="Path_40102" data-name="Path 40102" class="cls-3" d="M1270.148,2715.83l-35.389,1.5a3.484,3.484,0,0,1-3.471-2.62l-1.715-8.294a2.346,2.346,0,0,1,2.342-2.86l35.476-1.27a3.4,3.4,0,0,1,3.354,2.6l1.649,8.135A2.29,2.29,0,0,1,1270.148,2715.83Z" transform="translate(-1180.044 -2699.078)"/>
    <path id="Path_40103" data-name="Path 40103" class="cls-3" d="M1503,2707.443l-33.851,1.433a3.349,3.349,0,0,1-3.32-2.572l-1.639-8.111a2.277,2.277,0,0,1,2.239-2.793l33.94-1.21a3.28,3.28,0,0,1,3.211,2.548l1.576,7.96a2.235,2.235,0,0,1-2.157,2.745Z" transform="translate(-1367.374 -2692.618)"/>
    <path id="Path_40104" data-name="Path 40104" class="cls-3" d="M1725.778,2699.373l-32.412,1.371a3.226,3.226,0,0,1-3.177-2.518l-1.568-7.938a2.212,2.212,0,0,1,2.143-2.729l32.495-1.165a3.159,3.159,0,0,1,3.074,2.5l1.512,7.792A2.176,2.176,0,0,1,1725.778,2699.373Z" transform="translate(-1546.567 -2686.392)"/>
  </g>
  <path id="Path_40105" data-name="Path 40105" class="cls-39" d="M977.169,2496.72l-17.673.6a6.71,6.71,0,0,1-6.694-5.654l-2.419-17.565a5.148,5.148,0,0,1,5.088-5.98l17.69-.391a6.692,6.692,0,0,1,6.575,5.644l2.4,17.335A5.144,5.144,0,0,1,977.169,2496.72Z" transform="translate(-848.561 -2073.583)"/>
  <path id="Path_40106" data-name="Path 40106" class="cls-40" d="M983.228,2501.844l-15.184.514a6.173,6.173,0,0,1-6.17-5.221l-2.07-15.075a4.755,4.755,0,0,1,4.688-5.521l15.194-.347a6.166,6.166,0,0,1,6.075,5.214l2.064,14.916A4.74,4.74,0,0,1,983.228,2501.844Zm-18.637-24.555a4.082,4.082,0,0,0-4.031,4.755l2.066,15.073a5.317,5.317,0,0,0,5.313,4.493l15.184-.508a4.08,4.08,0,0,0,3.957-4.757l-2.064-14.916a5.311,5.311,0,0,0-5.241-4.493Z" transform="translate(-856.087 -2080.338)"/>
  <path id="Path_40107" data-name="Path 40107" class="cls-3" d="M963.12,2511.935l25.212-.655Z" transform="translate(-858.775 -2108.353)"/>
  <path id="Path_40108" data-name="Path 40108" class="cls-41" d="M988.183,2510.19l-25.21.659-.1-.75,25.21-.649Z" transform="translate(-858.575 -2106.892)"/>
  <path id="Path_40109" data-name="Path 40109" class="cls-3" d="M967,2539.813l25.2-.714Z" transform="translate(-861.872 -2130.565)"/>
  <path id="Path_40110" data-name="Path 40110" class="cls-42" d="M992.049,2538l-25.206.72-.1-.752,25.206-.71Z" transform="translate(-861.665 -2129.096)"/>
  <path id="Path_40111" data-name="Path 40111" class="cls-3" d="M970.86,2567.7l25.2-.776Z" transform="translate(-864.954 -2152.777)"/>
  <path id="Path_40112" data-name="Path 40112" class="cls-43" d="M995.915,2565.832l-25.2.778-.1-.75,25.2-.77Z" transform="translate(-864.755 -2151.317)"/>
  <path id="Path_40113" data-name="Path 40113" class="cls-44" d="M1004.067,2511.432l-7.041.23a3.731,3.731,0,0,1-3.713-3.149l-1.814-13.132a2.864,2.864,0,0,1,2.822-3.33l7.045-.171a3.739,3.739,0,0,1,3.683,3.154l1.8,13.058a2.872,2.872,0,0,1-2.786,3.34Z" transform="translate(-881.403 -2092.863)"/>
  <path id="Path_40114" data-name="Path 40114" class="cls-45" d="M1002.615,2510.332l-7.043.23a4.146,4.146,0,0,1-4.138-3.51l-1.814-13.136a3.189,3.189,0,0,1,3.142-3.711l7.045-.169a4.159,4.159,0,0,1,4.106,3.515l1.814,13.056a3.2,3.2,0,0,1-3.112,3.725Zm-9.746-19.381a2.532,2.532,0,0,0-2.493,2.947l1.814,13.13a3.29,3.29,0,0,0,3.284,2.786l7.041-.228a2.538,2.538,0,0,0,2.469-2.955l-1.814-13.06a3.3,3.3,0,0,0-3.261-2.792Z" transform="translate(-879.898 -2091.39)"/>
  <path id="Path_40115" data-name="Path 40115" class="cls-46" d="M930.534,2732.565c-18.167,3.211-30.011,4.013-44.079.347-19.5-5.083-33.732-16.242-41.765-23.682l7.831,57.265a7.737,7.737,0,0,0,8.063,6.551l217.089-15.107c3.209-.224,5.414-3.265,4.912-6.763l-3.034-21.141c-33.636-18.342-58.515-19.608-75.409-17.079C983.516,2716.037,972.962,2725.057,930.534,2732.565Z" transform="translate(-764.216 -2266.402)"/>
  <g id="Group_34469" data-name="Group 34469" class="cls-47" transform="translate(112.123 466.635)">
    <path id="Path_40116" data-name="Path 40116" class="cls-48" d="M1055.358,2864.182l-50.511,3.1a1.961,1.961,0,0,1-2.016-1.665l-1.1-8.028a1.612,1.612,0,0,1,1.53-1.871l50.531-2.852a1.909,1.909,0,0,1,1.937,1.635l1.091,7.843a1.576,1.576,0,0,1-1.457,1.836Z" transform="translate(-1001.706 -2847.721)"/>
    <path id="Path_40117" data-name="Path 40117" class="cls-49" d="M1464.547,2838.3l-64.014,3.928a1.9,1.9,0,0,1-1.931-1.626l-1.1-7.835a1.561,1.561,0,0,1,1.449-1.814l64.036-3.612a1.832,1.832,0,0,1,1.832,1.588l1.081,7.6A1.5,1.5,0,0,1,1464.547,2838.3Z" transform="translate(-1317.708 -2827.339)"/>
  </g>
  <path id="Path_40118" data-name="Path 40118" class="cls-50" d="M1709.707,2349.491c1.318,9.216-5.515,16.944-15.229,17.256-9.675.312-18.544-6.853-19.84-16.009s5.442-16.861,15.105-17.236C1699.437,2333.124,1708.39,2340.28,1709.707,2349.491Z" transform="translate(-1426.746 -1966.398)"/>
  <g id="Group_34470" data-name="Group 34470" class="cls-51" transform="translate(138.32 394.556)">
    <path id="Path_40119" data-name="Path 40119" class="cls-3" d="M1137.068,2526.046a3.124,3.124,0,0,1-4.215.153,2.7,2.7,0,0,1-.552-3.949,3.125,3.125,0,0,1,4.219-.117A2.7,2.7,0,0,1,1137.068,2526.046Z" transform="translate(-1131.669 -2510.969)"/>
    <path id="Path_40120" data-name="Path 40120" class="cls-3" d="M1194.022,2495.4a1.185,1.185,0,0,1-.806-.258,1.03,1.03,0,0,1-.2-1.476c5.442-6.382,4.066-16.168-3.1-22.136a1.024,1.024,0,0,1-.2-1.475,1.131,1.131,0,0,1,1.546,0c8.051,6.752,9.6,17.784,3.5,24.994A1.007,1.007,0,0,1,1194.022,2495.4Z" transform="translate(-1177.829 -2469.749)"/>
    <path id="Path_40121" data-name="Path 40121" class="cls-3" d="M1179.795,2504.4a1.21,1.21,0,0,1-.822-.264,1.032,1.032,0,0,1-.2-1.488c4.068-4.7,3.054-11.955-2.286-16.349a1.024,1.024,0,0,1-.2-1.486,1.148,1.148,0,0,1,1.566-.016c6.249,5.182,7.458,13.707,2.693,19.254a1.031,1.031,0,0,1-.748.349Z" transform="translate(-1167.102 -2481.521)"/>
    <path id="Path_40122" data-name="Path 40122" class="cls-3" d="M1165.343,2513.527a1.256,1.256,0,0,1-.834-.272,1.036,1.036,0,0,1-.2-1.5c2.643-3,1.99-7.672-1.463-10.481a1.024,1.024,0,0,1-.2-1.5,1.17,1.17,0,0,1,1.588-.026,10.482,10.482,0,0,1,3.862,6.615,8.416,8.416,0,0,1-1.985,6.809A1.054,1.054,0,0,1,1165.343,2513.527Z" transform="translate(-1156.206 -2493.469)"/>
  </g>
  <path id="Path_40123" data-name="Path 40123" class="cls-52" d="M1909.6,652.163l-108.8-6.67a13.735,13.735,0,0,0-14.495,13.952V761.09a14.775,14.775,0,0,0,14.495,14.837l6.047.056v25.033c0,3.751,4.447,5.581,8.119,1.433l22.761-26.174,71.871.218c6.722.064,12.148-5.884,12.148-13.283V666.188C1921.747,658.789,1916.321,652.51,1909.6,652.163Z" transform="translate(-1516.028 -618.633)"/>
  <path id="Path_40124" data-name="Path 40124" class="cls-53" d="M1926.711,763.337l-108.806-.566a14.777,14.777,0,0,1-14.495-14.837V646.289a13.739,13.739,0,0,1,14.495-13.955l108.806,6.672c6.72.347,12.146,6.626,12.146,14.023v97.025C1938.857,757.453,1933.431,763.4,1926.711,763.337Z" transform="translate(-1529.689 -608.126)"/>
  <path id="Path_40125" data-name="Path 40125" class="cls-54" d="M1824,766.687V659.824a7.319,7.319,0,0,1,7.722-7.436l113.66,6.579c3.582.179,6.476,3.525,6.476,7.474V768.469c0,3.949-2.894,7.117-6.476,7.079l-113.66-.953A7.873,7.873,0,0,1,1824,766.687Z" transform="translate(-1546.129 -624.145)"/>
  <path id="Path_40126" data-name="Path 40126" class="cls-6" d="M2090.291,838.079a7.072,7.072,0,0,0-1.389-4.61,13.46,13.46,0,0,0-4.892-3.277q-3.507-1.578-6.488-3.185a23.578,23.578,0,0,1-5.144-3.677,14.445,14.445,0,0,1-3.32-4.745,16.148,16.148,0,0,1-1.155-6.426,13.416,13.416,0,0,1,4.114-10.187,16.627,16.627,0,0,1,10.923-4.293v-7.8l5.68.24v7.93a16.464,16.464,0,0,1,10.217,5.936,18.2,18.2,0,0,1,3.7,11.653l-11.99-.4a10.587,10.587,0,0,0-1.425-5.948,4.851,4.851,0,0,0-4.07-2.217,4.386,4.386,0,0,0-3.668,1.411,6.146,6.146,0,0,0-1.308,4.189,6.29,6.29,0,0,0,1.506,4.4,15.4,15.4,0,0,0,4.838,3.225q3.316,1.562,6.249,3.225a24.81,24.81,0,0,1,5.059,3.7,15.118,15.118,0,0,1,3.328,4.729,15.43,15.43,0,0,1,1.209,6.388,13.838,13.838,0,0,1-3.83,10.159q-3.83,3.88-10.506,4.408v7.416l-5.682-.107v-7.458q-7.819-1.02-12.026-5.805t-4.209-12.5l12.146.331q0,4.221,1.814,6.468a6.435,6.435,0,0,0,5.138,2.326,4.844,4.844,0,0,0,3.82-1.411A5.563,5.563,0,0,0,2090.291,838.079Z" transform="translate(-1739.358 -733.931)"/>
  <path id="Path_40127" data-name="Path 40127" class="cls-6" d="M2013.793,730.994a1.24,1.24,0,0,1,1.145,1.25V813.2a1.151,1.151,0,0,1-1.145,1.179l-79.417-1.318a1.246,1.246,0,0,1-1.209-1.252V728.646a1.157,1.157,0,0,1,1.209-1.177Zm0-4.59-79.417-3.648a5.588,5.588,0,0,0-5.846,5.686V811.73a6.017,6.017,0,0,0,5.846,6.047l79.417,1.2a5.55,5.55,0,0,0,5.521-5.694V732.449a5.976,5.976,0,0,0-5.521-6.031Z" transform="translate(-1629.589 -680.333)"/>
  <path id="Path_40128" data-name="Path 40128" class="cls-55" d="M1905.35,1284.443V1254.26l35.274.391-28.274,32.495A4,4,0,0,1,1905.35,1284.443Z" transform="translate(-1611.081 -1104.707)"/>
</svg>
