<svg xmlns="http://www.w3.org/2000/svg" xmlns:xlink="http://www.w3.org/1999/xlink" width="631.194" height="605.173" viewBox="0 0 631.194 605.173"><defs><style>.cls-1{fill:#f4f7fa}.cls-2,.cls-3{fill:url(#linear-gradient)}.cls-17,.cls-20,.cls-3{opacity:.3}.cls-4{fill:url(#linear-gradient-3)}.cls-5,.cls-8{opacity:.2}.cls-5{fill:url(#linear-gradient-4)}.cls-6,.cls-8{fill:url(#linear-gradient-5)}.cls-7{fill:url(#linear-gradient-6)}.cls-9{opacity:.9}.cls-10{fill:url(#linear-gradient-8)}.cls-11{fill:url(#linear-gradient-9)}.cls-12{fill:url(#linear-gradient-10)}.cls-13{fill:url(#linear-gradient-11)}.cls-14{fill:url(#linear-gradient-12)}.cls-15{fill:url(#linear-gradient-13)}.cls-16{fill:url(#linear-gradient-14)}.cls-17{fill:url(#linear-gradient-15)}.cls-18{fill:url(#linear-gradient-16)}.cls-19{fill:url(#linear-gradient-17)}.cls-21{fill:url(#linear-gradient-18)}.cls-22{fill:url(#linear-gradient-19)}.cls-23{fill:url(#linear-gradient-20)}.cls-24{fill:url(#linear-gradient-21)}.cls-25{fill:url(#linear-gradient-22)}</style><linearGradient id="linear-gradient" x2="1" y1=".5" y2=".5" gradientUnits="objectBoundingBox"><stop offset="0" stop-color="#6165d7"/><stop offset="1" stop-color="#aa80f9"/></linearGradient><linearGradient id="linear-gradient-3" x1=".51" x2=".227" y1=".215" y2="1.882" xlink:href="#linear-gradient"/><linearGradient id="linear-gradient-4" x1=".51" x2=".227" y1=".215" y2="1.882" xlink:href="#linear-gradient"/><linearGradient id="linear-gradient-5" x1="0" x2="1" y1=".5" y2=".5" xlink:href="#linear-gradient"/><linearGradient id="linear-gradient-6" x2="1" y1=".5" y2=".5" gradientUnits="objectBoundingBox"><stop offset="0" stop-color="#444b8c"/><stop offset="1" stop-color="#26264f"/></linearGradient><linearGradient id="linear-gradient-8" x1=".273" x2=".677" y1=".017" y2="1.045" gradientUnits="objectBoundingBox"><stop offset="0" stop-color="#ebeff2"/><stop offset="1" stop-color="#fff"/></linearGradient><linearGradient id="linear-gradient-9" x1="-7.97" x2="-9" y1=".152" y2=".697" gradientUnits="objectBoundingBox"><stop offset="0" stop-color="#311944"/><stop offset="1" stop-color="#6b3976"/></linearGradient><linearGradient id="linear-gradient-10" x1="-31.063" x2="-30.063" y1=".5" y2=".5" xlink:href="#linear-gradient-6"/><linearGradient id="linear-gradient-11" x1="-78.775" x2="-79.884" y1="-2.256" y2=".295" gradientUnits="objectBoundingBox"><stop offset="0" stop-color="#311944"/><stop offset="1" stop-color="#a03976"/></linearGradient><linearGradient id="linear-gradient-12" x1="-57.845" x2="-56.845" y1=".5" y2=".5" xlink:href="#linear-gradient-6"/><linearGradient id="linear-gradient-13" x1="-80.955" x2="-81.891" y1="-3.923" y2="-1.011" xlink:href="#linear-gradient-11"/><linearGradient id="linear-gradient-14" x1="-15.124" x2="-15.398" y1="1.014" y2=".29" xlink:href="#linear-gradient-6"/><linearGradient id="linear-gradient-15" x1="-17.642" x2="-17.958" y1="1.015" y2=".291" xlink:href="#linear-gradient-6"/><linearGradient id="linear-gradient-16" x1="-8.802" x2="-8.947" y1="1.092" y2=".321" xlink:href="#linear-gradient-6"/><linearGradient id="linear-gradient-17" x1="-6.162" x2="-7.108" y1="-.088" y2=".993" gradientUnits="objectBoundingBox"><stop offset="0" stop-color="#ffc444"/><stop offset="1" stop-color="#f36f56"/></linearGradient><linearGradient id="linear-gradient-18" x1="-10.195" x2="-11.764" y1="-.091" y2="1.144" xlink:href="#linear-gradient-17"/><linearGradient id="linear-gradient-19" x1="-13.785" x2="-14.342" y1="2.267" y2="-.442" xlink:href="#linear-gradient-11"/><linearGradient id="linear-gradient-20" x1="-19.646" x2="-24.367" y1="-8.115" y2="-4.556" xlink:href="#linear-gradient-11"/><linearGradient id="linear-gradient-21" x1="-51.497" x2="-51.753" y1="2.317" y2="-.481" xlink:href="#linear-gradient-11"/><linearGradient id="linear-gradient-22" x1="-7.156" x2="-8.258" y1=".105" y2="2.911" xlink:href="#linear-gradient-17"/></defs><g id="bursary" transform="translate(0.008 0.001)"><g id="Illustration" transform="translate(-0.008 -0.001)"><path id="Path_40702" d="M740.946,455.137c-161.585-4.705-301.546,110.919-322.7,262.634-23.126,165.878,104.133,315.122,260.712,339.035,194.759,29.733,383.664-142.278,366.693-328.887C1032.883,587.326,905.2,459.92,740.946,455.137Z" class="cls-1" data-name="Path 40702" transform="translate(-415.522 -454.999)"/><path id="Path_40703" d="M1029.019,1563.559q-2.183.093-4.178.093c-52.736,0-185.71,10.191-224.994-103.984C763.753,1354.8,898.323,1194.017,920.5,1168.509c1.971-2.269,3.054-3.458,3.054-3.458s-5.859-4.323,112.752-8.881c136.218,104.47,157.745,187.171,157.745,187.171C1237.39,1512.789,1085.523,1561.238,1029.019,1563.559Z" class="cls-2" data-name="Path 40703" transform="translate(-711.989 -1004.624)"/><path id="Path_40704" d="M1029.019,1606.519q-2.183.093-4.178.093c-52.736,0-185.71,10.191-224.994-103.984-36.094-104.863,98.477-265.651,120.654-291.159a35.783,35.783,0,0,1,16.277,1C938.762,1213.088,660.653,1568.962,1029.019,1606.519Z" class="cls-3" data-name="Path 40704" transform="translate(-711.989 -1047.584)"/><path id="Path_40705" d="M1290.06,685.408s22.121-37.62,53.35-23.759S1399.8,685.9,1416.279,676s25.106-17.747,29.686,4-57.878,75.2-57.878,75.2S1292.662,755.2,1290.06,685.408Z" class="cls-4" data-name="Path 40705" transform="translate(-1101.044 -614.581)"/><path id="Path_40706" d="M1290.06,761.768s22.121-37.62,53.35-23.759,56.387,24.254,72.869,14.356,25.106-17.747,29.686,3.988-57.878,75.214-57.878,75.214S1292.662,831.566,1290.06,761.768Z" class="cls-5" data-name="Path 40706" transform="translate(-1101.044 -674.437)"/><path id="Path_40707" d="M1400.937,770.776c-8.851,13.152-19.175,24.423-28.264,29.068-11.4,5.816-31.7,9.346-51.915,10.82s-40.382.878-51.44-1.537h-.022a24.965,24.965,0,0,1-6.4-2.125s-35.742-56.752-36.256-83.231c-.177-8.408,3.207-13.761,12.4-13.286,38.176,1.969,39.042,23.26,65.056,17.319s45.107-45.541,62.462-19.8,36-10.891,51.617.992C1428.251,716.655,1417.047,746.824,1400.937,770.776Z" class="cls-6" data-name="Path 40707" transform="translate(-1051.323 -646.573)"/><path id="Path_40708" d="M1374.451,1158.342s70.243,20.135,116.191-6.372a43.577,43.577,0,0,0,6.013,6.607s-33.749,30.816-125.035,8.812C1371.62,1167.389,1373.838,1160.866,1374.451,1158.342Z" class="cls-7" data-name="Path 40708" transform="translate(-1164.976 -1001.332)"/><path id="Path_40709" d="M1400.96,845.189c-8.851,13.152-19.175,24.423-28.264,29.068-11.4,5.816-31.7,9.346-51.915,10.82l-51.44-1.537h-.022a24.963,24.963,0,0,1-6.4-2.125s-35.742-56.752-36.256-83.231c.432-.465,14.481-15.309,31.324,16.515,17.124,32.316,23.312,60.487,43.592,46.922s51.574-66.874,57.083-41.776-14.792,49.244,0,45.252C1370.192,861.981,1392.41,844.755,1400.96,845.189Z" class="cls-8" data-name="Path 40709" transform="translate(-1051.346 -720.986)"/><g id="Group_34483" class="cls-9" data-name="Group 34483" transform="translate(227.043 245.601)"><path id="Path_40710" d="M1539.008,1591.349h0c4.323-.153,7.962,2.831,8.127,6.67l.566,13.134a242.817,242.817,0,0,1,26.092.813q9.633.817,19.158,2.4c3.8.633,6.529,3.674,6.324,7.167l-.979,16.785c-.261,4.47-5.042,7.679-9.765,6.426a111.249,111.249,0,0,0-12.968-2.622,126.852,126.852,0,0,0-24.349-.985l-2.228.115,1.63,38.387c23.033,2.743,40.078,8.213,51.323,16.426q16.807,12.274,17.961,33.911c.849,15.711-4.411,29.178-15.881,40.417-11.6,11.373-28.357,19.236-50.413,23.537l.648,15.538c.173,4.141-3.32,7.891-7.815,8.373l-.145.015c-4.509.482-8.306-2.505-8.468-6.668l-.605-15.358-3.616.361a261.22,261.22,0,0,1-30.174,1.331,206.452,206.452,0,0,1-21.017-1.4c-4.15-.495-7.078-3.633-6.81-7.476l1.6-22.951c.344-4.939,5.717-8.511,10.932-7.39a165.509,165.509,0,0,0,18.406,2.881,171.8,171.8,0,0,0,29.178.387l-1.586-43.979c-22.355-1.969-39.252-7.037-50.512-15.209q-16.956-12.3-17.589-34.661c-.432-15.315,5.187-27.814,16.757-37.479,11.444-9.566,27.881-15.609,49.162-18.175l-.534-13.459C1531.261,1594.754,1534.666,1591.505,1539.008,1591.349Zm-5.836,51.476q-10.106,1.911-15.624,6.888a15.13,15.13,0,0,0-5.276,12.255,13.317,13.317,0,0,0,5.7,10.843q5.451,3.96,16.6,5.3Zm17.258,76.124,1.7,40.248q11.187-1.513,16.934-7.156a17.958,17.958,0,0,0,5.323-14.36,15.922,15.922,0,0,0-6.112-12.449q-5.743-4.489-17.846-6.283Z" class="cls-10" data-name="Path 40710" transform="translate(-1466.003 -1591.344)"/></g><path id="Path_40711" d="M2668.677,1611.992c-.9-6.722-1.392-10.876,1.206-14.168,5.812-7.366,23.861-6.331,34.365,2.41,7.768,6.462,5,11.8,12.173,17.325,10.316,7.945,19.761-.787,34.856,4.984,11.93,4.56,25.372,16.288,27.133,32.258.929,8.429-1.031,21.376-9.942,27.9-12.488,9.136-30.455-.281-33.178,5.384-2.875,5.974,17.25,16.182,15.155,28.192-1.487,8.533-13.413,13.523-20.262,15.1-16.426,3.778-36.228-4.578-46.425-18.994-11.092-15.678.6-22.385-9.346-61.2C2673.345,1647.042,2671.789,1635.36,2668.677,1611.992Z" class="cls-11" data-name="Path 40711" transform="translate(-2181.131 -1346.978)"/><path id="Path_40712" d="M2495,3170.69a24.142,24.142,0,0,1,1.753,6.039,4.188,4.188,0,0,1-3.687,4.629c-5.619.648-15.778,1.686-21.894,1.584-7.781-.13,9.992-9.562,14.295-11.786a4.158,4.158,0,0,1,1.921-.467Z" class="cls-12" data-name="Path 40712" transform="translate(-2025.352 -2583.74)"/><path id="Path_40713" d="M2543.009,3116.638c.823.348,1.182,11.5,1.182,11.5s-3.627,2.148-6.024.759L2533.4,3115Z" class="cls-13" data-name="Path 40713" transform="translate(-2075.657 -2540.086)"/><path id="Path_40714" d="M2991.955,3098.5a5.444,5.444,0,0,1,2.429,6.62c-1.435,3.891-3.746,9.378-6.233,12.268-2.68,3.115-7.416,3.138-10.387,2.78a1.681,1.681,0,0,1-1.173-2.624,71.768,71.768,0,0,0,4.539-7.249c1.589-3.188,5.321-14.928,5.321-14.928Z" class="cls-14" data-name="Path 40714" transform="translate(-2422.826 -2524.699)"/><path id="Path_40715" d="M2981.194,3058.26l5.892,9.33a2.119,2.119,0,0,1-.344,2.68h0a2.12,2.12,0,0,1-2.922-.024l-9.19-8.879Z" class="cls-15" data-name="Path 40715" transform="translate(-2421.523 -2495.61)"/><path id="Path_40716" d="M2448.64,2224.133c-20.98,10.139-17.317,57.491-14.012,100.225a516.578,516.578,0,0,0,16.988,97.085l16.072.594a212.593,212.593,0,0,0,3.571-41.673c-.37-27.4-5.963-43.211-8.036-57.733-2.885-20.215-.648-49.784,23.213-89.578C2465.764,2219.8,2454.586,2221.259,2448.64,2224.133Z" class="cls-16" data-name="Path 40716" transform="translate(-1996.234 -1840.249)"/><path id="Path_40717" d="M2488.576,2372.049c-5.483-21.166-14.126-28.013-14.881-50.891-.765-23.237,7.642-31.631,5.358-52.378-1.591-14.444-7.429-26.351-13.493-35.357a21.593,21.593,0,0,1,9.326-9.283c5.946-2.875,17.124-4.323,37.795,8.928-23.856,39.794-26.1,69.364-23.212,89.578,2.073,14.522,7.666,30.332,8.036,57.733a212.582,212.582,0,0,1-3.57,41.664l-3.689-.136C2493.707,2400.771,2491.749,2384.3,2488.576,2372.049Z" class="cls-17" data-name="Path 40717" transform="translate(-2022.48 -1840.256)"/><path id="Path_40718" d="M2599.312,2238c.917,11.4,2.1,25.61,3.573,41.962,3.372,37.564,4.413,43.875,7.738,52.378,6.4,16.359,12.607,18.661,24.105,38.392a188.681,188.681,0,0,1,19.344,46.724l-10.119,8.332a272.977,272.977,0,0,1-92.552-181.238Z" class="cls-18" data-name="Path 40718" transform="translate(-2089.767 -1852.635)"/><path id="Path_40719" d="M2464.464,1795.44c7.143,5.751,7.145,16.575,7.147,27.576,0,11.805-2.44,17.578-3.977,26.258-.83,4.679-4.911,30.053,5.483,51.224,9.942,20.243,24.542,19.184,31.216,40.367,3.231,10.26,3.953,23.669-1.068,26.258-5.63,2.9-12.622-10.807-31.084-17.074-16.257-5.516-17.6,2.825-35.543-1.919-18.728-4.952-19.86-14.721-46.125-23.818-5.3-1.833-7.349-2.161-9.045-4.521-6.756-9.41,11.753-24.017,20.4-52.994,8.4-28.16-1.061-41.251,12.767-57.346a48.314,48.314,0,0,1,18.389-12.968C2437.9,1794.469,2454.653,1787.54,2464.464,1795.44Z" class="cls-19" data-name="Path 40719" transform="translate(-1955.424 -1502.833)"/><g id="Group_34484" class="cls-20" data-name="Group 34484" transform="translate(424.591 288.921)"><path id="Path_40720" d="M2401.865,1866.82c8.4-28.16-1.061-41.251,12.767-57.347a48.314,48.314,0,0,1,18.389-12.968c3.711-1.535,14.28-5.9,23.448-4.437-3.726,4.841-7.705,10.441-11.691,16.8-11.427,18.231-17.142,27.345-18.088,38.59-1.984,23.587,15.832,31.685,10.854,51.852-3.458,14.008-13.331,15.289-15.075,25.936-.877,5.358.484,12.028,6.659,20.317-12.151-5.334-16.368-13.521-38.614-21.226-5.3-1.833-7.349-2.161-9.045-4.521C2374.712,1910.4,2393.222,1895.792,2401.865,1866.82Z" class="cls-21" data-name="Path 40720" transform="translate(-2380.015 -1791.773)"/></g><path id="Path_40721" d="M2599.991,1709s1.729,13.886,6.86,17.074,2.315,6.326,3.227,7.454-15.129,8.062-31.32-.106l-6.759-4.755c5.328.022,12.164-.359,14.872-1.9a23.278,23.278,0,0,0,7.537-6.97l-.061-7.688Z" class="cls-22" data-name="Path 40721" transform="translate(-2105.914 -1437.969)"/><path id="Path_40722" d="M2653.41,1664.662s-6.162,5.5-13.035,1.174c-6.153-3.873,1.55-20.265,7.271-21.09a9.583,9.583,0,0,1,6.968,2.535c1.319,1.282,4.3,7.219.746,12.386,1.792-.125,3.182.648,3.374,1.554.244,1.161-1.5,2.3-1.891,2.555a5.8,5.8,0,0,1-3.432.886Z" class="cls-23" data-name="Path 40722" transform="translate(-2157.733 -1387.567)"/><path id="Path_40723" d="M2243.186,1567.072a26.052,26.052,0,0,1-.043-8.522c.759-3.551,1.766-8.786-.346-4.971s-3.651,6.268-7.1,2.929-2.849-7.063-3.854-6.8-3.819,6.618,0,10.673,8.252,8.278,8.252,8.278Z" class="cls-24" data-name="Path 40723" transform="translate(-1837.751 -1313.092)"/><path id="Path_40724" d="M2368.626,1665.9c.648,7.889-8.241,14.364-9.974,15.624-16.623,12.1-52.233,3.514-74.438-16.83-15.14-13.874-21.557-30.933-24.423-42.509l8.3-2.8c11.695,19.815,24.138,26.969,33,29.932,23.558,7.876,49.2-4.712,62.707,7.932C2365.077,1658.445,2368.261,1661.508,2368.626,1665.9Z" class="cls-25" data-name="Path 40724" transform="translate(-1861.183 -1367.727)"/></g></g></svg>