<svg xmlns="http://www.w3.org/2000/svg" id="Check_elements" width="292" height="346" data-name="Check elements" viewBox="0 0 292 346"><g id="Group_97" data-name="Group 97"><rect id="Rectangle_86" width="6" height="6" fill="#8e8efa" data-name="Rectangle 86" transform="translate(286)"/><rect id="Rectangle_87" width="6" height="6" fill="#8e8efa" data-name="Rectangle 87" transform="translate(264)"/><rect id="Rectangle_88" width="6" height="6" fill="#8e8efa" data-name="Rectangle 88" transform="translate(242)"/><rect id="Rectangle_89" width="6" height="6" fill="#8e8efa" data-name="Rectangle 89" transform="translate(220)"/><rect id="Rectangle_90" width="6" height="6" fill="#8e8efa" data-name="Rectangle 90" transform="translate(198)"/><rect id="Rectangle_91" width="6" height="6" fill="#8e8efa" data-name="Rectangle 91" transform="translate(176)"/><rect id="Rectangle_92" width="6" height="6" fill="#8e8efa" data-name="Rectangle 92" transform="translate(154)"/><rect id="Rectangle_93" width="6" height="6" fill="#8e8efa" data-name="Rectangle 93" transform="translate(132)"/><rect id="Rectangle_94" width="6" height="6" fill="#8e8efa" data-name="Rectangle 94" transform="translate(111)"/><rect id="Rectangle_95" width="6" height="6" fill="#8e8efa" data-name="Rectangle 95" transform="translate(88)"/><rect id="Rectangle_96" width="6" height="6" fill="#8e8efa" data-name="Rectangle 96" transform="translate(66)"/><rect id="Rectangle_97" width="6" height="6" fill="#8e8efa" data-name="Rectangle 97" transform="translate(44)"/><rect id="Rectangle_98" width="6" height="6" fill="#8e8efa" data-name="Rectangle 98" transform="translate(22)"/><rect id="Rectangle_99" width="6" height="6" fill="#8e8efa" data-name="Rectangle 99"/></g><g id="Group_106" data-name="Group 106" transform="translate(0 89.255)"><rect id="Rectangle_86-2" width="6" height="6" fill="#8e8efa" data-name="Rectangle 86" transform="translate(286 -0.255)"/><rect id="Rectangle_87-2" width="6" height="6" fill="#8e8efa" data-name="Rectangle 87" transform="translate(264 -0.255)"/><rect id="Rectangle_88-2" width="6" height="6" fill="#8e8efa" data-name="Rectangle 88" transform="translate(242 -0.255)"/><rect id="Rectangle_89-2" width="6" height="6" fill="#8e8efa" data-name="Rectangle 89" transform="translate(220 -0.255)"/><rect id="Rectangle_90-2" width="6" height="6" fill="#8e8efa" data-name="Rectangle 90" transform="translate(198 -0.255)"/><rect id="Rectangle_91-2" width="6" height="6" fill="#8e8efa" data-name="Rectangle 91" transform="translate(176 -0.255)"/><rect id="Rectangle_92-2" width="6" height="6" fill="#8e8efa" data-name="Rectangle 92" transform="translate(154 -0.255)"/><rect id="Rectangle_93-2" width="6" height="6" fill="#8e8efa" data-name="Rectangle 93" transform="translate(132 -0.255)"/><rect id="Rectangle_94-2" width="6" height="6" fill="#8e8efa" data-name="Rectangle 94" transform="translate(111 -0.255)"/><rect id="Rectangle_95-2" width="6" height="6" fill="#8e8efa" data-name="Rectangle 95" transform="translate(88 -0.255)"/><rect id="Rectangle_96-2" width="6" height="6" fill="#8e8efa" data-name="Rectangle 96" transform="translate(66 -0.255)"/><rect id="Rectangle_97-2" width="6" height="6" fill="#8e8efa" data-name="Rectangle 97" transform="translate(44 -0.255)"/><rect id="Rectangle_98-2" width="6" height="6" fill="#8e8efa" data-name="Rectangle 98" transform="translate(22 -0.255)"/><rect id="Rectangle_99-2" width="6" height="6" fill="#8e8efa" data-name="Rectangle 99" transform="translate(0 -0.255)"/></g><g id="Group_111" data-name="Group 111" transform="translate(0 178.51)"><rect id="Rectangle_86-3" width="6" height="5" fill="#8e8efa" data-name="Rectangle 86" transform="translate(286 0.49)"/><rect id="Rectangle_87-3" width="6" height="5" fill="#8e8efa" data-name="Rectangle 87" transform="translate(264 0.49)"/><rect id="Rectangle_88-3" width="6" height="5" fill="#8e8efa" data-name="Rectangle 88" transform="translate(242 0.49)"/><rect id="Rectangle_89-3" width="6" height="5" fill="#8e8efa" data-name="Rectangle 89" transform="translate(220 0.49)"/><rect id="Rectangle_90-3" width="6" height="5" fill="#8e8efa" data-name="Rectangle 90" transform="translate(198 0.49)"/><rect id="Rectangle_91-3" width="6" height="5" fill="#8e8efa" data-name="Rectangle 91" transform="translate(176 0.49)"/><rect id="Rectangle_92-3" width="6" height="5" fill="#8e8efa" data-name="Rectangle 92" transform="translate(154 0.49)"/><rect id="Rectangle_93-3" width="6" height="5" fill="#8e8efa" data-name="Rectangle 93" transform="translate(132 0.49)"/><rect id="Rectangle_94-3" width="6" height="5" fill="#8e8efa" data-name="Rectangle 94" transform="translate(111 0.49)"/><rect id="Rectangle_95-3" width="6" height="5" fill="#8e8efa" data-name="Rectangle 95" transform="translate(88 0.49)"/><rect id="Rectangle_96-3" width="6" height="5" fill="#8e8efa" data-name="Rectangle 96" transform="translate(66 0.49)"/><rect id="Rectangle_97-3" width="6" height="5" fill="#8e8efa" data-name="Rectangle 97" transform="translate(44 0.49)"/><rect id="Rectangle_98-3" width="6" height="5" fill="#8e8efa" data-name="Rectangle 98" transform="translate(22 0.49)"/><rect id="Rectangle_99-3" width="6" height="5" fill="#8e8efa" data-name="Rectangle 99" transform="translate(0 0.49)"/></g><g id="Group_116" data-name="Group 116" transform="translate(0 268.866)"><rect id="Rectangle_86-4" width="6" height="5" fill="#8e8efa" data-name="Rectangle 86" transform="translate(286 0.134)"/><rect id="Rectangle_87-4" width="6" height="5" fill="#8e8efa" data-name="Rectangle 87" transform="translate(264 0.134)"/><rect id="Rectangle_88-4" width="6" height="5" fill="#8e8efa" data-name="Rectangle 88" transform="translate(242 0.134)"/><rect id="Rectangle_89-4" width="6" height="5" fill="#8e8efa" data-name="Rectangle 89" transform="translate(220 0.134)"/><rect id="Rectangle_90-4" width="6" height="5" fill="#8e8efa" data-name="Rectangle 90" transform="translate(198 0.134)"/><rect id="Rectangle_91-4" width="6" height="5" fill="#8e8efa" data-name="Rectangle 91" transform="translate(176 0.134)"/><rect id="Rectangle_92-4" width="6" height="5" fill="#8e8efa" data-name="Rectangle 92" transform="translate(154 0.134)"/><rect id="Rectangle_93-4" width="6" height="5" fill="#8e8efa" data-name="Rectangle 93" transform="translate(132 0.134)"/><rect id="Rectangle_94-4" width="6" height="5" fill="#8e8efa" data-name="Rectangle 94" transform="translate(111 0.134)"/><rect id="Rectangle_95-4" width="6" height="5" fill="#8e8efa" data-name="Rectangle 95" transform="translate(88 0.134)"/><rect id="Rectangle_96-4" width="6" height="5" fill="#8e8efa" data-name="Rectangle 96" transform="translate(66 0.134)"/><rect id="Rectangle_97-4" width="6" height="5" fill="#8e8efa" data-name="Rectangle 97" transform="translate(44 0.134)"/><rect id="Rectangle_98-4" width="6" height="5" fill="#8e8efa" data-name="Rectangle 98" transform="translate(22 0.134)"/><rect id="Rectangle_99-4" width="6" height="5" fill="#8e8efa" data-name="Rectangle 99" transform="translate(0 0.134)"/></g><g id="Group_98" data-name="Group 98" transform="translate(0 17.63)"><rect id="Rectangle_86-5" width="6" height="5" fill="#8e8efa" data-name="Rectangle 86" transform="translate(286 0.37)"/><rect id="Rectangle_87-5" width="6" height="5" fill="#8e8efa" data-name="Rectangle 87" transform="translate(264 0.37)"/><rect id="Rectangle_88-5" width="6" height="5" fill="#8e8efa" data-name="Rectangle 88" transform="translate(242 0.37)"/><rect id="Rectangle_89-5" width="6" height="5" fill="#8e8efa" data-name="Rectangle 89" transform="translate(220 0.37)"/><rect id="Rectangle_90-5" width="6" height="5" fill="#8e8efa" data-name="Rectangle 90" transform="translate(198 0.37)"/><rect id="Rectangle_91-5" width="6" height="5" fill="#8e8efa" data-name="Rectangle 91" transform="translate(176 0.37)"/><rect id="Rectangle_92-5" width="6" height="5" fill="#8e8efa" data-name="Rectangle 92" transform="translate(154 0.37)"/><rect id="Rectangle_93-5" width="6" height="5" fill="#8e8efa" data-name="Rectangle 93" transform="translate(132 0.37)"/><rect id="Rectangle_94-5" width="6" height="5" fill="#8e8efa" data-name="Rectangle 94" transform="translate(111 0.37)"/><rect id="Rectangle_95-5" width="6" height="5" fill="#8e8efa" data-name="Rectangle 95" transform="translate(88 0.37)"/><rect id="Rectangle_96-5" width="6" height="5" fill="#8e8efa" data-name="Rectangle 96" transform="translate(66 0.37)"/><rect id="Rectangle_97-5" width="6" height="5" fill="#8e8efa" data-name="Rectangle 97" transform="translate(44 0.37)"/><rect id="Rectangle_98-5" width="6" height="5" fill="#8e8efa" data-name="Rectangle 98" transform="translate(22 0.37)"/><rect id="Rectangle_99-5" width="6" height="5" fill="#8e8efa" data-name="Rectangle 99" transform="translate(0 0.37)"/></g><g id="Group_105" data-name="Group 105" transform="translate(0 107.987)"><rect id="Rectangle_86-6" width="6" height="5" fill="#8e8efa" data-name="Rectangle 86" transform="translate(286 0.013)"/><rect id="Rectangle_87-6" width="6" height="5" fill="#8e8efa" data-name="Rectangle 87" transform="translate(264 0.013)"/><rect id="Rectangle_88-6" width="6" height="5" fill="#8e8efa" data-name="Rectangle 88" transform="translate(242 0.013)"/><rect id="Rectangle_89-6" width="6" height="5" fill="#8e8efa" data-name="Rectangle 89" transform="translate(220 0.013)"/><rect id="Rectangle_90-6" width="6" height="5" fill="#8e8efa" data-name="Rectangle 90" transform="translate(198 0.013)"/><rect id="Rectangle_91-6" width="6" height="5" fill="#8e8efa" data-name="Rectangle 91" transform="translate(176 0.013)"/><rect id="Rectangle_92-6" width="6" height="5" fill="#8e8efa" data-name="Rectangle 92" transform="translate(154 0.013)"/><rect id="Rectangle_93-6" width="6" height="5" fill="#8e8efa" data-name="Rectangle 93" transform="translate(132 0.013)"/><rect id="Rectangle_94-6" width="6" height="5" fill="#8e8efa" data-name="Rectangle 94" transform="translate(111 0.013)"/><rect id="Rectangle_95-6" width="6" height="5" fill="#8e8efa" data-name="Rectangle 95" transform="translate(88 0.013)"/><rect id="Rectangle_96-6" width="6" height="5" fill="#8e8efa" data-name="Rectangle 96" transform="translate(66 0.013)"/><rect id="Rectangle_97-6" width="6" height="5" fill="#8e8efa" data-name="Rectangle 97" transform="translate(44 0.013)"/><rect id="Rectangle_98-6" width="6" height="5" fill="#8e8efa" data-name="Rectangle 98" transform="translate(22 0.013)"/><rect id="Rectangle_99-6" width="6" height="5" fill="#8e8efa" data-name="Rectangle 99" transform="translate(0 0.013)"/></g><g id="Group_110" data-name="Group 110" transform="translate(0 197.242)"><rect id="Rectangle_86-7" width="6" height="6" fill="#8e8efa" data-name="Rectangle 86" transform="translate(286 -0.242)"/><rect id="Rectangle_87-7" width="6" height="6" fill="#8e8efa" data-name="Rectangle 87" transform="translate(264 -0.242)"/><rect id="Rectangle_88-7" width="6" height="6" fill="#8e8efa" data-name="Rectangle 88" transform="translate(242 -0.242)"/><rect id="Rectangle_89-7" width="6" height="6" fill="#8e8efa" data-name="Rectangle 89" transform="translate(220 -0.242)"/><rect id="Rectangle_90-7" width="6" height="6" fill="#8e8efa" data-name="Rectangle 90" transform="translate(198 -0.242)"/><rect id="Rectangle_91-7" width="6" height="6" fill="#8e8efa" data-name="Rectangle 91" transform="translate(176 -0.242)"/><rect id="Rectangle_92-7" width="6" height="6" fill="#8e8efa" data-name="Rectangle 92" transform="translate(154 -0.242)"/><rect id="Rectangle_93-7" width="6" height="6" fill="#8e8efa" data-name="Rectangle 93" transform="translate(132 -0.242)"/><rect id="Rectangle_94-7" width="6" height="6" fill="#8e8efa" data-name="Rectangle 94" transform="translate(111 -0.242)"/><rect id="Rectangle_95-7" width="6" height="6" fill="#8e8efa" data-name="Rectangle 95" transform="translate(88 -0.242)"/><rect id="Rectangle_96-7" width="6" height="6" fill="#8e8efa" data-name="Rectangle 96" transform="translate(66 -0.242)"/><rect id="Rectangle_97-7" width="6" height="6" fill="#8e8efa" data-name="Rectangle 97" transform="translate(44 -0.242)"/><rect id="Rectangle_98-7" width="6" height="6" fill="#8e8efa" data-name="Rectangle 98" transform="translate(22 -0.242)"/><rect id="Rectangle_99-7" width="6" height="6" fill="#8e8efa" data-name="Rectangle 99" transform="translate(0 -0.242)"/></g><g id="Group_115" data-name="Group 115" transform="translate(0 286.497)"><rect id="Rectangle_86-8" width="6" height="6" fill="#8e8efa" data-name="Rectangle 86" transform="translate(286 -0.497)"/><rect id="Rectangle_87-8" width="6" height="6" fill="#8e8efa" data-name="Rectangle 87" transform="translate(264 -0.497)"/><rect id="Rectangle_88-8" width="6" height="6" fill="#8e8efa" data-name="Rectangle 88" transform="translate(242 -0.497)"/><rect id="Rectangle_89-8" width="6" height="6" fill="#8e8efa" data-name="Rectangle 89" transform="translate(220 -0.497)"/><rect id="Rectangle_90-8" width="6" height="6" fill="#8e8efa" data-name="Rectangle 90" transform="translate(198 -0.497)"/><rect id="Rectangle_91-8" width="6" height="6" fill="#8e8efa" data-name="Rectangle 91" transform="translate(176 -0.497)"/><rect id="Rectangle_92-8" width="6" height="6" fill="#8e8efa" data-name="Rectangle 92" transform="translate(154 -0.497)"/><rect id="Rectangle_93-8" width="6" height="6" fill="#8e8efa" data-name="Rectangle 93" transform="translate(132 -0.497)"/><rect id="Rectangle_94-8" width="6" height="6" fill="#8e8efa" data-name="Rectangle 94" transform="translate(111 -0.497)"/><rect id="Rectangle_95-8" width="6" height="6" fill="#8e8efa" data-name="Rectangle 95" transform="translate(88 -0.497)"/><rect id="Rectangle_96-8" width="6" height="6" fill="#8e8efa" data-name="Rectangle 96" transform="translate(66 -0.497)"/><rect id="Rectangle_97-8" width="6" height="6" fill="#8e8efa" data-name="Rectangle 97" transform="translate(44 -0.497)"/><rect id="Rectangle_98-8" width="6" height="6" fill="#8e8efa" data-name="Rectangle 98" transform="translate(22 -0.497)"/><rect id="Rectangle_99-8" width="6" height="6" fill="#8e8efa" data-name="Rectangle 99" transform="translate(0 -0.497)"/></g><g id="Group_99" data-name="Group 99" transform="translate(0 36.363)"><rect id="Rectangle_86-9" width="6" height="6" fill="#8e8efa" data-name="Rectangle 86" transform="translate(286 -0.363)"/><rect id="Rectangle_87-9" width="6" height="6" fill="#8e8efa" data-name="Rectangle 87" transform="translate(264 -0.363)"/><rect id="Rectangle_88-9" width="6" height="6" fill="#8e8efa" data-name="Rectangle 88" transform="translate(242 -0.363)"/><rect id="Rectangle_89-9" width="6" height="6" fill="#8e8efa" data-name="Rectangle 89" transform="translate(220 -0.363)"/><rect id="Rectangle_90-9" width="6" height="6" fill="#8e8efa" data-name="Rectangle 90" transform="translate(198 -0.363)"/><rect id="Rectangle_91-9" width="6" height="6" fill="#8e8efa" data-name="Rectangle 91" transform="translate(176 -0.363)"/><rect id="Rectangle_92-9" width="6" height="6" fill="#8e8efa" data-name="Rectangle 92" transform="translate(154 -0.363)"/><rect id="Rectangle_93-9" width="6" height="6" fill="#8e8efa" data-name="Rectangle 93" transform="translate(132 -0.363)"/><rect id="Rectangle_94-9" width="6" height="6" fill="#8e8efa" data-name="Rectangle 94" transform="translate(111 -0.363)"/><rect id="Rectangle_95-9" width="6" height="6" fill="#8e8efa" data-name="Rectangle 95" transform="translate(88 -0.363)"/><rect id="Rectangle_96-9" width="6" height="6" fill="#8e8efa" data-name="Rectangle 96" transform="translate(66 -0.363)"/><rect id="Rectangle_97-9" width="6" height="6" fill="#8e8efa" data-name="Rectangle 97" transform="translate(44 -0.363)"/><rect id="Rectangle_98-9" width="6" height="6" fill="#8e8efa" data-name="Rectangle 98" transform="translate(22 -0.363)"/><rect id="Rectangle_99-9" width="6" height="6" fill="#8e8efa" data-name="Rectangle 99" transform="translate(0 -0.363)"/></g><g id="Group_104" data-name="Group 104" transform="translate(0 125.618)"><rect id="Rectangle_86-10" width="6" height="5" fill="#8e8efa" data-name="Rectangle 86" transform="translate(286 0.382)"/><rect id="Rectangle_87-10" width="6" height="5" fill="#8e8efa" data-name="Rectangle 87" transform="translate(264 0.382)"/><rect id="Rectangle_88-10" width="6" height="5" fill="#8e8efa" data-name="Rectangle 88" transform="translate(242 0.382)"/><rect id="Rectangle_89-10" width="6" height="5" fill="#8e8efa" data-name="Rectangle 89" transform="translate(220 0.382)"/><rect id="Rectangle_90-10" width="6" height="5" fill="#8e8efa" data-name="Rectangle 90" transform="translate(198 0.382)"/><rect id="Rectangle_91-10" width="6" height="5" fill="#8e8efa" data-name="Rectangle 91" transform="translate(176 0.382)"/><rect id="Rectangle_92-10" width="6" height="5" fill="#8e8efa" data-name="Rectangle 92" transform="translate(154 0.382)"/><rect id="Rectangle_93-10" width="6" height="5" fill="#8e8efa" data-name="Rectangle 93" transform="translate(132 0.382)"/><rect id="Rectangle_94-10" width="6" height="5" fill="#8e8efa" data-name="Rectangle 94" transform="translate(111 0.382)"/><rect id="Rectangle_95-10" width="6" height="5" fill="#8e8efa" data-name="Rectangle 95" transform="translate(88 0.382)"/><rect id="Rectangle_96-10" width="6" height="5" fill="#8e8efa" data-name="Rectangle 96" transform="translate(66 0.382)"/><rect id="Rectangle_97-10" width="6" height="5" fill="#8e8efa" data-name="Rectangle 97" transform="translate(44 0.382)"/><rect id="Rectangle_98-10" width="6" height="5" fill="#8e8efa" data-name="Rectangle 98" transform="translate(22 0.382)"/><rect id="Rectangle_99-10" width="6" height="5" fill="#8e8efa" data-name="Rectangle 99" transform="translate(0 0.382)"/></g><g id="Group_109" data-name="Group 109" transform="translate(0 214.873)"><rect id="Rectangle_86-11" width="6" height="5" fill="#8e8efa" data-name="Rectangle 86" transform="translate(286 0.127)"/><rect id="Rectangle_87-11" width="6" height="5" fill="#8e8efa" data-name="Rectangle 87" transform="translate(264 0.127)"/><rect id="Rectangle_88-11" width="6" height="5" fill="#8e8efa" data-name="Rectangle 88" transform="translate(242 0.127)"/><rect id="Rectangle_89-11" width="6" height="5" fill="#8e8efa" data-name="Rectangle 89" transform="translate(220 0.127)"/><rect id="Rectangle_90-11" width="6" height="5" fill="#8e8efa" data-name="Rectangle 90" transform="translate(198 0.127)"/><rect id="Rectangle_91-11" width="6" height="5" fill="#8e8efa" data-name="Rectangle 91" transform="translate(176 0.127)"/><rect id="Rectangle_92-11" width="6" height="5" fill="#8e8efa" data-name="Rectangle 92" transform="translate(154 0.127)"/><rect id="Rectangle_93-11" width="6" height="5" fill="#8e8efa" data-name="Rectangle 93" transform="translate(132 0.127)"/><rect id="Rectangle_94-11" width="6" height="5" fill="#8e8efa" data-name="Rectangle 94" transform="translate(111 0.127)"/><rect id="Rectangle_95-11" width="6" height="5" fill="#8e8efa" data-name="Rectangle 95" transform="translate(88 0.127)"/><rect id="Rectangle_96-11" width="6" height="5" fill="#8e8efa" data-name="Rectangle 96" transform="translate(66 0.127)"/><rect id="Rectangle_97-11" width="6" height="5" fill="#8e8efa" data-name="Rectangle 97" transform="translate(44 0.127)"/><rect id="Rectangle_98-11" width="6" height="5" fill="#8e8efa" data-name="Rectangle 98" transform="translate(22 0.127)"/><rect id="Rectangle_99-11" width="6" height="5" fill="#8e8efa" data-name="Rectangle 99" transform="translate(0 0.127)"/></g><g id="Group_114" data-name="Group 114" transform="translate(0 304.127)"><rect id="Rectangle_86-12" width="6" height="6" fill="#8e8efa" data-name="Rectangle 86" transform="translate(286 -0.127)"/><rect id="Rectangle_87-12" width="6" height="6" fill="#8e8efa" data-name="Rectangle 87" transform="translate(264 -0.127)"/><rect id="Rectangle_88-12" width="6" height="6" fill="#8e8efa" data-name="Rectangle 88" transform="translate(242 -0.127)"/><rect id="Rectangle_89-12" width="6" height="6" fill="#8e8efa" data-name="Rectangle 89" transform="translate(220 -0.127)"/><rect id="Rectangle_90-12" width="6" height="6" fill="#8e8efa" data-name="Rectangle 90" transform="translate(198 -0.127)"/><rect id="Rectangle_91-12" width="6" height="6" fill="#8e8efa" data-name="Rectangle 91" transform="translate(176 -0.127)"/><rect id="Rectangle_92-12" width="6" height="6" fill="#8e8efa" data-name="Rectangle 92" transform="translate(154 -0.127)"/><rect id="Rectangle_93-12" width="6" height="6" fill="#8e8efa" data-name="Rectangle 93" transform="translate(132 -0.127)"/><rect id="Rectangle_94-12" width="6" height="6" fill="#8e8efa" data-name="Rectangle 94" transform="translate(111 -0.127)"/><rect id="Rectangle_95-12" width="6" height="6" fill="#8e8efa" data-name="Rectangle 95" transform="translate(88 -0.127)"/><rect id="Rectangle_96-12" width="6" height="6" fill="#8e8efa" data-name="Rectangle 96" transform="translate(66 -0.127)"/><rect id="Rectangle_97-12" width="6" height="6" fill="#8e8efa" data-name="Rectangle 97" transform="translate(44 -0.127)"/><rect id="Rectangle_98-12" width="6" height="6" fill="#8e8efa" data-name="Rectangle 98" transform="translate(22 -0.127)"/><rect id="Rectangle_99-12" width="6" height="6" fill="#8e8efa" data-name="Rectangle 99" transform="translate(0 -0.127)"/></g><g id="Group_100" data-name="Group 100" transform="translate(0 53.994)"><rect id="Rectangle_86-13" width="6" height="6" fill="#8e8efa" data-name="Rectangle 86" transform="translate(286 0.006)"/><rect id="Rectangle_87-13" width="6" height="6" fill="#8e8efa" data-name="Rectangle 87" transform="translate(264 0.006)"/><rect id="Rectangle_88-13" width="6" height="6" fill="#8e8efa" data-name="Rectangle 88" transform="translate(242 0.006)"/><rect id="Rectangle_89-13" width="6" height="6" fill="#8e8efa" data-name="Rectangle 89" transform="translate(220 0.006)"/><rect id="Rectangle_90-13" width="6" height="6" fill="#8e8efa" data-name="Rectangle 90" transform="translate(198 0.006)"/><rect id="Rectangle_91-13" width="6" height="6" fill="#8e8efa" data-name="Rectangle 91" transform="translate(176 0.006)"/><rect id="Rectangle_92-13" width="6" height="6" fill="#8e8efa" data-name="Rectangle 92" transform="translate(154 0.006)"/><rect id="Rectangle_93-13" width="6" height="6" fill="#8e8efa" data-name="Rectangle 93" transform="translate(132 0.006)"/><rect id="Rectangle_94-13" width="6" height="6" fill="#8e8efa" data-name="Rectangle 94" transform="translate(111 0.006)"/><rect id="Rectangle_95-13" width="6" height="6" fill="#8e8efa" data-name="Rectangle 95" transform="translate(88 0.006)"/><rect id="Rectangle_96-13" width="6" height="6" fill="#8e8efa" data-name="Rectangle 96" transform="translate(66 0.006)"/><rect id="Rectangle_97-13" width="6" height="6" fill="#8e8efa" data-name="Rectangle 97" transform="translate(44 0.006)"/><rect id="Rectangle_98-13" width="6" height="6" fill="#8e8efa" data-name="Rectangle 98" transform="translate(22 0.006)"/><rect id="Rectangle_99-13" width="6" height="6" fill="#8e8efa" data-name="Rectangle 99" transform="translate(0 0.006)"/></g><g id="Group_103" data-name="Group 103" transform="translate(0 143.249)"><rect id="Rectangle_86-14" width="6" height="6" fill="#8e8efa" data-name="Rectangle 86" transform="translate(286 -0.249)"/><rect id="Rectangle_87-14" width="6" height="6" fill="#8e8efa" data-name="Rectangle 87" transform="translate(264 -0.249)"/><rect id="Rectangle_88-14" width="6" height="6" fill="#8e8efa" data-name="Rectangle 88" transform="translate(242 -0.249)"/><rect id="Rectangle_89-14" width="6" height="6" fill="#8e8efa" data-name="Rectangle 89" transform="translate(220 -0.249)"/><rect id="Rectangle_90-14" width="6" height="6" fill="#8e8efa" data-name="Rectangle 90" transform="translate(198 -0.249)"/><rect id="Rectangle_91-14" width="6" height="6" fill="#8e8efa" data-name="Rectangle 91" transform="translate(176 -0.249)"/><rect id="Rectangle_92-14" width="6" height="6" fill="#8e8efa" data-name="Rectangle 92" transform="translate(154 -0.249)"/><rect id="Rectangle_93-14" width="6" height="6" fill="#8e8efa" data-name="Rectangle 93" transform="translate(132 -0.249)"/><rect id="Rectangle_94-14" width="6" height="6" fill="#8e8efa" data-name="Rectangle 94" transform="translate(111 -0.249)"/><rect id="Rectangle_95-14" width="6" height="6" fill="#8e8efa" data-name="Rectangle 95" transform="translate(88 -0.249)"/><rect id="Rectangle_96-14" width="6" height="6" fill="#8e8efa" data-name="Rectangle 96" transform="translate(66 -0.249)"/><rect id="Rectangle_97-14" width="6" height="6" fill="#8e8efa" data-name="Rectangle 97" transform="translate(44 -0.249)"/><rect id="Rectangle_98-14" width="6" height="6" fill="#8e8efa" data-name="Rectangle 98" transform="translate(22 -0.249)"/><rect id="Rectangle_99-14" width="6" height="6" fill="#8e8efa" data-name="Rectangle 99" transform="translate(0 -0.249)"/></g><g id="Group_108" data-name="Group 108" transform="translate(0 232.503)"><rect id="Rectangle_86-15" width="6" height="5" fill="#8e8efa" data-name="Rectangle 86" transform="translate(286 0.497)"/><rect id="Rectangle_87-15" width="6" height="5" fill="#8e8efa" data-name="Rectangle 87" transform="translate(264 0.497)"/><rect id="Rectangle_88-15" width="6" height="5" fill="#8e8efa" data-name="Rectangle 88" transform="translate(242 0.497)"/><rect id="Rectangle_89-15" width="6" height="5" fill="#8e8efa" data-name="Rectangle 89" transform="translate(220 0.497)"/><rect id="Rectangle_90-15" width="6" height="5" fill="#8e8efa" data-name="Rectangle 90" transform="translate(198 0.497)"/><rect id="Rectangle_91-15" width="6" height="5" fill="#8e8efa" data-name="Rectangle 91" transform="translate(176 0.497)"/><rect id="Rectangle_92-15" width="6" height="5" fill="#8e8efa" data-name="Rectangle 92" transform="translate(154 0.497)"/><rect id="Rectangle_93-15" width="6" height="5" fill="#8e8efa" data-name="Rectangle 93" transform="translate(132 0.497)"/><rect id="Rectangle_94-15" width="6" height="5" fill="#8e8efa" data-name="Rectangle 94" transform="translate(111 0.497)"/><rect id="Rectangle_95-15" width="6" height="5" fill="#8e8efa" data-name="Rectangle 95" transform="translate(88 0.497)"/><rect id="Rectangle_96-15" width="6" height="5" fill="#8e8efa" data-name="Rectangle 96" transform="translate(66 0.497)"/><rect id="Rectangle_97-15" width="6" height="5" fill="#8e8efa" data-name="Rectangle 97" transform="translate(44 0.497)"/><rect id="Rectangle_98-15" width="6" height="5" fill="#8e8efa" data-name="Rectangle 98" transform="translate(22 0.497)"/><rect id="Rectangle_99-15" width="6" height="5" fill="#8e8efa" data-name="Rectangle 99" transform="translate(0 0.497)"/></g><g id="Group_113" data-name="Group 113" transform="translate(0 322.86)"><rect id="Rectangle_86-16" width="6" height="5" fill="#8e8efa" data-name="Rectangle 86" transform="translate(286 0.14)"/><rect id="Rectangle_87-16" width="6" height="5" fill="#8e8efa" data-name="Rectangle 87" transform="translate(264 0.14)"/><rect id="Rectangle_88-16" width="6" height="5" fill="#8e8efa" data-name="Rectangle 88" transform="translate(242 0.14)"/><rect id="Rectangle_89-16" width="6" height="5" fill="#8e8efa" data-name="Rectangle 89" transform="translate(220 0.14)"/><rect id="Rectangle_90-16" width="6" height="5" fill="#8e8efa" data-name="Rectangle 90" transform="translate(198 0.14)"/><rect id="Rectangle_91-16" width="6" height="5" fill="#8e8efa" data-name="Rectangle 91" transform="translate(176 0.14)"/><rect id="Rectangle_92-16" width="6" height="5" fill="#8e8efa" data-name="Rectangle 92" transform="translate(154 0.14)"/><rect id="Rectangle_93-16" width="6" height="5" fill="#8e8efa" data-name="Rectangle 93" transform="translate(132 0.14)"/><rect id="Rectangle_94-16" width="6" height="5" fill="#8e8efa" data-name="Rectangle 94" transform="translate(111 0.14)"/><rect id="Rectangle_95-16" width="6" height="5" fill="#8e8efa" data-name="Rectangle 95" transform="translate(88 0.14)"/><rect id="Rectangle_96-16" width="6" height="5" fill="#8e8efa" data-name="Rectangle 96" transform="translate(66 0.14)"/><rect id="Rectangle_97-16" width="6" height="5" fill="#8e8efa" data-name="Rectangle 97" transform="translate(44 0.14)"/><rect id="Rectangle_98-16" width="6" height="5" fill="#8e8efa" data-name="Rectangle 98" transform="translate(22 0.14)"/><rect id="Rectangle_99-16" width="6" height="5" fill="#8e8efa" data-name="Rectangle 99" transform="translate(0 0.14)"/></g><g id="Group_101" data-name="Group 101" transform="translate(0 71.624)"><rect id="Rectangle_86-17" width="6" height="5" fill="#8e8efa" data-name="Rectangle 86" transform="translate(286 0.376)"/><rect id="Rectangle_87-17" width="6" height="5" fill="#8e8efa" data-name="Rectangle 87" transform="translate(264 0.376)"/><rect id="Rectangle_88-17" width="6" height="5" fill="#8e8efa" data-name="Rectangle 88" transform="translate(242 0.376)"/><rect id="Rectangle_89-17" width="6" height="5" fill="#8e8efa" data-name="Rectangle 89" transform="translate(220 0.376)"/><rect id="Rectangle_90-17" width="6" height="5" fill="#8e8efa" data-name="Rectangle 90" transform="translate(198 0.376)"/><rect id="Rectangle_91-17" width="6" height="5" fill="#8e8efa" data-name="Rectangle 91" transform="translate(176 0.376)"/><rect id="Rectangle_92-17" width="6" height="5" fill="#8e8efa" data-name="Rectangle 92" transform="translate(154 0.376)"/><rect id="Rectangle_93-17" width="6" height="5" fill="#8e8efa" data-name="Rectangle 93" transform="translate(132 0.376)"/><rect id="Rectangle_94-17" width="6" height="5" fill="#8e8efa" data-name="Rectangle 94" transform="translate(111 0.376)"/><rect id="Rectangle_95-17" width="6" height="5" fill="#8e8efa" data-name="Rectangle 95" transform="translate(88 0.376)"/><rect id="Rectangle_96-17" width="6" height="5" fill="#8e8efa" data-name="Rectangle 96" transform="translate(66 0.376)"/><rect id="Rectangle_97-17" width="6" height="5" fill="#8e8efa" data-name="Rectangle 97" transform="translate(44 0.376)"/><rect id="Rectangle_98-17" width="6" height="5" fill="#8e8efa" data-name="Rectangle 98" transform="translate(22 0.376)"/><rect id="Rectangle_99-17" width="6" height="5" fill="#8e8efa" data-name="Rectangle 99" transform="translate(0 0.376)"/></g><g id="Group_102" data-name="Group 102" transform="translate(0 161.981)"><rect id="Rectangle_86-18" width="6" height="5" fill="#8e8efa" data-name="Rectangle 86" transform="translate(286 0.019)"/><rect id="Rectangle_87-18" width="6" height="5" fill="#8e8efa" data-name="Rectangle 87" transform="translate(264 0.019)"/><rect id="Rectangle_88-18" width="6" height="5" fill="#8e8efa" data-name="Rectangle 88" transform="translate(242 0.019)"/><rect id="Rectangle_89-18" width="6" height="5" fill="#8e8efa" data-name="Rectangle 89" transform="translate(220 0.019)"/><rect id="Rectangle_90-18" width="6" height="5" fill="#8e8efa" data-name="Rectangle 90" transform="translate(198 0.019)"/><rect id="Rectangle_91-18" width="6" height="5" fill="#8e8efa" data-name="Rectangle 91" transform="translate(176 0.019)"/><rect id="Rectangle_92-18" width="6" height="5" fill="#8e8efa" data-name="Rectangle 92" transform="translate(154 0.019)"/><rect id="Rectangle_93-18" width="6" height="5" fill="#8e8efa" data-name="Rectangle 93" transform="translate(132 0.019)"/><rect id="Rectangle_94-18" width="6" height="5" fill="#8e8efa" data-name="Rectangle 94" transform="translate(111 0.019)"/><rect id="Rectangle_95-18" width="6" height="5" fill="#8e8efa" data-name="Rectangle 95" transform="translate(88 0.019)"/><rect id="Rectangle_96-18" width="6" height="5" fill="#8e8efa" data-name="Rectangle 96" transform="translate(66 0.019)"/><rect id="Rectangle_97-18" width="6" height="5" fill="#8e8efa" data-name="Rectangle 97" transform="translate(44 0.019)"/><rect id="Rectangle_98-18" width="6" height="5" fill="#8e8efa" data-name="Rectangle 98" transform="translate(22 0.019)"/><rect id="Rectangle_99-18" width="6" height="5" fill="#8e8efa" data-name="Rectangle 99" transform="translate(0 0.019)"/></g><g id="Group_107" data-name="Group 107" transform="translate(0 251.236)"><rect id="Rectangle_86-19" width="6" height="6" fill="#8e8efa" data-name="Rectangle 86" transform="translate(286 -0.236)"/><rect id="Rectangle_87-19" width="6" height="6" fill="#8e8efa" data-name="Rectangle 87" transform="translate(264 -0.236)"/><rect id="Rectangle_88-19" width="6" height="6" fill="#8e8efa" data-name="Rectangle 88" transform="translate(242 -0.236)"/><rect id="Rectangle_89-19" width="6" height="6" fill="#8e8efa" data-name="Rectangle 89" transform="translate(220 -0.236)"/><rect id="Rectangle_90-19" width="6" height="6" fill="#8e8efa" data-name="Rectangle 90" transform="translate(198 -0.236)"/><rect id="Rectangle_91-19" width="6" height="6" fill="#8e8efa" data-name="Rectangle 91" transform="translate(176 -0.236)"/><rect id="Rectangle_92-19" width="6" height="6" fill="#8e8efa" data-name="Rectangle 92" transform="translate(154 -0.236)"/><rect id="Rectangle_93-19" width="6" height="6" fill="#8e8efa" data-name="Rectangle 93" transform="translate(132 -0.236)"/><rect id="Rectangle_94-19" width="6" height="6" fill="#8e8efa" data-name="Rectangle 94" transform="translate(111 -0.236)"/><rect id="Rectangle_95-19" width="6" height="6" fill="#8e8efa" data-name="Rectangle 95" transform="translate(88 -0.236)"/><rect id="Rectangle_96-19" width="6" height="6" fill="#8e8efa" data-name="Rectangle 96" transform="translate(66 -0.236)"/><rect id="Rectangle_97-19" width="6" height="6" fill="#8e8efa" data-name="Rectangle 97" transform="translate(44 -0.236)"/><rect id="Rectangle_98-19" width="6" height="6" fill="#8e8efa" data-name="Rectangle 98" transform="translate(22 -0.236)"/><rect id="Rectangle_99-19" width="6" height="6" fill="#8e8efa" data-name="Rectangle 99" transform="translate(0 -0.236)"/></g><g id="Group_112" data-name="Group 112" transform="translate(0 340.49)"><rect id="Rectangle_86-20" width="6" height="6" fill="#8e8efa" data-name="Rectangle 86" transform="translate(286 -0.49)"/><rect id="Rectangle_87-20" width="6" height="6" fill="#8e8efa" data-name="Rectangle 87" transform="translate(264 -0.49)"/><rect id="Rectangle_88-20" width="6" height="6" fill="#8e8efa" data-name="Rectangle 88" transform="translate(242 -0.49)"/><rect id="Rectangle_89-20" width="6" height="6" fill="#8e8efa" data-name="Rectangle 89" transform="translate(220 -0.49)"/><rect id="Rectangle_90-20" width="6" height="6" fill="#8e8efa" data-name="Rectangle 90" transform="translate(198 -0.49)"/><rect id="Rectangle_91-20" width="6" height="6" fill="#8e8efa" data-name="Rectangle 91" transform="translate(176 -0.49)"/><rect id="Rectangle_92-20" width="6" height="6" fill="#8e8efa" data-name="Rectangle 92" transform="translate(154 -0.49)"/><rect id="Rectangle_93-20" width="6" height="6" fill="#8e8efa" data-name="Rectangle 93" transform="translate(132 -0.49)"/><rect id="Rectangle_94-20" width="6" height="6" fill="#8e8efa" data-name="Rectangle 94" transform="translate(111 -0.49)"/><rect id="Rectangle_95-20" width="6" height="6" fill="#8e8efa" data-name="Rectangle 95" transform="translate(88 -0.49)"/><rect id="Rectangle_96-20" width="6" height="6" fill="#8e8efa" data-name="Rectangle 96" transform="translate(66 -0.49)"/><rect id="Rectangle_97-20" width="6" height="6" fill="#8e8efa" data-name="Rectangle 97" transform="translate(44 -0.49)"/><rect id="Rectangle_98-20" width="6" height="6" fill="#8e8efa" data-name="Rectangle 98" transform="translate(22 -0.49)"/><rect id="Rectangle_99-20" width="6" height="6" fill="#8e8efa" data-name="Rectangle 99" transform="translate(0 -0.49)"/></g></svg>