<svg id="No_collateral" data-name="No collateral" xmlns="http://www.w3.org/2000/svg" width="100" height="100" viewBox="0 0 100 100">
  <defs>
    <style>
      .cls-1 {
        fill: #c0fbfa;
      }

      .cls-2 {
        fill: #d4fbff;
      }

      .cls-3 {
        fill: #00b3af;
      }

      .cls-4 {
        fill: none;
        stroke: #00b3af;
        stroke-width: 2px;
      }
    </style>
  </defs>
  <rect id="Rectangle_1352" data-name="Rectangle 1352" class="cls-1" width="100" height="100" rx="8"/>
  <g id="webpage" transform="translate(-12 -8.504)">
    <g id="Group_34356" data-name="Group 34356" transform="translate(28.645 22.5)">
      <g id="Group_34355" data-name="Group 34355" transform="translate(-2.645 -2.996)">
        <g id="Group_34353" data-name="Group 34353" transform="translate(1.001 11.929)">
          <path id="Path_37795" data-name="Path 37795" class="cls-2" d="M30.908,48.012a1.96,1.96,0,0,0-1.262,1.637v49.3c0,.642.565.95,1.262.688l21.511-8.087V39.925Z" transform="translate(-29.646 -39.925)"/>
          <path id="Path_37796" data-name="Path 37796" class="cls-2" d="M93.193,41.963,73.387,47.937V99.565l19.806-5.974a1.7,1.7,0,0,0,1.162-1.513v-49.3A.834.834,0,0,0,93.193,41.963Z" transform="translate(-29.646 -39.925)"/>
          <path id="Path_37797" data-name="Path 37797" class="cls-3" d="M52.419,39.925V91.554l20.968,8.011V47.936Z" transform="translate(-29.646 -39.925)"/>
        </g>
        <path id="Path_37798" data-name="Path 37798" class="cls-3" d="M46.188,57.845,35.849,61.732a.979.979,0,0,0-.631.818V81.861c0,.321.283.475.631.344l10.339-3.887a.979.979,0,0,0,.631-.818V58.189c0-.321-.282-.475-.631-.344Z" transform="translate(-28.645 -25.813)"/>
        <path id="Path_37799" data-name="Path 37799" class="cls-3" d="M88.63,59.207l-9.52,2.871a.848.848,0,0,0-.581.756V82.145a.417.417,0,0,0,.581.406l9.52-2.871a.848.848,0,0,0,.581-.756V59.613a.416.416,0,0,0-.581-.406Z" transform="translate(-28.645 -25.882)"/>
        <g id="Group_34354" data-name="Group 34354">
          <path id="Path_37802" data-name="Path 37802" class="cls-3" d="M55.378,56.1,69.713,61.58a.988.988,0,0,0,.356.066,1,1,0,0,0,.357-1.935L56.092,54.234a1,1,0,0,0-.714,1.869Z" transform="translate(-28.645 -24.804)"/>
          <path id="Path_37803" data-name="Path 37803" class="cls-3" d="M55.378,62.189l14.335,5.477a.988.988,0,0,0,.356.066,1,1,0,0,0,.357-1.935L56.092,60.32a1,1,0,0,0-.714,1.869Z" transform="translate(-28.645 -25.247)"/>
          <path id="Path_37804" data-name="Path 37804" class="cls-3" d="M55.378,68.275l14.335,5.477a.988.988,0,0,0,.356.066,1,1,0,0,0,.357-1.935L56.092,66.406a1,1,0,0,0-.714,1.869Z" transform="translate(-28.645 -25.69)"/>
          <path id="Path_37805" data-name="Path 37805" class="cls-3" d="M55.378,74.361l14.335,5.477a.988.988,0,0,0,.356.066,1,1,0,0,0,.357-1.935L56.092,72.492a1,1,0,0,0-.714,1.869Z" transform="translate(-28.645 -26.133)"/>
          <path id="Path_37806" data-name="Path 37806" class="cls-3" d="M70.427,84.056,56.093,78.579a1,1,0,0,0-.714,1.868l14.335,5.477a.988.988,0,0,0,.356.066,1,1,0,0,0,.357-1.934Z" transform="translate(-28.645 -26.576)"/>
          <path id="Path_37807" data-name="Path 37807" class="cls-3" d="M36.346,53.8a1.012,1.012,0,0,0,.352-.064l9.346-3.513a1,1,0,0,0-.7-1.872l-9.346,3.513a1,1,0,0,0,.352,1.936Z" transform="translate(-28.645 -24.329)"/>
          <path id="Path_37808" data-name="Path 37808" class="cls-3" d="M45.339,53.689,35.993,57.2a1,1,0,0,0,.352,1.936,1.012,1.012,0,0,0,.352-.064l9.346-3.513a1,1,0,1,0-.7-1.872Z" transform="translate(-28.645 -24.708)"/>
          <path id="Path_37809" data-name="Path 37809" class="cls-3" d="M45.339,80.976,35.993,84.49a1,1,0,0,0,.352,1.936,1.012,1.012,0,0,0,.352-.064l9.346-3.514a1,1,0,0,0-.7-1.872Z" transform="translate(-28.645 -26.643)"/>
          <path id="Path_37810" data-name="Path 37810" class="cls-3" d="M45.339,86.311l-9.346,3.513a1,1,0,0,0,.352,1.936A1.012,1.012,0,0,0,36.7,91.7l9.346-3.513a1,1,0,0,0-.7-1.872Z" transform="translate(-28.645 -27.021)"/>
          <path id="Path_37811" data-name="Path 37811" class="cls-3" d="M79.383,54.255a1,1,0,0,0,.289-.043L88.648,51.5a1,1,0,0,0-.578-1.915L79.094,52.3a1,1,0,0,0,.289,1.958Z" transform="translate(-28.645 -24.399)"/>
          <path id="Path_37812" data-name="Path 37812" class="cls-3" d="M79.383,59.589a1,1,0,0,0,.289-.043l8.976-2.707a1,1,0,0,0-.578-1.915l-8.976,2.707a1,1,0,0,0,.289,1.958Z" transform="translate(-28.645 -24.773)"/>
          <path id="Path_37813" data-name="Path 37813" class="cls-3" d="M79.383,86.877a1,1,0,0,0,.289-.043l8.976-2.707a1,1,0,0,0-.578-1.915l-8.976,2.707a1,1,0,0,0,.289,1.958Z" transform="translate(-28.645 -26.688)"/>
          <path id="Path_37814" data-name="Path 37814" class="cls-3" d="M88.069,87.547l-8.976,2.707a1,1,0,1,0,.578,1.915l8.976-2.707a1,1,0,0,0-.578-1.915Z" transform="translate(-28.645 -27.063)"/>
          <path id="Path_37815" data-name="Path 37815" class="cls-3" d="M29.381,100.418a1.829,1.829,0,0,0,1.048.316,2.365,2.365,0,0,0,.83-.157l21.156-7.954L73.029,100.5a.993.993,0,0,0,.646.023L93.48,94.548a2.687,2.687,0,0,0,1.874-2.47v-49.3a1.849,1.849,0,0,0-.727-1.509,1.92,1.92,0,0,0-1.724-.26h0L73.425,46.88,52.776,38.991a1,1,0,0,0-.709,0L30.556,47.076a2.949,2.949,0,0,0-1.911,2.572v49.3a1.751,1.751,0,0,0,.736,1.466Zm43.006-2.306L53.419,90.865V41.378l18.968,7.247ZM93.354,42.959v49.12a.71.71,0,0,1-.451.555L74.386,98.219V48.68ZM30.646,49.648a1.022,1.022,0,0,1,.614-.7l20.159-7.579V90.861l-20.773,7.81Z" transform="translate(-28.645 -27.996)"/>
          <line id="Line_55" data-name="Line 55" class="cls-4" x1="62" y2="77.504" transform="translate(9.855)"/>
        </g>
      </g>
    </g>
  </g>
</svg>
