<svg xmlns="http://www.w3.org/2000/svg" xmlns:xlink="http://www.w3.org/1999/xlink" width="366.355" height="363.824" viewBox="0 0 366.355 363.824">
  <defs>
    <style>
      .cls-1, .cls-2, .cls-7 {
        fill: none;
      }

      .cls-2 {
        stroke: #fff;
      }

      .cls-2, .cls-7 {
        stroke-miterlimit: 10;
        stroke-width: 7.24px;
      }

      .cls-3 {
        fill: #fff;
      }

      .cls-4 {
        clip-path: url(#clip-path);
      }

      .cls-5 {
        fill: rgba(38,92,255,0.17);
      }

      .cls-6 {
        fill: rgba(0,0,255,0.5);
      }

      .cls-7 {
        stroke: #8e8efa;
      }

      .cls-8 {
        fill: rgba(255,255,255,0.44);
      }

      .cls-9 {
        fill: rgba(0,0,0,0);
      }

      .cls-10 {
        fill: #afc3ff;
      }
    </style>
    <clipPath id="clip-path">
      <path id="Path" class="cls-1" d="M289.4,0H-8.765V363.824H289.4Z" transform="translate(30.48)"/>
    </clipPath>
  </defs>
  <g id="Image_Congratulations" data-name="Image Congratulations" transform="translate(16.643 -42.429)">
    <g id="Group" transform="translate(13.92 42.429)">
      <g id="Group-2" data-name="Group" transform="translate(207.438 56.107)">
        <path id="Path-2" data-name="Path" class="cls-2" d="M124.264.49H0" transform="translate(0 -0.49)"/>
        <path id="Path-3" data-name="Path" class="cls-2" d="M124.264.49H0" transform="translate(0 11.372)"/>
        <path id="Path-4" data-name="Path" class="cls-2" d="M124.264.49H0" transform="translate(0 87.776)"/>
        <path id="Path-5" data-name="Path" class="cls-2" d="M66.534.49H0" transform="translate(28.865 98.997)"/>
      </g>
      <path id="Path-6" data-name="Path" class="cls-3" d="M174.406,227.762s-22.112-85.23-90.981-106.047l-27.993-6.479S51,96.057,52.634,94.042,57.61,87.9,63.741,88.794s21.978,1.182,26.035-17.611S78.84,7.719,39.875,1.038,0,22.11,0,22.11L28.621,86.443l-4.441,51.9-.559,77.309Z" transform="translate(144.094 1.317)"/>
      <g id="Clipped" transform="translate(15.91 0)">
        <path id="Path-7" data-name="Path" class="cls-1" d="M298.166,0H0V363.824H298.166Z" transform="translate(21.715)"/>
        <g id="Clipped-2" data-name="Clipped" class="cls-4">
          <g id="Group-3" data-name="Group" transform="translate(21.711 1.605)">
            <g id="Group-4" data-name="Group" transform="translate(42.889 2.327)">
              <path id="Path-8" data-name="Path" class="cls-5" d="M0,34.636c.462.13,6.352,1.791,8.669,5.749a5.462,5.462,0,0,1,4.93-3.027H82.774a5.4,5.4,0,0,1,5.3,4.088L101.7,98.1c.923-.175,1.846-.282,2.807-.372l32.147-7.782a5.75,5.75,0,0,1,6.777,3.524,5.114,5.114,0,0,1,.314,1.818,5.63,5.63,0,0,1-5.327,5.543l-15.2.949c14.643,6.685,32.457,19.42,47.326,31.121,14.467-21.972.891-43.941-9.32-55.771,1.316-13.039,7.981-43.314,41.241-42.49C191.005,20.392,176.718,8.176,159.015,0,98.376,65.2,29,11.893,27.531,10.747A120.867,120.867,0,0,0,0,34.645" transform="translate(0 124.67)"/>
              <path id="Path-9" data-name="Path" class="cls-5" d="M0,82.866V94.132H200.256V78.173a52.136,52.136,0,0,1-23.473-4.608c-9.449-4.173-17.611-10.657-24.591-18.054-7.178-7.657-11.12-18.274-15.7-27.507C129.628,14.1,120.53,4.2,106.09,0l.923,3.851a5.172,5.172,0,0,1-1.04,4.484,5.52,5.52,0,0,1-4.264,2H32.189C33.574,21.981,39.413,85.566,0,82.879" transform="translate(6.301 263.468)"/>
              <path id="Path-10" data-name="Path" class="cls-5" d="M.019,50.035a72.389,72.389,0,0,0,2.41,17.853A15.081,15.081,0,0,0,14.486,78.9,13.127,13.127,0,0,1,19.1,69.047a62.871,62.871,0,0,1,.106-10.335c.18-2.27.462-4.388.757-6.291a22.748,22.748,0,0,1,.762-3.2,11.8,11.8,0,0,1,3.231-2.378c4.279-2.337,13.087-4.823,29.405-1.169a19.816,19.816,0,0,1,7.358,3.309.549.549,0,0,1,.129.107,22.372,22.372,0,0,0,5.286,3.846c2.008.9,4.1.931,5.863-1.187.046-.045.069-.085.111-.13.923-1.169,1.8-2.687,3.434-2.987,3.434-.627,5.106,2.687,5.539,5.472a11.213,11.213,0,0,1-1.542,7.008,18.1,18.1,0,0,1-3.693,4.715A9.26,9.26,0,0,0,74.8,66.992a2.393,2.393,0,0,1,.42.112,7.789,7.789,0,0,1,.923.367c4.155,1.814,7.114,6.358,7.178,11.678,0,.166,6.966.067,7.848,0,3.4-.3,6.744-1.254,9.136-3.739,6.786-7.053,6.754-17.517,3.965-25.7a105.424,105.424,0,0,0-10.4-22.344C84.325,12.238,69.521,1.079,50.779.076A64,64,0,0,0,37.341.837a52.07,52.07,0,0,0-6.218,1.343C12.017,10.267-.11,28.6,0,50.035" transform="translate(38.439 0)"/>
            </g>
            <path id="Path-11" data-name="Path" class="cls-6" d="M.993,13.608c2.257,5.62,7.631,8.835,12,7.164s6.089-7.545,3.836-13.165S9.2-1.232,4.829.443-1.264,7.993.993,13.612" transform="translate(91.419 211.193)"/>
            <g id="Group-5" data-name="Group" transform="translate(8.181 119.398)">
              <path id="Path-12" data-name="Path" class="cls-7" d="M72.617,155.59S84.877,238.5,35.834,229.307C-12.941,220.159-31.4,27.682,109.782,0" transform="translate(0 0)"/>
              <path id="Path-13" data-name="Path" class="cls-7" d="M0,0S39.57,32.37,18.248,64.744" transform="translate(187.44 75.773)"/>
              <path id="Path-14" data-name="Path" class="cls-7" d="M0,8.656a8.888,8.888,0,0,0,2.308-.573q1.256-.322,2.488-.69A45.785,45.785,0,0,0,18.216.8,4.534,4.534,0,0,1,21.909.171a3.641,3.641,0,0,1,2.4,2.852c.346,2.311-1.334,4.572-3.167,6.054a27.672,27.672,0,0,1-7.067,4.446,50.437,50.437,0,0,1-7.848,2.342c-1.214.273-2.447.448-3.651.748" transform="translate(71.726 123.904)"/>
              <path id="Path-15" data-name="Path" class="cls-7" d="M.694,0A27.367,27.367,0,0,0,.08,7.8C.288,9.99,1.1,12.551,3.617,13.084a4.554,4.554,0,0,0,1.468.13c9.472-.542,17.279-3.717,26.192-9.968s12.053,8.145,3.91,10.7" transform="translate(55.844 110.131)"/>
              <path id="Path-16" data-name="Path" class="cls-7" d="M20.828,1.8a7.3,7.3,0,0,0,.623-.56c4.436-4.5,5.239,4.54.582,7.2l-.6.345c-.314.13-.651.282-.983.448-.157.04-.332.107-.494.152A96.158,96.158,0,0,1,6.85,13.487c4.367-1.384,8.72-2.745,13.105-4.106.379-.152.739-.3,1.117-.479a1.983,1.983,0,0,1,.36-.107.507.507,0,0,1,.489.045.662.662,0,0,1,.222.322,6.056,6.056,0,0,1-.78,5.257,10.891,10.891,0,0,1-4.233,3.654A46.968,46.968,0,0,1,2.77,22.7,10.3,10.3,0,0,1,0,22.872" transform="translate(69.861 132.923)"/>
              <path id="Path-17" data-name="Path" class="cls-7" d="M0,62.9s15.044-24.87,16.72-46.493C17.745,3.027,21.8.193,24.7,0" transform="translate(30.277 103.15)"/>
              <path id="Path-18" data-name="Path" class="cls-7" d="M16.178,78.258l-2.927-13.08-1.56-6.985L.123,6.4A5.169,5.169,0,0,1,1.209,1.967,5.517,5.517,0,0,1,5.45,0H74.628a5.406,5.406,0,0,1,5.3,4.088L93.555,60.75l9.943,41.343.923,3.873a5.176,5.176,0,0,1-1.046,4.481,5.525,5.525,0,0,1-4.263,2H29.6" transform="translate(43.282 44.952)"/>
            </g>
            <path id="Path-19" data-name="Path" class="cls-6" d="M50.183,17.239S46.522,2.18,25.851.183,0,13.169,0,13.169l.651,1.509S27.827,4.1,42.834,19.2c0,0,5.406,2.378,7.349-1.948" transform="translate(103.228 35.346)"/>
            <g id="Group-6" data-name="Group" transform="translate(0 126.997)">
              <path id="Path-20" data-name="Path" class="cls-7" d="M0,7.954,32.152.162a5.8,5.8,0,0,1,5.7,1.77,5.4,5.4,0,0,1,.925,5.733,5.689,5.689,0,0,1-4.867,3.373l-15.2.972" transform="translate(147.835 89.779)"/>
              <path id="Path-21" data-name="Path" class="cls-7" d="M0,10.724S70.227,65.909,131.5,0" transform="translate(70.836 0)"/>
              <path id="Path-22" data-name="Path" class="cls-7" d="M0,42.507C1.316,29.468,7.977-.829,41.264.017" transform="translate(204.54 34.618)"/>
              <path id="Path-23" data-name="Path" class="cls-7" d="M0,0S6.273,1.675,8.678,5.767" transform="translate(43.309 34.627)"/>
              <path id="Path-24" data-name="Path" class="cls-7" d="M298.166.49H0" transform="translate(0 233.112)"/>
            </g>
            <path id="Path-25" data-name="Path" class="cls-8" d="M4.616,0A13.189,13.189,0,0,0,0,10.272C0,17.3,5.036,22.989,11.259,22.989a9.771,9.771,0,0,0,2.091-.237C6.1,17.378,4.635,0,4.635,0" transform="translate(95.814 71.392)"/>
            <g id="Group-7" data-name="Group" transform="translate(81.346 0)">
              <path id="Path-26" data-name="Path" class="cls-7" d="M41.148,64.424a28.333,28.333,0,0,1-22.619.846C-1.866,57.009-1.086,32.659,1.033,19.422a24.43,24.43,0,0,1,.72-3.179A22.47,22.47,0,0,1,18.247.759,32.667,32.667,0,0,1,54,17.452" transform="translate(18.933 35.344)"/>
              <path id="Path-27" data-name="Path" class="cls-7" d="M0,5.633s.065-.09.2-.237C1.583,3.882,9.6-3.34,32.812,1.849a19.76,19.76,0,0,1,7.354,3.309.579.579,0,0,1,.138.107" transform="translate(20.492 46.191)"/>
              <path id="Path-28" data-name="Path" class="cls-7" d="M82.359,88.506H93.839c8.286,0,14.855-7.361,17.712-14.271,4.016-9.717,1.445-19.662-2.17-29.106A94.962,94.962,0,0,0,97.44,22.673C86.1,7.292,68.986-1.421,49.311.191Q46.694.405,44.1.817C17.681,4.973-.133,26.4,0,52.348A72.416,72.416,0,0,0,2.41,70.214,15.127,15.127,0,0,0,14.473,81.225" transform="translate(0 0)"/>
              <path id="Path-29" data-name="Path" class="cls-7" d="M14.172,18.436a9.657,9.657,0,0,1,1.048-1.169,18.01,18.01,0,0,0,3.693-4.711,11.213,11.213,0,0,0,1.542-7.008c-.425-2.767-2.1-6.1-5.539-5.472-1.63.3-2.5,1.818-3.434,2.987C7.917,7.541,3.01,3.041,0,.337" transform="translate(60.603 50.883)"/>
              <path id="Path-30" data-name="Path" class="cls-7" d="M4.616,0A13.189,13.189,0,0,0,0,10.272C0,17.3,5.036,22.989,11.259,22.989a9.771,9.771,0,0,0,2.091-.237" transform="translate(14.468 71.392)"/>
              <path id="Path-31" data-name="Path" class="cls-7" d="M24,20.925c-2.52,1.643-8.609,2.991-7.386-1.881C18.082,13.272,20.057.94,7.958,0,7.958,0,2.631.219,0,1.975" transform="translate(19.177 59.096)"/>
              <path id="Path-32" data-name="Path" class="cls-7" d="M0,3.112S6.093,6.247,9.112,0" transform="translate(38.62 86.558)"/>
            </g>
            <path id="Path-33" data-name="Path" d="M4.474,3.345c.235,1.984-.563,3.7-1.786,3.837S.282,5.839.042,3.842.61.148,1.829.009s2.41,1.343,2.645,3.336" transform="translate(127.85 64.182)"/>
            <path id="Path-34" data-name="Path" d="M4.468,3.344C4.7,5.324,3.9,7.043,2.682,7.182S.277,5.839.041,3.841.6.143,1.823.008s2.41,1.343,2.645,3.336" transform="translate(108.015 65.352)"/>
            <g id="Group-8" data-name="Group" transform="translate(48.872 57.796)">
              <path id="Path-35" data-name="Path" class="cls-7" d="M0,2.567S3.73-3.012,12.182,2.28" transform="translate(75.651 0)"/>
              <path id="Path-36" data-name="Path" class="cls-7" d="M.49,0V30.95" transform="translate(68.606 42.45)"/>
              <path id="Path-37" data-name="Path" class="cls-7" d="M99.092,60.8S85.94,48.712,68.86,35.278c-14.869-11.7-32.7-24.458-47.349-31.139-1.874-.846-3.693-1.6-5.461-2.239A30.735,30.735,0,0,0,2.807.11,28.032,28.032,0,0,0,0,.477" transform="translate(96.147 166.854)"/>
              <path id="Path-38" data-name="Path" class="cls-7" d="M0,172.3c14.444,4.2,23.543,14.1,30.407,28,4.565,9.233,8.517,19.85,15.7,27.507,6.975,7.393,15.137,13.881,24.586,18.054,17.145,7.567,38.255,6.985,49.394-9.471,7.534-11.159,10.5-25.022,12-38.061,2.585-22.662-5.576-86.542-41.241-130.85C79.385,53.232,65.093,41.016,47.395,32.84A119.286,119.286,0,0,0,5.013,22.313L.554,0" transform="translate(106.09 36.347)"/>
              <path id="Path-39" data-name="Path" class="cls-7" d="M.49,0V11.186" transform="translate(-0.49 291.617)"/>
              <path id="Path-40" data-name="Path" class="cls-7" d="M.49,0V15.18" transform="translate(199.766 287.623)"/>
            </g>
            <path id="Path-41" data-name="Path" class="cls-6" d="M0,12.717a13.451,13.451,0,0,0,3.453,9.148,9.9,9.9,0,0,0,4.058.864c6.218,0,11.259-5.687,11.259-12.717A13.421,13.421,0,0,0,15.313.869,9.847,9.847,0,0,0,11.255,0C5.037,0,0,5.691,0,12.717" transform="translate(142.165 68.947)"/>
            <ellipse id="Oval" class="cls-7" cx="11.245" cy="12.717" rx="11.245" ry="12.717" transform="translate(142.166 68.947)"/>
          </g>
        </g>
      </g>
      <path id="Shape" class="cls-5" d="M8.186,57.816A34.6,34.6,0,0,1,4.4,18.593,36.847,36.847,0,0,1,40.309.189,36.291,36.291,0,0,1,71.58,25.327c5.767,18.765-5.241,38.512-24.586,44.106a37.578,37.578,0,0,1-10.438,1.479A37,37,0,0,1,8.186,57.816Z" transform="translate(104.148 127.019) rotate(180)"/>
      <g id="Group-9" data-name="Group" transform="translate(17.85 83.229)">
        <ellipse id="Oval-2" data-name="Oval" class="cls-3" cx="11.661" cy="11.311" rx="11.661" ry="11.311" transform="translate(0 0)"/>
        <ellipse id="Oval-3" data-name="Oval" class="cls-3" cx="11.661" cy="11.311" rx="11.661" ry="11.311" transform="translate(37.715 0)"/>
        <ellipse id="Oval-4" data-name="Oval" class="cls-3" cx="11.661" cy="11.311" rx="11.661" ry="11.311" transform="translate(76.163 0)"/>
      </g>
      <g id="done" transform="translate(0 232.386)">
        <rect id="Path-42" data-name="Path" class="cls-9" width="91.974" height="91.106" transform="translate(0 0)"/>
      </g>
    </g>
    <path id="Shape-2" data-name="Shape" class="cls-5" d="M15.269,107.845A64.537,64.537,0,0,1,8.206,34.68C21.322,11.151,47.759-2.4,75.189.352s50.451,21.257,58.329,46.891c10.757,35-9.775,71.837-45.86,82.272a70.069,70.069,0,0,1-19.472,2.759A69.02,69.02,0,0,1,15.269,107.845Z" transform="translate(119.735 406.253) rotate(180)"/>
    <path id="Icon" class="cls-10" d="M906.759,244.03,890.74,228.01l-5.34,5.34,21.359,21.36,45.77-45.77-5.34-5.34Z" transform="translate(-855.909 102.553)"/>
  </g>
</svg>
