<svg id="Credited_in_48_hours" data-name="Credited in 48 hours" xmlns="http://www.w3.org/2000/svg" width="100" height="100" viewBox="0 0 100 100">
  <defs>
    <style>
      .cls-1 {
        fill: rgba(244,189,248,0.5);
      }

      .cls-2 {
        fill: #92069d;
      }

      .cls-3 {
        fill: #f9defb;
      }
    </style>
  </defs>
  <rect id="Rectangle_1352" data-name="Rectangle 1352" class="cls-1" width="100" height="100" rx="8"/>
  <g id="Credit_in_48_hours" data-name="Credit in 48 hours" transform="translate(18 18)">
    <g id="Group_34343" data-name="Group 34343">
      <path id="Path_37780" data-name="Path 37780" class="cls-2" d="M61,19V53l-2,8-2-8V19a2,2,0,1,1,4,0Z"/>
      <path id="Path_37781" data-name="Path 37781" class="cls-2" d="M50,7v6H14V7a2.006,2.006,0,0,1,2-2H48a2.006,2.006,0,0,1,2,2Z"/>
      <circle id="Ellipse_214" data-name="Ellipse 214" class="cls-2" cx="7" cy="7" r="7" transform="translate(32 43)"/>
      <path id="Path_37782" data-name="Path 37782" class="cls-2" d="M44,31v6H20V33a2.968,2.968,0,0,0,2.82-2Z"/>
      <path id="Path_37783" data-name="Path 37783" class="cls-2" d="M20,19H44v6H20Z"/>
    </g>
    <path id="Path_37784" data-name="Path 37784" class="cls-2" d="M59,16a3.009,3.009,0,0,0-3,3V53a.986.986,0,0,0,.03.24l2,8a1,1,0,0,0,1.94,0l2-8A.986.986,0,0,0,62,53V19a3.009,3.009,0,0,0-3-3Zm0,40.88L58.28,54h1.44ZM60,52H58V19a1,1,0,0,1,2,0Z"/>
    <path id="Path_37785" data-name="Path 37785" class="cls-2" d="M48,4H42V2H40V4H33V2H31V4H24V2H22V4H16a3.009,3.009,0,0,0-3,3V26H8a.937.937,0,0,0-.37.07l-5,2A1,1,0,0,0,2,29V43a1,1,0,0,0,.45.83l3.01,2a.967.967,0,0,0,.55.17H13V59a3.009,3.009,0,0,0,3,3H48a3.009,3.009,0,0,0,3-3V7a3.009,3.009,0,0,0-3-3ZM11.9,34H13V44H6.31L4,42.46V29.68L8.19,28H20a2,2,0,0,1,0,4H11a1,1,0,0,0-1,1,3.009,3.009,0,0,1-3,3v2a5.009,5.009,0,0,0,4.9-4ZM25,26v4H24a4,4,0,0,0-3-3.86V26Zm-4-2V20h4v4Zm4,8v4H21V33.86A3.988,3.988,0,0,0,23.44,32ZM49,59a1,1,0,0,1-1,1H16a1,1,0,0,1-1-1V34h4v3a1,1,0,0,0,1,1H44a1,1,0,0,0,1-1V19a1,1,0,0,0-1-1H20a1,1,0,0,0-1,1v7H15V14H49ZM31,26v4H27V26Zm-4-2V20h4v4Zm4,8v4H27V32Zm6-6v4H33V26Zm-4-2V20h4v4Zm4,8v4H33V32Zm6-6v4H39V26Zm-4-2V20h4v4Zm4,8v4H39V32Zm6-20H15V7a1,1,0,0,1,1-1h6V8h2V6h7V8h2V6h7V8h2V6h6a1,1,0,0,1,1,1Z"/>
    <path id="Path_37786" data-name="Path 37786" class="cls-2" d="M39,42a8,8,0,1,0,8,8A8,8,0,0,0,39,42Zm0,14a6,6,0,1,1,6-6,6,6,0,0,1-6,6Z"/>
    <path id="Path_37787" data-name="Path 37787" class="cls-3" d="M38,50.586l-2.122-2.121-1.414,1.414,2.829,2.828a1,1,0,0,0,1.414,0l4.243-4.242-1.414-1.414Z"/>
  </g>
</svg>
