<svg xmlns="http://www.w3.org/2000/svg" xmlns:xlink="http://www.w3.org/1999/xlink" width="515" height="515.389" viewBox="0 0 515 515.389"><defs><style>.cls-1{fill:url(#linear-gradient)}.cls-10,.cls-2,.cls-5,.cls-9{fill:#fff}.cls-3{fill:url(#linear-gradient-2)}.cls-4{fill:#91b3fa}.cls-5{opacity:.78}.cls-6{fill:#bdd0fb}.cls-7{fill:url(#linear-gradient-3)}.cls-8{fill:url(#linear-gradient-4)}.cls-9{opacity:.6}.cls-10{opacity:.72}.cls-11{fill:url(#linear-gradient-5)}.cls-12{fill:url(#linear-gradient-6)}.cls-13{fill:#7d97f4}.cls-14{fill:url(#linear-gradient-7)}.cls-15{fill:url(#linear-gradient-8)}.cls-16{fill:url(#linear-gradient-9)}.cls-17{fill:url(#linear-gradient-10)}.cls-18{fill:url(#linear-gradient-11)}.cls-19{fill:url(#linear-gradient-12)}.cls-20{fill:url(#linear-gradient-13)}.cls-21{fill:url(#linear-gradient-14)}.cls-22{fill:url(#linear-gradient-15)}.cls-23{fill:url(#linear-gradient-16)}.cls-24{fill:url(#linear-gradient-17)}.cls-25{fill:url(#linear-gradient-18)}.cls-26{fill:url(#linear-gradient-19)}.cls-27{fill:url(#linear-gradient-20)}.cls-28{fill:url(#linear-gradient-21)}.cls-29{fill:url(#linear-gradient-22)}.cls-30{fill:url(#linear-gradient-23)}.cls-31{fill:url(#linear-gradient-24)}.cls-32{fill:url(#linear-gradient-25)}.cls-33{fill:url(#linear-gradient-26)}.cls-34{fill:url(#linear-gradient-27)}.cls-35{fill:url(#linear-gradient-28)}.cls-36{fill:url(#linear-gradient-29)}.cls-37{fill:url(#linear-gradient-30)}.cls-38{fill:url(#linear-gradient-31)}.cls-39{fill:url(#linear-gradient-32)}.cls-40{fill:url(#linear-gradient-33)}.cls-41{fill:url(#linear-gradient-34)}.cls-42{fill:url(#linear-gradient-35)}.cls-43{fill:url(#linear-gradient-36)}.cls-44{fill:url(#linear-gradient-37)}.cls-45{fill:url(#linear-gradient-38)}.cls-46{fill:url(#linear-gradient-39)}</style><linearGradient id="linear-gradient" x1=".5" x2=".5" y2="1" gradientUnits="objectBoundingBox"><stop offset="0" stop-color="#aa80f9"/><stop offset="1" stop-color="#6165d7"/></linearGradient><linearGradient id="linear-gradient-2" x1=".5" x2=".5" y2="1" gradientUnits="objectBoundingBox"><stop offset="0" stop-color="#ff9085"/><stop offset="1" stop-color="#fb6fbb"/></linearGradient><linearGradient id="linear-gradient-3" x1=".608" x2=".511" y1="-.052" y2=".837" gradientUnits="objectBoundingBox"><stop offset="0" stop-color="#09005d"/><stop offset="1" stop-color="#1a0f91"/></linearGradient><linearGradient id="linear-gradient-4" x1="-5.744" x2="-6.704" y1="9.671" y2="11.278" xlink:href="#linear-gradient-3"/><linearGradient id="linear-gradient-5" x1="2.502" x2="-.432" y1="-3.148" y2="1.845" gradientUnits="objectBoundingBox"><stop offset="0" stop-color="#ff928e"/><stop offset="1" stop-color="#fe7062"/></linearGradient><linearGradient id="linear-gradient-6" x1="1.297" x2=".288" y1="-2.165" y2="1.248" xlink:href="#linear-gradient-5"/><linearGradient id="linear-gradient-7" x1="-.08" x2=".822" y1="1.171" y2=".257" gradientUnits="objectBoundingBox"><stop offset="0" stop-color="#e1473d"/><stop offset="1" stop-color="#e9605a"/></linearGradient><linearGradient id="linear-gradient-8" x1="-10.243" x2="-9.691" y1="-.668" y2=".409" gradientUnits="objectBoundingBox"><stop offset="0" stop-color="#febbba"/><stop offset="1" stop-color="#ff928e"/></linearGradient><linearGradient id="linear-gradient-9" x1="-26.446" x2="-25.446" y1=".501" y2=".501" xlink:href="#linear-gradient-3"/><linearGradient id="linear-gradient-10" x1="-24.976" x2="-23.942" y1="1.602" y2="-1.187" xlink:href="#linear-gradient-8"/><linearGradient id="linear-gradient-11" x1="-21.707" x2="-20.707" y1=".5" y2=".5" xlink:href="#linear-gradient-3"/><linearGradient id="linear-gradient-12" x1="-9.005" x2="-8.542" y1="1.698" y2="-1.193" xlink:href="#linear-gradient-8"/><linearGradient id="linear-gradient-13" x1="0" x2="1" y1=".5" y2=".5" xlink:href="#linear-gradient"/><linearGradient id="linear-gradient-14" x2="1" y1=".5" y2=".5" gradientUnits="objectBoundingBox"><stop offset="0" stop-color="#4f52ff"/><stop offset="1" stop-color="#4042e2"/></linearGradient><linearGradient id="linear-gradient-15" x1="-33.287" x2="-33.033" y1="1.857" y2=".807" xlink:href="#linear-gradient-8"/><linearGradient id="linear-gradient-16" x1="-24.436" x2="-22.902" y1="-.656" y2="-2.909" xlink:href="#linear-gradient-8"/><linearGradient id="linear-gradient-17" x1="-1.408" x2=".158" y1="2.839" y2=".844" xlink:href="#linear-gradient-7"/><linearGradient id="linear-gradient-18" x1="-90.901" x2="-85.109" y1="-2.84" y2="-9.981" xlink:href="#linear-gradient-8"/><linearGradient id="linear-gradient-19" x1="-32.439" x2="-30.848" y1="-1.122" y2="1.885" xlink:href="#linear-gradient-8"/><linearGradient id="linear-gradient-20" x1="0" x2="1" y1=".5" y2=".5" xlink:href="#linear-gradient-8"/><linearGradient id="linear-gradient-21" x1="-14.332" x2="-15.07" y1="-6.395" y2="-3.932" xlink:href="#linear-gradient-3"/><linearGradient id="linear-gradient-22" x1="-11.935" x2="-12.333" y1=".133" y2=".802" xlink:href="#linear-gradient-3"/><linearGradient id="linear-gradient-23" x1="-.799" x2="1.025" y1="1.009" y2=".359" xlink:href="#linear-gradient-8"/><linearGradient id="linear-gradient-24" x1=".186" x2="-.496" y1=".236" y2="1.363" gradientUnits="objectBoundingBox"><stop offset="0" stop-color="#fdf53f"/><stop offset=".66" stop-color="#e57a58"/><stop offset="1" stop-color="#d93c65"/></linearGradient><linearGradient id="linear-gradient-25" x1=".271" x2="-.461" y1="-.306" y2="1.943" xlink:href="#linear-gradient-3"/><linearGradient id="linear-gradient-26" x1="-.421" x2="-1.347" y1="-.134" y2="1.249" xlink:href="#linear-gradient-8"/><linearGradient id="linear-gradient-27" x1="3.267" x2="1.573" y1="2.728" y2="1.442" xlink:href="#linear-gradient-14"/><linearGradient id="linear-gradient-28" x1="6.908" x2="7.409" y1="6.825" y2="8.407" xlink:href="#linear-gradient-8"/><linearGradient id="linear-gradient-29" x1="-5.267" x2="-5.144" y1="1.062" y2=".098" xlink:href="#linear-gradient-8"/><linearGradient id="linear-gradient-30" x1="-3.142" x2="-3.463" y1=".703" y2="-.252" xlink:href="#linear-gradient-8"/><linearGradient id="linear-gradient-31" x1="-1.787" x2="-1.609" y1="-.577" y2=".817" xlink:href="#linear-gradient-3"/><linearGradient id="linear-gradient-32" x1="-18.137" x2="-19.553" y1="1.666" y2="-1.374" xlink:href="#linear-gradient-8"/><linearGradient id="linear-gradient-33" x1="-.003" x2=".176" y1="-.291" y2="2.089" xlink:href="#linear-gradient-3"/><linearGradient id="linear-gradient-34" x1="-29.441" x2="-28.441" y1=".5" y2=".5" xlink:href="#linear-gradient-3"/><linearGradient id="linear-gradient-35" x1="-27.996" x2="-28.737" y1="-.605" y2=".972" xlink:href="#linear-gradient-3"/><linearGradient id="linear-gradient-36" x1="-19.329" x2="-18.22" y1="-5.791" y2="-9.105" xlink:href="#linear-gradient-8"/><linearGradient id="linear-gradient-37" x1=".195" x2=".7" y1="-.587" y2="1.117" gradientUnits="objectBoundingBox"><stop offset="0" stop-color="#ab316d"/><stop offset="1" stop-color="#792d3d"/></linearGradient><linearGradient id="linear-gradient-38" x1="0" x2="1" y1=".5" y2=".5" xlink:href="#linear-gradient-7"/><linearGradient id="linear-gradient-39" x1=".506" x2=".576" y1=".644" y2="-1.072" xlink:href="#linear-gradient-14"/></defs><g id="employment" transform="translate(-0.01 0.01)"><g id="Illustration" transform="translate(0.01 -0.01)"><path id="Path_40595" d="M874.181,465.217a2.792,2.792,0,0,1,4.36-3.038c21.9,16.585,75.706,67.507,74.172,166.644C950.8,753.2,981.135,795.3,1015.877,819.245c0,0-45.095-8.208-77.438-50.752C859.043,664.046,888.672,511.088,874.181,465.217Z" class="cls-1" data-name="Path 40595" transform="translate(-797.841 -461.6)"/><path id="Path_40596" d="M978.679,675.809c3.944,13.4,7.622,26.88,10.8,40.475q4.874,20.359,8.5,40.97c2.355,13.743,4.45,27.524,5.957,41.376,1.571,13.845,2.543,27.741,3.473,41.7,1.005,13.943,1.939,27.994,4.314,41.994a141.785,141.785,0,0,0,12.906,40.645c1.621,3.179,3.3,6.341,5.158,9.374,1.8,3.066,3.733,6.055,5.729,9.008a146.891,146.891,0,0,0,46.156,43.779,2.7,2.7,0,0,0,2.885-4.565h0c-2.891-1.882-5.757-3.794-8.526-5.827-1.4-.994-2.758-2.05-4.131-3.079-1.333-1.079-2.709-2.107-4.007-3.227a142.47,142.47,0,0,1-14.8-14.24,156.132,156.132,0,0,1-23.137-33.878,136.04,136.04,0,0,1-7.71-18.982,154.269,154.269,0,0,1-4.894-20c-2.4-13.575-3.449-27.474-4.554-41.41s-2.351-27.933-4.149-41.857q-1.321-10.446-3.018-20.836c-.543-3.465-1.155-6.919-1.761-10.376q-.959-5.175-1.983-10.335-4.153-20.629-9.568-40.957c-3.68-13.523-7.716-26.946-12.262-40.19a.724.724,0,1,0-1.38.44Z" class="cls-2" data-name="Path 40596" transform="translate(-883.109 -635.445)"/><path id="Path_40597" d="M603.4,1082.191a7.388,7.388,0,0,1-11.274,4.842c-24.372-15.667-89.266-66.2-100.355-165.594-9.366-83.941-22.42-128.572-29.748-148.414a4.638,4.638,0,0,1,6.9-5.478C510.176,794.646,637.778,895.069,603.4,1082.191Z" class="cls-3" data-name="Path 40597" transform="translate(-461.72 -710.365)"/><path id="Path_40598" d="M794.737,1469.7a2.05,2.05,0,0,1-3.142-.409c-.68-1.089-68.25-110.15-86.538-226.28a2.052,2.052,0,0,1,4.053-.643c18.154,115.278,85.288,223.661,85.963,224.735a2.052,2.052,0,0,1-.336,2.6Z" class="cls-2" data-name="Path 40598" transform="translate(-660.064 -1096.659)"/><path id="Path_40599" d="M2873.188,1458.653a1.465,1.465,0,0,0,.37-.048,1.406,1.406,0,0,0,1.039-1.726,180,180,0,0,0-8.655-24.314,1.5,1.5,0,0,0-1.917-.75,1.4,1.4,0,0,0-.778,1.848,176.537,176.537,0,0,1,8.522,23.943A1.456,1.456,0,0,0,2873.188,1458.653Z" class="cls-4" data-name="Path 40599" transform="translate(-2419.317 -1252.414)"/><path id="Path_40600" d="M1636.943,869.183a1.521,1.521,0,0,0,.88-.283,1.377,1.377,0,0,0,.286-1.974c-39.245-50.15-102.465-80.086-169.106-80.086a208.251,208.251,0,0,0-81.821,16.522,1.39,1.39,0,0,0-.739,1.848,1.488,1.488,0,0,0,1.93.724,205.172,205.172,0,0,1,80.64-16.286c65.731,0,128.077,29.519,166.773,78.962a1.479,1.479,0,0,0,1.157.571Z" class="cls-4" data-name="Path 40600" transform="translate(-1215.443 -726.731)"/><path id="Path_40601" d="M2597.9,1732.987a13.939,13.939,0,0,0,14.915,12.789,13.8,13.8,0,0,0,13.273-14.369,13.94,13.94,0,0,0-14.915-12.789A13.8,13.8,0,0,0,2597.9,1732.987Z" class="cls-5" data-name="Path 40601" transform="translate(-2203.079 -1486.283)"/><path id="Path_40602" d="M947.683,1825.516a13.939,13.939,0,0,0,14.915,12.789,13.793,13.793,0,0,0,13.272-14.369,13.939,13.939,0,0,0-14.913-12.789A13.8,13.8,0,0,0,947.683,1825.516Z" class="cls-6" data-name="Path 40602" transform="translate(-857.85 -1561.712)"/><path id="Path_40603" d="M1932.907,2548.522a13.648,13.648,0,0,0-11.351,15.824,14.089,14.089,0,0,0,16.425,10.938,13.648,13.648,0,0,0,11.351-15.824A14.093,14.093,0,0,0,1932.907,2548.522Z" class="cls-6" data-name="Path 40603" transform="translate(-1651.567 -2162.645)"/><path id="Path_40604" d="M1635.847,981.644A13.649,13.649,0,0,0,1624.5,997.47a14.085,14.085,0,0,0,16.425,10.935,13.645,13.645,0,0,0,11.349-15.824A14.089,14.089,0,0,0,1635.847,981.644Z" class="cls-6" data-name="Path 40604" transform="translate(-1409.408 -885.35)"/><path id="Path_40605" d="M1437.024,2567.7c-1.434,3.489-1.076,6.753.8,7.294s4.561-1.848,6-5.335,1.076-6.753-.8-7.294S1438.458,2564.21,1437.024,2567.7Z" class="cls-6" data-name="Path 40605" transform="translate(-1256.056 -2174.048)"/><path id="Path_40606" d="M2100.917,1081.518c-1.436,3.487-1.077,6.753.8,7.295s4.561-1.848,6-5.335,1.076-6.753-.8-7.295S2102.351,1078.031,2100.917,1081.518Z" class="cls-5" data-name="Path 40606" transform="translate(-1797.251 -962.536)"/><path id="Path_40607" d="M1077.814,2298.984c-3.1,2.264-4.558,5.234-3.245,6.635s4.894.7,8-1.56,4.559-5.234,3.247-6.635S1080.919,2296.722,1077.814,2298.984Z" class="cls-5" data-name="Path 40607" transform="translate(-960.911 -1957.547)"/><path id="Path_40608" d="M2446.044,1360.984c-3.1,2.262-4.557,5.234-3.245,6.635s4.894.7,8-1.56,4.559-5.234,3.247-6.635S2449.149,1358.722,2446.044,1360.984Z" class="cls-5" data-name="Path 40608" transform="translate(-2076.272 -1192.904)"/><path id="Path_40609" d="M1016.641,1462.579c-3.511-1.613-6.919-1.479-7.605.281s1.608,4.51,5.123,6.121,6.921,1.479,7.607-.281S1020.156,1464.191,1016.641,1462.579Z" class="cls-5" data-name="Path 40609" transform="translate(-907.785 -1276.663)"/><path id="Path_40610" d="M2511.1,2200.365c-3.511-1.614-6.921-1.488-7.607.281s1.608,4.51,5.123,6.121,6.921,1.488,7.607-.281S2514.616,2201.977,2511.1,2200.365Z" class="cls-5" data-name="Path 40610" transform="translate(-2126.046 -1878.092)"/><path id="Path_40611" d="M1333.173,1135.8c-2.136-3.142-5.114-4.733-6.653-3.565s-1.055,4.657,1.079,7.8,5.114,4.733,6.654,3.565S1335.3,1138.941,1333.173,1135.8Z" class="cls-6" data-name="Path 40611" transform="translate(-1165.958 -1007.983)"/><path id="Path_40612" d="M2212.823,2514.039c-2.135-3.142-5.114-4.733-6.653-3.563s-1.055,4.657,1.079,7.794,5.114,4.733,6.654,3.565S2214.958,2517.177,2212.823,2514.039Z" class="cls-6" data-name="Path 40612" transform="translate(-1883.036 -2131.499)"/><path id="Path_40613" d="M2996.985,733.885c-2.229-22.481-7.8-78.317-9.022-86.479-1.53-10.257-14.1-7.993-14.1-7.993l-2.693,103.8H2988.7a8.265,8.265,0,0,0,6.18-2.8,8.572,8.572,0,0,0,2.109-6.533Z" class="cls-7" data-name="Path 40613" transform="translate(-2507.386 -606.378)"/><path id="Path_40614" d="M2300.879,746.1a9.913,9.913,0,0,1-9.7-10.121l1.787-84.276a8.733,8.733,0,0,1,8.472-8.544l122.305-3.628a6.441,6.441,0,0,1,6.631,6.456l-.294,96.62a6.114,6.114,0,0,1-6.243,6.1Z" class="cls-8" data-name="Path 40614" transform="translate(-1953.067 -606.642)"/><path id="Path_40615" d="M2288.488,764.223a2.879,2.879,0,0,1-2.8-3.327c1.8-11.475,7.47-50.944,5.653-83.721a2.661,2.661,0,0,1,2.571-2.813l122.856-3.92a3.062,3.062,0,0,1,3.16,2.946c.523,13.778,2.469,70.514-.078,90.683a2.426,2.426,0,0,1-2.447,2.12Z" class="cls-4" data-name="Path 40615" transform="translate(-1948.561 -631.844)"/><path id="Path_40616" d="M2305.777,772.831a2.772,2.772,0,0,1-2.694-3.2c1.735-11.043,7.188-49.026,5.439-80.563a2.56,2.56,0,0,1,2.475-2.711l118.23-3.772a2.956,2.956,0,0,1,3.042,2.848c.5,13.259,2.375,67.858-.075,87.268a2.335,2.335,0,0,1-2.354,2.033Z" class="cls-9" data-name="Path 40616" transform="translate(-1962.744 -641.742)"/><path id="Path_40617" d="M2710.183,799.661l-.185,8.514a2.327,2.327,0,0,0,2.314,2.377l8.734.05a2.327,2.327,0,0,0,2.34-2.279l.185-8.952a2.329,2.329,0,0,0-2.419-2.379l-8.744.388A2.328,2.328,0,0,0,2710.183,799.661Z" class="cls-10" data-name="Path 40617" transform="translate(-2294.482 -735.005)"/><path id="Path_40618" d="M2535.612,816.095l8.735.048a2.327,2.327,0,0,0,2.34-2.279l.163-7.612a2.329,2.329,0,0,0-2.4-2.377l-8.741.314a2.327,2.327,0,0,0-2.244,2.277l-.153,7.25a2.329,2.329,0,0,0,2.3,2.379Z" class="cls-10" data-name="Path 40618" transform="translate(-2150.447 -740.616)"/><path id="Path_40619" d="M2538.464,1074.851l-8.316-.081a2.541,2.541,0,0,0-2.564,2.488l-.166,7.779a2.543,2.543,0,0,0,2.434,2.588l8.3.351a2.54,2.54,0,0,0,2.647-2.484l.172-8.051a2.539,2.539,0,0,0-2.508-2.589Z" class="cls-10" data-name="Path 40619" transform="translate(-2145.646 -961.446)"/><path id="Path_40620" d="M2452.531,1084.148l.161-7.607a2.5,2.5,0,0,0-2.473-2.55l-8.394-.081a2.5,2.5,0,0,0-2.521,2.445l-.155,7.333a2.5,2.5,0,0,0,2.391,2.547l8.389.355a2.5,2.5,0,0,0,2.6-2.442Z" class="cls-10" data-name="Path 40620" transform="translate(-2073.689 -960.745)"/><path id="Path_40621" d="M2456.461,903.839l.133-6.245a2.689,2.689,0,0,0-2.693-2.745l-8.015.015a2.687,2.687,0,0,0-2.682,2.632l-.128,5.968a2.687,2.687,0,0,0,2.6,2.743l8.012.261a2.685,2.685,0,0,0,2.774-2.628Z" class="cls-10" data-name="Path 40621" transform="translate(-2076.892 -814.779)"/><path id="Path_40622" d="M2454.374,987.122l.2-9.551a2.5,2.5,0,0,0-2.414-2.549l-8.2-.268a2.687,2.687,0,0,0-2.772,2.628l-.2,9.633a2.5,2.5,0,0,0,2.495,2.55h8.4A2.5,2.5,0,0,0,2454.374,987.122Z" class="cls-10" data-name="Path 40622" transform="translate(-2075.188 -879.914)"/><path id="Path_40623" d="M2624.025,813.585l8.735.048a2.327,2.327,0,0,0,2.34-2.279l.185-8.293a2.327,2.327,0,0,0-2.4-2.377l-8.742.314a2.328,2.328,0,0,0-2.243,2.277l-.168,7.931a2.329,2.329,0,0,0,2.3,2.379Z" class="cls-10" data-name="Path 40623" transform="translate(-2222.525 -738.015)"/><path id="Path_40624" d="M2542.724,989.437l.185-8.934a2.541,2.541,0,0,0-2.458-2.587l-8.3-.272a2.541,2.541,0,0,0-2.622,2.486l-.2,9.2a2.542,2.542,0,0,0,2.54,2.587h8.316A2.542,2.542,0,0,0,2542.724,989.437Z" class="cls-10" data-name="Path 40624" transform="translate(-2147.202 -882.27)"/><path id="Path_40625" d="M2631.275,894.53l-9.538.017a1.93,1.93,0,0,0-1.924,1.887l-.185,8.588a1.926,1.926,0,0,0,1.863,1.967l9.531.312a1.927,1.927,0,0,0,1.99-1.885l.185-8.919a1.926,1.926,0,0,0-1.922-1.966Z" class="cls-10" data-name="Path 40625" transform="translate(-2220.814 -814.518)"/><path id="Path_40626" d="M2708.231,896.756l-.174,8.182a2.422,2.422,0,0,0,2.342,2.471l8.542.279a2.421,2.421,0,0,0,2.5-2.368l.185-8.475a2.424,2.424,0,0,0-2.425-2.475l-8.548.017A2.421,2.421,0,0,0,2708.231,896.756Z" class="cls-10" data-name="Path 40626" transform="translate(-2292.9 -814.388)"/><path id="Path_40627" d="M2533.184,906.585l9.529.312a1.925,1.925,0,0,0,1.99-1.885l.185-8.355a1.926,1.926,0,0,0-1.929-1.967l-9.539.017a1.928,1.928,0,0,0-1.932,1.889l-.17,8.025a1.928,1.928,0,0,0,1.865,1.964Z" class="cls-10" data-name="Path 40627" transform="translate(-2148.825 -814.648)"/><path id="Path_40628" d="M2628.851,980.8l-8.3-.272a2.543,2.543,0,0,0-2.625,2.486l-.185,8.672a2.541,2.541,0,0,0,2.539,2.588h8.317a2.541,2.541,0,0,0,2.541-2.486l.185-8.4A2.539,2.539,0,0,0,2628.851,980.8Z" class="cls-10" data-name="Path 40628" transform="translate(-2219.273 -884.618)"/><path id="Path_40629" d="M2717.491,983.635l-8.885-.29a2.251,2.251,0,0,0-2.323,2.2l-.185,8.731a2.25,2.25,0,0,0,2.249,2.3h8.892a2.249,2.249,0,0,0,2.249-2.2l.185-8.44A2.251,2.251,0,0,0,2717.491,983.635Z" class="cls-10" data-name="Path 40629" transform="translate(-2291.303 -886.918)"/><path id="Path_40630" d="M2448.5,818.068l6.629.039a3.229,3.229,0,0,0,3.245-3.16l.116-5.469a2.875,2.875,0,0,0-2.968-2.935l-7.393.268a3.16,3.16,0,0,0-3.045,3.09l-.1,4.569a3.53,3.53,0,0,0,3.513,3.6Z" class="cls-10" data-name="Path 40630" transform="translate(-2078.449 -742.791)"/><path id="Path_40631" d="M2381.265,1076.1a2.685,2.685,0,0,0-2.661-2.743l-2.887-.03c-2.2-.02-3.988,1.43-4.027,3.256l-.113,5.288c-.039,1.811,1.664,3.327,3.841,3.421l3.1.131a2.5,2.5,0,0,0,2.6-2.441Z" class="cls-10" data-name="Path 40631" transform="translate(-2018.606 -960.272)"/><path id="Path_40632" d="M2889.154,1078.255l-5.68-.055a2.543,2.543,0,0,0-2.565,2.49l-.21,9.9a2.541,2.541,0,0,0,2.434,2.587l5.654.24c2.255.094,4.146-1.375,4.184-3.253l.185-8.5C2893.19,1079.826,2891.392,1078.277,2889.154,1078.255Z" class="cls-10" data-name="Path 40632" transform="translate(-2433.635 -964.242)"/><path id="Path_40633" d="M2377.405,987.944h2.819a2.687,2.687,0,0,0,2.687-2.63l.207-9.709a2.689,2.689,0,0,0-2.6-2.743l-2.837-.093c-2.236-.072-4.1,1.392-4.138,3.255l-.185,8.5C2373.323,986.4,2375.149,987.944,2377.405,987.944Z" class="cls-10" data-name="Path 40633" transform="translate(-2020.058 -878.295)"/><path id="Path_40634" d="M2379.41,905.97l3.549.116a2.033,2.033,0,0,0,2.1-1.989l.148-7.012a2.033,2.033,0,0,0-2.033-2.076h-3.584c-2.173,0-3.933,1.447-3.972,3.256l-.09,4.275C2375.486,904.373,2377.218,905.9,2379.41,905.97Z" class="cls-10" data-name="Path 40634" transform="translate(-2021.826 -814.909)"/><path id="Path_40635" d="M2895.025,791.116l-5.694.2a2.421,2.421,0,0,0-2.334,2.369l-.209,9.786a2.421,2.421,0,0,0,2.4,2.473l5.864.033c2.187.013,3.97-1.434,4.009-3.255l.172-8.185C2899.283,792.6,2897.346,791.031,2895.025,791.116Z" class="cls-10" data-name="Path 40635" transform="translate(-2438.598 -730.213)"/><path id="Path_40636" d="M2626.753,1075.709l-8.317-.079a2.539,2.539,0,0,0-2.563,2.486l-.185,8.317a2.541,2.541,0,0,0,2.432,2.587l8.3.351a2.54,2.54,0,0,0,2.647-2.484l.185-8.585a2.544,2.544,0,0,0-2.5-2.593Z" class="cls-10" data-name="Path 40636" transform="translate(-2217.602 -962.147)"/><path id="Path_40637" d="M2893.073,894.08l-5.772.011a2.421,2.421,0,0,0-2.417,2.377l-.2,9.309a2.417,2.417,0,0,0,2.341,2.471l5.8.185c2.237.074,4.1-1.392,4.138-3.255l.163-7.67C2897.166,895.625,2895.333,894.076,2893.073,894.08Z" class="cls-10" data-name="Path 40637" transform="translate(-2436.886 -814.151)"/><path id="Path_40638" d="M2891.388,989.322l-6.025-.2a2.25,2.25,0,0,0-2.323,2.2l-.162,7.666a2.249,2.249,0,0,0,2.249,2.3h6.053c2.177,0,3.944-1.443,3.982-3.256l.111-5.286C2895.312,990.919,2893.58,989.394,2891.388,989.322Z" class="cls-10" data-name="Path 40638" transform="translate(-2435.411 -891.629)"/><path id="Path_40639" d="M2794.661,988.436l-.173,8.2a2.251,2.251,0,0,0,2.249,2.3h8.892a2.249,2.249,0,0,0,2.249-2.2l.168-7.908a2.247,2.247,0,0,0-2.176-2.3l-8.885-.292a2.249,2.249,0,0,0-2.323,2.2Z" class="cls-10" data-name="Path 40639" transform="translate(-2363.357 -889.273)"/><path id="Path_40640" d="M2803.457,1077.421l-8.3-.081a2.543,2.543,0,0,0-2.565,2.489l-.2,9.374a2.543,2.543,0,0,0,2.434,2.588l8.3.349a2.542,2.542,0,0,0,2.65-2.48l.205-9.644a2.543,2.543,0,0,0-2.519-2.595Z" class="cls-10" data-name="Path 40640" transform="translate(-2361.645 -963.542)"/><path id="Path_40641" d="M2381.354,820.448l3.474.018a2.033,2.033,0,0,0,2.044-1.989l.146-6.86a2.032,2.032,0,0,0-2.1-2.074l-3.682.133c-2.107.076-3.77,1.5-3.807,3.253l-.087,4.092C2377.3,818.89,2379.108,820.435,2381.354,820.448Z" class="cls-10" data-name="Path 40641" transform="translate(-2023.302 -745.238)"/><path id="Path_40642" d="M2715.136,1076.569l-8.163-.079a2.685,2.685,0,0,0-2.709,2.628l-.185,8.7a2.545,2.545,0,0,0,2.434,2.588l8.3.351a2.543,2.543,0,0,0,2.65-2.488l.194-9.111a2.544,2.544,0,0,0-2.519-2.589Z" class="cls-10" data-name="Path 40642" transform="translate(-2289.656 -962.849)"/><path id="Path_40643" d="M2798.6,796.419l-.194,9.1a2.424,2.424,0,0,0,2.4,2.475l8.546.048a2.423,2.423,0,0,0,2.436-2.371l.2-9.461a2.423,2.423,0,0,0-2.51-2.471l-8.553.307A2.423,2.423,0,0,0,2798.6,796.419Z" class="cls-10" data-name="Path 40643" transform="translate(-2366.552 -732.357)"/><path id="Path_40644" d="M2796.543,896.6l-.185,8.745a2.421,2.421,0,0,0,2.336,2.471l8.542.281a2.425,2.425,0,0,0,2.5-2.369l.185-9.039a2.423,2.423,0,0,0-2.425-2.475l-8.548.017A2.421,2.421,0,0,0,2796.543,896.6Z" class="cls-10" data-name="Path 40644" transform="translate(-2364.881 -814.257)"/><path id="Path_40645" d="M2393.861,760.576l.394,2.883a1.9,1.9,0,0,0,1.837,1.637h.135a1.894,1.894,0,0,0,1.935-1.848l.063-2.957a1.894,1.894,0,0,0-2.1-1.922l-.593.065a1.894,1.894,0,0,0-1.669,2.142Z" class="cls-2" data-name="Path 40645" transform="translate(-2036.758 -703.513)"/><path id="Path_40646" d="M2466.281,756.555l.394,2.883a1.893,1.893,0,0,0,1.835,1.638h.137a1.893,1.893,0,0,0,1.934-1.848l.063-2.957a1.892,1.892,0,0,0-2.1-1.922l-.592.065a1.892,1.892,0,0,0-1.668,2.142Z" class="cls-2" data-name="Path 40646" transform="translate(-2095.793 -700.235)"/><path id="Path_40647" d="M2555.373,757.779l.394,2.883a1.9,1.9,0,0,0,1.837,1.638h.137a1.894,1.894,0,0,0,1.933-1.848l.063-2.957a1.9,1.9,0,0,0-2.1-1.924l-.592.065a1.9,1.9,0,0,0-1.671,2.144Z" class="cls-2" data-name="Path 40647" transform="translate(-2168.42 -701.231)"/><path id="Path_40648" d="M2642.18,753.889l.394,2.883a1.892,1.892,0,0,0,1.837,1.638h.135a1.894,1.894,0,0,0,1.935-1.848l.061-2.957a1.895,1.895,0,0,0-2.1-1.924l-.593.067a1.893,1.893,0,0,0-1.669,2.142Z" class="cls-2" data-name="Path 40648" transform="translate(-2239.184 -698.06)"/><path id="Path_40649" d="M2731.341,742.556l.394,2.883a1.891,1.891,0,0,0,1.835,1.637h.137a1.893,1.893,0,0,0,1.933-1.848l.063-2.957a1.892,1.892,0,0,0-2.1-1.922l-.594.065a1.893,1.893,0,0,0-1.669,2.142Z" class="cls-2" data-name="Path 40649" transform="translate(-2311.866 -688.823)"/><path id="Path_40650" d="M2825.8,744.608l.394,2.892a1.894,1.894,0,0,0,1.835,1.637h.137a1.9,1.9,0,0,0,1.935-1.848l.061-2.957a1.894,1.894,0,0,0-2.1-1.922l-.593.065a1.9,1.9,0,0,0-1.669,2.133Z" class="cls-2" data-name="Path 40650" transform="translate(-2388.867 -690.503)"/><path id="Path_40651" d="M2905.511,742.9l.393,2.883a1.9,1.9,0,0,0,1.837,1.637h.135a1.9,1.9,0,0,0,1.936-1.848l.063-2.957a1.894,1.894,0,0,0-2.1-1.922l-.594.065a1.894,1.894,0,0,0-1.669,2.142Z" class="cls-2" data-name="Path 40651" transform="translate(-2453.847 -689.1)"/><path id="Path_40652" d="M2821.9,745.33a.7.7,0,0,0-1.166-.512c-1.355,1.066-1.905,2.722-2.572,4.267-.779,1.8-1.523,3.617-2.185,5.463a50.253,50.253,0,0,0-1.746,5.94,42.971,42.971,0,0,0-3.268-6.966.626.626,0,0,0-1.149.455c1.146,4.066,2.556,8.062,3.635,12.155a1.276,1.276,0,0,0,2.5-.285,46.338,46.338,0,0,1,2.617-11c.617-1.7,1.307-3.377,2.021-5.04C2821.217,748.339,2821.99,746.965,2821.9,745.33Z" class="cls-11" data-name="Path 40652" transform="translate(-2375.826 -692.329)"/><path id="Path_40653" d="M2768.673,754.3a.921.921,0,0,0-.527,1.763c7.146,3.142,8.082,12.013,2.918,17.373a35.834,35.834,0,0,1-8.559,6.064c-3.042,1.68-6.441,2.957-9.98,2.608-8.187-.822-9.3-9.154-6.851-15.584a22.987,22.987,0,0,1,13.569-13.247c.8-.3.488-1.593-.329-1.294a25.965,25.965,0,0,0-13.776,11.534c-2.809,4.931-4.493,11.887-.817,16.839,3.805,5.123,11.028,5.214,16.469,3.079,5.986-2.349,13.438-6.707,15.82-13.031C2779.114,763.778,2776.033,755.68,2768.673,754.3Z" class="cls-12" data-name="Path 40653" transform="translate(-2320.741 -698.28)"/><path id="Path_40654" d="M3041.35,950.635a.309.309,0,0,1-.311-.307l-.369-54.406a.311.311,0,0,1,.309-.312h0a.309.309,0,0,1,.308.309l.37,54.4a.309.309,0,0,1-.307.312Z" class="cls-4" data-name="Path 40654" transform="translate(-2564.042 -815.398)"/><path id="Path_40655" d="M3039.892,744.832a.312.312,0,0,1-.31-.309l-.131-19a.309.309,0,0,1,.309-.312h0a.307.307,0,0,1,.309.307l.133,19a.31.31,0,0,1-.309.31Z" class="cls-4" data-name="Path 40655" transform="translate(-2563.047 -676.491)"/><circle id="Ellipse_383" cx="3.316" cy="3.316" r="3.316" class="cls-4" data-name="Ellipse 383" transform="translate(357.085 45.757)"/><circle id="Ellipse_384" cx="3.316" cy="3.316" r="3.316" class="cls-4" data-name="Ellipse 384" transform="translate(384.245 45.501)"/><circle id="Ellipse_385" cx="3.316" cy="3.316" r="3.316" class="cls-4" data-name="Ellipse 385" transform="translate(411.661 44.609)"/><circle id="Ellipse_386" cx="3.316" cy="3.316" r="3.316" class="cls-4" data-name="Ellipse 386" transform="translate(438.821 43.335)"/><path id="Path_40656" d="M2846.233,589.1c-5.578,1.218-5.051,15.894-4.6,21.852a2.687,2.687,0,0,0,2.68,2.484,1.381,1.381,0,0,0,1.368-1.527c-.482-4.5-1.508-17.472,2.6-18.165,0,0,2.946-.521,3.441,5.175h3.188S2853.246,587.567,2846.233,589.1Z" class="cls-13" data-name="Path 40656" transform="translate(-2401.575 -565.417)"/><path id="Path_40657" d="M2699.276,593.184c-5.578,1.216-5.051,15.894-4.6,21.856a2.685,2.685,0,0,0,2.678,2.486,1.375,1.375,0,0,0,1.367-1.523c-.482-4.5-1.508-17.484,2.6-18.177,0,0,2.946-.407,3.441,5.175h3.188S2706.29,591.654,2699.276,593.184Z" class="cls-13" data-name="Path 40657" transform="translate(-2281.779 -568.749)"/><path id="Path_40658" d="M2552.316,597.284c-5.578,1.218-5.051,15.894-4.6,21.86a2.687,2.687,0,0,0,2.678,2.488,1.375,1.375,0,0,0,1.368-1.523c-.482-4.5-1.508-17.487,2.6-18.182,0,0,2.946-.331,3.441,5.28l3.188-.111S2559.33,595.753,2552.316,597.284Z" class="cls-13" data-name="Path 40658" transform="translate(-2161.979 -572.092)"/><path id="Path_40659" d="M2405.356,602.033c-5.578,1.216-5.051,15.909-4.6,21.867a2.693,2.693,0,0,0,2.678,2.491,1.371,1.371,0,0,0,1.368-1.519c-.483-4.5-1.508-17.5,2.6-18.2,0,0,2.944-.431,3.441,5.153h3.186S2412.37,600.5,2405.356,602.033Z" class="cls-13" data-name="Path 40659" transform="translate(-2042.179 -575.963)"/><path id="Path_40660" d="M1303.322,1310.7h-90.692a6.366,6.366,0,0,1-6.629-6.064v-54.027a6.328,6.328,0,0,1,6.26-6.054l94.193-4.805c3.944-.2,7.208,2.772,6.988,6.385l-3.5,58.829A6.405,6.405,0,0,1,1303.322,1310.7Z" class="cls-4" data-name="Path 40660" transform="translate(-1068.446 -1095.926)"/><path id="Path_40661" d="M1269.289,1278.1l49.575-37.771a7.126,7.126,0,0,0-3.216-.578l-94.193,4.805a6.912,6.912,0,0,0-4.175,1.641l37.1,31.566A12.376,12.376,0,0,0,1269.289,1278.1Z" class="cls-6" data-name="Path 40661" transform="translate(-1077.641 -1095.932)"/><path id="Path_40662" d="M1367.87,1369.78a10.951,10.951,0,0,1-6.89-2.4L1347,1356.087a.854.854,0,0,1-.089-1.279,1.057,1.057,0,0,1,1.4-.079l13.979,11.29a9.006,9.006,0,0,0,10.509.481l7.243-4.763a1.054,1.054,0,0,1,1.384.207.859.859,0,0,1-.227,1.266l-7.243,4.763a11.088,11.088,0,0,1-6.086,1.807Z" class="cls-10" data-name="Path 40662" transform="translate(-1183.114 -1189.48)"/><path id="Path_40663" d="M1311.212,1326.9a1.03,1.03,0,0,1-.654-.227l-1.883-1.519a.854.854,0,0,1-.087-1.279,1.057,1.057,0,0,1,1.4-.08l1.882,1.519a.854.854,0,0,1,.087,1.279A1.03,1.03,0,0,1,1311.212,1326.9Z" class="cls-10" data-name="Path 40663" transform="translate(-1151.872 -1164.266)"/><path id="Path_40664" d="M2780.25,1591.767V1633.3a9.241,9.241,0,0,0,8.808,9.241l51.95,2.432a9.241,9.241,0,0,0,9.677-9.241v-43.986a9.241,9.241,0,0,0-9.241-9.241h-51.951a9.241,9.241,0,0,0-9.243,9.257Z" class="cls-4" data-name="Path 40664" transform="translate(-2351.751 -1375.349)"/><path id="Path_40665" d="M2839.682,1666.329c-.671,0-1.238,0-1.687-.017a1.543,1.543,0,0,1-.37-3.031,75.644,75.644,0,0,0,11.542-4.556c-15.275-1.246-18.324-9.091-18.914-12.68-1.488-9.056,6.367-19.289,17.507-22.827,11.37-3.606,22.886-2.306,29.343,3.314,3.432,2.987,7.155,8.7,5.4,19C2879.219,1664.78,2849.183,1666.329,2839.682,1666.329ZM2838.369,1665.948Zm-.318-2.4Zm22.069-7.531-4.839,2.7a106.047,106.047,0,0,1-9.7,4.67c11.793-.71,31.744-4.042,34.176-18.313,1.235-7.245-.273-12.776-4.486-16.448-6.533-5.687-18.112-5.482-26.685-2.761-9.714,3.085-16.863,12.12-15.612,19.735,1.135,6.912,9.006,10.778,21.6,10.514Z" class="cls-10" data-name="Path 40665" transform="translate(-2392.365 -1406.889)"/><path id="Path_40666" d="M1497.092,2713.773h-53.818c-4.118,0-7.454-2.576-7.454-5.753v-41.661c0-3,2.981-5.493,6.851-5.729l57.341-3.583c4.517-.281,8.317,2.587,8.041,6.08l-3.523,45.243C1504.294,2711.4,1501.034,2713.773,1497.092,2713.773Z" class="cls-4" data-name="Path 40666" transform="translate(-1255.792 -2251.279)"/><path id="Path_40667" d="M1495.07,2758.036a5.588,5.588,0,0,1-3.872-1.458,3.82,3.82,0,0,1-1.238-2.763V2727.1a1.185,1.185,0,0,1,2.367,0v26.709a1.493,1.493,0,0,0,.5,1.052,3.35,3.35,0,0,0,2.425.8l41-1.885c1.418-.064,2.571-.895,2.571-1.848v-26.225a1.5,1.5,0,0,0-.528-1.072,3.367,3.367,0,0,0-2.519-.769l-34.106,2.607a2.625,2.625,0,0,0-2.369,1.405,1.3,1.3,0,0,0,.346,1.41l13.009,13.861a3.206,3.206,0,0,0,2.286.882,3.258,3.258,0,0,0,2.332-.856l14.329-14.739a1.183,1.183,0,0,1,1.7,1.65l-14.329,14.739a5.629,5.629,0,0,1-4.049,1.573,5.43,5.43,0,0,1-3.992-1.628l-13.009-13.861a3.655,3.655,0,0,1-.826-3.881,4.938,4.938,0,0,1,4.4-2.909l34.106-2.608a5.766,5.766,0,0,1,4.306,1.392,3.827,3.827,0,0,1,1.294,2.809v26.224c0,2.24-2.122,4.09-4.829,4.213l-41,1.885Z" class="cls-10" data-name="Path 40667" transform="translate(-1299.926 -2303.83)"/><path id="Path_40668" d="M680.262,1773.31s-6.1,2.97-7.226,6.38c-.9,2.737-7.65,3.09-8.317,8.472a6.184,6.184,0,0,1-5.175,5.428c-6.894,1.057-17.515,4.635-19.221,16.6-1.294,9.135,3.36,12.6,8.247,13.8a6.921,6.921,0,0,1,5.249,8c-.7,3.477.342,7.494,6.365,10.671,13.492,7.121,26.97-16.868,26.97-16.868l2.761-41.888Z" class="cls-14" data-name="Path 40668" transform="translate(-607.137 -1530.886)"/><path id="Path_40669" d="M994.532,1719.58s-26.942,42.619-58.982,50.85c0,0,6.243,17.779,11.061,19.816,0,0,39.417-32.9,49.547-64.61Z" class="cls-15" data-name="Path 40669" transform="translate(-847.979 -1487.086)"/><path id="Path_40670" d="M489.621,3182.3l-.872,7.178a2.968,2.968,0,0,1-2.6,2.587,45.913,45.913,0,0,1-9.61.15,2.541,2.541,0,0,1-2.133-3.293c.882-2.772,2.493-6.931,4.816-9.379h7.964a2.453,2.453,0,0,1,2.436,2.758Z" class="cls-16" data-name="Path 40670" transform="translate(-471.963 -2677.224)"/><path id="Path_40671" d="M826.971,2739.44l1.344,7.906s-4.5,45.592-5.3,63.83a14.293,14.293,0,0,0,2.114,8.123l7.827,12.709-19.892-11.738-.4-2.428,3.26-4.476-4.269-51.076a15.655,15.655,0,0,1,1.783-8.668l4.114-7.729Z" class="cls-17" data-name="Path 40671" transform="translate(-746.94 -2318.461)"/><path id="Path_40672" d="M832.052,3167.056H825.7a3.818,3.818,0,0,1-3.033-1.488c-1.979-2.571-6.08-7.578-8.039-7.718-2.639-.185-2.3,9.206-2.3,9.206H810.85l-1.874-11.658a6.9,6.9,0,0,1,3.621-7.208s.6,4.462,3.881,6.434,13.307,9.041,13.307,9.041a9.053,9.053,0,0,1,2.578.068A1.676,1.676,0,0,1,832.052,3167.056Z" class="cls-18" data-name="Path 40672" transform="translate(-744.727 -2651.667)"/><path id="Path_40673" d="M537.069,2745.269s-26.368,50.019-30.555,61.44a109.979,109.979,0,0,0-5.716,21.849c-.089,1.411-1.848,2.761-6.676,2.761-2.493,0-3.715-1-4.314-1.966a2.822,2.822,0,0,1-.113-2.72c1.527-3.087,6.367-12.952,8.16-17.427,2.14-5.341,6.744-29.552,9.268-37.969s5.38-17.548,16.376-25.959C523.5,2745.269,531.049,2737.877,537.069,2745.269Z" class="cls-19" data-name="Path 40673" transform="translate(-484.284 -2320.535)"/><path id="Path_40674" d="M791.461,2050.271c6.8-28.822-10.431-45.125-10.431-45.125,10.873-10.437,30.679-15.186,30.679-15.186s18.9,13.821,16.661,24.638c-1.314,6.339-13.286,37.974-13.286,37.974S804.016,2057.811,791.461,2050.271Z" class="cls-20" data-name="Path 40674" transform="translate(-722.017 -1707.496)"/><path id="Path_40675" d="M685.355,2330.56c2.772-8.339,15.083-14.27,15.083-14.27,12.554,7.54,23.627,2.3,23.627,2.3s2.482,9.49.769,18.31-12.469,65.5-12.469,65.5c-16.94,3.432-42.994-3.454-42.994-3.454C680.163,2379.791,682.588,2338.9,685.355,2330.56Z" class="cls-21" data-name="Path 40675" transform="translate(-630.993 -1973.516)"/><path id="Path_40676" d="M855.413,1876.462l-5.531,24.841c-.529,2.188,1.466,1.83,3.678,1.412,3.622-.682,8.293-2.088,9.853-4.907a2.672,2.672,0,0,0,.283-.937l2.377-17.225a3.1,3.1,0,0,0-1.811-3.253l-4.585-2.033a3.1,3.1,0,0,0-4.262,2.1Z" class="cls-22" data-name="Path 40676" transform="translate(-778.073 -1613.046)"/><path id="Path_40677" d="M873.87,1760.47s5.888,3.985,8.417,14.135-1.58,13.789-5.794,13.566-10.326-1.527-15.62-8.807S866.156,1755.594,873.87,1760.47Z" class="cls-23" data-name="Path 40677" transform="translate(-785.939 -1519.696)"/><path id="Path_40678" d="M834.831,1736.931s-2.157-14.543,9.917-12.318l2.441,2.541s5.914-6.653-.63-11.687-15.615-3.743-20.636,5.417-6.838,15.595-2.635,21.287,7.374.81,7.374.81-1.93-4.926-.329-7.04,3.669,1.229,3.669,1.229Z" class="cls-24" data-name="Path 40678" transform="translate(-754.558 -1481.358)"/><path id="Path_40679" d="M859.556,1825.93s-1.064-7.483-4.886-5.345,1.379,6.99,3.462,8.64Z" class="cls-25" data-name="Path 40679" transform="translate(-780.933 -1569.111)"/><path id="Path_40680" d="M1235.038,1658.337c.081.88-3.188,1.478-4.229-2.26.286-1.626.795-8.753,2.033-9.86,6.653-5.9,18.493-12.527,18.493-12.527a2.42,2.42,0,0,1-.412,3.356l-5.914,3.99c.616,2.044,1.517,3.85,1.619,6.184a6.934,6.934,0,0,1-1.748,4.837c-1.177,1.344-2.761,3.081-4.19,4.4A6.811,6.811,0,0,1,1235.038,1658.337Z" class="cls-26" data-name="Path 40680" transform="translate(-1088.67 -1417.07)"/><path id="Path_40681" d="M1254.09,1697.66l-.9-.37c.12-.294,2.957-7.189,4.332-8.625a2.081,2.081,0,0,0,.75-1.386.984.984,0,0,0-.305-.608l-4.785,2.56-2.114,3.308-.824-.527,2.251-3.525,5.605-3,.253.207a2.118,2.118,0,0,1,.894,1.523,2.907,2.907,0,0,1-1.018,2.122C1257.191,1690.421,1254.89,1695.712,1254.09,1697.66Z" class="cls-27" data-name="Path 40681" transform="translate(-1104.51 -1459.297)"/><path id="Path_40682" d="M861.423,2379.034h.115l49.4-.054a2.188,2.188,0,1,0,0-4.374l-49.4.052a2.188,2.188,0,0,0-.109,4.375Z" class="cls-28" data-name="Path 40682" transform="translate(-785.817 -2021.053)"/><path id="Path_40683" d="M1082.4,2158.419h-41.145a7.848,7.848,0,0,0-7.091,4.448l-19.021,39.909h51.131a4.766,4.766,0,0,0,4.436-2.983l14.75-36.928a3.257,3.257,0,0,0-3.059-4.447Z" class="cls-29" data-name="Path 40683" transform="translate(-912.86 -1844.821)"/><ellipse id="Ellipse_387" cx="5.219" cy="3.238" class="cls-4" data-name="Ellipse 387" rx="5.219" ry="3.238" transform="translate(138.357 337.663) rotate(-71.928)"/><path id="Path_40684" d="M726.909,2072.45c-6.742,6.8-15.293,36.963-11.05,41.99,3.735,5.862,16.449,13.844,28.572,13.861H762.3c-7.509-7.979-12.68-10-18.84-4.423-4.886-2.088-11.224-10.178-15.452-13.789a4.508,4.508,0,0,1-.943-5.717c3.36-5.688,7.577-11.536,8.914-17.2C736.27,2080.526,731.358,2072.921,726.909,2072.45Z" class="cls-30" data-name="Path 40684" transform="translate(-667.966 -1774.741)"/><path id="Path_40685" d="M2863.891,2876.748c2.819.554,18.879,10.116,18.879-.81v-12.2S2863.074,2876.585,2863.891,2876.748Z" class="cls-31" data-name="Path 40685" transform="translate(-2419.914 -2419.789)"/><path id="Path_40686" d="M2473.834,3206a13,13,0,0,0-8.686-2.646c-3.46.606-7.518,3.667-10.135,5.936a1.387,1.387,0,0,0-.385,1.578,1.462,1.462,0,0,0,1.39.9c6.489-.133,19.182-.519,19.182-1.479A16.842,16.842,0,0,0,2473.834,3206Z" class="cls-32" data-name="Path 40686" transform="translate(-2086.226 -2696.599)"/><path id="Path_40687" d="M2531.071,3178.116l-2.977,5.626s-6.727.554-6.507-2.1a18.982,18.982,0,0,1,1.874-5.845Z" class="cls-33" data-name="Path 40687" transform="translate(-2140.888 -2674.175)"/><path id="Path_40688" d="M2607.107,2907.858c-4.665-25.471-3.913-41-3.913-41s-55.856-34.191-61.149-26.026-20.465,63.857-20.465,63.857l10.115,2.758s19.337-26.192,21.1-48.555c4.979,16.31,9.61,55.283,47.921,56.4a6.31,6.31,0,0,0,6.389-7.437Z" class="cls-34" data-name="Path 40688" transform="translate(-2140.887 -2400.087)"/><path id="Path_40689" d="M1869.228,2715.817l-6.177,5.845-4.851-4.853,6.4-7.389Z" class="cls-35" data-name="Path 40689" transform="translate(-1514.779 -2208.677)"/><path id="Path_40690" d="M3042.294,2519.2l5.156,19a2.219,2.219,0,0,1-.739,2.327c-2.482,1.879-8.973,5.616-17.874,1.985a3.081,3.081,0,0,1-1.806-2.662l-1.222-16.556Z" class="cls-36" data-name="Path 40690" transform="translate(-2551.927 -2138.924)"/><path id="Path_40691" d="M2951.66,2394.023s1.011,17.981,7.369,24.026,20,3.066,25.637-9.943l-6.993-23.656Z" class="cls-37" data-name="Path 40691" transform="translate(-2491.482 -2029.078)"/><path id="Path_40692" d="M2921.373,2339.611a.883.883,0,0,1-1.083-.8,22.974,22.974,0,0,0-1.5-7.276s.851-2.275-5.991.688-17.108,7.3-22.631,3.724c-5.384-3.484-9.808-19.084,4.859-15.012a.883.883,0,0,0,1.126-.832c.028-2.5.761-8.193,6.7-9.533,5.561-1.255,8.317,1.444,9.413,3.022a.878.878,0,0,0,1.371.1c1.8-1.98,6.592-6.112,12.833-2.7,5.142,2.809,5.691,6.171,5.428,8.213a.88.88,0,0,0,1.178.943c1.7-.614,4.365-.78,6.616,2.587,3.112,4.663-2.19,8.025-3.768,8.89a.88.88,0,0,0-.46.691c-.209,2.269-1,12.383-6.444,17.546-.472.447-1.663,0-1.848-.619l-3.046-9.426a.887.887,0,0,0-1.044-.591Z" class="cls-38" data-name="Path 40692" transform="translate(-2437.204 -1968.127)"/><path id="Path_40693" d="M3077.4,2449.24s3.142-9.307,6.426-5.914-1.767,9.8-5.938,10.749Z" class="cls-39" data-name="Path 40693" transform="translate(-2593.983 -2076.467)"/><path id="Path_40694" d="M2242.6,3209.613c-1.51.018-7.864-2.772-7.864-2.772l-5.914,1.58a18.9,18.9,0,0,0-12.568,2.75,1.7,1.7,0,0,0,.846,3.162c5.842.1,15.436.194,20.295-.1C2244.665,3213.8,2245.769,3214.007,2242.6,3209.613Z" class="cls-40" data-name="Path 40694" transform="translate(-1891.319 -2699.478)"/><path id="Path_40695" d="M2477.609,2674.885l-12.795-42.668a4.361,4.361,0,0,0-3.881-3.1l-17.273-1.183a2.451,2.451,0,0,0-2.48,3.256l14.3,40.737a3.583,3.583,0,0,0,3.023,2.38l17,1.889Z" class="cls-41" data-name="Path 40695" transform="translate(-2075.233 -2227.559)"/><path id="Path_40696" d="M2620.531,2866.708h.083l36.246-1.832a1.625,1.625,0,1,0-.164-3.245l-36.244,1.833a1.625,1.625,0,0,0,.079,3.245Z" class="cls-42" data-name="Path 40696" transform="translate(-2220.248 -2418.067)"/><path id="Path_40697" d="M2701.692,2828.584s-7.108,9.154-27.447-2.674c0,0-5.746-5.287-11.664-4.694s-10.211,8.644-10.211,8.644l11.419-.235s15.854,19.236,49,19.236C2713.716,2841.488,2706.135,2835.232,2701.692,2828.584Z" class="cls-43" data-name="Path 40697" transform="translate(-2247.505 -2385.085)"/><path id="Path_40698" d="M2937.312,2607.563c-4.327.952-9.128,5.526-12.523,9.379a27.8,27.8,0,0,0-5.849,10.649c-2.6,8.914-8.293,26.353-12.06,28.02,8.53,12.114,9.967,16.079,9.967,16.079-1.6,14.455-4.962,17.347-4.962,17.347s16.661,16.536,36.837,21.243c18.376-13.53,21.186-52.232,21.186-52.232C2971.347,2612.144,2950.149,2604.74,2937.312,2607.563Z" class="cls-44" data-name="Path 40698" transform="translate(-2454.978 -2210.528)"/><path id="Path_40699" d="M2958.173,2808.711a.414.414,0,0,1-.27-.728c.167-.144,16.729-14.6,21.186-33.165a.416.416,0,0,1,.808.185c-4.521,18.825-21.283,33.451-21.452,33.6A.419.419,0,0,1,2958.173,2808.711Z" class="cls-45" data-name="Path 40699" transform="translate(-2496.453 -2347.066)"/><path id="Path_40700" d="M2484.311,2926.51s-8.272,24.594-49.1,10.809c-19.8-6.685-47.516-45.439-47.516-45.439s-6.838,18.748-42.571,43.894l-7.947-7.132s36.176-62.35,54.705-55.879S2489.972,2910.556,2484.311,2926.51Z" class="cls-46" data-name="Path 40700" transform="translate(-1990.567 -2426.76)"/><path id="Path_40701" d="M2002.9,2183.04l13.928,38.824,14.791-.385-11.791-37.248Z" class="cls-6" data-name="Path 40701" transform="translate(-1632.736 -1779.58)"/></g></g></svg>