<svg xmlns="http://www.w3.org/2000/svg" xmlns:xlink="http://www.w3.org/1999/xlink" width="549.194" height="545.361" viewBox="0 0 549.194 545.361"><defs><style>.cls-1{fill:none}.cls-2{fill:#f4f7fa}.cls-3{fill:#d8dee8}.cls-4,.cls-6{opacity:.16}.cls-4{fill:url(#linear-gradient)}.cls-5{fill:url(#linear-gradient-2)}.cls-10,.cls-6{fill:#fff}.cls-7{clip-path:url(#clip-path)}.cls-8{clip-path:url(#clip-path-2)}.cls-9{fill:url(#linear-gradient-3)}.cls-11,.cls-13,.cls-28,.cls-45,.cls-47,.cls-48,.cls-66{opacity:.3}.cls-11{fill:url(#linear-gradient-4)}.cls-12{fill:url(#linear-gradient-5)}.cls-13{fill:url(#linear-gradient-6)}.cls-14{fill:#26264f}.cls-15{fill:url(#linear-gradient-7)}.cls-16,.cls-36{opacity:.5}.cls-16{fill:url(#linear-gradient-8)}.cls-17{fill:url(#linear-gradient-9)}.cls-18{fill:url(#linear-gradient-10)}.cls-19{fill:url(#linear-gradient-11)}.cls-20{fill:url(#linear-gradient-12)}.cls-21{fill:url(#linear-gradient-13)}.cls-22{opacity:.25;fill:url(#linear-gradient-14)}.cls-23{fill:url(#linear-gradient-15)}.cls-24{fill:url(#linear-gradient-16)}.cls-25{fill:url(#linear-gradient-17)}.cls-26{fill:url(#linear-gradient-18)}.cls-27{fill:url(#linear-gradient-19)}.cls-28{fill:url(#linear-gradient-20)}.cls-29{fill:url(#linear-gradient-21)}.cls-30{fill:url(#linear-gradient-22)}.cls-31{fill:url(#linear-gradient-23)}.cls-32{fill:url(#linear-gradient-24)}.cls-33{fill:url(#linear-gradient-25)}.cls-34{fill:url(#linear-gradient-26)}.cls-35{fill:url(#linear-gradient-27)}.cls-36{fill:url(#linear-gradient-28)}.cls-37{fill:url(#linear-gradient-29)}.cls-38{fill:url(#linear-gradient-30)}.cls-39{fill:url(#linear-gradient-31)}.cls-40{fill:url(#linear-gradient-32)}.cls-41{fill:url(#linear-gradient-33)}.cls-42{fill:url(#linear-gradient-34)}.cls-43{fill:url(#linear-gradient-35)}.cls-44{fill:url(#linear-gradient-36)}.cls-45{fill:url(#linear-gradient-37)}.cls-46{fill:url(#linear-gradient-38)}.cls-47{fill:url(#linear-gradient-39)}.cls-48{fill:url(#linear-gradient-41)}.cls-49{fill:url(#linear-gradient-42)}.cls-50{fill:url(#linear-gradient-43)}.cls-51{fill:url(#linear-gradient-44)}.cls-52{fill:url(#linear-gradient-45)}.cls-53{fill:url(#linear-gradient-46)}.cls-54{fill:url(#linear-gradient-47)}.cls-55{fill:url(#linear-gradient-48)}.cls-56{fill:url(#linear-gradient-49)}.cls-57{fill:url(#linear-gradient-50)}.cls-58{fill:url(#linear-gradient-51)}.cls-59{fill:url(#linear-gradient-52)}.cls-60{fill:url(#linear-gradient-53)}.cls-61{fill:url(#linear-gradient-54)}.cls-62{fill:url(#linear-gradient-55)}.cls-63{fill:url(#linear-gradient-56)}.cls-64{fill:url(#linear-gradient-57)}.cls-65{fill:url(#linear-gradient-58)}.cls-66{fill:url(#linear-gradient-59)}.cls-67{fill:#444b8c}.cls-68{fill:url(#linear-gradient-60)}.cls-69{fill:url(#linear-gradient-61)}.cls-70{fill:url(#linear-gradient-62)}.cls-71{fill:url(#linear-gradient-63)}.cls-72{fill:url(#linear-gradient-64)}.cls-73{fill:url(#linear-gradient-65)}.cls-74{fill:url(#linear-gradient-66)}.cls-75{fill:url(#linear-gradient-67)}.cls-76{fill:url(#linear-gradient-68)}</style><linearGradient id="linear-gradient" x2="1" y1=".5" y2=".5" gradientUnits="objectBoundingBox"><stop offset="0" stop-color="#ffc444"/><stop offset=".31" stop-color="#fba94a"/><stop offset="1" stop-color="#f36f56"/></linearGradient><linearGradient id="linear-gradient-2" x2="1" y1=".5" y2=".5" gradientUnits="objectBoundingBox"><stop offset="0" stop-color="#ff9085"/><stop offset="1" stop-color="#fb6fbb"/></linearGradient><clipPath id="clip-path"><path id="Path_40524" d="M858.674,486.693c18.671,26.136-2.446,69.054,25.053,88.57,26.771,19,59.076-12.945,84.287,3.385,37.4,24.226,31.8,136.924-21.764,207.488-16.11,21.216-29.67,29.549-35.462,53.416-12.44,51.246,33.489,81.169,25.075,106.54-18.943,57.123-318.992,108.046-441.389-61.742-57.161-79.3-66.807-194.576-17.4-282.714C566.34,442.355,816.781,428.043,858.674,486.693Z" class="cls-1" data-name="Path 40524" transform="translate(-445.172 -455)"/></clipPath><clipPath id="clip-path-2"><circle id="Ellipse_382" cx="277.611" cy="277.611" r="277.611" class="cls-1" data-name="Ellipse 382" transform="translate(0 392.604) rotate(-45)"/></clipPath><linearGradient id="linear-gradient-3" x1=".485" x2=".535" y1=".335" y2=".882" gradientUnits="objectBoundingBox"><stop offset="0" stop-color="#e38ddd"/><stop offset="1" stop-color="#9571f6"/></linearGradient><linearGradient id="linear-gradient-4" x2="1" y1=".5" y2=".5" gradientUnits="objectBoundingBox"><stop offset="0" stop-color="#ffc444"/><stop offset="1" stop-color="#f36f56"/></linearGradient><linearGradient id="linear-gradient-5" x1="-.522" x2="-.029" y1="1.028" y2=".051" xlink:href="#linear-gradient"/><linearGradient id="linear-gradient-6" x1="-.228" x2=".099" y1=".935" y2=".104" xlink:href="#linear-gradient"/><linearGradient id="linear-gradient-7" x1="1.045" x2=".064" y1=".193" y2=".703" gradientUnits="objectBoundingBox"><stop offset="0" stop-color="#311944"/><stop offset="1" stop-color="#893976"/></linearGradient><linearGradient id="linear-gradient-8" x1="1.712" x2="-.398" y1=".34" y2=".65" xlink:href="#linear-gradient-7"/><linearGradient id="linear-gradient-9" x1="-6.469" x2="-5.571" y1=".126" y2=".645" gradientUnits="objectBoundingBox"><stop offset="0" stop-color="#aa80f9"/><stop offset="1" stop-color="#6165d7"/></linearGradient><linearGradient id="linear-gradient-10" x1="-1.028" x2="-2.061" y1="1.083" y2=".04" gradientUnits="objectBoundingBox"><stop offset="0" stop-color="#40447e"/><stop offset="1" stop-color="#1c2c5a"/></linearGradient><linearGradient id="linear-gradient-11" x1="-3.758" x2="-3.386" y1=".181" y2=".52" gradientUnits="objectBoundingBox"><stop offset="0" stop-color="#40447e"/><stop offset="1" stop-color="#3c3b6b"/></linearGradient><linearGradient id="linear-gradient-12" x1="-20.401" x2="-20.505" y1="-1.639" y2="1.292" gradientUnits="objectBoundingBox"><stop offset="0" stop-color="#ab316d"/><stop offset="1" stop-color="#792d3d"/></linearGradient><linearGradient id="linear-gradient-13" x1="-21.551" x2="-21.666" y1="-.539" y2="1.299" xlink:href="#linear-gradient-12"/><linearGradient id="linear-gradient-14" x1="-2.752" x2="-2.36" y1=".256" y2=".625" xlink:href="#linear-gradient-11"/><linearGradient id="linear-gradient-15" x1="-78.099" x2="-75.46" y1="62.41" y2="62.41" xlink:href="#linear-gradient-4"/><linearGradient id="linear-gradient-16" x1="-1.197" x2=".046" y1=".254" y2=".791" xlink:href="#linear-gradient-9"/><linearGradient id="linear-gradient-17" x1="-75.443" x2="-73.576" y1="-13.237" y2="-13.237" xlink:href="#linear-gradient-4"/><linearGradient id="linear-gradient-18" x1="-6.656" x2="-4.238" y1="-2.244" y2="1.04" xlink:href="#linear-gradient-12"/><linearGradient id="linear-gradient-19" x1="-21.374" x2="-13.198" y1="-3.052" y2=".304" xlink:href="#linear-gradient-12"/><linearGradient id="linear-gradient-20" x1="-1.553" x2=".211" y1=".036" y2=".735" xlink:href="#linear-gradient-9"/><linearGradient id="linear-gradient-21" x1=".911" x2=".982" y1=".186" y2="-1.31" xlink:href="#linear-gradient-4"/><linearGradient id="linear-gradient-22" x1="9.547" x2="9.483" y1="-1.17" y2="-3.056" xlink:href="#linear-gradient-4"/><linearGradient id="linear-gradient-23" x1="-12.926" x2="-13.708" y1=".052" y2="1.438" xlink:href="#linear-gradient-9"/><linearGradient id="linear-gradient-24" x1="1.029" x2="-.131" y1=".217" y2=".675" xlink:href="#linear-gradient-7"/><linearGradient id="linear-gradient-25" x1="-1.999" x2="-1.053" y1=".431" y2=".917" xlink:href="#linear-gradient-9"/><linearGradient id="linear-gradient-26" x1="-.49" x2="1.712" y1=".427" y2=".751" xlink:href="#linear-gradient-7"/><linearGradient id="linear-gradient-27" x1="1.03" x2=".076" y1=".184" y2=".71" xlink:href="#linear-gradient-7"/><linearGradient id="linear-gradient-28" x1="1.661" x2="-.352" y1=".338" y2=".651" xlink:href="#linear-gradient-7"/><linearGradient id="linear-gradient-29" x1="-101.438" x2="-102.242" y1="-23.72" y2="-21.33" xlink:href="#linear-gradient-4"/><linearGradient id="linear-gradient-30" x1=".63" x2="-.326" y1=".097" y2="2.049" xlink:href="#linear-gradient-4"/><linearGradient id="linear-gradient-31" x1="0" x2="1" y1=".5" y2=".5" xlink:href="#linear-gradient-9"/><linearGradient id="linear-gradient-32" x1="-23.867" x2="-22.899" y1="1.183" y2="1.183" gradientUnits="objectBoundingBox"><stop offset="0" stop-color="#444b8c"/><stop offset="1" stop-color="#26264f"/></linearGradient><linearGradient id="linear-gradient-33" x1="-40.753" x2="-41.604" y1=".76" y2="1.841" xlink:href="#linear-gradient-4"/><linearGradient id="linear-gradient-34" x1="-8.869" x2="-8.245" y1="1.129" y2=".208" gradientUnits="objectBoundingBox"><stop offset="0" stop-color="#311944"/><stop offset="1" stop-color="#6b3976"/></linearGradient><linearGradient id="linear-gradient-35" x1="-15.763" x2="-14.763" y1=".5" y2=".5" xlink:href="#linear-gradient-32"/><linearGradient id="linear-gradient-36" x1="-45.599" x2="-44.455" y1="1.151" y2="-.561" xlink:href="#linear-gradient-4"/><linearGradient id="linear-gradient-37" x1="-10.969" x2="-10.197" y1="1.13" y2=".209" xlink:href="#linear-gradient-9"/><linearGradient id="linear-gradient-38" x1="-10.084" x2="-8.608" y1=".613" y2=".054" xlink:href="#linear-gradient-34"/><linearGradient id="linear-gradient-39" x1="-16.05" x2="-13.655" y1=".645" y2=".084" xlink:href="#linear-gradient-9"/><linearGradient id="linear-gradient-41" x1="-6.944" x2="-6.267" y1="-1.042" y2=".887" xlink:href="#linear-gradient-9"/><linearGradient id="linear-gradient-42" x1="-.626" x2="-.559" y1="-4.029" y2="-6.097" xlink:href="#linear-gradient-4"/><linearGradient id="linear-gradient-43" x1="-14.244" x2="-14.911" y1="8.727" y2="7.125" xlink:href="#linear-gradient-34"/><linearGradient id="linear-gradient-44" x1="-17.095" x2="-17.129" y1="9.882" y2="13.057" xlink:href="#linear-gradient-4"/><linearGradient id="linear-gradient-45" x1="-18.199" x2="-19.019" y1="10.941" y2="8.885" xlink:href="#linear-gradient-34"/><linearGradient id="linear-gradient-46" x1="1.178" x2="-.305" y1=".243" y2=".638" xlink:href="#linear-gradient-32"/><linearGradient id="linear-gradient-47" x1=".942" x2=".193" y1=".331" y2=".567" xlink:href="#linear-gradient-32"/><linearGradient id="linear-gradient-48" x1="0" x2="1" y1=".5" y2=".5" xlink:href="#linear-gradient-9"/><linearGradient id="linear-gradient-49" x1="-7.69" x2="-7.265" y1="-.137" y2=".873" xlink:href="#linear-gradient-7"/><linearGradient id="linear-gradient-50" x1="-3.442" x2="-4.856" y1="2.229" y2="-.77" xlink:href="#linear-gradient-9"/><linearGradient id="linear-gradient-51" x1="-47.235" x2="-38.947" y1="-2.061" y2="4.438" xlink:href="#linear-gradient-4"/><linearGradient id="linear-gradient-52" x1="-6.032" x2="-6.739" y1="-.44" y2=".966" xlink:href="#linear-gradient-9"/><linearGradient id="linear-gradient-53" x1="-13.114" x2="-12.286" y1="1.568" y2="1.568" xlink:href="#linear-gradient-11"/><linearGradient id="linear-gradient-54" x1="-27.32" x2="-19.131" y1="-8.475" y2="7.569" xlink:href="#linear-gradient-4"/><linearGradient id="linear-gradient-55" x1="-4.459" x2="-3.11" y1="-.759" y2="1.07" xlink:href="#linear-gradient-9"/><linearGradient id="linear-gradient-56" x1="-10.453" x2="-11.55" y1="-.346" y2="1.234" xlink:href="#linear-gradient-9"/><linearGradient id="linear-gradient-57" x1="-5.894" x2="-5.24" y1="-.15" y2="1.079" xlink:href="#linear-gradient-7"/><linearGradient id="linear-gradient-58" x1="-5.416" x2="-4.852" y1="-.257" y2=".939" xlink:href="#linear-gradient-7"/><linearGradient id="linear-gradient-59" x1="-5.129" x2="-4.88" y1="-.477" y2=".961" xlink:href="#linear-gradient-2"/><linearGradient id="linear-gradient-60" x1="2.617" x2="2.738" y1="-.399" y2="-2.059" xlink:href="#linear-gradient-12"/><linearGradient id="linear-gradient-61" x1="-16.112" x2="-16.791" y1="-.139" y2="-1.716" xlink:href="#linear-gradient-34"/><linearGradient id="linear-gradient-62" x1="1.489" x2="1.454" y1="-1.676" y2="1.491" xlink:href="#linear-gradient-12"/><linearGradient id="linear-gradient-63" x1="-91.249" x2="-91.065" y1="-33.9" y2="-28.819" xlink:href="#linear-gradient-12"/><linearGradient id="linear-gradient-64" x1="-21.905" x2="-24.941" y1="1.88" y2="-.535" xlink:href="#linear-gradient-3"/><linearGradient id="linear-gradient-65" x1="-8.296" x2="-10.649" y1="2.298" y2="-.783" xlink:href="#linear-gradient-3"/><linearGradient id="linear-gradient-66" x1="-33.197" x2="-32.902" y1="-.226" y2=".863" xlink:href="#linear-gradient-12"/><linearGradient id="linear-gradient-67" x1="-6.313" x2="-5.657" y1="-.347" y2=".931" xlink:href="#linear-gradient-7"/><linearGradient id="linear-gradient-68" x1="-23.171" x2="-22.693" y1="-.237" y2=".914" xlink:href="#linear-gradient-12"/></defs><g id="exchange" transform="translate(-36.052 0)"><g id="Illustration" transform="translate(36.052 0)"><path id="Path_40511" d="M858.674,486.693c18.671,26.136-2.446,69.054,25.053,88.57,26.771,19,59.076-12.945,84.287,3.385,37.4,24.226,31.8,136.924-21.764,207.488-16.11,21.216-29.67,29.549-35.462,53.416-12.44,51.246,33.489,81.169,25.075,106.54-18.943,57.123-318.992,108.046-441.389-61.742-57.161-79.3-66.807-194.576-17.4-282.714C566.34,442.355,816.781,428.043,858.674,486.693Z" class="cls-2" data-name="Path 40511" transform="translate(-445.172 -455)"/><path id="Path_40512" d="M1001.788,989.342c9.232.216,24.775.584,39.324-9.045,26.452-17.5,32.453-56.638,27.184-84.531-4.524-23.957-20.926-43.973-53.728-84-30.895-37.694-43.294-44.949-41.632-61.189,2.37-23.154,29.969-31.835,28.684-59.259-.154-3.292-.684-14.594-8.605-21.4-13.558-11.647-39.26-1.936-52.752,7.033-13.013,8.652-29.931,26.766-28.232,46.488,1.231,14.29,11.189,17.286,9.476,29.49-1.724,12.271-12.323,12.948-22.956,30.579-4.248,7.043-12.773,21.181-10.385,36.56,3.091,19.886,21.631,23.846,20.217,39.065-1.021,11-11.036,12.526-14.756,24.42-4.9,15.66,6.492,32.091,16.152,45.637C921.155,945.129,951.845,988.173,1001.788,989.342Z" class="cls-3" data-name="Path 40512" transform="translate(-801.55 -623.756)"/><path id="Path_40513" d="M1030.245,702.185c6.3,8.94-27.6,26.212-33.251,63.217-6.085,39.815,24.241,78.185,38.257,95.917,23.912,30.252,38.5,30.988,50.549,59.66,4.766,11.349,14.7,34.991,3.942,58.879-1,2.218-12.508,26.795-36.469,31.7-27.177,5.559-49.709-18.425-69.126-39.091-11.731-12.487-35.168-37.431-27.3-52.619,4.813-9.283,20.215-12.783,31.325-11.375,15.856,2.008,25.137,14.288,27.385,12.222,2.026-1.86-3.555-13.613-13.178-24.315-19.247-21.405-34.985-16.725-48.41-35.012-1.626-2.216-14.265-19.966-8.153-37.807,3.525-10.288,13.379-20.876,22.4-19.958,10.2,1.038,14.917,16.343,17.816,15.126,2.77-1.169.136-15.862-4.589-30.008-6.944-20.788-12.615-23.063-13.646-35-1.572-18.215,9.945-32.457,11.63-34.474C995.212,700.274,1024.854,694.542,1030.245,702.185Z" class="cls-4" data-name="Path 40513" transform="translate(-846.971 -651.4)"/><path id="Path_40514" d="M786.189,1524.752c6.065-1.913,16.275-5.132,23.62-14.639,13.354-17.284,8.57-44.129-1.073-61.143-8.276-14.608-23.415-24.011-53.693-42.8-28.516-17.7-38.21-19.672-40.738-30.628-3.6-15.619,12.465-27.412,5.524-44.992-.834-2.109-3.691-9.359-10.366-12.033-11.427-4.579-26.021,7.465-32.821,16.31-6.558,8.533-13.558,24.1-8.065,36.578,3.977,9.039,11.135,8.778,12.73,17.113,1.607,8.387-5.154,11.18-8.165,25.036-1.2,5.535-3.617,16.645,1.363,26.138,6.427,12.27,19.4,10.734,21.861,20.969,1.78,7.4-4.408,10.617-4.19,19.2.29,11.3,11.365,19.477,20.673,26.156C723.808,1513.867,753.378,1535.1,786.189,1524.752Z" class="cls-5" data-name="Path 40514" transform="translate(-623.47 -1149.516)"/><path id="Path_40515" d="M733.489,1344.214c6.1,4.425-12.16,23.219-7.62,48.6,4.887,27.305,33.181,45.577,46.258,54.014,22.311,14.413,31.985,11.638,46.211,27.657,5.629,6.338,17.358,19.539,15.658,37.5-.158,1.669-2.2,20.246-16.723,28.766-16.48,9.665-36.5-.958-53.757-10.111-10.422-5.531-31.243-16.581-29.488-28.228,1.071-7.121,10.335-12.828,17.888-14.38,10.781-2.214,19.561,3.726,20.568,1.88.906-1.663-5.345-8.081-14-12.919-17.3-9.672-26.522-3.116-39.344-12.058-1.558-1.083-13.737-9.844-13.72-22.829.012-7.491,4.09-16.581,10.159-17.987,6.875-1.591,13.356,7.335,14.974,5.9,1.547-1.373-3.438-10.367-9.663-18.538-9.154-12.006-13.35-12.228-16.674-19.781-5.074-11.521-.732-23.372-.084-25.057C710.232,1350.757,728.277,1340.424,733.489,1344.214Z" class="cls-6" data-name="Path 40515" transform="translate(-651.808 -1170.389)"/><g id="Group_34482" class="cls-7" data-name="Group 34482" transform="translate(0 0)"><g id="Group_34481" class="cls-8" data-name="Group 34481" transform="translate(-119.18 49.831)"><path id="Path_40516" d="M971.292,2320.153a279.04,279.04,0,0,1-50.362,160.1c-.125.195-.573.366-.573.553h0c-49.706,72.831-134.877,120.016-230.415,120.016a165.655,165.655,0,0,1-22.952-1.422h0c-.031,0-.047.465-.078.465-3.767-.312-7.5-.458-11.223-.916-1.324-.156-2.647-.21-3.962-.389-1.169-.156-2.337-.261-3.486-.44-1.013-.148-2.018-.273-3.013-.437-.226-.039-.452-.064-.678-.1-2.452-.405-4.9-.826-7.331-1.291h-.039c-129.91-24.822-228.062-139.02-228.062-276.149a280.813,280.813,0,0,1,12.37-83.284c1.276-4.125,2.867-8.2,3.925-12.241h0c3.173-6.733,5.3-13.342,8.217-19.824,1.169-2.593,2.476-5.169,3.712-7.723a281.443,281.443,0,0,1,23.848-40c.818-1.145,1.665-2.281,2.5-3.418q5-6.792,10.411-13.27,8.091-9.713,17.021-18.673a282.221,282.221,0,0,1,51.521-40.863q8.7-5.384,17.818-10.128a281.308,281.308,0,0,1,306.492,30.694c35.509,28.721,64.388,65.9,82.554,108.488,4.063,9.511,6.817,19.282,11.04,29.3h0c0,.047-.485.078-.469.125C967.751,2264.934,971.292,2292.061,971.292,2320.153Z" class="cls-9" data-name="Path 40516" transform="translate(-297.68 -1927.312)"/><g id="Group_34480" data-name="Group 34480" transform="translate(123.829 122.102)"><path id="Path_40517" d="M1733,4921.1Z" class="cls-10" data-name="Path 40517" transform="translate(-1487.536 -4370.165)"/><path id="Path_40518" d="M802.752,2458c-6.038,8.5-24.7,19.411-12.033,40.847,12.555,21.38-.871,25.389-9.511,23.388-8.679-1.977-35.657-3.081-31.163,9.178s12.212,16.875,2.337,21.619-14.057,17.039-24.169,34c-10.04,16.992-33.9,2.3-26.838,19.327s12.555,15.387,11.895,27.257c-.156,3.262,2.008,6.608,4.934,9.793-3.767-.312-7.549-.693-11.3-1.153q-1.987-.234-3.962-.514c-1.169-.156-2.337-.317-3.486-.5q-1.519-.222-3.013-.468c-.226-.039-.168-.078-.39-.108-2.413-.406-3.666-.842-6.838-1.3v-.01c-2.115-2.008-.789-4.188-.471-6.537,3.153-21.919-27.087-36.979-32.155-52.337-4.98-15.316-.062-24.456-1.215-37.15-1.182-12.672,2.963-29.477-4.332-40.154-7.292-10.64-36.693-14.207-42.289-35.68-5.637-21.425,7.469-53.519,12.561-58.985,5.027-5.454-24.346-30.324-38.323-31.117-14.041-.857-8.424-29.126-32.163-24.822-23.787,4.172-66.52-9.1-57.693-23.373,7.286-11.76,19.514-37.7-20.408-49.277,1.278-4.125,2.859-8.2,3.917-12.243h0c3.173-6.733,5.3-13.342,8.217-19.824,1.169-2.592,2.476-5.169,3.712-7.723a282.9,282.9,0,0,1,23.848-40c.818-1.145,1.665-2.281,2.5-3.418q5.008-6.791,10.411-13.27,8.091-9.713,17.021-18.673a282.169,282.169,0,0,1,51.521-40.863c7.908,5.541,16.945,8.959,24.736,4.747,19.125-10.7,6.515-12.345-1.315-12.74a10.1,10.1,0,0,1-5.6-2.143,278.174,278.174,0,0,1,46.248-19.087c-1.19,10.8-15.862,28.137-5.064,26.02,12.563-2.39,17.691-36.333,26.915-25.056,9.349,11.326-10.235,26.17,8.165,17.569,18.423-8.515,20.883-27.523,41.416-18.275,20.634,9.363,18.751,20.451,24.51,19.349s24.292,11.388,13.069,21.647c-11.326,10.29-21.709-2.819-38.685-6.772-16.982-3.907-16.571,9.986-24.385,13.163-7.947,3.066-46.28-15.459-55.691,1.283-9.511,16.61-13.558,28.2.561,27.772,14.1-.389,15.015-4.047,13.909,6.383s1.441,18.252,14.218,8.436c12.742-9.8,9.887-19.356,19.849-14.686s11.145.442,21.746-7.255,24.541-8.5,28.185,8.765-2.592,21.154-21.23,22.027c-18.642.9-20.751-4.972-26.684,10.609-5.909,15.582-30.565,35.61-52.212,43.86-21.608,8.266-30.075,20.479-29.576,36.956.512,16.509-7.614,33.919-13.038,20.314-5.453-13.645-20.72-36.617-36.3-21.265-15.613,15.387-42.785,42.593-12.756,47.565,29.966,5.064,14.329-23.008,29.475-17.395,15.124,5.648-9.581,18.026.53,22.494,10.128,4.5,14.368,2.4,14.29,16.2s3.354,27.188,15.646,21.333,28.059-32.87,45.828-16.873c17.792,16.034,16.532,13.948,25.866,9.277s15.262,9.318,19.088,15.685,18.813-.132,30.969,18.811,16.9,22.325,30.75,15.506,19.491-1.753,23.1,7.814,12.127.218,16.236,12.855S808.745,2449.49,802.752,2458Z" class="cls-10" data-name="Path 40518" transform="translate(-472.73 -2092.471)"/><path id="Path_40519" d="M2405.209,2443.513c-9.814-21.062,38.816-18.7,47.409-17.077,8.648,1.441,28.932-14.413,31.508-21.786,2.647-7.426,6.99-3.9,22.377-4.109,15.387-.164,1.79-3.642-15.139-9.224-16.9-5.565-2.45-6.126-18.026-18.424-6.7-5.385-4.593-9.962-.124-13.363a282.032,282.032,0,0,1,82.045,108.488,5.3,5.3,0,0,0-1.447-.249c-10.773-.062-13.145-23.879-18.7-28.519-5.471-4.632.156,13.084,1.5,20.361s-2.951,1.168-8.321,7.845-15.132,6.817-16.012-3.222-7.955-19.857-22.284-24.432-26.729-.818-38.37,3.674C2440.042,2447.887,2415.094,2464.408,2405.209,2443.513Z" class="cls-10" data-name="Path 40519" transform="translate(-2027.769 -2307.514)"/><path id="Path_40520" d="M2468.822,3188.554c.974-7.232,2.561-14.7-.459-17.436-7.339-6.817-8.942-25.367-6.4-34.769s22.317-8.889,8.9-24.541c-13.459-15.7-25.585-34.334-19.933-44.992s3.938-11.419-6.655-11.357-15.257.53-25.817-8.9c-10.57-9.559-25.11,22.557-64.892-3.2-39.774-26.011-17.124-69.856-2.218-69.965,15-.25,32.527-7.822,20.229-26.113-12.251-18.361,6.9-20.954,16.251-16.781,9.373,4.129,25.984-6.956,42.929-11.959,16.976-4.975,16.23,22.681,25.655,28.214,9.479,5.542,27.243,1.144,36.473-7.713,6.593-6.32,8.032,1.05,14.548,8.048a281.728,281.728,0,0,1-38.61,241.468Z" class="cls-10" data-name="Path 40520" transform="translate(-1969.29 -2757.164)"/><path id="Path_40521" d="M2628.33,2427.813c0-.017,12.4-5.611,7.912-14.627-4.453-9.016-11.513-36.65-16.673-27.942-5.19,8.747,2.462,25.731.791,33.06S2618.63,2429.5,2628.33,2427.813Z" class="cls-10" data-name="Path 40521" transform="translate(-2199.95 -2326.871)"/><path id="Path_40522" d="M2543.838,2508.127c-.175-2.9,1.654-14.7-7.631-14.333.018-.02-13.427,5.592-5.562,15.124C2538.546,2518.423,2544.039,2511.026,2543.838,2508.127Z" class="cls-10" data-name="Path 40522" transform="translate(-2127.834 -2415.621)"/></g><path id="Path_40523" d="M974.3,2322.645a278.726,278.726,0,0,1-49.988,160.1,1,1,0,0,0-.195.553h0c-50.763,72.831-135.251,119.784-230.792,119.784A171.137,171.137,0,0,1,670,2601.433h0c-.031,0-.047.7-.078.7-3.767-.312-7.5-.349-11.225-.809-1.322-.156-2.645-.152-3.962-.339-1.169-.153-2.327-.229-3.486-.409-1.013-.148-2.016-.255-3.013-.418-.226-.039-.452-.059-.676-.09-2.452-.405-4.9-.822-7.333-1.29h-.039c-120.121-22.946-213.08-122.4-226.406-245.663,28.156,80.805,97.818,141.517,183.445,158.435h.031c2.1,1.058,4.211.845,6.328,1.2.195.023.39.092.584.123.855.139,1.728.283,2.6.407,1,.156,2,.281,3.013.413,1.135.164,2.273.263,3.416.389,3.216.39,6.427,1.128,9.69,1.393.031,0,.047.3.07.3h0c6.607,0,13.192.532,19.941.532A242.381,242.381,0,0,0,842,2412.083c0-.164.265-.39.366-.545a242.76,242.76,0,0,0,33.177-208.082c0-.039-.1-.085-.1-.125h0c-2.115-8.64-5.522-17.085-9.026-25.3A243.153,243.153,0,0,0,719.439,2042.7a279.754,279.754,0,0,1,150.519,61.217,282.9,282.9,0,0,1,82.4,108.487c4.061,9.513,6.653,19.283,10.884,29.3h0c0,.046-.329.078-.314.125A280.833,280.833,0,0,1,974.3,2322.645Z" class="cls-11" data-name="Path 40523" transform="translate(-301.433 -1930.292)"/></g></g><path id="Path_40525" d="M1648.51,1541.122v.475c4.162-5.683,11.618-13.579,16.082-18.151.084-.195.224-.405.306-.608a107.094,107.094,0,0,1,10.241-18.893,103.774,103.774,0,0,1,16.361-18.716c.779-.762,1.667-1.434,2.493-2.152.423-.351.847-.713,1.276-1.063l.627-.536c.22-.179.446-.339.666-.512q1.33-1.007,2.665-2.033l.666-.51.7-.475c.463-.321.927-.643,1.393-.958,1.831-1.326,3.8-2.474,5.73-3.685.974-.584,2.01-1.13,3.009-1.689.493-.281,1-.565,1.5-.839s1.04-.516,1.558-.779a97.169,97.169,0,0,1,26.489-8.841l3.471-.571c1.169-.16,2.337-.261,3.49-.39l1.753-.195,1.753-.1,1.753-.107c.584-.029,1.169-.09,1.753-.076,1.169,0,2.337-.02,3.506-.025.286,0,.584-.018.863,0l.779.043,1.558.084,1.546.076a3.565,3.565,0,0,1,.411.018l1.588.119,2.121.15,1.587.119.269.018h.1s.551,0-.376.018l3.432.506c.565.088,1.135.142,1.7.267l1.681.339,1.683.333.84.166c.278.054.553.138.826.195,1.1.281,2.2.553,3.294.84.553.119,1.089.308,1.622.469l1.607.5,1.6.481,1.57.584c1.046.39,2.092.736,3.116,1.153s2.028.855,3.032,1.289a87.173,87.173,0,0,1,21.3,13.4l1.153.974,1.094,1.028c.725.678,1.474,1.326,2.164,2.022.029.023.054.058.084.084,1.344,1.391,2.705,2.7,3.911,4.137.321.35.637.707.947,1.065l.475.522.44.559c.584.727,1.169,1.457,1.753,2.176.144.179.3.351.44.536l.4.559c.273.374.54.75.808,1.112.522.75,1.093,1.439,1.558,2.211a82.576,82.576,0,0,1,9.055,17.565,80.248,80.248,0,0,1,3.977,15.642c.078.584.156,1.168.232,1.735a16.126,16.126,0,0,1,.195,1.671c.09,1.106.179,2.158.267,3.163s.06,2,.1,2.922c.018.464.049.915.055,1.35s-.031.878-.037,1.3c-.012.839-.023,1.63-.035,2.366a2.993,2.993,0,0,1-.041.458c-.017.136-.037.275-.054.405-.023.261-.058.226-.084.464-.018.195-.041.3-.058.3h-39.128l23.786,26.376,55.288,60.467,79.077-86.835h-41.583a6.61,6.61,0,0,1-.195-1.272c-.16-1.208-.333-2.384-.522-3.818-.107-.713-.195-1.379-.315-2.142-.061-.374-.113-.73-.174-1.122s-.107-.8-.183-1.143c-.292-1.437-.6-2.955-.916-4.571-.173-.8-.339-1.623-.518-2.468s-.417-1.7-.643-2.579c-.452-1.753-.892-3.6-1.437-5.495q-.875-2.828-1.813-5.874c-.3-1.023-.7-2.027-1.071-3.068s-.761-2.074-1.153-3.146a150.145,150.145,0,0,0-13.529-26.978,148.211,148.211,0,0,0-22.2-27.1c-1.075-1.1-2.265-2.105-3.413-3.157-.584-.518-1.159-1.042-1.741-1.558l-.886-.779-.9-.75c-1.219-.993-2.45-2-3.676-3l-.927-.75-.962-.713c-.649-.481-1.292-.958-1.938-1.434-2.532-1.948-5.269-3.7-7.986-5.5-1.363-.88-2.781-1.7-4.191-2.552-.7-.417-1.4-.832-2.111-1.26l-2.176-1.168a140.821,140.821,0,0,0-37.622-14.024l-4.994-.987c-1.665-.31-3.36-.524-5.037-.779l-2.52-.356-2.532-.249-2.532-.245c-.843-.076-1.683-.171-2.532-.195-1.689-.078-3.383-.281-5.078-.357-.417-.019-.843-.179-1.266-.179h-1.272l-2.532.142-2.532.084c-.845,0-1.689.113-2.532.154l-5.025.3c-1.141.017-.39.029-.684.035l-.13.017-.267.031-.524.07-1.058.132-2.106.261-1.057.13-.524.066-.648.088-2.662.39-2.665.4-1.319.208c-.434.072-.82.167-1.237.249-1.624.345-3.247.7-4.869,1.036-.808.16-1.6.389-2.4.6l-2.4.635-2.378.637-2.347.744c-1.558.5-3.116.974-4.649,1.527s-3.044,1.141-4.561,1.712a130.677,130.677,0,0,0-32.437,18.585c-.6.459-1.184.923-1.772,1.381s-1.141.956-1.706,1.443c-1.13.974-2.265,1.891-3.354,2.879-2.142,2.016-4.285,3.948-6.242,6.038-.5.512-.988,1.028-1.486,1.535l-.73.76-.7.791q-1.4,1.589-2.764,3.151l-.684.779-.654.808c-.423.542-.855,1.077-1.278,1.613-.845,1.075-1.73,2.1-2.491,3.21a130.966,130.966,0,0,0-10.981,17.529c-1.474,2.824-2.789,5.637-3.948,8.412a123.931,123.931,0,0,0-7.337,23.735c-.16.9-.333,1.79-.493,2.662s-.339,1.72-.44,2.569c-.226,1.694-.452,3.311-.66,4.881-.177,1.57-.273,3.079-.4,4.513-.054.713-.127,1.408-.167,2.1s-.166,1.342-.195,2C1648.718,1538.732,1648.51,1539.975,1648.51,1541.122Z" class="cls-12" data-name="Path 40525" transform="translate(-1414.134 -1229.163)"/><path id="Path_40526" d="M1648.51,1676.183v.475c4.162-5.683,11.618-13.579,16.082-18.151.084-.195.224-.405.306-.608a107.1,107.1,0,0,1,10.241-18.893,103.771,103.771,0,0,1,16.361-18.716c.779-.761,1.667-1.433,2.493-2.152.423-.35.847-.713,1.276-1.063l.627-.536c.22-.179.446-.339.666-.512q1.33-1.007,2.665-2.034l.666-.51.7-.475c.463-.321.927-.643,1.393-.958,1.831-1.326,3.8-2.474,5.73-3.685.974-.584,2.01-1.13,3.009-1.689.493-.28,1-.565,1.5-.839s1.04-.516,1.558-.779a97.174,97.174,0,0,1,26.489-8.841l3.471-.571c1.169-.16,2.337-.261,3.49-.39l1.753-.195,1.753-.1,1.753-.107c.584-.029,1.169-.089,1.753-.076,1.169,0,2.337-.02,3.506-.025.286,0,.584-.018.863,0l.779.043,1.558.084,1.546.076a3.565,3.565,0,0,1,.411.018l1.588.119,2.121.15,1.587.119.269.018h.1s.551,0-.376.018l3.432.506c.565.088,1.135.142,1.7.267l1.681.339,1.683.333.84.166c.278.055.553.138.826.195,1.1.28,2.2.553,3.294.839.553.119,1.089.308,1.622.47l1.607.5,1.6.481,1.57.584c1.046.39,2.092.736,3.116,1.153s2.028.855,3.032,1.289a87.166,87.166,0,0,1,21.3,13.4l1.153.974,1.094,1.028c.725.678,1.474,1.327,2.164,2.022.029.023.054.058.084.084-17.568-21.754-46.03-35.887-78.148-35.887-32.916,0-61.974,14.834-79.418,37.492-1.474,2.824-2.789,5.637-3.948,8.412a123.939,123.939,0,0,0-7.337,23.735c-.16.9-.333,1.79-.493,2.662s-.339,1.72-.44,2.569c-.226,1.694-.452,3.311-.66,4.881-.177,1.57-.273,3.079-.4,4.513-.055.713-.127,1.408-.168,2.1s-.165,1.342-.195,2C1648.718,1673.793,1648.51,1675.036,1648.51,1676.183Z" class="cls-13" data-name="Path 40526" transform="translate(-1414.134 -1364.224)"/><path id="Path_40527" d="M975.041,756.212c3.089-1.862,6.159.6,8.42-1.622,2.826-2.776,1.907-10.426-2.213-14.24-2.984-2.762-5.822-1.827-16.207-3.794a73.72,73.72,0,0,1-11.38-2.758C940.929,728.754,944,710.728,934,702.072c-11.519-9.978-39.679-6.872-53.794,10.691-16.166,20.106-6.8,50.306,8.959,63.451,9.933,8.28,23.057,8.395,49.312,8.621,26.183.226,30.509-5.526,31.724-7.6C974.418,770.125,969.57,759.514,975.041,756.212Z" class="cls-14" data-name="Path 40527" transform="translate(-788.692 -649.413)"/><path id="Path_40528" d="M872.043,945.847a.69.69,0,0,0,.255-1.33c-15-5.985-18.114-31.9-18.145-32.157a.689.689,0,0,0-1.363.156,69.9,69.9,0,0,0,3.494,14.191c3.6,9.877,8.96,16.48,15.51,19.088A.709.709,0,0,0,872.043,945.847Z" class="cls-14" data-name="Path 40528" transform="translate(-773.397 -822.841)"/><path id="Path_40529" d="M1051.245,1075.318c-8.342,8.326-29.7,5.064-44.634,1.726-2.686-.584-5.167-1.192-7.323-1.726-14.164-3.506-3.255-76.459-2.627-83.726.24-2.8,2.291-3.859,5.981-4.2,5.9-.532,15.983.779,29.551-.23,22.056-1.634,25.529,7.442,25.529,7.442C1058.985,998.065,1061.082,1065.5,1051.245,1075.318Z" class="cls-15" data-name="Path 40529" transform="translate(-885.541 -883.357)"/><path id="Path_40530" d="M1009.7,1009.953c-.37,13.285.522,57.59-3.089,68.834-2.686-.584-5.167-1.192-7.323-1.726-14.164-3.506-3.255-76.459-2.627-83.726.24-2.8,2.291-3.859,5.981-4.2a17.348,17.348,0,0,1,1.33,1.753C1011.685,1002.48,1010.144,994.294,1009.7,1009.953Z" class="cls-16" data-name="Path 40530" transform="translate(-885.541 -885.105)"/><path id="Path_40531" d="M1417.09,1148.009a19.788,19.788,0,0,0,2.76-16.555c-2.448-8.79-9.454-8.231-13.1-18.278-2.361-6.5-.39-9.38-3.794-14.138-2.5-3.506-7.651-7.646-11.3-6.679-10.907,2.9-15.835,53.562,1.644,62.2C1400.3,1158.017,1411.8,1155.2,1417.09,1148.009Z" class="cls-17" data-name="Path 40531" transform="translate(-1199.369 -968.105)"/><path id="Path_40532" d="M1119.245,1444.795c11.145,3.364,12.892,24.968,13.967,38.263,1.21,14.97,2.559,31.648-7.012,46.585-12.043,18.792-36.983,27.991-63.48,25.353l.824-5.13c27.194-10.379,34.62-22.044,36.494-30.624,3.985-18.244-15.525-29.962-10.486-49.747C1093.354,1454.586,1109.374,1441.819,1119.245,1444.795Z" class="cls-18" data-name="Path 40532" transform="translate(-942.439 -1251.662)"/><path id="Path_40533" d="M1104.081,1384.208c6.05-8.919,11.945-17.938,17.855-26.947a14.729,14.729,0,0,0,2.158-5.981,41.51,41.51,0,0,1,6.667,6.7,333.739,333.739,0,0,1,11.474,81.331c.358,20.562-4.285,82.737-6.533,98.359-.822.169-1.12-1.971-1.961-1.809-1.026.195-1.285,2.059-2.289,2.232-2.984-31.553-6.408-60.038-8.135-74.675-.584-4.967-2.316-19.867-10.294-31.863-.129-.195-11.93-16.333-16-22.788-1.363-2.142-3.052-4.932-4.98-8.656C1096.613,1395.316,1100.277,1389.815,1104.081,1384.208Z" class="cls-19" data-name="Path 40533" transform="translate(-966.049 -1176.71)"/><path id="Path_40534" d="M1293.014,2221.62c.462-1.067,3.009,1.615,5.384,4.448l-.917,12.236a10.2,10.2,0,0,1,3.1-1.4c1.439-.331,3.931.195,4.121.876,1.18,4.25-9.419,5.177-10.58,3.843a3.789,3.789,0,0,1-.9-2.9c1.075-6.126.933-10.272.425-13.137C1293.3,2223.577,1292.765,2222.21,1293.014,2221.62Z" class="cls-20" data-name="Path 40534" transform="translate(-1127.827 -1877.34)"/><path id="Path_40535" d="M1284.814,2171.9c-.822.169-1.12-1.971-1.961-1.809-1.027.195-1.286,2.058-2.289,2.232-1.091-11.535-2.24-22.656-3.344-32.843a102.852,102.852,0,0,1,10.775-.567C1286.857,2153.389,1285.663,2165.981,1284.814,2171.9Z" class="cls-21" data-name="Path 40535" transform="translate(-1115.161 -1810.932)"/><path id="Path_40536" d="M1104.081,1384.208c6.05-8.919,11.945-17.938,17.855-26.948a14.711,14.711,0,0,0,2.158-5.979,41.51,41.51,0,0,1,6.667,6.7,332.772,332.772,0,0,1,10.1,56.318c-6.178-.358-12.076,3.274-13.8,7.614-3.59,8.973,7.73,16,7.615,34.815-.062,10.309-3.748,12.9-2.07,22.358a54.794,54.794,0,0,1,1.12,15.179c-.24,3.237-.5,2.532-.7,5.454-.565,8.334,1.424,15.995.563,21.2a12.307,12.307,0,0,1-1.194,3.65,11.813,11.813,0,0,1-1.987,2.754c-2.705-27.165-5.561-50.954-7.09-63.9-.584-4.964-2.316-19.867-10.294-31.863-.129-.195-11.93-16.333-16-22.788-1.363-2.143-3.052-4.932-4.98-8.656C1096.613,1395.316,1100.277,1389.815,1104.081,1384.208Z" class="cls-22" data-name="Path 40536" transform="translate(-966.049 -1176.71)"/><path id="Path_40537" d="M1491.183,1260.3l-.816-1.683a31.361,31.361,0,0,1-2.762-4.415c-.8-1.776-.623-3.224,1.019-4.343s3.208.746,4.583,2.337c.838.974.927,3.017.853,4.675a13.138,13.138,0,0,0,.779,3.482Z" class="cls-23" data-name="Path 40537" transform="translate(-1284.198 -1094.771)"/><path id="Path_40538" d="M1118.548,1049.7a27.9,27.9,0,0,1,2.953,16.945c-1.3,9.454-6.989,15.833-8.375,17.529-6.6,8.05-10.348,26.578,1.494,72.208-2.727,1.2-14.162,12.545-15.87,5.033-2.337-10.241-6.548-78.8-6.427,1.044,0,1.052-2.113.232-3.208.315a72.278,72.278,0,0,1-26.528-2.811,73.854,73.854,0,0,1-30.307-18.049,144.248,144.248,0,0,0,21.4-35.573,147.37,147.37,0,0,0,10.533-70.312c5.6-1.887,23.1-6.988,39.745,1.073C1108.1,1039.124,1114.544,1042.355,1118.548,1049.7Z" class="cls-24" data-name="Path 40538" transform="translate(-917.928 -920.177)"/><path id="Path_40539" d="M1342.8,1301.839l1.689-.8a30.965,30.965,0,0,1,4.439-2.727c1.784-.779,3.227-.6,4.333,1.054s-.779,3.2-2.382,4.563c-.974.83-3.025.9-4.675.816a13.222,13.222,0,0,0-3.488.742Z" class="cls-25" data-name="Path 40539" transform="translate(-1167.903 -1133.701)"/><path id="Path_40540" d="M1063.524,1953.937a111.877,111.877,0,0,0,16.583-7.767,39.942,39.942,0,0,1,1.782,12.715,86.843,86.843,0,0,1-19.189.183Z" class="cls-26" data-name="Path 40540" transform="translate(-942.423 -1655.733)"/><path id="Path_40541" d="M1046.528,1986.444l-.584-1.032a1.044,1.044,0,0,0-1.572.683c-.5,1.323-3.367,8.229-3.521,11.363.752,1.874,2.879.286,3.311-.988s1.948-6,1.948-6Z" class="cls-27" data-name="Path 40541" transform="translate(-924.829 -1687.207)"/><path id="Path_40542" d="M1053.617,1168.756a145.843,145.843,0,0,0,11.151-58.566c5.187,2.532,11.784,6.817,13.069,13.439,1.7,8.726-7.24,14.413-4.651,20.578,3.194,7.611,18.875,3.8,22.159,11.528,1.813,4.273-1.334,9.3-6.642,17.783-4.7,7.5-8.652,14.228-16.556,18.277-11.382,5.83-17.89,2.491-24.485,8.276-3.59,3.147-5.453,7.471-6.4,11.846a75.836,75.836,0,0,1-9.055-7.6A144.231,144.231,0,0,0,1053.617,1168.756Z" class="cls-28" data-name="Path 40542" transform="translate(-917.872 -982.578)"/><path id="Path_40543" d="M1306.357,978.17c0,1.473-.053,9.361-3.557,10.656-.767.282-1.383.1-4.782.195-1.936.051-3.506.154-4.528.232a25.043,25.043,0,0,0,1.231,5.173c4.363,12.271,18.478,20.8,23.261,17.724,2.489-1.6,2.682-6.4,2.762-8.389a16.754,16.754,0,0,0-1.128-6.714q-2.628-1.906-5.374-3.823-1.8-1.247-3.57-2.45l.24-4.528Q1308.633,982.208,1306.357,978.17Z" class="cls-29" data-name="Path 40543" transform="translate(-1128.262 -876.271)"/><path id="Path_40544" d="M1344.17,964.562s-.016,6.492,5.167,8.6c4.641,1.891,10.728-9,8.893-12.54a6.606,6.606,0,0,0-4.219-2.886c-1.247-.224-6.427-.255-7.89,3.812-.436-1.285-1.3-2.119-2.2-2.129a1.686,1.686,0,0,0-.882.294C1341.851,960.563,1342.188,962.544,1344.17,964.562Z" class="cls-30" data-name="Path 40544" transform="translate(-1167.607 -859.755)"/><path id="Path_40545" d="M1473.767,1297.23l-5.518.863c-.682.463-8.878,6.221-8.1,14.483.1,1.075.481,5.138,3.276,6.723,4.31,2.448,13.05-1.753,15-8.621C1479.725,1306.074,1477.8,1300.854,1473.767,1297.23Z" class="cls-31" data-name="Path 40545" transform="translate(-1262.417 -1133.188)"/><path id="Path_40546" d="M1314.915,880.069a.7.7,0,0,0,.216-.035.688.688,0,0,0,.438-.869c-.059-.179-1.513-4.46-7.32-5.917-.841-.21-1.739-.411-2.661-.615-4.848-1.081-10.344-2.3-10.451-5.863a.721.721,0,0,0-.711-.67.693.693,0,0,0-.668.711c.14,4.632,6.192,5.978,11.53,7.167.908.195,1.8.4,2.626.608,5.035,1.262,6.293,4.858,6.344,5.011A.7.7,0,0,0,1314.915,880.069Z" class="cls-14" data-name="Path 40546" transform="translate(-1128.478 -786.029)"/><path id="Path_40547" d="M1181.244,1031.628s22.681,18.787-14.154,50.413l1.344,3.932s44.842-22.609,22.944-55.983A61.45,61.45,0,0,0,1181.244,1031.628Z" class="cls-32" data-name="Path 40547" transform="translate(-1026.481 -917.998)"/><path id="Path_40548" d="M1082.306,1046.065c-4.741-1.18-4.764-2.727-11.1-.584-18.205,6.129-37.478,33.6-27.517,53.005,5.539,10.79,18.813,20.521,33.448,18.275,11.914-1.827,18.912-10.7,20.691-13.1l2.068-8.278c-7.764,4.4-13.231,4.4-16.9,3.449-6.233-1.621-7.623-6.09-17.931-10-4.016-1.523-6.427-1.839-6.552-3.1-.255-2.612,9.842-3.484,16.207-8.959C1079.359,1072.768,1083.989,1064.615,1082.306,1046.065Z" class="cls-33" data-name="Path 40548" transform="translate(-924.923 -929.612)"/><path id="Path_40549" d="M1433.49,1074.16s13.024,9.616.172,47.38c0,0,17.615-15.582,7.945-40.318Z" class="cls-34" data-name="Path 40549" transform="translate(-1240.994 -953.565)"/><path id="Path_40550" d="M2053.143,922.583c-10.323,9.707-36.713,5.9-55.179,2.012-3.311-.686-6.386-1.391-9.053-2.012-17.508-4.09-4.024-89.141-3.247-97.613.294-3.262,2.83-4.5,7.4-4.891,7.294-.621,19.757.908,36.531-.269,27.268-1.907,31.553,8.677,31.553,8.677C2062.712,832.517,2065.3,911.134,2053.143,922.583Z" class="cls-35" data-name="Path 40550" transform="translate(-1681.04 -748.57)"/><path id="Path_40551" d="M2001.783,846.38c-.458,15.49.647,67.141-3.82,80.246-3.311-.686-6.386-1.391-9.053-2.012-17.508-4.09-4.024-89.141-3.247-97.614.294-3.262,2.83-4.5,7.4-4.891a19.749,19.749,0,0,1,1.644,2.053C2004.238,837.67,2002.333,828.126,2001.783,846.38Z" class="cls-36" data-name="Path 40551" transform="translate(-1681.04 -750.607)"/><path id="Path_40552" d="M2740.055,1244.535a13.71,13.71,0,0,1,5.8-5.592c4.228-2.24,9.667,5.222,9.842,7.109s-2.162.872-3.652.726-5.074,5.025-8.9,4.581S2740.055,1244.535,2740.055,1244.535Z" class="cls-37" data-name="Path 40552" transform="translate(-2293.032 -1085.919)"/><path id="Path_40553" d="M1952.351,1414.388a15.513,15.513,0,0,1,6.936,5.923c2.986,4.521-4.828,11.464-6.936,11.869s-1.217-2.337-1.217-4.038-6.217-5.167-6.137-9.526S1952.351,1414.388,1952.351,1414.388Z" class="cls-38" data-name="Path 40553" transform="translate(-1652.873 -1227.527)"/><path id="Path_40554" d="M2380.089,878.009a33.182,33.182,0,0,0-19.021-27c-4.887-2.215-9.951-3.233-14.133-1.286,0,0-5.878,43.7,18.348,66.187s59.044,22.309,59.044,22.309l.146-13.634S2384.792,923.371,2380.089,878.009Z" class="cls-39" data-name="Path 40554" transform="translate(-1976.021 -772.014)"/><path id="Path_40555" d="M2271.914,2165.8c-3.492,2.823-3.689,4.827-3.576,5.8.181,1.576,1.364,2.186,4.209,5.16,3.843,4.02,3.257,4.559,5.214,6.014,4.32,3.209,10.428,3,10.8,1.905.259-.766-2.5-1.391-5.648-5.033a19.8,19.8,0,0,1-4.145-7.666,18.333,18.333,0,0,1-.625-4.375Z" class="cls-40" data-name="Path 40555" transform="translate(-1913.22 -1832.585)"/><path id="Path_40556" d="M2298.931,2103.647l-6.873,11.979c-1.656.732-3.239.364-4.708-1.772l2.682-14.563Z" class="cls-41" data-name="Path 40556" transform="translate(-1928.547 -1779.029)"/><path id="Path_40557" d="M2243.024,1321.995a144.194,144.194,0,0,1,19.76,62.631,142.284,142.284,0,0,1-8.254,59.6c-5.767,15.51-15.794,31.794-21.62,39.556-3.928-1.644-6.233-4.219-10.171-5.862.584-2.142,2.411-9.2,3.558-13.4.888-3.259,2.532-9.287,2.863-10.574,2.821-10.786.594-18.879,1.364-32.219.9-15.558,4.48-13.751,3.932-23.09-.8-13.948-8.7-17.2-17.775-37.4-6.211-13.829-12.732-28.331-6.739-36.266C2217.5,1314.987,2240.46,1321.266,2243.024,1321.995Z" class="cls-42" data-name="Path 40557" transform="translate(-1864.305 -1151.022)"/><path id="Path_40558" d="M2129.5,2219.01c-2.094,1.33-3.358,4.5-2.406,6.49.939,1.959,3.329,1.34,9.135,3.116,6.221,1.913,7.45,3.843,12.035,3.839,1.852,0,5.21-.321,5.49-1.558.2-.876-1.227-1.753-5.921-4.9-6.663-4.479-6.6-4.6-8.081-5.288C2136.018,2218.983,2132.272,2217.246,2129.5,2219.01Z" class="cls-43" data-name="Path 40558" transform="translate(-1799.247 -1874.838)"/><path id="Path_40559" d="M2154.27,2173.34,2151.716,2185c-.356.522-3.991,1.769-6.537,0l.939-11.661Z" class="cls-44" data-name="Path 40559" transform="translate(-1814.067 -1838.656)"/><path id="Path_40560" d="M2209.98,1324.986c7.545-9.988,30.509-3.7,33.072-2.98a145.522,145.522,0,0,1,9.472,19.088c-8.138-1.6-11.669-.148-13.315,1.782-6.39,7.493,13.615,24.033,9.5,49.133-1.609,9.816-5.808,14.236-5.041,26.224.573,8.922,3.344,13.439,5.259,19.97a52.717,52.717,0,0,1,2.082,14.563,183.158,183.158,0,0,1-18.073,31.019c-3.928-1.644-6.232-4.219-10.171-5.863.584-2.142,2.411-9.2,3.559-13.4.888-3.259,2.532-9.287,2.863-10.574,2.82-10.786.594-18.879,1.364-32.219.9-15.558,4.479-13.751,3.932-23.09-.8-13.948-8.7-17.2-17.775-37.4C2210.508,1347.434,2203.981,1332.921,2209.98,1324.986Z" class="cls-45" data-name="Path 40560" transform="translate(-1864.334 -1151.034)"/><path id="Path_40561" d="M2126.593,1325.522a585.154,585.154,0,0,1-18.75,162.272,10.4,10.4,0,0,1-6.948,1.182,10.2,10.2,0,0,1-4.831-2.384,94.435,94.435,0,0,0,.721-18.992c-.868-13.747-4.105-16.556-5.494-30.774a117.886,117.886,0,0,1,.688-27.395c1.915-14.547,4.515-14.847,4.568-23.567.078-13.416-6.056-18.219-9.427-31-2.25-8.525-3.442-21.255,2.214-38.713Z" class="cls-46" data-name="Path 40561" transform="translate(-1765.809 -1148.423)"/><path id="Path_40562" d="M2089.333,1316.13l10.907,2.746a58.385,58.385,0,0,0-1.533,27.545c3.033,15.412,10.869,18.793,12.02,32.692,1.038,12.5-4.869,15.054-7.691,31.732-2.9,17.091,1.486,25.125,2.4,39.424.627,9.783-.389,22.582-6.344,38.158a10.313,10.313,0,0,1-3.031-1.858,94.416,94.416,0,0,0,.721-18.992c-.869-13.747-4.106-16.556-5.494-30.774a117.852,117.852,0,0,1,.688-27.395c1.914-14.548,4.514-14.847,4.567-23.568.078-13.416-6.056-18.219-9.427-31C2084.869,1346.318,2083.677,1333.587,2089.333,1316.13Z" class="cls-47" data-name="Path 40562" transform="translate(-1765.809 -1148.406)"/><path id="Path_40563" d="M2138.023,833.327a44.1,44.1,0,0,1,8.794,9.957,45.627,45.627,0,0,1,7.012,26.385c-.3,7.914-2.406,8.424-4.7,18.852-4.225,19.152-3.475,46.223,1.718,58.461a2.82,2.82,0,0,1,.235,1.514c-1.48,11.236-78.758,8.691-77.62-6.307.742-9.779,6.953-14.113,8.375-37.737.738-12.271-1.915-16.166-3.868-36a261.12,261.12,0,0,1-1.087-35.47,87.954,87.954,0,0,1,50.189-6.357A33.642,33.642,0,0,1,2138.023,833.327Z" class="cls-39" data-name="Path 40563" transform="translate(-1756.305 -753.276)"/><path id="Path_40564" d="M2094.484,1080.228c8.432,2.96,19.621,11.279,20.373,21.939,1.153,16.374-23.23,25.357-19.981,36.829.886,3.128,3.687,5.948,21.94,12.538,7.386,2.666,14.248,4.84,20.477,6.638-22.336,3.294-68.2-1.513-64.6-12.185,10.876-32.26,12.4-47.4,10.128-67.435A31.337,31.337,0,0,1,2094.484,1080.228Z" class="cls-48" data-name="Path 40564" transform="translate(-1755.537 -957.074)"/><path id="Path_40565" d="M2229.225,738.23c-.693,9.363-3.529,14.565-6,15.71-2.328,1.081-3.767,0-8.687,2.039a2.1,2.1,0,0,0-1.414,2.222c.468,4.16,21.546,1.9,25.165.95.195-.053.692-.195.758-.5.239-1.132-5.649-1.963-7.012-5.193-.551-1.307-.512-3.36,1.728-6.714Z" class="cls-49" data-name="Path 40565" transform="translate(-1868.77 -683.065)"/><path id="Path_40566" d="M2280.963,700.01a7.231,7.231,0,0,0,1.363-8.393c-1.307-2.289-3.9-2.922-5.454-3.311-4.5-1.118-10.634-.031-13.392,3.782-1.634,2.261.037,7.625.276,8.582.273,1.081,1.041,1.541,1.669,2.415.871,1.212,2.228,3.134,4.431,6.34a19.194,19.194,0,0,1,1.591-2.871,17.533,17.533,0,0,1,2.824-3.247C2277.184,700.8,2278.982,701.86,2280.963,700.01Z" class="cls-50" data-name="Path 40566" transform="translate(-1908.755 -642.529)"/><path id="Path_40567" d="M2268.959,742.472a9.83,9.83,0,0,0,8.233,5.594c5.454.372,8.354-11.174,5.364-14.1a6.909,6.909,0,0,0-5.192-1.363c-1.159.154-1.613.547-3.506.762-1.753.195-2.187-.043-2.768.3-.724.43-1.414,1.626-.974,5.171a2.9,2.9,0,0,0-2.953-1.4,1.964,1.964,0,0,0-.841.584C2265.321,739.243,2266.271,741.107,2268.959,742.472Z" class="cls-51" data-name="Path 40567" transform="translate(-1911.301 -678.488)"/><path id="Path_40568" d="M2274.7,734.371c.226.22-.736,1.052-1.036,2.366-.584,2.552,1.558,5.989,4.25,6.613,1.6.37,2.217-.516,4.951-.436a12.687,12.687,0,0,1,3.878.734c.333,2.922-.974,5.631-3.161,6.677-2.355,1.126-4.883-.078-5.941-.584a7.284,7.284,0,0,1-3.843-3.7c-.906-2.392.622-3.559-.608-5.259-.619-.857-1.558-1.317-2.259-2.908a6.846,6.846,0,0,1-.366-1.06C2272.212,735.578,2274.379,734.049,2274.7,734.371Z" class="cls-52" data-name="Path 40568" transform="translate(-1915.035 -679.922)"/><path id="Path_40569" d="M2086.556,820.127s19.183-6.725,20.677,10.712-10.2,58.328-24.177,60.469c-4.052-7.475-1.981-11.408,2.5-16.008s19.432-45.678,1-49.055l-2.37,1.256S2081.071,823.46,2086.556,820.127Z" class="cls-53" data-name="Path 40569" transform="translate(-1762.295 -747.984)"/><path id="Path_40570" d="M2164.63,927.544a1.026,1.026,0,0,1-1.254.639,20.992,20.992,0,0,0-11.053,0,1.028,1.028,0,0,1-1.252-.639h0a.994.994,0,0,1,.74-1.235,22.9,22.9,0,0,1,12.076,0,.992.992,0,0,1,.742,1.235Z" class="cls-10" data-name="Path 40570" transform="translate(-1818.781 -833.859)"/><path id="Path_40571" d="M2357.43,829.392s32.363,20.2,20.367,61.213c0,0,12.237-22.529,3.675-43.644C2375.423,832.043,2360.729,824.768,2357.43,829.392Z" class="cls-54" data-name="Path 40571" transform="translate(-1984.977 -755.359)"/><path id="Path_40572" d="M2458.5,944.293c-.109.51-.463.779-.8.641a8.675,8.675,0,0,0-7.012,0c-.333.14-.689-.129-.8-.641h0a1.121,1.121,0,0,1,.472-1.235,9.48,9.48,0,0,1,7.671,0,1.112,1.112,0,0,1,.472,1.235Z" class="cls-10" data-name="Path 40572" transform="translate(-2059.406 -847.346)"/><path id="Path_40573" d="M1905.065,864.25s-39.375,19.853-44.226,52.54,14.972,61.32,14.972,61.32l11.328-7.6s-25.494-39.768,24.274-70.864C1911.413,899.65,1916.933,871.264,1905.065,864.25Z" class="cls-55" data-name="Path 40573" transform="translate(-1584.492 -784.54)"/><path id="Path_40574" d="M1806.141,1263.28l5.471.954a8.99,8.99,0,0,1,6.879,5.713c4.6,12.313,17.619,44.659,30.7,54.559,16.269,12.319,4.312,17.59,4.312,17.59s-23.706,7.688-39.357-18.642S1806.141,1263.28,1806.141,1263.28Z" class="cls-56" data-name="Path 40574" transform="translate(-1539.557 -1105.85)"/><path id="Path_40575" d="M1516.2,1231.235c-7.75-3.488-13.1-.249-13.7,0-7.242,3-21.02,15.192-26.38,27.511-11.645,26.74-8.533,31.972-4.774,38.13,5.481,8.983,19.489,10.837,28.7,9.328,20.934-3.43,28.97-26.181,29.894-28.939C1535.957,1259.327,1530.123,1237.5,1516.2,1231.235Z" class="cls-57" data-name="Path 40575" transform="translate(-1268.733 -1078.752)"/><path id="Path_40576" d="M1903.059,2276.07q1.293,7.553,2.592,15.106a4.212,4.212,0,0,1-2.842,1.917,4.571,4.571,0,0,1-3.506-1.558,51.535,51.535,0,0,0-2.974-15.461Z" class="cls-58" data-name="Path 40576" transform="translate(-1613.686 -1921.378)"/><path id="Path_40577" d="M1701.76,1611.64c6.975,14.645,10.576,35.9,15.5,60.034,4.425,21.676,9.665,54.657,11.178,69.728-1.389.974-11.649,4.957-12.193,2.963-19.109-70.157-29.264-97.368-33.329-101.585-2.5-2.592-7.167-1.833-7.643-9.606a6.633,6.633,0,0,1,.016-.974C1676.157,1621.449,1696.86,1613.412,1701.76,1611.64Z" class="cls-59" data-name="Path 40577" transform="translate(-1435.677 -1386.359)"/><path id="Path_40578" d="M1378.1,2087.357a3.5,3.5,0,0,0-4.129.779c-2.166,2.513.417,7.836,1.541,10.161,1.274,2.641,3.738,9.914,7.312,8.395,1.589-.676.378-5.469-.448-6.922a14.3,14.3,0,0,1-1.434-6.026,11.337,11.337,0,0,0-.711-2.838C1379.743,2089.659,1379.457,2087.919,1378.1,2087.357Z" class="cls-60" data-name="Path 40578" transform="translate(-1192.393 -1769.145)"/><path id="Path_40579" d="M1392.14,2090.53c1.169,2.072,5.2-1.042,7.251-1.86s2.365-.068,1.447-1.735-2.123-3.3-4.357-2.308S1390.966,2088.46,1392.14,2090.53Z" class="cls-61" data-name="Path 40579" transform="translate(-1207.5 -1766.98)"/><path id="Path_40580" d="M1482.3,1701.671c.119.195-3.144-.162-3.311,1.128-1.132,8.765-22.689,63.186-27.632,64.664-.563.168-30.513,8.395-38.742,12.419-4.044-3.506-2.78-10.171-1.708-11.507,3-2.185,28.1-16.419,29.853-16.637,2.67-9.23,3.173-50.4,15.272-54.777C1458.45,1696.085,1478.379,1695.269,1482.3,1701.671Z" class="cls-62" data-name="Path 40580" transform="translate(-1221.949 -1454.586)"/><path id="Path_40581" d="M1773.18,1679.32h12.4c4.022,13.11,6.92,29.216,10.518,46.852,4.425,21.676,9.665,54.657,11.178,69.728a18.571,18.571,0,0,1-2.939,1.363c-4.04-11.491-10.076-22.492-14.312-34.264-4.3-13.774,3.444-30.133-2.583-43.907C1782.7,1706.021,1775.5,1692.954,1773.18,1679.32Z" class="cls-63" data-name="Path 40581" transform="translate(-1514.522 -1440.857)"/><path id="Path_40582" d="M1575.017,1333.234c4.616-60.843,19.333-85.75,18.046-93.144,1.852-1.332,9.17-3.449,25.749-1.266a27.493,27.493,0,0,1,8.946,5.473,26.907,26.907,0,0,1,2.063,2.189c-11.646,2.2-23.509,8.831-27.78,18.227-7.4,17.966,6.342,38.045,0,53.9-3.333,8.33-8.661,15.714-15.026,22.617C1579.737,1339.412,1574.751,1336.74,1575.017,1333.234Z" class="cls-64" data-name="Path 40582" transform="translate(-1354.948 -1085.399)"/><path id="Path_40583" d="M1627.726,1244.3a32.43,32.43,0,0,1,6.983,9.91c3.876,8.884-.3,16.511-1.558,31.017-1.363,15.915.569,42.427,5.046,51.924a2.278,2.278,0,0,1,.195,1.237c-1.212,9.179-64.343,7.1-63.414-5.152,4.616-60.843,19.333-85.75,18.045-93.144,1.852-1.332,9.17-3.449,25.749-1.266A27.488,27.488,0,0,1,1627.726,1244.3Z" class="cls-65" data-name="Path 40583" transform="translate(-1354.916 -1085.399)"/><path id="Path_40584" d="M1614.73,1594.885c7.288,0,13.683-4.758,18.24-11.275.584,12.787,2.407,25.846,5.276,31.929a2.277,2.277,0,0,1,.195,1.237c-1.212,9.179-64.343,7.1-63.414-5.152.253-3.348.543-6.566.853-9.7A83.009,83.009,0,0,1,1614.73,1594.885Z" class="cls-66" data-name="Path 40584" transform="translate(-1354.956 -1363.789)"/><path id="Path_40585" d="M1924.577,2321.869c-.584-.974-4.963-.84-7.246.195-3.831,1.735-6.254,5.171-7.232,5.592a5.95,5.95,0,0,1-4.379-.124s-1.656,2.789.81,4.382S1928.215,2327.869,1924.577,2321.869Z" class="cls-67" data-name="Path 40585" transform="translate(-1620.81 -1957.724)"/><path id="Path_40586" d="M1744.033,1155.42s.464,11.865-.571,14.061,1.753,5.385,7.489,6.836,1.768-11.727,1.768-11.727Z" class="cls-68" data-name="Path 40586" transform="translate(-1490.422 -1018.998)"/><path id="Path_40587" d="M1749.461,1074.052a9.572,9.572,0,0,0,2.067-10.785c-1.527-3.087-4.725-4.155-6.642-4.793-5.549-1.852-13.225-.985-16.82,3.726-2.131,2.791-.284,9.91-.027,11.174.292,1.43,1.225,2.094,1.969,3.286,1.03,1.65,2.635,4.269,5.237,8.63a24.2,24.2,0,0,1,2.1-3.588,21.128,21.128,0,0,1,3.654-3.968C1744.726,1074.743,1746.907,1076.28,1749.461,1074.052Z" class="cls-69" data-name="Path 40587" transform="translate(-1477.377 -940.205)"/><path id="Path_40588" d="M1732.783,1128.954s2.45,6.92,10,8c6.757.974,10.874-13.776,7.282-17.843a8.57,8.57,0,0,0-6.4-2.23c-1.445.1-2.027.567-4.394.676-2.183.1-2.727-.249-3.455.144-.919.495-1.831,1.987-1.443,6.622-1-1.558-2.425-2.368-3.613-2.086a2.336,2.336,0,0,0-1.069.68C1728.4,1124.436,1729.5,1126.942,1732.783,1128.954Z" class="cls-70" data-name="Path 40588" transform="translate(-1479.076 -987.952)"/><path id="Path_40589" d="M1805.711,1186.94a8.312,8.312,0,0,1-4.057-.214c-.119-.031-.259-.023-.288.035-.107.224,1.268,1.617,2.824,1.513,1.106-.076,2.127-.892,2.037-1.169C1806.19,1186.983,1805.95,1186.946,1805.711,1186.94Z" class="cls-71" data-name="Path 40589" transform="translate(-1537.213 -1044.192)"/><path id="Path_40590" d="M1811.77,1247.77s13.6,9.688,11.731,51.17C1823.5,1298.94,1838.75,1257.678,1811.77,1247.77Z" class="cls-72" data-name="Path 40590" transform="translate(-1545.596 -1093.361)"/><path id="Path_40591" d="M1612.353,1237.89h-6.11c4.618,14.563,2.6,23.515-.226,29.056,0,0-1.874,3.675-17.009,19.125l-1.657,12.915,13.9-4.784a42.43,42.43,0,0,0,16.464-24.152C1621.77,1253.341,1613.843,1240.249,1612.353,1237.89Z" class="cls-73" data-name="Path 40591" transform="translate(-1364.886 -1085.405)"/><path id="Path_40592" d="M2042.69,1628.687a3.506,3.506,0,0,1,3.7-2.337c2.968.317,7.45,1.011,9.154,2.4,2.63,2.142-.719,11.686-4.544,11.223-1.915-.23-4.365-1.961-6.338-3.632a6.883,6.883,0,0,1-2.018-7.5Z" class="cls-74" data-name="Path 40592" transform="translate(-1731.192 -1398.187)"/><path id="Path_40593" d="M1503.677,1258.169l-2.922-8.959s-26.791,18.711-36.646,32.1,2.9,46.874,2.9,46.874l10.029-2.549s-1.1-19.169,2.727-26.964,17.22-14.75,17.22-14.75S1504.666,1275.15,1503.677,1258.169Z" class="cls-75" data-name="Path 40593" transform="translate(-1262.64 -1094.521)"/><path id="Path_40594" d="M1511.53,1645.14l-4.411,1.122s-2.232,13.5,2.2,15.093,8.586-.956,8.586-4.464S1511.53,1645.14,1511.53,1645.14Z" class="cls-76" data-name="Path 40594" transform="translate(-1299.83 -1413.335)"/></g></g></svg>