<svg id="Flexible" xmlns="http://www.w3.org/2000/svg" width="100" height="100" viewBox="0 0 100 100">
  <defs>
    <style>
      .cls-1 {
        fill: #b8fbfd;
      }

      .cls-2, .cls-4 {
        fill: #00d6dc;
      }

      .cls-2, .cls-3 {
        fill-rule: evenodd;
      }

      .cls-3 {
        fill: #dddaec;
      }

      .cls-5 {
        fill: #0fd5c1;
      }
    </style>
  </defs>
  <rect id="Rectangle_1352" data-name="Rectangle 1352" class="cls-1" width="100" height="100" rx="8"/>
  <g id="arrows_1_" data-name="arrows (1)" transform="translate(15.498 -23.035)">
    <g id="Group_34359" data-name="Group 34359" transform="translate(1.013 45.546)">
      <path id="Path_37823" data-name="Path 37823" class="cls-2" d="M22.783,79.85V66.6h2a1.922,1.922,0,0,0,1.744-3.023L18.85,53.126a1.8,1.8,0,0,0-3.312,0L8.576,62.608l-.711.97a1.872,1.872,0,0,0,.711,2.793,2.508,2.508,0,0,0,1.034.229h2V81.177a3.4,3.4,0,0,0,3.387,3.387H27.046C24.892,84.564,22.783,81.519,22.783,79.85Z" transform="translate(-7.514 -52.035)"/>
    </g>
    <g id="Group_34360" data-name="Group 34360" transform="translate(14.287 66.627)">
      <path id="Path_37824" data-name="Path 37824" class="cls-2" d="M106.017,208.465V215.2c0,1.669,2.34,4.715,4.73,4.715h35.7V213.18c0-1.666-2.323-4.7-4.713-4.715H106.017Z" transform="translate(-106.017 -208.465)"/>
    </g>
    <g id="Group_34361" data-name="Group 34361" transform="translate(48.474 66.627)">
      <path id="Path_37825" data-name="Path 37825" class="cls-2" d="M363.945,213.179V227.8h-2a1.922,1.922,0,0,0-1.744,3.023l7.673,10.452a1.8,1.8,0,0,0,3.312,0l7.673-10.452a1.921,1.921,0,0,0-1.741-3.023h-2V211.852a3.4,3.4,0,0,0-3.391-3.387H359.7C361.851,208.48,363.945,211.514,363.945,213.179Z" transform="translate(-359.697 -208.465)"/>
    </g>
    <g id="Group_34362" data-name="Group 34362" transform="translate(43.568 66.627)">
      <path id="Path_37826" data-name="Path 37826" class="cls-2" d="M328.2,208.465h0Zm-4.91,0c2.15.015,4.245,3.049,4.245,4.715v6.733h4.91V213.18c0-1.666-2.094-4.7-4.245-4.715h-4.91Z" transform="translate(-323.29 -208.465)"/>
    </g>
    <g id="Group_34363" data-name="Group 34363" transform="translate(56.204 66.627)">
      <path id="Path_37827" data-name="Path 37827" class="cls-3" d="M420.534,211.852V227.21c0,1.763-.2,2.842,1.65,2.842,1.835.034,1.654,1.252,1.222,2.151l-6.354,8.455.451.613a1.8,1.8,0,0,0,3.312,0l7.673-10.452a1.921,1.921,0,0,0-1.741-3.023h-2V211.852a3.4,3.4,0,0,0-3.391-3.387h-4.214C418.252,208.465,420.534,209.988,420.534,211.852Z" transform="translate(-417.053 -208.465)"/>
    </g>
    <g id="Group_34364" data-name="Group 34364" transform="translate(8.856 45.546)">
      <path id="Path_37828" data-name="Path 37828" class="cls-3" d="M69.3,71.413V80.8c0,1.079.977,3.763,3.192,3.763H77.4c-2.154,0-4.263-3.045-4.263-4.715V66.6h2a1.922,1.922,0,0,0,1.744-3.023L69.209,53.126a1.8,1.8,0,0,0-3.312,0l-.18.244,6.241,8.508c.857,1.316.665,2.989-1.169,3.019-1.511,0-1.489,1.019-1.489,2.395Z" transform="translate(-65.716 -52.035)"/>
    </g>
    <g id="Group_34365" data-name="Group 34365" transform="translate(0 44.535)">
      <path id="Path_37829" data-name="Path 37829" class="cls-4" d="M265.969,221.869a3.094,3.094,0,0,0-2.755-1.572h-1V205.362a4.4,4.4,0,0,0-4.4-4.4H240.16a1.011,1.011,0,1,0,0,2.021h5.594c1.464,0,3.253,2.48,3.253,3.7v5.723H229.036a1.011,1.011,0,0,0,0,2.021h19.971V220.3h-1a3.1,3.1,0,0,0-2.759,1.573,2.937,2.937,0,0,0,.187,3.012l.032.046,7.648,10.417a2.966,2.966,0,0,0,2.5,1.538h0a2.961,2.961,0,0,0,2.493-1.539l7.647-10.416.032-.046A2.937,2.937,0,0,0,265.969,221.869Zm-1.867,1.889-7.654,10.426q-.028.038-.052.079a1.034,1.034,0,0,1-.787.6h0a1.04,1.04,0,0,1-.792-.6c-.016-.026-.033-.052-.051-.077l-7.654-10.426a.939.939,0,0,1-.081-.941,1.087,1.087,0,0,1,1-.5h1.986a1.011,1.011,0,0,0,1.011-1.011V206.689a6.37,6.37,0,0,0-1.611-3.7h8.39a2.381,2.381,0,0,1,2.38,2.377v15.945a1.011,1.011,0,0,0,1.011,1.011h1.986a1.083,1.083,0,0,1,1,.5A.94.94,0,0,1,264.1,223.757Z" transform="translate(-197.296 -179.883)"/>
      <path id="Path_37830" data-name="Path 37830" class="cls-5" d="M27.146,77.064h-6.6c-1.464,0-3.253-2.48-3.253-3.7V67.637H38.271a1.011,1.011,0,1,0,0-2.021H17.292V61.122h1a3.1,3.1,0,0,0,2.759-1.573,2.937,2.937,0,0,0-.186-3.012l-.032-.046L13.19,46.074a2.961,2.961,0,0,0-2.5-1.539,2.961,2.961,0,0,0-2.5,1.539L.549,56.49l-.032.046A2.937,2.937,0,0,0,.33,59.548a3.1,3.1,0,0,0,2.759,1.573h1V74.687a4.4,4.4,0,0,0,4.4,4.4H27.146a1.011,1.011,0,1,0,0-2.021ZM6.115,74.687V60.111A1.011,1.011,0,0,0,5.1,59.1H3.118a1.087,1.087,0,0,1-1-.5.94.94,0,0,1,.081-.941L9.851,47.235q.028-.038.052-.078a1.035,1.035,0,0,1,.789-.6,1.035,1.035,0,0,1,.789.6q.024.04.052.078l7.654,10.426a.939.939,0,0,1,.081.941,1.087,1.087,0,0,1-1,.5H16.281a1.011,1.011,0,0,0-1.011,1.011V73.36a6.37,6.37,0,0,0,1.612,3.7H8.492a2.379,2.379,0,0,1-2.377-2.377Z" transform="translate(0 -44.535)"/>
    </g>
  </g>
</svg>
