<svg id="Grant_Illustration" data-name="Grant Illustration" xmlns="http://www.w3.org/2000/svg" xmlns:xlink="http://www.w3.org/1999/xlink" width="524.875" height="513.377" viewBox="0 0 524.875 513.377">
  <defs>
    <style>
      .cls-1 {
        fill: url(#linear-gradient);
      }

      .cls-2 {
        fill: none;
      }

      .cls-3 {
        fill: #f4f7fa;
      }

      .cls-4 {
        clip-path: url(#clip-path);
      }

      .cls-5 {
        fill: url(#linear-gradient-3);
      }

      .cls-6 {
        opacity: 0.5;
      }

      .cls-7 {
        fill: #beb8f2;
      }

      .cls-8 {
        fill: url(#linear-gradient-4);
      }

      .cls-9 {
        clip-path: url(#clip-path-2);
      }

      .cls-10 {
        fill: #fcfdfe;
      }

      .cls-11 {
        fill: url(#linear-gradient-5);
      }

      .cls-12 {
        clip-path: url(#clip-path-3);
      }

      .cls-13, .cls-21 {
        fill: #bfc8d6;
      }

      .cls-14, .cls-16, .cls-79 {
        fill: #fff;
      }

      .cls-15 {
        fill: #d8dee8;
      }

      .cls-16 {
        opacity: 0.48;
      }

      .cls-17 {
        fill: url(#linear-gradient-6);
      }

      .cls-18 {
        fill: url(#linear-gradient-7);
      }

      .cls-19 {
        fill: url(#linear-gradient-8);
      }

      .cls-20 {
        fill: url(#linear-gradient-9);
      }

      .cls-21, .cls-51, .cls-76 {
        opacity: 0.3;
      }

      .cls-22 {
        fill: url(#linear-gradient-10);
      }

      .cls-23 {
        fill: url(#linear-gradient-11);
      }

      .cls-24 {
        fill: url(#linear-gradient-12);
      }

      .cls-25 {
        fill: #fcb048;
      }

      .cls-26 {
        fill: url(#linear-gradient-13);
      }

      .cls-27 {
        fill: url(#linear-gradient-14);
      }

      .cls-28 {
        fill: url(#linear-gradient-15);
      }

      .cls-29 {
        fill: url(#linear-gradient-16);
      }

      .cls-30 {
        fill: url(#linear-gradient-17);
      }

      .cls-31 {
        fill: url(#linear-gradient-20);
      }

      .cls-32 {
        fill: url(#linear-gradient-21);
      }

      .cls-33 {
        fill: url(#linear-gradient-22);
      }

      .cls-34 {
        fill: url(#linear-gradient-23);
      }

      .cls-35 {
        fill: url(#linear-gradient-25);
      }

      .cls-36 {
        fill: url(#linear-gradient-27);
      }

      .cls-37 {
        fill: url(#linear-gradient-29);
      }

      .cls-38 {
        fill: url(#linear-gradient-32);
      }

      .cls-39 {
        fill: url(#linear-gradient-33);
      }

      .cls-40 {
        fill: url(#linear-gradient-35);
      }

      .cls-41 {
        fill: url(#linear-gradient-36);
      }

      .cls-42 {
        fill: url(#linear-gradient-37);
      }

      .cls-43 {
        fill: url(#linear-gradient-41);
      }

      .cls-44 {
        fill: url(#linear-gradient-42);
      }

      .cls-45 {
        fill: url(#linear-gradient-43);
      }

      .cls-46 {
        fill: url(#linear-gradient-44);
      }

      .cls-47 {
        fill: url(#linear-gradient-45);
      }

      .cls-48 {
        fill: url(#linear-gradient-46);
      }

      .cls-49 {
        fill: url(#linear-gradient-47);
      }

      .cls-50 {
        fill: url(#linear-gradient-48);
      }

      .cls-52 {
        fill: url(#linear-gradient-49);
      }

      .cls-53 {
        fill: url(#linear-gradient-50);
      }

      .cls-54 {
        fill: url(#linear-gradient-51);
      }

      .cls-55 {
        fill: url(#linear-gradient-52);
      }

      .cls-56 {
        fill: url(#linear-gradient-53);
      }

      .cls-57 {
        fill: url(#linear-gradient-54);
      }

      .cls-58 {
        fill: url(#linear-gradient-55);
      }

      .cls-59 {
        fill: #9f73f8;
      }

      .cls-60 {
        fill: #ae87f9;
      }

      .cls-61 {
        fill: url(#linear-gradient-56);
      }

      .cls-62 {
        fill: url(#linear-gradient-57);
      }

      .cls-63 {
        fill: url(#linear-gradient-58);
      }

      .cls-64 {
        fill: #26264f;
      }

      .cls-65 {
        fill: #444b8c;
      }

      .cls-66 {
        fill: url(#linear-gradient-59);
      }

      .cls-67 {
        fill: #1f1f44;
      }

      .cls-68 {
        fill: url(#linear-gradient-60);
      }

      .cls-69 {
        fill: url(#linear-gradient-61);
      }

      .cls-70 {
        fill: url(#linear-gradient-62);
      }

      .cls-71 {
        fill: url(#linear-gradient-63);
      }

      .cls-72 {
        fill: url(#linear-gradient-64);
      }

      .cls-73, .cls-74 {
        fill: url(#linear-gradient-65);
      }

      .cls-74, .cls-79 {
        opacity: 0.2;
      }

      .cls-75 {
        fill: url(#linear-gradient-67);
      }

      .cls-76 {
        fill: url(#linear-gradient-68);
      }

      .cls-77 {
        fill: url(#linear-gradient-69);
      }

      .cls-78 {
        fill: url(#linear-gradient-70);
      }

      .cls-80 {
        fill: url(#linear-gradient-71);
      }

      .cls-81 {
        fill: url(#linear-gradient-72);
      }
    </style>
    <linearGradient id="linear-gradient" x1="5.199" y1="0.504" x2="7.102" y2="0.504" gradientUnits="objectBoundingBox">
      <stop offset="0" stop-color="#ffc444"/>
      <stop offset="1" stop-color="#f36f56"/>
    </linearGradient>
    <clipPath id="clip-path">
      <path id="Path_40139" data-name="Path 40139" class="cls-1" d="M1579.949,1394.879l-49.259-25.489s3.8-30.066,25.1-41.644c43.463-23.641,19.719-60.05,12.057-76.786-11.553-25.241-10.729-52.523,22.745-47.267s27.676-53.829,3.142-91.905c-24-37.258,28.369-101.434,87.737-25.565,35.452,45.311,2.688,90.8-8.4,117.71s26.109,48.851-3.273,73.525c-25.1,21.075-56.505,29.66-49.828,56.531S1617.611,1382.433,1579.949,1394.879Z" transform="translate(-1530.69 -1050.841)"/>
    </clipPath>
    <linearGradient id="linear-gradient-3" x1="10.611" y1="-2.5" x2="9.949" y2="-1.588" gradientUnits="objectBoundingBox">
      <stop offset="0" stop-color="#e38ddd"/>
      <stop offset="1" stop-color="#9571f6"/>
    </linearGradient>
    <linearGradient id="linear-gradient-4" x1="-6.164" y1="0.253" x2="-5.655" y2="1.836" gradientUnits="objectBoundingBox">
      <stop offset="0" stop-color="#ff9085"/>
      <stop offset="1" stop-color="#fb6fbb"/>
    </linearGradient>
    <clipPath id="clip-path-2">
      <path id="Path_40149" data-name="Path 40149" class="cls-2" d="M1607.05,1687.794l21.792,44.654s35.565,5.661,40.444-13.368,37.926-18.549,55.465-20.457c47.582-5.168,31.268-58.242,91.643-70.081,16.058-3.148,47.971-3.417,57.526-20.368,10.886-19.322-6.107-28.564,3.71-41.535,15.341-20.277,16.158-48.482-7.034-60.677-22.888-12.037-57.1,14.685-77.366,68.477-18.773,36.613-26.4,38.615-45.794,39.8-13.586.833-50.974-5.908-60.417,15.9s-21,39.324-37.555,34.859C1624.272,1658.2,1607.05,1687.794,1607.05,1687.794Z" transform="translate(-1607.05 -1503.113)"/>
    </clipPath>
    <linearGradient id="linear-gradient-5" x1="-2.973" y1="-0.073" x2="-2.255" y2="0.774" xlink:href="#linear-gradient-3"/>
    <clipPath id="clip-path-3">
      <path id="Path_40156" data-name="Path 40156" class="cls-2" d="M1670.56,1232.825l29.54,73.123c11.555.438,31.9-1.169,30.188-18.205-2.375-23.685,33.165-37.747,48.128-36.678,18.52,1.324,61.661,3.5,58.546-33.154-2.6-30.508-10.289-49.95,22.472-64.569s46.062-41.79,31.424-73.016c-15.4-32.859,16.267-76.591-8.878-98.767-43.812-38.638-100.47,32.875-98.768,99.412s-31.561,40.6-59.615,49.424c-38.3,12.039-9.238,62.268-18.389,81.912C1698.035,1227.706,1681.311,1231.688,1670.56,1232.825Z" transform="translate(-1670.56 -970.668)"/>
    </clipPath>
    <linearGradient id="linear-gradient-6" x1="0.234" y1="0.5" x2="1.234" y2="0.5" gradientUnits="objectBoundingBox">
      <stop offset="0.49" stop-color="#ebeff2"/>
      <stop offset="1" stop-color="#fff"/>
    </linearGradient>
    <linearGradient id="linear-gradient-7" y1="0.5" x2="1" y2="0.5" gradientUnits="objectBoundingBox">
      <stop offset="0" stop-color="#311944"/>
      <stop offset="1" stop-color="#893976"/>
    </linearGradient>
    <linearGradient id="linear-gradient-8" x1="0" y1="0.5" x2="1" y2="0.5" xlink:href="#linear-gradient-4"/>
    <linearGradient id="linear-gradient-9" x1="0" y1="0.5" x2="1" y2="0.5" xlink:href="#linear-gradient-4"/>
    <linearGradient id="linear-gradient-10" x1="-0.085" y1="0.5" x2="1.065" y2="0.5" gradientUnits="objectBoundingBox">
      <stop offset="0" stop-color="#f57e53"/>
      <stop offset="0" stop-color="#f68252"/>
      <stop offset="0.04" stop-color="#f99a4d"/>
      <stop offset="0.08" stop-color="#fcad49"/>
      <stop offset="0.13" stop-color="#feba46"/>
      <stop offset="0.2" stop-color="#ffc244"/>
      <stop offset="0.32" stop-color="#ffc444"/>
      <stop offset="0.45" stop-color="#fdb946"/>
      <stop offset="0.69" stop-color="#f99c4c"/>
      <stop offset="1" stop-color="#f36f56"/>
    </linearGradient>
    <linearGradient id="linear-gradient-11" x1="0.495" y1="0.179" x2="0.556" y2="4.091" gradientUnits="objectBoundingBox">
      <stop offset="0" stop-color="#ffdb44"/>
      <stop offset="1" stop-color="#feef06"/>
    </linearGradient>
    <linearGradient id="linear-gradient-12" x1="0.492" y1="-0.777" x2="0.511" y2="1.296" xlink:href="#linear-gradient-11"/>
    <linearGradient id="linear-gradient-13" x1="-0.485" y1="-38.545" x2="-0.466" y2="-36.114" gradientUnits="objectBoundingBox">
      <stop offset="0" stop-color="#f36f56"/>
      <stop offset="0.31" stop-color="#f99c4c"/>
      <stop offset="0.55" stop-color="#fdb946"/>
      <stop offset="0.68" stop-color="#ffc444"/>
      <stop offset="0.8" stop-color="#ffc244"/>
      <stop offset="0.87" stop-color="#feba46"/>
      <stop offset="0.92" stop-color="#fcad49"/>
      <stop offset="0.96" stop-color="#f99a4d"/>
      <stop offset="1" stop-color="#f68252"/>
      <stop offset="1" stop-color="#f57e53"/>
    </linearGradient>
    <linearGradient id="linear-gradient-14" x1="-0.085" y1="0.5" x2="1.065" y2="0.5" xlink:href="#linear-gradient-10"/>
    <linearGradient id="linear-gradient-15" x1="0.495" y1="0.179" x2="0.556" y2="4.091" xlink:href="#linear-gradient-11"/>
    <linearGradient id="linear-gradient-16" x1="0.492" y1="-0.777" x2="0.511" y2="1.295" xlink:href="#linear-gradient-11"/>
    <linearGradient id="linear-gradient-17" x1="-0.203" y1="-34.9" x2="-0.184" y2="-32.468" xlink:href="#linear-gradient-13"/>
    <linearGradient id="linear-gradient-20" x1="0.492" y1="-0.777" x2="0.511" y2="1.296" xlink:href="#linear-gradient-11"/>
    <linearGradient id="linear-gradient-21" x1="-0.446" y1="-31.264" x2="-0.427" y2="-28.833" xlink:href="#linear-gradient-13"/>
    <linearGradient id="linear-gradient-22" x1="-0.085" y1="0.5" x2="1.065" y2="0.5" xlink:href="#linear-gradient-10"/>
    <linearGradient id="linear-gradient-23" x1="0.495" y1="0.178" x2="0.556" y2="4.091" xlink:href="#linear-gradient-11"/>
    <linearGradient id="linear-gradient-25" x1="-0.594" y1="-27.624" x2="-0.575" y2="-25.192" xlink:href="#linear-gradient-13"/>
    <linearGradient id="linear-gradient-27" x1="0.495" y1="0.179" x2="0.556" y2="4.091" xlink:href="#linear-gradient-11"/>
    <linearGradient id="linear-gradient-29" x1="-0.485" y1="-23.685" x2="-0.466" y2="-21.254" xlink:href="#linear-gradient-13"/>
    <linearGradient id="linear-gradient-32" x1="0.492" y1="-0.777" x2="0.511" y2="1.296" xlink:href="#linear-gradient-11"/>
    <linearGradient id="linear-gradient-33" x1="-0.203" y1="-20.04" x2="-0.184" y2="-17.608" xlink:href="#linear-gradient-13"/>
    <linearGradient id="linear-gradient-35" x1="0.495" y1="0.179" x2="0.556" y2="4.091" xlink:href="#linear-gradient-11"/>
    <linearGradient id="linear-gradient-36" x1="0.492" y1="-0.777" x2="0.511" y2="1.295" xlink:href="#linear-gradient-11"/>
    <linearGradient id="linear-gradient-37" x1="-0.446" y1="-16.405" x2="-0.427" y2="-13.973" xlink:href="#linear-gradient-13"/>
    <linearGradient id="linear-gradient-41" x1="-0.32" y1="-12.761" x2="-0.301" y2="-10.329" xlink:href="#linear-gradient-13"/>
    <linearGradient id="linear-gradient-42" x1="0.349" y1="-0.574" x2="2.054" y2="-0.574" xlink:href="#linear-gradient-10"/>
    <linearGradient id="linear-gradient-43" x1="1.231" y1="-0.774" x2="1.334" y2="-0.154" xlink:href="#linear-gradient-11"/>
    <linearGradient id="linear-gradient-44" x1="1.229" y1="-0.801" x2="1.26" y2="-0.61" xlink:href="#linear-gradient-11"/>
    <linearGradient id="linear-gradient-45" x1="-4.929" y1="-0.55" x2="-4.896" y2="-0.357" xlink:href="#linear-gradient-13"/>
    <linearGradient id="linear-gradient-46" x1="-12.567" y1="-3.607" x2="-11.426" y2="-3.607" gradientUnits="objectBoundingBox">
      <stop offset="0" stop-color="#40447e"/>
      <stop offset="1" stop-color="#3c3b6b"/>
    </linearGradient>
    <linearGradient id="linear-gradient-47" x1="14.616" y1="-13.874" x2="48.998" y2="12.739" xlink:href="#linear-gradient"/>
    <linearGradient id="linear-gradient-48" x1="0.548" y1="-0.254" x2="1.816" y2="0.759" gradientUnits="objectBoundingBox">
      <stop offset="0" stop-color="#311944"/>
      <stop offset="1" stop-color="#a03976"/>
    </linearGradient>
    <linearGradient id="linear-gradient-49" x1="-1.487" y1="0.5" x2="-0.487" y2="0.5" xlink:href="#linear-gradient-48"/>
    <linearGradient id="linear-gradient-50" x1="0.632" y1="0.653" x2="4.126" y2="-0.312" xlink:href="#linear-gradient-7"/>
    <linearGradient id="linear-gradient-51" x1="4.044" y1="1.688" x2="2.735" y2="0.356" gradientUnits="objectBoundingBox">
      <stop offset="0" stop-color="#aa80f9"/>
      <stop offset="1" stop-color="#6165d7"/>
    </linearGradient>
    <linearGradient id="linear-gradient-52" x1="0.103" y1="-1.499" x2="0.602" y2="-0.739" xlink:href="#linear-gradient-51"/>
    <linearGradient id="linear-gradient-53" x1="1.548" y1="0.814" x2="1.322" y2="-0.007" xlink:href="#linear-gradient-51"/>
    <linearGradient id="linear-gradient-54" x1="2.947" y1="-0.105" x2="6.306" y2="-2.276" xlink:href="#linear-gradient"/>
    <linearGradient id="linear-gradient-55" x1="0.708" y1="1.357" x2="0.119" y2="0.3" xlink:href="#linear-gradient-51"/>
    <linearGradient id="linear-gradient-56" x1="6.673" y1="1.047" x2="6.796" y2="-0.559" xlink:href="#linear-gradient"/>
    <linearGradient id="linear-gradient-57" x1="-8.862" y1="1.276" x2="-9.668" y2="-0.552" gradientUnits="objectBoundingBox">
      <stop offset="0" stop-color="#311944"/>
      <stop offset="1" stop-color="#6b3976"/>
    </linearGradient>
    <linearGradient id="linear-gradient-58" x1="3.863" y1="-0.235" x2="3.827" y2="2.934" xlink:href="#linear-gradient"/>
    <linearGradient id="linear-gradient-59" x1="1.202" y1="0.093" x2="2.059" y2="0.093" xlink:href="#linear-gradient-46"/>
    <linearGradient id="linear-gradient-60" x1="-3.734" y1="1.836" x2="-2.741" y2="1.836" xlink:href="#linear-gradient-46"/>
    <linearGradient id="linear-gradient-61" x1="16.482" y1="-8.354" x2="79.664" y2="50.838" xlink:href="#linear-gradient"/>
    <linearGradient id="linear-gradient-62" x1="-0.719" y1="-0.462" x2="4.116" y2="-1.116" xlink:href="#linear-gradient-48"/>
    <linearGradient id="linear-gradient-63" x1="-0.569" y1="-3.05" x2="-0.823" y2="1.224" xlink:href="#linear-gradient-48"/>
    <linearGradient id="linear-gradient-64" x1="0.779" y1="0.047" x2="1.982" y2="-1.422" xlink:href="#linear-gradient-4"/>
    <linearGradient id="linear-gradient-65" x1="0" y1="0.5" x2="1" y2="0.5" xlink:href="#linear-gradient"/>
    <linearGradient id="linear-gradient-67" x1="-2.194" y1="6.092" x2="-1.999" y2="-0.39" xlink:href="#linear-gradient-51"/>
    <linearGradient id="linear-gradient-68" x1="-2.365" y1="-0.662" x2="-2.349" y2="-1.818" xlink:href="#linear-gradient-51"/>
    <linearGradient id="linear-gradient-69" x1="-1.461" y1="-1.063" x2="-1.535" y2="0.01" xlink:href="#linear-gradient-51"/>
    <linearGradient id="linear-gradient-70" x1="-1.482" y1="-1.382" x2="-1.58" y2="1.041" xlink:href="#linear-gradient-51"/>
    <linearGradient id="linear-gradient-71" x1="-2.7" y1="-0.011" x2="-2.809" y2="1.009" xlink:href="#linear-gradient"/>
    <linearGradient id="linear-gradient-72" x1="-27.595" y1="4.284" x2="-26.616" y2="1.222" xlink:href="#linear-gradient"/>
  </defs>
  <path id="Path_40129" data-name="Path 40129" class="cls-3" d="M929.037,657.855c-10.347-67.726-18.653-114.531-56.011-140.178C810,474.416,739.619,544.646,650.343,497.52c-43.961-23.208-45.609-50.1-82.836-53.674-65.862-6.318-119.8,72.292-124.473,79.021-28.4,40.955-37.889,90.9-26.369,138.507,7.478,30.915,12.53,62.921,11.144,94.7-2.413,55.3-1.026,106.93,52.645,139.907,47.922,29.448,108.232,55.42,165.769,59.97,39.1,3.092,82.951-1.911,120.638-12.091C958.92,891.984,943.264,750.975,929.037,657.855Z" transform="translate(-411.882 -443.485)"/>
  <path id="Path_40130" data-name="Path 40130" class="cls-1" d="M1579.949,1394.879l-49.259-25.489s3.8-30.066,25.1-41.644c43.463-23.641,19.719-60.05,12.057-76.786-11.553-25.241-10.729-52.523,22.745-47.267s27.676-53.829,3.142-91.905c-24-37.258,28.369-101.434,87.737-25.565,35.452,45.311,2.688,90.8-8.4,117.71s26.109,48.851-3.273,73.525c-25.1,21.075-56.505,29.66-49.828,56.531S1617.611,1382.433,1579.949,1394.879Z" transform="translate(-1327.231 -940.391)"/>
  <g id="Group_34472" data-name="Group 34472" class="cls-4" transform="translate(203.459 110.45)">
    <path id="Path_40131" data-name="Path 40131" class="cls-5" d="M1579.949,1394.879l-49.259-25.489s3.8-30.066,25.1-41.645c43.463-23.641,19.719-60.05,12.057-76.786-11.553-25.241-9.951-49.3,19.988-49.955,33.872-.74,30.433-51.143,5.9-89.217-24-37.258,28.369-101.434,87.737-25.565,35.452,45.311,2.688,90.8-8.4,117.71s26.109,48.851-3.273,73.525c-25.1,21.075-56.505,29.66-49.828,56.531S1617.611,1382.433,1579.949,1394.879Z" transform="translate(-1530.69 -1050.841)"/>
    <g id="Group_34471" data-name="Group 34471" class="cls-6" transform="translate(20.16 -3.212)">
      <path id="Path_40132" data-name="Path 40132" class="cls-7" d="M1667.147,1373.97l-.927-.718c.445-.573,44.683-58.144,71.328-128.441,24.55-64.762,38.755-153.888-32.977-210.721l.727-.909c31.932,25.3,49.782,58.988,53.056,100.132,2.617,32.866-4.017,70.53-19.718,111.945C1711.925,1315.7,1667.591,1373.4,1667.147,1373.97Z" transform="translate(-1661.734 -1033.18)"/>
      <path id="Path_40133" data-name="Path 40133" class="cls-7" d="M2171.966,1278.636l-.966-.658c22.046-32.132,34.2-87.69,34.327-88.248l1.144.247C2206.351,1190.532,2194.141,1246.316,2171.966,1278.636Z" transform="translate(-2074.718 -1161.261)"/>
      <path id="Path_40134" data-name="Path 40134" class="cls-7" d="M1880.235,1314.067c-23.721-39.922-61.841-46.373-62.225-46.442l.182-1.155c.387.06,39.035,6.587,63.047,47Z" transform="translate(-1785.92 -1224.045)"/>
      <path id="Path_40135" data-name="Path 40135" class="cls-7" d="M1735.886,1981.046c13.741-55.043-46.718-101.571-47.346-101.974l.569-1.022c.653.338,61.776,47.747,47.913,103.28Z" transform="translate(-1679.995 -1724.407)"/>
      <path id="Path_40136" data-name="Path 40136" class="cls-7" d="M2005.679,2183.269l-.909-.74c22.835-28.091,68.2-32.083,68.646-32.119l.095,1.166C2073.06,2151.608,2028.195,2155.569,2005.679,2183.269Z" transform="translate(-1938.717 -1947.238)"/>
      <path id="Path_40137" data-name="Path 40137" class="cls-7" d="M1652.8,2627.553c8.365-19.858-11.053-49.066-11.249-49.359l.971-.655c.82,1.217,19.978,30.024,11.357,50.468Z" transform="translate(-1641.55 -2296.692)"/>
      <path id="Path_40138" data-name="Path 40138" class="cls-7" d="M1757.795,2682.089l-.935-.706c10.267-13.6,41.417-18.549,51.646-20.186,1.446-.231,2.7-.429,2.91-.508l.42,1.091a27.252,27.252,0,0,1-3.146.571C1798.579,2663.969,1767.78,2668.865,1757.795,2682.089Z" transform="translate(-1735.891 -2364.721)"/>
    </g>
  </g>
  <path id="Path_40140" data-name="Path 40140" class="cls-8" d="M1689.091,1664.981c-14.481-3.9-26.145,4.783-33.6,12.391a15.286,15.286,0,0,1,.118,3.781c-.049,13.4,2.784,19.12,4.819,32.332.438,2.844,4.264,10.8,6.036,13.948l3.4,5.819s34.188,4.837,39.059-14.185,37.926-18.549,55.465-20.457c10.769-1.169,15.319-5.154,19.207-6.219,41.155-11.275,56.16-1.32,67.286-13.208,12.288-13.123-2.479-29.006,10.135-43.989,14.243-16.912,42.634-8.02,52.536-27.042a28.1,28.1,0,0,0,3.728-11.546c.926-12.07-7.651-19.9-.018-29.988,15.341-20.277,16.158-48.482-7.034-60.677-22.888-12.037-57.1,14.685-77.366,68.477-18.773,36.613-26.4,38.615-45.794,39.8-13.586.833-50.974-5.908-60.415,15.9S1705.643,1669.446,1689.091,1664.981Z" transform="translate(-1429.335 -1310.4)"/>
  <g id="Group_34474" data-name="Group 34474" class="cls-9" transform="translate(217.346 192.697)">
    <g id="Group_34473" data-name="Group 34473" class="cls-6" transform="translate(11.735 -17.124)">
      <path id="Path_40141" data-name="Path 40141" class="cls-10" d="M1671.58,1629.768l.326.931c5.152-1.742,10.322-3.57,15.37-5.427,37.376-13.763,71.99-30.786,102.884-50.6a432.313,432.313,0,0,0,70.97-56.533,372.343,372.343,0,0,0,44.594-53.069,308.483,308.483,0,0,0,23.154-39.36c1.113-2.279,2.128-4.683,3.108-7.007,1.307-3.092,2.659-6.3,4.255-9.233l-.807-.52c-1.619,2.973-2.979,6.2-4.3,9.316-.975,2.311-1.984,4.7-3.092,6.96a307.554,307.554,0,0,1-23.084,39.244,371.554,371.554,0,0,1-44.489,52.941,431.925,431.925,0,0,1-70.828,56.42c-30.842,19.78-65.4,36.776-102.72,50.517C1681.889,1626.205,1676.726,1628.027,1671.58,1629.768Z" transform="translate(-1671.58 -1408.95)"/>
      <path id="Path_40142" data-name="Path 40142" class="cls-10" d="M2564.66,2039.63l.576.793c30.982-24.294,98.894-21.511,99.576-21.479v-.975C2664.118,2017.939,2595.89,2015.14,2564.66,2039.63Z" transform="translate(-2402.25 -1907.126)"/>
      <path id="Path_40143" data-name="Path 40143" class="cls-10" d="M2054.75,2161.742l.487.853c23.021-13.8,31.132-67.593,31.21-68.135l-.909-.2C2085.456,2094.8,2077.411,2148.156,2054.75,2161.742Z" transform="translate(-1985.069 -1969.634)"/>
      <path id="Path_40144" data-name="Path 40144" class="cls-10" d="M1979.05,2484.852l.342.924c16.447-5.97,42.372-4.646,73.009,3.728,1.54.42,1.54.42,1.706.364l-.333-.927.166.464v-.484c-.105-.016-.687-.182-1.362-.364C2021.776,2480.138,1995.662,2478.822,1979.05,2484.852Z" transform="translate(-1923.135 -2286.144)"/>
      <path id="Path_40145" data-name="Path 40145" class="cls-10" d="M1723,2416.3l.573.8c15.29-11.884,15.55-42.372,15.552-42.67l-.924-.056C1738.2,2374.666,1737.941,2404.688,1723,2416.3Z" transform="translate(-1713.649 -2198.805)"/>
      <path id="Path_40146" data-name="Path 40146" class="cls-10" d="M1672.951,2626.883c15.721.707,32.006,6.2,49.8,16.792l.42-.844c-17.922-10.673-34.352-16.208-50.226-16.921Z" transform="translate(-1672.693 -2404.602)"/>
      <path id="Path_40147" data-name="Path 40147" class="cls-10" d="M2912.63,1635.674l.615.762c16.459-14.565,37.16-25.641,43.963-29.278,1.637-.882,2.224-1.195,2.406-1.342l-.586-.786c-.14.111-1.082.615-2.273,1.251C2949.93,1609.935,2929.164,1621.044,2912.63,1635.674Z" transform="translate(-2686.94 -1569.372)"/>
      <path id="Path_40148" data-name="Path 40148" class="cls-10" d="M2784.91,1647.728l.791.546c10.691-18.076.611-60.985.182-62.8l-.895.182C2785.088,1586.112,2795.4,1629.988,2784.91,1647.728Z" transform="translate(-2582.447 -1553.369)"/>
    </g>
  </g>
  <path id="Path_40150" data-name="Path 40150" class="cls-11" d="M1604.234,1245.558c1.637,2.986-21.511,26.825,2.864,27.765,6.09.235,25.061-4.255,35.087,18.7l5.839,13.37c11.69-.122,22.684-2.4,21.155-17.654-2.375-23.685,33.165-37.747,48.128-36.678,18.52,1.324,61.661,3.5,58.546-33.152-2.595-30.51-10.289-49.952,22.472-64.571s46.062-41.79,31.424-73.016c-15.4-32.859,16.267-76.591-8.878-98.767-43.812-38.638-100.471,32.875-98.768,99.412s-31.561,40.6-59.615,49.424a50.734,50.734,0,0,0-10.66,5.534c-25.936,17.685-19.095,49.351-34.007,79.834C1597.467,1257.315,1601.472,1240.53,1604.234,1245.558Z" transform="translate(-1380.556 -874.798)"/>
  <g id="Group_34476" data-name="Group 34476" class="cls-12" transform="translate(228.895 95.87)">
    <g id="Group_34475" data-name="Group 34475" class="cls-6" transform="translate(24.838 -6.956)">
      <path id="Path_40151" data-name="Path 40151" class="cls-10" d="M1807.14,1231.718l.909,1.442c98.952-64.327,164.816-179.49,171.888-300.559l-1.637-.182C1971.272,1052.973,1905.679,1167.662,1807.14,1231.718Z" transform="translate(-1807.14 -932.42)"/>
      <path id="Path_40152" data-name="Path 40152" class="cls-10" d="M2086.55,2333.032l.627,1.58c43.336-16.6,92.7,9.494,93.191,9.76l.7-1.49C2180.574,2342.614,2130.568,2316.169,2086.55,2333.032Z" transform="translate(-2035.738 -2073.729)"/>
      <path id="Path_40153" data-name="Path 40153" class="cls-10" d="M1905.38,1958.674l1.273,1.122c29.9-36.765,1.846-122.86,1.56-123.726l-1.546.476C1906.948,1837.4,1934.717,1922.609,1905.38,1958.674Z" transform="translate(-1887.515 -1671.738)"/>
      <path id="Path_40154" data-name="Path 40154" class="cls-10" d="M2479,1741.338l1.182,1.226c26.149-26.843,84.116-23.734,84.7-23.7l.015-1.686C2564.309,1717.142,2505.636,1714,2479,1741.338Z" transform="translate(-2356.82 -1574.363)"/>
      <path id="Path_40155" data-name="Path 40155" class="cls-10" d="M2526.4,1039.957l1.617.34c6.585-43.568-26.914-94.309-27.254-94.817l-1.333.909C2499.766,946.893,2532.882,997.068,2526.4,1039.957Z" transform="translate(-2373.534 -943.105)"/>
    </g>
  </g>
  <path id="Path_40157" data-name="Path 40157" class="cls-13" d="M1023.768,2768.27l-503.258-4.35v12.872c0,3.494,2.195,6.463,5.168,6.992l142.306,25.347a19.774,19.774,0,0,0,5.106.238l345.209-28.9c3.081-.258,5.468-3.239,5.468-6.827Z" transform="translate(-500.756 -2341.94)"/>
  <path id="Path_40158" data-name="Path 40158" class="cls-13" d="M791.314,1387.646v215.315a11,11,0,0,1-2.382,7.13,8.5,8.5,0,0,1-5.89,3.228l-231.2,17.309-86.173,6.625h-.013l-.584-.231H463.2a9.864,9.864,0,0,1-10.449-10.142v-238.2c0-5.945,4.8-11.208,10.52-11.208H783.127C787.848,1377.47,791.314,1382.273,791.314,1387.646Z" transform="translate(-445.318 -1207.621)"/>
  <path id="Path_40159" data-name="Path 40159" class="cls-14" d="M820.012,1387.646v215.315a10.561,10.561,0,0,1-5.368,9.486c-.047.024-.035.047-.082.071a7.685,7.685,0,0,1-.909.395l-.2.076c-.058.015-.109.033-.16.046a7.78,7.78,0,0,1-1.577.286l-1.62-.033-230.154,16.8h0l-88.077,6.632a9.865,9.865,0,0,1-2.47.224c-.078-.013-.149.305-.227.305h-.013c-.195,0-.406-.364-.6-.418a10.157,10.157,0,0,1-7.092-9.964V1388.677c0-5.945,4.69-11.208,10.415-11.208H811.719C816.438,1377.47,820.012,1382.273,820.012,1387.646Z" transform="translate(-468.807 -1207.621)"/>
  <path id="Path_40160" data-name="Path 40160" class="cls-15" d="M864.45,1662.393l-297.916,20.453a7.948,7.948,0,0,1-8.443-8.209V1466.1a8.671,8.671,0,0,1,8.443-8.825L864.45,1456c3.89-.018,7.036,3.553,7.036,7.974v189.932C871.486,1658.326,868.34,1662.125,864.45,1662.393Z" transform="translate(-531.502 -1271.87)"/>
  <path id="Path_40161" data-name="Path 40161" class="cls-14" d="M1447.067,1397.741a3.7,3.7,0,1,1-3.679-4A3.862,3.862,0,0,1,1447.067,1397.741Z" transform="translate(-1252.787 -1220.933)"/>
  <path id="Path_40162" data-name="Path 40162" class="cls-16" d="M491.957,1638.868,810.2,1615.44l1.62-.118a8.614,8.614,0,0,0,5.638-2.852c-22.9-1.253-37.125-9.38-46.3-17.778-18.427-16.863-15.23-33.494-35.1-44.581-24.785-13.821-44.274,3.693-63.081-13.6-11.4-10.482-5.8-18.3-19.833-33.963-15.539-17.351-25.658-11.519-41.281-27.133-19.746-19.744-9.869-35.1-26.878-49.282-20.635-17.2-42.888-1.273-62.532-17.773-8.471-7.112-13.121-17.458-15.547-28.453h-14.95a10.581,10.581,0,0,0-10.378,10.766v238.19A9.7,9.7,0,0,0,491.957,1638.868Z" transform="translate(-468.905 -1209.618)"/>
  <path id="Path_40163" data-name="Path 40163" class="cls-17" d="M858.74,2666.925l-338.23,24.783,147.483,26.267a19.784,19.784,0,0,0,5.106.238l350.678-29.356-159.657-21.764A25.705,25.705,0,0,0,858.74,2666.925Z" transform="translate(-500.756 -2262.527)"/>
  <path id="Path_40164" data-name="Path 40164" class="cls-15" d="M791.9,2710.482l281.586-20.942,87.148,11.784-279.16,22.386Z" transform="translate(-722.792 -2281.087)"/>
  <path id="Path_40165" data-name="Path 40165" class="cls-18" d="M799.243,828.317a10.294,10.294,0,0,0-9.8-10.153l-140.38-6.1c-6.085-.266-11.155,4.166-11.155,9.9V934.006c0,5.732,5.054,10.338,11.139,10.289l3.288-.036.155-.245,136.852-2.7c5.41-.046,9.9-2.606,9.9-7.978Zm-122.788,9.111a9.661,9.661,0,0,1-9.482-9.335,8.822,8.822,0,0,1,9.482-8.622,9.64,9.64,0,0,1,9.413,9.331A8.817,8.817,0,0,1,676.456,837.428Zm44.745,1.526a9.389,9.389,0,0,1-9.149-9.162,8.578,8.578,0,0,1,9.149-8.476,9.376,9.376,0,0,1,9.082,9.16A8.579,8.579,0,0,1,721.2,838.953Zm43.19,1.468a9.14,9.14,0,0,1-8.833-9,8.352,8.352,0,0,1,8.833-8.336,9.132,9.132,0,0,1,8.771,9,8.33,8.33,0,0,1-8.771,8.323Z" transform="translate(-596.806 -745.023)"/>
  <path id="Path_40166" data-name="Path 40166" class="cls-19" d="M818.679,848.423V828.975a10.071,10.071,0,0,0-9.658-10.022l-139.887-6.087a11.033,11.033,0,0,0-6.818,1.871,9.565,9.565,0,0,0-4.235,7.907v25.778ZM784,823.873a9.128,9.128,0,0,1,8.749,8.987A8.332,8.332,0,0,1,784,841.183a9.136,9.136,0,0,1-8.814-8.984A8.339,8.339,0,0,1,784,823.871ZM740.916,822.1a9.374,9.374,0,0,1,9.06,9.151,8.557,8.557,0,0,1-9.06,8.465,9.389,9.389,0,0,1-9.129-9.147,8.569,8.569,0,0,1,9.129-8.471Zm-44.629-1.835a9.633,9.633,0,0,1,9.387,9.322,8.794,8.794,0,0,1-9.387,8.611,9.646,9.646,0,0,1-9.456-9.318A8.8,8.8,0,0,1,696.287,820.268Z" transform="translate(-613.308 -745.684)"/>
  <path id="Path_40168" data-name="Path 40168" class="cls-13" d="M1144.916,1065.164a2.3,2.3,0,0,0-2.24-2.364l-13.854-.364c-1.324-.035-2.971.971-2.971,2.257v12.977c0,1.284,1.711,2.364,3.035,2.384l13.47.258a2.459,2.459,0,0,0,2.561-2.266Z" transform="translate(-996.012 -949.877)"/>
  <path id="Path_40169" data-name="Path 40169" class="cls-13" d="M1284.563,1068.75a2.413,2.413,0,0,0-2.364-2.348l-12.957-.338a2.208,2.208,0,0,0-2.284,2.251v12.848a2.308,2.308,0,0,0,2.268,2.344l13.013.249a2.251,2.251,0,0,0,2.319-2.248Z" transform="translate(-1111.459 -952.845)"/>
  <path id="Path_40170" data-name="Path 40170" class="cls-13" d="M1417.7,1072.24a2.431,2.431,0,0,0-2.364-2.328l-12.844-.346a2.285,2.285,0,0,0-2.382,2.215v12.73a2.382,2.382,0,0,0,2.335,2.333l12.875.253a2.312,2.312,0,0,0,2.39-2.217Z" transform="translate(-1220.397 -955.711)"/>
  <path id="Path_40171" data-name="Path 40171" class="cls-13" d="M1144.916,1195.389a2.28,2.28,0,0,0-2.24-2.348l-13.854-.233c-1.324-.022-2.971.995-2.971,2.279v12.977c0,1.286,1.711,2.348,3.035,2.364l13.47.133a2.484,2.484,0,0,0,2.561-2.286Z" transform="translate(-996.012 -1056.541)"/>
  <path id="Path_40172" data-name="Path 40172" class="cls-20" d="M1284.563,1197.729a2.384,2.384,0,0,0-2.364-2.328l-12.957-.215a2.231,2.231,0,0,0-2.284,2.271v12.848a2.28,2.28,0,0,0,2.268,2.322l13.013.125a2.277,2.277,0,0,0,2.319-2.268Z" transform="translate(-1111.459 -1058.487)"/>
  <path id="Path_40173" data-name="Path 40173" class="cls-13" d="M1417.7,1199.93a2.4,2.4,0,0,0-2.364-2.306l-12.844-.225a2.308,2.308,0,0,0-2.382,2.235v12.73a2.364,2.364,0,0,0,2.335,2.313l12.875.131a2.337,2.337,0,0,0,2.39-2.237Z" transform="translate(-1220.397 -1060.296)"/>
  <path id="Path_40174" data-name="Path 40174" class="cls-13" d="M729.589,1188.368a2.6,2.6,0,0,0-2.613-2.431l-14-.249a2.331,2.331,0,0,0-2.446,2.348v13.379a2.379,2.379,0,0,0,2.4,2.43l14.135.149a2.441,2.441,0,0,0,2.546-2.346Z" transform="translate(-656.217 -1050.713)"/>
  <path id="Path_40175" data-name="Path 40175" class="cls-13" d="M870.706,1190.761a2.364,2.364,0,0,0-2.353-2.4l-14.021-.238a2.564,2.564,0,0,0-2.691,2.328V1203.7a2.711,2.711,0,0,0,2.748,2.406l13.839.135a2.4,2.4,0,0,0,2.479-2.335Z" transform="translate(-771.668 -1052.712)"/>
  <path id="Path_40176" data-name="Path 40176" class="cls-13" d="M1007.807,1193.176a2.364,2.364,0,0,0-2.348-2.384l-13.912-.244c-1.351-.022-2.808,1-2.808,2.3v13.11c0,1.3,1.491,2.364,2.842,2.382l13.679.147a2.454,2.454,0,0,0,2.546-2.3Z" transform="translate(-883.836 -1054.692)"/>
  <path id="Path_40177" data-name="Path 40177" class="cls-13" d="M1144.916,1325.651a2.251,2.251,0,0,0-2.24-2.324l-13.854-.107c-1.324,0-2.971,1.017-2.971,2.3V1338.5c0,1.286,1.711,2.339,3.035,2.339h13.47a2.512,2.512,0,0,0,2.561-2.308Z" transform="translate(-996.012 -1163.237)"/>
  <path id="Path_40178" data-name="Path 40178" class="cls-13" d="M1284.563,1326.7a2.364,2.364,0,0,0-2.364-2.306l-12.957-.093a2.255,2.255,0,0,0-2.284,2.291v12.85a2.255,2.255,0,0,0,2.268,2.3h13.013a2.3,2.3,0,0,0,2.319-2.29Z" transform="translate(-1111.459 -1164.12)"/>
  <path id="Path_40179" data-name="Path 40179" class="cls-13" d="M729.588,1322.654a2.57,2.57,0,0,0-2.613-2.408l-14-.113a2.364,2.364,0,0,0-2.446,2.364v13.379a2.351,2.351,0,0,0,2.39,2.417l14.135.013a2.469,2.469,0,0,0,2.546-2.364Z" transform="translate(-656.216 -1160.711)"/>
  <path id="Path_40180" data-name="Path 40180" class="cls-13" d="M870.706,1323.7a2.337,2.337,0,0,0-2.353-2.364l-14.021-.105a2.593,2.593,0,0,0-2.691,2.353v13.241a2.682,2.682,0,0,0,2.748,2.382h13.839a2.426,2.426,0,0,0,2.479-2.364Z" transform="translate(-771.668 -1161.608)"/>
  <path id="Path_40181" data-name="Path 40181" class="cls-13" d="M1007.807,1324.706a2.346,2.346,0,0,0-2.348-2.364l-13.912-.113c-1.351-.011-2.808,1.022-2.808,2.32v13.11c0,1.3,1.491,2.364,2.842,2.364l13.679.018a2.482,2.482,0,0,0,2.546-2.321Z" transform="translate(-883.836 -1162.427)"/>
  <path id="Path_40182" data-name="Path 40182" class="cls-13" d="M788.081,721.092c-8.769-.444-16.027,6.694-16.731,17.1l7.409.322c.606-6.219,4.634-10.822,9.322-10.6,5.068.242,9.333,6.132,9.333,12.893s-4.264,12.3-9.333,12.1c-2.639-.1-5.068-1.749-6.8-4.259a8.6,8.6,0,0,0-1.091,8.5,15.3,15.3,0,0,0,7.892,2.579c9.164.324,16.569-8,16.569-18.611S797.244,721.554,788.081,721.092Z" transform="translate(-705.979 -670.592)"/>
  <path id="Path_40183" data-name="Path 40183" class="cls-13" d="M1035.859,733.366c-8.467-.429-15.472,6.592-16.149,16.818l7.149.311c.584-6.11,4.474-10.635,9-10.418,4.892.235,9.009,6.018,9.009,12.661s-4.117,12.086-9.009,11.9c-2.546-.1-4.894-1.715-6.563-4.183a8.567,8.567,0,0,0-1.057,8.349,14.583,14.583,0,0,0,7.62,2.528c8.845.313,16-7.882,16-18.3S1044.7,733.813,1035.859,733.366Z" transform="translate(-909.174 -680.635)"/>
  <path id="Path_40184" data-name="Path 40184" class="cls-13" d="M1275.893,745.511c-8.171-.413-14.93,6.489-15.583,16.534l6.9.3c.562-6,4.315-10.451,8.683-10.242,4.728.226,8.7,5.9,8.7,12.432s-3.97,11.879-8.7,11.7c-2.459-.093-4.728-1.682-6.334-4.1a8.538,8.538,0,0,0-1.018,8.205,13.922,13.922,0,0,0,7.352,2.479c8.547.3,15.443-7.754,15.443-17.989S1284.429,745.949,1275.893,745.511Z" transform="translate(-1106.02 -690.572)"/>
  <path id="Path_40185" data-name="Path 40185" class="cls-21" d="M818.687,938.673v3.533A9.744,9.744,0,0,1,809.028,952L669,953.13a10.528,10.528,0,0,1-10.911-10.28V830.855a9.638,9.638,0,0,1,4.183-7.965c5.57,2,12.742,7.592,16.414,22.744,6.478,26.7,12.051,38.1,37.025,37.535,15.963-.364,28.206.364,35.825,7.407,4.1,3.77,6.883,9.373,8.205,17.614.773,4.823,4.237,7.9,9.18,10.155,4.841,2.215,11.131,3.637,17.678,5.179C798.634,926.339,812.085,929.534,818.687,938.673Z" transform="translate(-613.316 -753.894)"/>
  <path id="Path_40186" data-name="Path 40186" class="cls-22" d="M817.71,3112.23v17.287c0,5.586,34.9,10.116,77.944,10.116s77.946-4.53,77.946-10.116V3112.23Z" transform="translate(-743.909 -2626.909)"/>
  <path id="Path_40187" data-name="Path 40187" class="cls-23" d="M973.6,3066.717c0,5.587-34.9,10.115-77.946,10.115s-77.944-4.528-77.944-10.115,34.9-10.116,77.944-10.116S973.6,3061.13,973.6,3066.717Z" transform="translate(-743.909 -2581.396)"/>
  <path id="Path_40188" data-name="Path 40188" class="cls-24" d="M895.45,3118.918c-38.124,0-77.99-3.637-77.99-10.664,0-.386.138-1.064.524-1.064s.22.531.22.909c0,4.454,31.724,9.417,77.246,9.417s77.248-4.963,77.248-9.417c0-.385.065-.747.451-.747s.293.515.293.909C973.441,3115.282,933.581,3118.918,895.45,3118.918Z" transform="translate(-743.704 -2622.785)"/>
  <path id="Path_40189" data-name="Path 40189" class="cls-25" d="M1018.1,3095.549c.766-.529,1.578-1.051,2.45-1.567a15.394,15.394,0,0,1,3.35-1.4,31.858,31.858,0,0,1,5.137-1.017,64.745,64.745,0,0,1,7.7-.417q4.519-.022,8.483.288a57.832,57.832,0,0,1,6.976.924,21.3,21.3,0,0,1,4.9,1.518,3.853,3.853,0,0,1,2.239,2.077l8.776.087a8.741,8.741,0,0,1,1.682.156c.489.1.727.226.727.38v.727l-11.275-.109a5.677,5.677,0,0,1-3.024,2.43,31.2,31.2,0,0,1-6.183,1.909l-4.11-.573a4.822,4.822,0,0,1-.909-.215c-.236-.085-.351-.182-.353-.282q0-.209.953-.477t2.153-.662a21.541,21.541,0,0,0,2.353-.931,3.3,3.3,0,0,0,1.546-1.273l-26.631-.265a24.793,24.793,0,0,1-2.353,1.519,15.366,15.366,0,0,1-3.455,1.342,36.09,36.09,0,0,1-5.357.968,75.939,75.939,0,0,1-8.08.4c-2.442.011-4.817-.082-7.145-.278a48.663,48.663,0,0,1-6.2-.884,19.351,19.351,0,0,1-4.448-1.455c-1.153-.578-1.8-1.242-1.937-2l-7.225-.074a9.446,9.446,0,0,1-1.708-.151c-.5-.1-.751-.224-.753-.384v-.728l9.878.094a5.3,5.3,0,0,1,2.7-1.99,31.037,31.037,0,0,1,5.012-1.509l3.31.455c1,.142,1.5.307,1.5.5,0,.1-.2.229-.618.382s-.909.333-1.484.545a13.677,13.677,0,0,0-1.637.744,3.455,3.455,0,0,0-1.2.964Zm-24.368.984a2.621,2.621,0,0,0,1.313,1.226,10.487,10.487,0,0,0,2.51.848,25.647,25.647,0,0,0,3.382.487q1.888.155,3.944.146a41.618,41.618,0,0,0,4.183-.208,24.349,24.349,0,0,0,3.133-.531,14.711,14.711,0,0,0,2.364-.777,13.2,13.2,0,0,0,1.8-.962Zm57.977-.646a2.735,2.735,0,0,0-1.435-1.273,12.978,12.978,0,0,0-2.888-.909,31.45,31.45,0,0,0-4.092-.546q-2.326-.182-5.145-.167a39.865,39.865,0,0,0-4.308.224,22.144,22.144,0,0,0-3.133.569,11.361,11.361,0,0,0-2.25.831,15.931,15.931,0,0,0-1.724,1.017Z" transform="translate(-873.716 -2609.664)"/>
  <path id="Path_40190" data-name="Path 40190" class="cls-26" d="M901.18,3062.62c-34.754,0-70.941,3.059-76.73,8.98a6.832,6.832,0,0,1,.635.666c4.877-4.11,34.758-8.249,76.095-8.249,42.4,0,72.758,4.354,76.437,8.565a7.139,7.139,0,0,1,.582-.66C973.417,3065.792,936.552,3062.62,901.18,3062.62Z" transform="translate(-749.423 -2586.321)"/>
  <path id="Path_40191" data-name="Path 40191" class="cls-27" d="M698.56,3012.37v17.289c0,5.587,34.9,10.115,77.944,10.115s77.944-4.528,77.944-10.115V3012.37Z" transform="translate(-646.427 -2545.209)"/>
  <path id="Path_40192" data-name="Path 40192" class="cls-28" d="M854.449,2966.865c0,5.587-34.9,10.115-77.944,10.115s-77.944-4.528-77.944-10.115,34.9-10.115,77.944-10.115S854.449,2961.278,854.449,2966.865Z" transform="translate(-646.427 -2499.704)"/>
  <path id="Path_40193" data-name="Path 40193" class="cls-29" d="M776.3,3019.06c-38.124,0-77.99-3.637-77.99-10.666,0-.386.138-1.064.524-1.064s.22.531.22.909c0,4.454,31.724,9.417,77.246,9.417s77.246-4.963,77.246-9.417c0-.385.067-.747.453-.747s.293.515.293.9C854.284,3015.423,814.424,3019.06,776.3,3019.06Z" transform="translate(-646.222 -2541.085)"/>
  <path id="Path_40194" data-name="Path 40194" class="cls-25" d="M899,2995.689c.766-.529,1.578-1.051,2.45-1.568a15.419,15.419,0,0,1,3.348-1.395,31.878,31.878,0,0,1,5.139-1.016,65.368,65.368,0,0,1,7.7-.417q4.517-.022,8.483.287a57.83,57.83,0,0,1,6.976.924,21.648,21.648,0,0,1,4.9,1.52,3.805,3.805,0,0,1,2.239,2.075l8.778.089a8.623,8.623,0,0,1,1.682.155c.489.1.727.227.727.38v.727l-11.275-.107a5.7,5.7,0,0,1-3.024,2.428,30.986,30.986,0,0,1-6.183,1.909l-4.108-.571a4.784,4.784,0,0,1-.909-.216c-.238-.085-.353-.182-.353-.282,0-.138.316-.3.953-.475s1.353-.4,2.151-.664a21.434,21.434,0,0,0,2.364-.931,3.255,3.255,0,0,0,1.546-1.282L905.941,2997a24.842,24.842,0,0,1-2.351,1.517,15.3,15.3,0,0,1-3.455,1.342,36.091,36.091,0,0,1-5.357.969,76.037,76.037,0,0,1-8.082.395c-2.44.011-4.815-.082-7.143-.276a49.338,49.338,0,0,1-6.2-.884,19.482,19.482,0,0,1-4.448-1.455q-1.74-.864-1.937-2l-7.225-.075a9.251,9.251,0,0,1-1.708-.151c-.5-.1-.751-.224-.753-.384v-.727l9.88.094a5.314,5.314,0,0,1,2.7-1.989,30.878,30.878,0,0,1,5.012-1.508l3.31.455c1,.14,1.5.305,1.5.495,0,.1-.2.229-.618.382s-.909.333-1.484.546a13.63,13.63,0,0,0-1.646.742,3.493,3.493,0,0,0-1.2.964Zm-24.368.984a2.621,2.621,0,0,0,1.313,1.226,10.487,10.487,0,0,0,2.51.847,25.609,25.609,0,0,0,3.383.488q1.888.156,3.944.145a40.494,40.494,0,0,0,4.183-.207,23.974,23.974,0,0,0,3.131-.531,14.548,14.548,0,0,0,2.364-.777,13.227,13.227,0,0,0,1.8-.962Zm57.975-.646a2.717,2.717,0,0,0-1.435-1.262,12.852,12.852,0,0,0-2.886-.909,31.752,31.752,0,0,0-4.092-.546q-2.33-.182-5.145-.167a39.835,39.835,0,0,0-4.31.224,22.446,22.446,0,0,0-3.132.569,11.486,11.486,0,0,0-2.25.831,16.466,16.466,0,0,0-1.726,1.016Z" transform="translate(-776.283 -2527.964)"/>
  <path id="Path_40195" data-name="Path 40195" class="cls-30" d="M782.029,2962.77c-34.754,0-70.941,3.057-76.729,8.978a6.833,6.833,0,0,1,.633.666c4.879-4.11,34.76-8.249,76.1-8.249,42.4,0,72.758,4.355,76.435,8.567a7.23,7.23,0,0,1,.584-.662C854.267,2965.942,817.4,2962.77,782.029,2962.77Z" transform="translate(-651.941 -2504.629)"/>
  <path id="Path_40196" data-name="Path 40196" class="cls-22" d="M801.37,2912.81V2930.1c0,5.587,34.9,10.115,77.944,10.115s77.946-4.528,77.946-10.115V2912.81Z" transform="translate(-730.54 -2463.754)"/>
  <path id="Path_40197" data-name="Path 40197" class="cls-23" d="M957.26,2867.295c0,5.587-34.9,10.116-77.946,10.116s-77.944-4.53-77.944-10.116,34.9-10.115,77.944-10.115S957.26,2861.708,957.26,2867.295Z" transform="translate(-730.54 -2418.241)"/>
  <path id="Path_40198" data-name="Path 40198" class="cls-31" d="M879.13,2919.5c-38.124,0-77.99-3.637-77.99-10.664,0-.385.138-1.064.524-1.064s.22.529.22.909c0,4.454,31.724,9.416,77.246,9.416s77.248-4.963,77.248-9.416c0-.387.066-.748.451-.748s.293.515.293.909C957.118,2915.863,917.252,2919.5,879.13,2919.5Z" transform="translate(-730.352 -2459.631)"/>
  <path id="Path_40199" data-name="Path 40199" class="cls-25" d="M1001.748,2896.127c.766-.529,1.578-1.051,2.45-1.566a15.481,15.481,0,0,1,3.35-1.4,32.075,32.075,0,0,1,5.137-1.015,64.692,64.692,0,0,1,7.7-.417q4.521-.022,8.484.287a57.834,57.834,0,0,1,6.976.924,21.284,21.284,0,0,1,4.9,1.519,3.856,3.856,0,0,1,2.239,2.075l8.776.089a8.605,8.605,0,0,1,1.682.157c.489.1.727.225.727.38v.728l-11.275-.109a5.676,5.676,0,0,1-3.024,2.43,31.124,31.124,0,0,1-6.183,1.908l-4.11-.571a4.766,4.766,0,0,1-.909-.215c-.236-.085-.351-.182-.353-.282q0-.209.953-.477t2.153-.662a21.589,21.589,0,0,0,2.353-.931,3.268,3.268,0,0,0,1.546-1.282l-26.631-.266a25.554,25.554,0,0,1-2.353,1.519,15.408,15.408,0,0,1-3.455,1.342,36.441,36.441,0,0,1-5.359.968,75.489,75.489,0,0,1-8.08.395c-2.442.013-4.817-.08-7.145-.276a48.662,48.662,0,0,1-6.2-.884,19.34,19.34,0,0,1-4.448-1.455c-1.153-.578-1.8-1.242-1.937-2l-7.225-.073a9.584,9.584,0,0,1-1.706-.151c-.5-.1-.753-.224-.755-.385v-.728l9.878.094a5.3,5.3,0,0,1,2.7-1.99,30.876,30.876,0,0,1,5.012-1.509l3.31.455c1,.142,1.5.307,1.5.5,0,.1-.2.229-.618.38s-.909.335-1.484.546a13.906,13.906,0,0,0-1.637.742,3.5,3.5,0,0,0-1.2.964Zm-24.368.986a2.621,2.621,0,0,0,1.313,1.226,10.521,10.521,0,0,0,2.51.847,25.646,25.646,0,0,0,3.382.486q1.888.156,3.944.146a41.186,41.186,0,0,0,4.183-.206,24.39,24.39,0,0,0,3.133-.531,14.55,14.55,0,0,0,2.364-.778,13.018,13.018,0,0,0,1.8-.96Zm57.977-.646a2.7,2.7,0,0,0-1.435-1.264,12.977,12.977,0,0,0-2.888-.909,32.059,32.059,0,0,0-4.092-.546q-2.328-.182-5.145-.165a39.31,39.31,0,0,0-4.308.224,21.862,21.862,0,0,0-3.133.569,11.294,11.294,0,0,0-2.248.831,15.493,15.493,0,0,0-1.726,1.017Z" transform="translate(-860.339 -2446.509)"/>
  <path id="Path_40200" data-name="Path 40200" class="cls-32" d="M884.808,2863.2c-34.754,0-70.941,3.059-76.728,8.978a7.027,7.027,0,0,1,.631.667c4.879-4.112,34.76-8.249,76.1-8.249,42.4,0,72.758,4.354,76.435,8.565a7.153,7.153,0,0,1,.584-.66C957.053,2866.372,920.187,2863.2,884.808,2863.2Z" transform="translate(-736.03 -2423.166)"/>
  <path id="Path_40201" data-name="Path 40201" class="cls-33" d="M863.76,2813v17.276c0,5.588,34.9,10.116,77.944,10.116s77.948-4.526,77.948-10.116V2813Z" transform="translate(-781.584 -2382.095)"/>
  <path id="Path_40202" data-name="Path 40202" class="cls-34" d="M1019.669,2767.495c0,5.586-34.9,10.115-77.944,10.115s-77.944-4.528-77.944-10.115,34.9-10.115,77.944-10.115S1019.669,2761.9,1019.669,2767.495Z" transform="translate(-781.601 -2336.59)"/>
  <path id="Path_40203" data-name="Path 40203" class="cls-24" d="M941.5,2819.638c-38.124,0-77.99-3.637-77.99-10.664,0-.385.138-1.064.524-1.064s.22.531.22.909c0,4.454,31.724,9.416,77.246,9.416s77.248-4.963,77.248-9.416c0-.386.065-.748.451-.748s.293.515.293.9C1019.491,2816,979.622,2819.638,941.5,2819.638Z" transform="translate(-781.38 -2377.93)"/>
  <path id="Path_40204" data-name="Path 40204" class="cls-25" d="M1064.146,2796.269c.766-.529,1.578-1.051,2.45-1.568a15.379,15.379,0,0,1,3.35-1.395,31.831,31.831,0,0,1,5.137-1.017,65.421,65.421,0,0,1,7.7-.417q4.517-.022,8.484.287a57.832,57.832,0,0,1,6.976.924,21.648,21.648,0,0,1,4.9,1.52,3.8,3.8,0,0,1,2.239,2.075l8.778.089a8.624,8.624,0,0,1,1.682.155c.489.1.727.227.727.38v.728l-11.275-.109a5.7,5.7,0,0,1-3.024,2.429,30.971,30.971,0,0,1-6.183,1.91l-4.108-.573a4.636,4.636,0,0,1-.909-.215c-.236-.085-.353-.182-.353-.282,0-.14.316-.3.953-.475s1.353-.4,2.153-.664a21.589,21.589,0,0,0,2.353-.931,3.267,3.267,0,0,0,1.546-1.282l-26.634-.269a24.833,24.833,0,0,1-2.351,1.517,15.383,15.383,0,0,1-3.455,1.342,36.091,36.091,0,0,1-5.357.968,75.973,75.973,0,0,1-8.082.4c-2.44.011-4.815-.082-7.143-.278a48.661,48.661,0,0,1-6.2-.884,19.31,19.31,0,0,1-4.448-1.455q-1.739-.866-1.937-2l-7.225-.074a9.446,9.446,0,0,1-1.708-.151c-.5-.1-.751-.224-.753-.384v-.727l9.88.094a5.294,5.294,0,0,1,2.7-1.99,30.848,30.848,0,0,1,5.012-1.508l3.31.453c1,.142,1.5.307,1.5.5,0,.1-.2.229-.618.382s-.909.333-1.484.545a13.632,13.632,0,0,0-1.637.742,3.484,3.484,0,0,0-1.2.964Zm-24.368.984a2.622,2.622,0,0,0,1.313,1.226,10.5,10.5,0,0,0,2.51.847,25.606,25.606,0,0,0,3.382.487q1.888.156,3.944.146a41.548,41.548,0,0,0,4.183-.207,24.233,24.233,0,0,0,3.131-.531,14.716,14.716,0,0,0,2.364-.777,13.183,13.183,0,0,0,1.8-.962Zm57.975-.646a2.68,2.68,0,0,0-1.435-1.262,12.852,12.852,0,0,0-2.886-.909,31.71,31.71,0,0,0-4.092-.545q-2.328-.182-5.145-.167a39.837,39.837,0,0,0-4.31.224,22.413,22.413,0,0,0-3.131.569,11.379,11.379,0,0,0-2.25.831,16.179,16.179,0,0,0-1.726,1.017Z" transform="translate(-911.392 -2364.809)"/>
  <path id="Path_40205" data-name="Path 40205" class="cls-35" d="M947.23,2763.35c-34.754,0-70.941,3.057-76.729,8.978a6.869,6.869,0,0,1,.633.666c4.879-4.11,34.759-8.249,76.1-8.249,42.4,0,72.758,4.354,76.435,8.565a7.407,7.407,0,0,1,.584-.66C1019.467,2766.52,982.6,2763.35,947.23,2763.35Z" transform="translate(-787.099 -2341.474)"/>
  <path id="Path_40206" data-name="Path 40206" class="cls-22" d="M817.71,2705.21V2722.5c0,5.587,34.9,10.115,77.944,10.115s77.946-4.528,77.946-10.115V2705.21Z" transform="translate(-743.909 -2293.907)"/>
  <ellipse id="Ellipse_381" data-name="Ellipse 381" class="cls-36" cx="77.944" cy="10.115" rx="77.944" ry="10.115" transform="translate(73.801 401.188)"/>
  <path id="Path_40207" data-name="Path 40207" class="cls-24" d="M895.45,2711.908c-38.124,0-77.99-3.637-77.99-10.664,0-.387.138-1.064.524-1.064s.22.529.22.909c0,4.455,31.724,9.418,77.246,9.418s77.248-4.963,77.248-9.418c0-.386.065-.748.451-.748s.293.515.293.909C973.441,2708.272,933.581,2711.908,895.45,2711.908Z" transform="translate(-743.704 -2289.792)"/>
  <path id="Path_40208" data-name="Path 40208" class="cls-25" d="M1018.1,2688.537c.766-.529,1.578-1.051,2.45-1.566a15.407,15.407,0,0,1,3.35-1.4,32.052,32.052,0,0,1,5.137-1.017,65.107,65.107,0,0,1,7.7-.415q4.519-.022,8.483.287a57.434,57.434,0,0,1,6.976.924,21.285,21.285,0,0,1,4.9,1.519,3.856,3.856,0,0,1,2.239,2.075l8.776.089a8.606,8.606,0,0,1,1.682.156c.489.1.727.226.727.378v.727l-11.275-.109a5.688,5.688,0,0,1-3.024,2.43,30.969,30.969,0,0,1-6.183,1.907l-4.11-.571a4.822,4.822,0,0,1-.909-.215c-.236-.087-.351-.182-.353-.284q0-.208.953-.475t2.153-.662a21.992,21.992,0,0,0,2.353-.931,3.258,3.258,0,0,0,1.546-1.284l-26.631-.264a25.46,25.46,0,0,1-2.353,1.519,15.262,15.262,0,0,1-3.455,1.34,36.028,36.028,0,0,1-5.357.969,76,76,0,0,1-8.08.395c-2.442.013-4.817-.08-7.145-.277a48.662,48.662,0,0,1-6.2-.884,19.351,19.351,0,0,1-4.448-1.455c-1.153-.578-1.8-1.244-1.937-2l-7.225-.075a9.444,9.444,0,0,1-1.708-.149c-.5-.1-.751-.226-.753-.386v-.727l9.878.094a5.294,5.294,0,0,1,2.7-1.99,30.828,30.828,0,0,1,5.012-1.509l3.31.455c1,.142,1.5.305,1.5.5,0,.1-.2.229-.618.38s-.909.333-1.484.546a13.593,13.593,0,0,0-1.637.742,3.5,3.5,0,0,0-1.2.964Zm-24.368.986a2.618,2.618,0,0,0,1.313,1.224,10.406,10.406,0,0,0,2.51.849,25.983,25.983,0,0,0,3.383.486q1.888.155,3.944.146a41.187,41.187,0,0,0,4.183-.206,24.346,24.346,0,0,0,3.133-.531,14.506,14.506,0,0,0,2.364-.778,12.828,12.828,0,0,0,1.8-.962Zm57.977-.646a2.683,2.683,0,0,0-1.435-1.264,12.965,12.965,0,0,0-2.888-.909,32.064,32.064,0,0,0-4.092-.546q-2.326-.182-5.145-.166a38.89,38.89,0,0,0-4.308.224,22.146,22.146,0,0,0-3.133.567,11.471,11.471,0,0,0-2.25.833,15.93,15.93,0,0,0-1.724,1.015Z" transform="translate(-873.716 -2276.67)"/>
  <path id="Path_40209" data-name="Path 40209" class="cls-37" d="M901.18,2655.61c-34.754,0-70.941,3.059-76.73,8.978a7.081,7.081,0,0,1,.635.667c4.877-4.112,34.758-8.249,76.095-8.249,42.4,0,72.758,4.354,76.437,8.565a6.856,6.856,0,0,1,.582-.66C973.417,2658.782,936.552,2655.61,901.18,2655.61Z" transform="translate(-749.423 -2253.327)"/>
  <path id="Path_40210" data-name="Path 40210" class="cls-27" d="M698.56,2605.36v17.287c0,5.587,34.9,10.116,77.944,10.116s77.944-4.53,77.944-10.116V2605.36Z" transform="translate(-646.427 -2212.215)"/>
  <path id="Path_40211" data-name="Path 40211" class="cls-23" d="M854.449,2559.847c0,5.585-34.9,10.115-77.944,10.115s-77.944-4.53-77.944-10.115,34.9-10.117,77.944-10.117S854.449,2554.26,854.449,2559.847Z" transform="translate(-646.427 -2166.702)"/>
  <path id="Path_40212" data-name="Path 40212" class="cls-38" d="M776.3,2612.048c-38.124,0-77.99-3.637-77.99-10.664,0-.385.138-1.064.524-1.064s.22.529.22.909c0,4.454,31.724,9.416,77.246,9.416s77.246-4.963,77.246-9.416c0-.387.067-.748.453-.748s.293.515.293.9C854.284,2608.413,814.424,2612.048,776.3,2612.048Z" transform="translate(-646.222 -2208.092)"/>
  <path id="Path_40213" data-name="Path 40213" class="cls-25" d="M899,2588.679c.766-.531,1.578-1.053,2.45-1.568a15.508,15.508,0,0,1,3.348-1.4,32.1,32.1,0,0,1,5.139-1.015,64.691,64.691,0,0,1,7.7-.416q4.517-.022,8.483.287a57.83,57.83,0,0,1,6.976.924,21.593,21.593,0,0,1,4.9,1.519,3.805,3.805,0,0,1,2.239,2.075l8.778.089a8.624,8.624,0,0,1,1.682.156c.489.1.727.226.727.38v.727l-11.275-.109a5.7,5.7,0,0,1-3.024,2.429,30.915,30.915,0,0,1-6.183,1.908l-4.108-.571a4.783,4.783,0,0,1-.909-.215c-.238-.085-.353-.182-.353-.282,0-.14.316-.3.953-.476s1.353-.4,2.151-.662a21.482,21.482,0,0,0,2.364-.931,3.307,3.307,0,0,0,1.546-1.273l-26.632-.266a24.845,24.845,0,0,1-2.351,1.519,15.4,15.4,0,0,1-3.455,1.342,36.156,36.156,0,0,1-5.357.968,75.459,75.459,0,0,1-8.082.395c-2.44.013-4.815-.08-7.143-.276a48.662,48.662,0,0,1-6.2-.884,19.362,19.362,0,0,1-4.448-1.455q-1.74-.866-1.937-2l-7.225-.074a9.468,9.468,0,0,1-1.708-.151c-.5-.1-.751-.224-.753-.384v-.728l9.88.095a5.294,5.294,0,0,1,2.7-1.99,30.854,30.854,0,0,1,5.012-1.51l3.31.455c1,.142,1.5.307,1.5.5,0,.1-.2.229-.618.38s-.909.334-1.484.545a13.67,13.67,0,0,0-1.646.744,3.47,3.47,0,0,0-1.2.964Zm-24.368.984a2.622,2.622,0,0,0,1.313,1.226,10.5,10.5,0,0,0,2.51.847,25.609,25.609,0,0,0,3.383.487q1.888.153,3.944.146a41.617,41.617,0,0,0,4.183-.207,24.276,24.276,0,0,0,3.132-.531,14.555,14.555,0,0,0,2.364-.778,12.991,12.991,0,0,0,1.8-.96Zm57.975-.646a2.736,2.736,0,0,0-1.435-1.273,12.95,12.95,0,0,0-2.886-.909,31.753,31.753,0,0,0-4.092-.546q-2.33-.182-5.145-.166a39.9,39.9,0,0,0-4.31.224,22.121,22.121,0,0,0-3.132.569,11.349,11.349,0,0,0-2.25.831,15.815,15.815,0,0,0-1.726,1.017Z" transform="translate(-776.283 -2194.97)"/>
  <path id="Path_40214" data-name="Path 40214" class="cls-39" d="M782.029,2555.75c-34.754,0-70.941,3.059-76.729,8.98a6.653,6.653,0,0,1,.633.666c4.879-4.11,34.759-8.249,76.1-8.249,42.4,0,72.758,4.354,76.435,8.565a7.218,7.218,0,0,1,.584-.66C854.267,2558.922,817.4,2555.75,782.029,2555.75Z" transform="translate(-651.941 -2171.627)"/>
  <path id="Path_40215" data-name="Path 40215" class="cls-22" d="M801.37,2505.79v17.289c0,5.586,34.9,10.115,77.944,10.115s77.946-4.528,77.946-10.115V2505.79Z" transform="translate(-730.54 -2130.752)"/>
  <path id="Path_40216" data-name="Path 40216" class="cls-40" d="M957.26,2460.285c0,5.586-34.9,10.115-77.946,10.115s-77.944-4.528-77.944-10.115,34.9-10.115,77.944-10.115S957.26,2454.7,957.26,2460.285Z" transform="translate(-730.54 -2085.247)"/>
  <path id="Path_40217" data-name="Path 40217" class="cls-41" d="M879.13,2512.479c-38.124,0-77.99-3.637-77.99-10.666,0-.385.138-1.064.524-1.064s.22.531.22.909c0,4.454,31.724,9.417,77.246,9.417s77.248-4.963,77.248-9.417c0-.385.066-.747.451-.747s.293.515.293.909C957.118,2508.844,917.252,2512.479,879.13,2512.479Z" transform="translate(-730.352 -2126.629)"/>
  <path id="Path_40218" data-name="Path 40218" class="cls-25" d="M1001.748,2489.117c.766-.529,1.578-1.051,2.45-1.568a15.49,15.49,0,0,1,3.35-1.395,31.858,31.858,0,0,1,5.137-1.017,65.105,65.105,0,0,1,7.7-.415q4.521-.022,8.484.287a57.878,57.878,0,0,1,6.976.922,21.3,21.3,0,0,1,4.9,1.52,3.856,3.856,0,0,1,2.239,2.075l8.776.089a8.642,8.642,0,0,1,1.682.155c.489.1.727.227.727.38v.728l-11.275-.109a5.68,5.68,0,0,1-3.024,2.428,31.164,31.164,0,0,1-6.183,1.909l-4.11-.571a4.784,4.784,0,0,1-.909-.215c-.236-.087-.351-.182-.353-.284q0-.207.953-.475t2.153-.664a21.578,21.578,0,0,0,2.353-.929,3.258,3.258,0,0,0,1.546-1.284l-26.631-.264a25.088,25.088,0,0,1-2.353,1.517,15.247,15.247,0,0,1-3.455,1.342,36.18,36.18,0,0,1-5.359.969,75.938,75.938,0,0,1-8.08.395c-2.442.013-4.817-.08-7.145-.276a49.383,49.383,0,0,1-6.2-.884,19.352,19.352,0,0,1-4.448-1.455c-1.153-.58-1.8-1.244-1.937-2l-7.225-.074a9.4,9.4,0,0,1-1.706-.149c-.5-.1-.753-.225-.755-.385v-.728l9.878.093a5.314,5.314,0,0,1,2.7-1.989,30.878,30.878,0,0,1,5.012-1.508l3.31.455c1,.14,1.5.305,1.5.495,0,.1-.2.231-.618.382s-.909.333-1.484.546a13.585,13.585,0,0,0-1.637.742,3.485,3.485,0,0,0-1.2.964Zm-24.368.986a2.626,2.626,0,0,0,1.313,1.224,10.367,10.367,0,0,0,2.51.847,25.649,25.649,0,0,0,3.382.488q1.888.155,3.944.145a40.493,40.493,0,0,0,4.183-.207,24,24,0,0,0,3.133-.529,14.71,14.71,0,0,0,2.364-.778,13.2,13.2,0,0,0,1.8-.962Zm57.977-.647a2.723,2.723,0,0,0-1.435-1.262,12.965,12.965,0,0,0-2.888-.909,31.715,31.715,0,0,0-4.092-.546q-2.328-.182-5.145-.166a39.429,39.429,0,0,0-4.308.222,22.434,22.434,0,0,0-3.133.569,11.43,11.43,0,0,0-2.248.831,16.114,16.114,0,0,0-1.726,1.017Z" transform="translate(-860.339 -2113.515)"/>
  <path id="Path_40219" data-name="Path 40219" class="cls-42" d="M884.808,2456.19c-34.754,0-70.941,3.059-76.728,8.978a7.016,7.016,0,0,1,.631.666c4.879-4.11,34.76-8.249,76.1-8.249,42.4,0,72.758,4.355,76.435,8.567a7.218,7.218,0,0,1,.584-.66C957.053,2459.361,920.187,2456.19,884.808,2456.19Z" transform="translate(-736.03 -2090.172)"/>
  <path id="Path_40220" data-name="Path 40220" class="cls-27" d="M747.9,2405.93v17.289c0,5.586,34.9,10.115,77.944,10.115s77.944-4.528,77.944-10.115V2405.93Z" transform="translate(-686.794 -2049.052)"/>
  <path id="Path_40221" data-name="Path 40221" class="cls-23" d="M903.789,2360.425c0,5.587-34.9,10.116-77.944,10.116s-77.944-4.53-77.944-10.116,34.9-10.115,77.944-10.115S903.789,2354.838,903.789,2360.425Z" transform="translate(-686.794 -2003.547)"/>
  <path id="Path_40222" data-name="Path 40222" class="cls-24" d="M825.64,2412.628c-38.124,0-77.99-3.637-77.99-10.664,0-.385.136-1.064.524-1.064s.218.529.218.909c0,4.456,31.724,9.418,77.248,9.418s77.246-4.963,77.246-9.418c0-.385.065-.746.451-.746s.293.515.293.909C903.63,2408.992,863.764,2412.628,825.64,2412.628Z" transform="translate(-686.589 -2044.937)"/>
  <path id="Path_40223" data-name="Path 40223" class="cls-25" d="M948.317,2389.227q1.146-.795,2.45-1.566a15.432,15.432,0,0,1,3.348-1.4,32.3,32.3,0,0,1,5.137-1.017,65.135,65.135,0,0,1,7.7-.415q4.517-.022,8.483.287a57.534,57.534,0,0,1,6.976.924,21.633,21.633,0,0,1,4.9,1.518,3.8,3.8,0,0,1,2.239,2.075l8.776.089a8.6,8.6,0,0,1,1.682.156c.491.1.727.226.727.378v.728l-11.275-.109a5.687,5.687,0,0,1-3.024,2.429,30.95,30.95,0,0,1-6.183,1.908l-4.11-.571a4.823,4.823,0,0,1-.909-.215c-.236-.085-.351-.182-.351-.282q0-.209.953-.477t2.151-.662a21.762,21.762,0,0,0,2.364-.931,3.244,3.244,0,0,0,1.544-1.284l-26.631-.264a25.7,25.7,0,0,1-2.351,1.519,15.407,15.407,0,0,1-3.455,1.342,36.376,36.376,0,0,1-5.359.968,75.424,75.424,0,0,1-8.08.395c-2.441.013-4.817-.08-7.145-.276a48.75,48.75,0,0,1-6.2-.884,19.388,19.388,0,0,1-4.446-1.455c-1.162-.577-1.8-1.244-1.937-2l-7.225-.073a9.558,9.558,0,0,1-1.708-.151c-.5-.1-.753-.224-.753-.385v-.728l9.878.094a5.3,5.3,0,0,1,2.7-1.989,30.928,30.928,0,0,1,5.014-1.51l3.308.455c1.006.142,1.5.306,1.506.5,0,.1-.2.229-.62.38s-.909.334-1.482.545a13.628,13.628,0,0,0-1.637.742,3.52,3.52,0,0,0-1.2.964Zm-24.368.986a2.606,2.606,0,0,0,1.311,1.224,10.419,10.419,0,0,0,2.511.849,25.815,25.815,0,0,0,3.382.486q1.886.156,3.943.146a41.188,41.188,0,0,0,4.183-.206,24.363,24.363,0,0,0,3.132-.531,14.528,14.528,0,0,0,2.364-.779,13.022,13.022,0,0,0,1.8-.96Zm57.975-.646a2.734,2.734,0,0,0-1.435-1.273,12.989,12.989,0,0,0-2.886-.909,32.179,32.179,0,0,0-4.094-.546q-2.328-.182-5.143-.165a38.861,38.861,0,0,0-4.31.224,22.081,22.081,0,0,0-3.132.567,11.421,11.421,0,0,0-2.25.833,15.858,15.858,0,0,0-1.726,1.016Z" transform="translate(-816.634 -2031.791)"/>
  <path id="Path_40224" data-name="Path 40224" class="cls-43" d="M831.369,2356.33c-34.754,0-70.941,3.059-76.729,8.978a7.092,7.092,0,0,1,.633.667c4.888-4.112,34.76-8.251,76.1-8.251,42.4,0,72.758,4.354,76.435,8.565a6.886,6.886,0,0,1,.582-.66C903.605,2359.5,866.74,2356.33,831.369,2356.33Z" transform="translate(-692.308 -2008.472)"/>
  <path id="Path_40225" data-name="Path 40225" class="cls-44" d="M1660.234,2473l-14.088,10.022c-4.546,3.237,11.984,34.3,36.936,69.377s48.868,60.892,53.421,57.648l14.088-10.02Z" transform="translate(-1421.075 -2103.925)"/>
  <path id="Path_40226" data-name="Path 40226" class="cls-45" d="M1813.982,2598.795c-4.546,3.237-28.471-22.575-53.421-57.647s-41.49-66.146-36.944-69.375,28.469,22.575,53.421,57.648S1818.534,2595.556,1813.982,2598.795Z" transform="translate(-1484.458 -2102.697)"/>
  <path id="Path_40227" data-name="Path 40227" class="cls-46" d="M1758.293,2541.48c-22.1-31.066-42.237-65.662-36.514-69.734.315-.224.948-.5,1.171-.182s-.306.485-.62.709c-3.637,2.583,10.715,31.31,37.1,68.4s48.819,60.072,52.448,57.49c.315-.224.647-.38.871-.065s-.251.536-.564.76C1806.464,2602.926,1780.394,2572.548,1758.293,2541.48Z" transform="translate(-1482.764 -2102.632)"/>
  <path id="Path_40228" data-name="Path 40228" class="cls-25" d="M1839.227,2636.886c.875.316,1.771.678,2.7,1.091a15.552,15.552,0,0,1,3.079,1.92,32.1,32.1,0,0,1,3.806,3.6,65.062,65.062,0,0,1,4.8,6.03q2.639,3.668,4.683,7.08a57.6,57.6,0,0,1,3.292,6.219,21.688,21.688,0,0,1,1.6,4.872,3.8,3.8,0,0,1-.393,3.028l5.014,7.2a8.631,8.631,0,0,1,.849,1.455c.2.458.236.727.113.815l-.587.422-6.45-9.258a5.678,5.678,0,0,1-3.734-1.057,31.168,31.168,0,0,1-5.141-3.935l-1.917-3.681a4.813,4.813,0,0,1-.351-.864c-.067-.242-.056-.391.027-.451q.169-.12.938.5t1.788,1.369a21.7,21.7,0,0,0,2.124,1.379,3.2,3.2,0,0,0,1.94.516l-15.221-21.855a25.1,25.1,0,0,1-2.6-1.037,15.3,15.3,0,0,1-3.091-2.037,36.377,36.377,0,0,1-3.9-3.806,75.928,75.928,0,0,1-5-6.365q-2.139-2.973-3.915-5.983a48.6,48.6,0,0,1-2.875-5.565,19.126,19.126,0,0,1-1.391-4.468,3.106,3.106,0,0,1,.5-2.728l-4.128-5.93a9.6,9.6,0,0,1-.867-1.479c-.209-.462-.253-.742-.122-.837l.586-.422,5.65,8.105a5.309,5.309,0,0,1,3.186,1.048,30.823,30.823,0,0,1,4.135,3.211l1.548,2.959c.467.9.622,1.4.467,1.513-.084.06-.3-.033-.669-.284s-.8-.546-1.3-.893a13.913,13.913,0,0,0-1.558-.909,3.524,3.524,0,0,0-1.482-.422ZM1824.3,2617.6a2.624,2.624,0,0,0-.236,1.78,10.506,10.506,0,0,0,.764,2.537,25.567,25.567,0,0,0,1.564,3.037q.969,1.637,2.168,3.3a40.811,40.811,0,0,0,2.6,3.292,24.377,24.377,0,0,0,2.248,2.246,14.693,14.693,0,0,0,2,1.468,13.1,13.1,0,0,0,1.818.909Zm34.132,46.869a2.717,2.717,0,0,0,.2-1.9,12.861,12.861,0,0,0-.931-2.879,31.744,31.744,0,0,0-1.924-3.653q-1.2-2-2.846-4.288a39.019,39.019,0,0,0-2.68-3.383,22.042,22.042,0,0,0-2.279-2.222,11.445,11.445,0,0,0-1.98-1.351,15.955,15.955,0,0,0-1.829-.816Z" transform="translate(-1559.611 -2209.982)"/>
  <path id="Path_40229" data-name="Path 40229" class="cls-47" d="M1782.1,2535.632c-20.146-28.32-43.612-56.036-51.792-57.322a6.817,6.817,0,0,1-.182.909c6.183,1.593,26.871,23.543,50.83,57.229,24.576,34.552,38.624,61.812,37.324,67.25a7.089,7.089,0,0,1,.876.093C1821.4,2596.335,1802.606,2564.452,1782.1,2535.632Z" transform="translate(-1490.402 -2108.27)"/>
  <path id="Path_40230" data-name="Path 40230" class="cls-48" d="M1823.856,2723.554c.073-2.169,4.508-4.546,7.069-3.439a6.675,6.675,0,0,1,1.806,1.477,20.661,20.661,0,0,1,2.831,3.408c2.968,4.546,9.807,8.823,9.007,10.391-.575,1.129-4.936.511-8.285-1.184-2.693-1.362-2.668-2.377-7.092-5.917C1825.26,2725.157,1823.812,2724.809,1823.856,2723.554Z" transform="translate(-1567.082 -2305.872)"/>
  <path id="Path_40231" data-name="Path 40231" class="cls-49" d="M1819.37,2686.277l3.248,5.345a2.955,2.955,0,0,0,3.273,1.322,1.917,1.917,0,0,0,1.14-2.868l-4.783-7.7Z" transform="translate(-1563.413 -2275.229)"/>
  <path id="Path_40232" data-name="Path 40232" class="cls-50" d="M1127.754,2237.482c-10.138,4.437-.8,32.479,28.005,33.476,34.9,1.208,74.4,18.153,94.8,49.242,2.044-.909,6.7-1.887,5.47-4.286-16.872-32.978-35.3-54.68-53.129-64.585C1175.945,2236.354,1156.617,2224.851,1127.754,2237.482Z" transform="translate(-994.332 -1906.811)"/>
  <g id="Group_34477" data-name="Group 34477" class="cls-51" transform="translate(129.464 325.261)">
    <path id="Path_40233" data-name="Path 40233" class="cls-52" d="M1217.744,2276.506c3.8,4.183,6.529-1,10.073-3.859-8.294-9.589-16.674-16.73-24.925-21.319-26.947-14.974-46.275-26.478-75.138-13.846-10.138,4.437-.8,32.479,28.005,33.476a129.62,129.62,0,0,1,31.843,5.274C1197.76,2273.589,1208.577,2263.558,1217.744,2276.506Z" transform="translate(-1123.796 -2232.072)"/>
  </g>
  <path id="Path_40234" data-name="Path 40234" class="cls-53" d="M1031.966,2252.392l-2.131-.769s-7.078-12.41-8.153-15.54c-1.311-3.819,26.985-3.53,38.631-11.191,12.239-8.052-2.229,13.457-2.229,13.457Z" transform="translate(-910.751 -1899.461)"/>
  <path id="Path_40235" data-name="Path 40235" class="cls-54" d="M1195.94,1831s8.947,4.246,13.439,25.68c3.379,16.116,16.529,32.748,16.529,32.748l-1.689,11.3-14.668-1.962-3.932-4.848-4.417-33.143Z" transform="translate(-1053.356 -1578.675)"/>
  <path id="Path_40236" data-name="Path 40236" class="cls-55" d="M933.643,1791.716s-23.954-4.463-32.856,21.908c-8.214,24.336-2.388,36.62,12.817,63.9,1.528,2.742,5.061,3.863,5.23,4.241q1.358,3.052,2.7,6.329a116.247,116.247,0,0,1,49.164-11.841s-6.967-48.255-11.457-64.942C954.609,1794.1,940.013,1792.165,933.643,1791.716Z" transform="translate(-808.826 -1546.302)"/>
  <g id="Group_34478" data-name="Group 34478" class="cls-51" transform="translate(88.224 262.492)">
    <path id="Path_40237" data-name="Path 40237" class="cls-56" d="M952.3,1943.755c-11.382,2.122-24.988-2.837-28.018-10.888-2.282-6.063-2.328-8.069-4.563-17.163-1.8-7.316-3.308-8.875-9.846-16.627a43.156,43.156,0,0,1-7.169-12.168,43.088,43.088,0,0,0-1.955,4.826c-8.214,24.336-2.388,36.62,12.817,63.9,1.528,2.742,5.061,3.863,5.23,4.241q1.358,3.051,2.7,6.328a116.249,116.249,0,0,1,49.164-11.841s-1.273-7.638-2.784-18.309C962.945,1940.438,959.606,1942.392,952.3,1943.755Z" transform="translate(-897.017 -1886.91)"/>
  </g>
  <path id="Path_40238" data-name="Path 40238" class="cls-57" d="M1112.27,2139.759a22.324,22.324,0,0,0,7.805,1.32c3.5-.266,3.333-.635,7.049.044,3.612.658,11.1.765,8.349-3.983-3.068-5.285-10.8-6.527-13.75-4.6a18.493,18.493,0,0,1-6.892,2.328Z" transform="translate(-984.902 -1824.681)"/>
  <path id="Path_40239" data-name="Path 40239" class="cls-58" d="M897.84,1836.652s-13.275-2.566-18.871,41.033c-2.91,22.612,17.207,25.672,43.138,24.165,2.6-2.779,2.788-10.366,2.788-10.366s-32.49,2.742-27.756-14.779C902.443,1857.06,905.956,1836.972,897.84,1836.652Z" transform="translate(-793.798 -1583.276)"/>
  <path id="Path_40240" data-name="Path 40240" class="cls-59" d="M1069.934,1813.813c-.182,0-.364,0-.546-.016-6.647-.415-12.248-8.029-12.482-8.353a.324.324,0,1,1,.524-.38c.056.076,5.657,7.691,12,8.085a4.824,4.824,0,0,0,4-1.295c1.766-1.846,1.444-5.063,1.44-5.092a.324.324,0,0,1,.644-.071c.016.144.364,3.542-1.613,5.612A5.267,5.267,0,0,1,1069.934,1813.813Z" transform="translate(-939.551 -1557.34)"/>
  <path id="Path_40241" data-name="Path 40241" class="cls-60" d="M1022.9,2234.522a.326.326,0,0,1-.135-.62c.267-.122,26.8-12.072,46.885-10.715a.322.322,0,0,1,.3.344.342.342,0,0,1-.346.3c-19.946-1.34-46.307,10.537-46.571,10.658A.329.329,0,0,1,1022.9,2234.522Z" transform="translate(-911.523 -1899.454)"/>
  <path id="Path_40242" data-name="Path 40242" class="cls-61" d="M1092.344,1729.66s-.638,9.9-1.688,11.639.989,4.626,5.637,6.327,2.482-9.589,2.482-9.589Z" transform="translate(-966.998 -1495.764)"/>
  <path id="Path_40243" data-name="Path 40243" class="cls-62" d="M1107.651,1666.835c5.679-2.06,7.614-15.5,4.8-16.976-1.613-.846-3.091,3.164-9.065,4.7-4.659,1.2-7.625-.242-9.613,2.089a7,7,0,0,0-1.479,4.365,17.254,17.254,0,0,0,.738,3.921c.477,1.84.426,1.766.58,2.306a24.285,24.285,0,0,0,3.091,6.529,17.089,17.089,0,0,1,1.762-2.4,15.067,15.067,0,0,1,2.893-2.546C1103.968,1667.146,1106.021,1667.43,1107.651,1666.835Z" transform="translate(-968.562 -1430.381)"/>
  <path id="Path_40244" data-name="Path 40244" class="cls-63" d="M1091.8,1728.863a9.291,9.291,0,0,0,6.521,6.432c4.728,1.188,8.754-9,6.5-12.155a6.129,6.129,0,0,0-4.386-2.062c-1.037-.038-1.486.253-3.177.156-1.562-.089-1.917-.378-2.47-.153-.691.284-1.455,1.273-1.518,4.61a2.649,2.649,0,0,0-2.415-1.751,1.665,1.665,0,0,0-.811.4C1089.017,1725.324,1089.614,1727.19,1091.8,1728.863Z" transform="translate(-966.319 -1488.677)"/>
  <path id="Path_40245" data-name="Path 40245" class="cls-64" d="M1115.446,2211.859a.582.582,0,0,0-.578.238c-.016.027-.266,1.091-.278,1.127a.546.546,0,0,0,.182.658l17.587,12.581,41.19-2.739-17.822-4.183Z" transform="translate(-986.763 -1890.266)"/>
  <path id="Path_40246" data-name="Path 40246" class="cls-65" d="M1116.745,2211.058a.546.546,0,0,0-.409.991l17.585,12.581,41.184-2.739-17.822-4.183Z" transform="translate(-988.026 -1889.609)"/>
  <path id="Path_40247" data-name="Path 40247" class="cls-66" d="M1209.88,2110.964l15.03-37.291a1.391,1.391,0,0,1,1.5-.855l46.051,7.036a1.389,1.389,0,0,1,1.091,1.853l-12.933,35.1a1.389,1.389,0,0,1-1.475.9l-48.253-6Z" transform="translate(-1064.761 -1776.505)"/>
  <path id="Path_40248" data-name="Path 40248" class="cls-64" d="M1212.53,2116.868l15.388-38.106a1.393,1.393,0,0,1,1.5-.853l46.049,7.036a1.387,1.387,0,0,1,1.091,1.855l-12.935,35.1a1.388,1.388,0,0,1-1.468.9Z" transform="translate(-1066.929 -1780.67)"/>
  <path id="Path_40249" data-name="Path 40249" class="cls-67" d="M1212.53,2253.675l49.626,5.934a1.388,1.388,0,0,0,1.468-.9l3.9-10.587c-16.452,3.5-34.245-1.031-51.536-3.013Z" transform="translate(-1066.929 -1917.478)"/>
  <path id="Path_40250" data-name="Path 40250" class="cls-68" d="M1662.407,2361.453c.064-2.426-.571-5.328,5.045-5.521,4.075-.138,10.573,1.455,16.454,3,8.238,2.153,8.565,7.6-4.261,6.927C1671.243,2365.418,1662.316,2364.9,1662.407,2361.453Z" transform="translate(-1434.994 -2008.14)"/>
  <path id="Path_40251" data-name="Path 40251" class="cls-69" d="M1683.994,2365.362a2.268,2.268,0,0,1-2.5,1.819c-2.506-.418-1.666-1.511-1.348-2.779s-.378-2.437,2.5-1.819A2.182,2.182,0,0,1,1683.994,2365.362Z" transform="translate(-1449.185 -2013.449)"/>
  <path id="Path_40252" data-name="Path 40252" class="cls-70" d="M1555.887,2296.41l2.486.378s4.477,1.893,16.079,9.426c2.579,1.315,3.772,10.433-4.3,8.218s-19.66.647-19.66.647Z" transform="translate(-1343.43 -1959.449)"/>
  <path id="Path_40253" data-name="Path 40253" class="cls-71" d="M1128.679,2285.44c-15.943,1.957-38.619-1.169-43.243-1.882-5.921-.909-24.938,7.62-25.143,13,0,0-1.744,8.278,16.212,14.885l44.125,3.2c15.407-3.677,38.789-12.22,40.653-18.549C1165.149,2282.954,1147.566,2283.121,1128.679,2285.44Z" transform="translate(-942.339 -1948.879)"/>
  <g id="Group_34479" data-name="Group 34479" class="cls-51" transform="translate(134.964 332.366)">
    <path id="Path_40254" data-name="Path 40254" class="cls-72" d="M1172.482,2283.481c11.457,2.386,16.467-4.786,31-2.713,9.418,1.344,11.74,4.987,17.267,3.377,4.365-1.273,7.534-4.892,9.866-9.177-6.281-1.42-15.561-.811-25.2.373-15.485,1.9-37.322-.993-42.8-1.818-.162-.024-3.262-2.382-3.262-2.382s-3.073.662-5.312,1.244C1160.076,2278.585,1168.3,2282.6,1172.482,2283.481Z" transform="translate(-1154.04 -2271.14)"/>
  </g>
  <path id="Path_40255" data-name="Path 40255" class="cls-73" d="M2333.119,1836.895l-44.43-41.6-44.605,41.6a7.753,7.753,0,0,0-2.364,5.488V1959a7.347,7.347,0,0,0,7.376,7.2h79.355c3.972,0,6.747-3.217,6.747-7.2V1842.383A7.5,7.5,0,0,0,2333.119,1836.895Zm-44.349-21.1a8.138,8.138,0,1,1-8.14,8.139,8.137,8.137,0,0,1,8.14-8.139Z" transform="translate(-1908.957 -1549.459)"/>
  <path id="Path_40256" data-name="Path 40256" class="cls-14" d="M2369.819,2133.315q-2.948-.829-5.326-1.6c-6.849-2.239-10.184-4.237-10.184-6.627a3.866,3.866,0,0,1,2.292-3.535c1.446-.775,3.691-1.284,7.11-1.284,10.228,0,16.927,3.177,20.333,4.466l4.07-16.336c-4.585-1.88-10.306-3.646-19.909-4v-10.1h-14.081v10.911a36.227,36.227,0,0,0-13.821,5.365.024.024,0,0,1-.011.02,20.4,20.4,0,0,0-8.944,17.183c0,12.812,10.837,19.044,24.581,22.337,9.76,2.351,13.415,4.35,13.415,7.872,0,3.881-4.7,5.294-10.931,5.294-9.167,0-17.625-3.061-23.5-5.879l-4.326,16.929c5.052,2.7,14.568,5.287,23.532,5.754v10.886h14.086v-11.94a32.483,32.483,0,0,0,13.235-4.615c.02-.013.12-.025.14-.038,7.038-4.343,10.7-10.979,10.7-18.387C2392.284,2144.364,2386.161,2137.781,2369.819,2133.315Z" transform="translate(-1981.666 -1794.093)"/>
  <path id="Path_40257" data-name="Path 40257" class="cls-74" d="M2335.178,2152.333v7.169c0,3.979-2.775,7.2-6.747,7.2h-79.355a7.347,7.347,0,0,1-7.376-7.2V2042.886a7.479,7.479,0,0,1,.475-2.526c.7,5.176,2.262,10.169,5.59,14.1,5.092,6,12.961,8.594,19.876,12.011.462.234.92.462,1.375.7a66.279,66.279,0,0,1,14.859,10.242,43.322,43.322,0,0,1,5.4,6.119,32.779,32.779,0,0,1,2.49,4.037c4.772,9.1,4.8,19.051,7.911,28.975,1.713,5.456,5.137,9.831,9.149,13.7,2.844,2.766,5.83,5.274,8.858,7.76C2323.174,2142.509,2330.055,2146.968,2335.178,2152.333Z" transform="translate(-1908.941 -1749.962)"/>
  <path id="Path_40258" data-name="Path 40258" class="cls-75" d="M1795.989,1061.06l-27.045,52.948c-2.91,5.7-1.713,12.975,3.11,20.879a55.491,55.491,0,0,0,3.926,5.7c8.365,10.595,22.124,21.55,39.177,30.259s33.947,13.408,47.437,13.983c12.762.546,22.288-2.679,25.9-9.753l27.043-52.949Z" transform="translate(-1520.874 -948.752)"/>
  <path id="Path_40259" data-name="Path 40259" class="cls-76" d="M1791.84,1466.38a57.59,57.59,0,0,0,4.041,5.757c8.365,10.595,22.186,21.579,39.235,30.288s33.974,13.423,47.464,14c12.761.546,22.315-2.664,25.929-9.738l13.994-27.4c-10.069-1.109-25.141-.909-32.526,8.091-11.555,14.077-39.6,6.519-62.969-9.929C1816.716,1470.2,1803.871,1466.764,1791.84,1466.38Z" transform="translate(-1540.89 -1280.363)"/>
  <path id="Path_40260" data-name="Path 40260" class="cls-77" d="M1704.494,1034.761l112.851,1.526,67.388,90.536,3.9,1.295-1.024,1.728h0l-117.307-1.551-70.017-94.131h0l.629-1.233Z" transform="translate(-1465.98 -925.737)"/>
  <path id="Path_40261" data-name="Path 40261" class="cls-78" d="M1705.13,1029.81l9.655,12.972,60.434,81.2,117.376,1.586-20.371-27.369-49.717-66.8Z" transform="translate(-1469.948 -923.185)"/>
  <path id="Path_40262" data-name="Path 40262" class="cls-79" d="M1758.22,1101.14l60.434,81.2,117.376,1.586-20.368-27.369c-6.994-1.442-14.6-.491-21.042,6.216-17.231,17.936-40.248,10.58-51.35-6.459s-29.218-26.733-46.082-26.105C1782.463,1130.757,1768.818,1102.508,1758.22,1101.14Z" transform="translate(-1513.384 -981.543)"/>
  <path id="Path_40263" data-name="Path 40263" class="cls-80" d="M2290.424,1374.677a.683.683,0,0,0,.629-.438c.5-1.317.16-38.868.042-50.346a.639.639,0,0,0-.167-.429l-46.224-51.028a.651.651,0,0,0-.966.873l46.058,50.846c.195,19.24.364,48.166.026,49.664a.631.631,0,0,0,.384.818A.618.618,0,0,0,2290.424,1374.677Z" transform="translate(-1910.48 -1121.521)"/>
  <path id="Path_40264" data-name="Path 40264" class="cls-81" d="M2479.672,1788.129l1.273-2.091a2.546,2.546,0,0,1,4.45.16l1.118,2.224a3.707,3.707,0,0,1,.4,1.733l-.364,18.533c0,.4-1.819.686-3.934.644s-3.912-.4-3.9-.8l.364-18.584A3.794,3.794,0,0,1,2479.672,1788.129Z" transform="translate(-2102.85 -1540.882)"/>
</svg>
