<svg id="Moderate_Lending" data-name="Moderate Lending" xmlns="http://www.w3.org/2000/svg" width="100" height="100" viewBox="0 0 100 100">
  <defs>
    <style>
      .cls-1 {
        fill: #dcfdb8;
      }

      .cls-2 {
        fill: #76d906;
      }
    </style>
  </defs>
  <rect id="Rectangle_1352" data-name="Rectangle 1352" class="cls-1" width="100" height="100" rx="8"/>
  <g id="e" transform="translate(14.029 -85.672)">
    <path id="Path_37822" data-name="Path 37822" class="cls-2" d="M13.934,0A13.934,13.934,0,1,1,0,13.934,13.934,13.934,0,0,1,13.934,0Z" transform="translate(1.639 117.639)"/>
    <ellipse id="Ellipse_216" data-name="Ellipse 216" class="cls-1" cx="4.916" cy="4.598" rx="4.916" ry="4.598" transform="translate(10.158 126.475)"/>
    <g id="Group_34358" data-name="Group 34358" transform="translate(0 116)">
      <path id="Path_37818" data-name="Path 37818" class="cls-1" d="M85.646,226a2.81,2.81,0,0,0-1.987.823l-7.608,7.608a3.974,3.974,0,0,0,0,5.621H70.431A8.431,8.431,0,0,0,62,248.482H87.775a5.62,5.62,0,0,0,3.974-1.646l6.785-6.785h4.215V226Z" transform="translate(-53.288 -210.544)"/>
      <path id="Path_37819" data-name="Path 37819" class="cls-2" d="M352,206h10.46v19.672H352Z" transform="translate(-291.922 -193.354)"/>
      <path id="Path_37820" data-name="Path 37820" class="cls-2" d="M352,206h7.026v19.672H352Z" transform="translate(-302.539 -193.354)"/>
      <path id="Path_37821" data-name="Path 37821" class="cls-2" d="M70.538,127.241H49.461a1.405,1.405,0,0,0-1.405,1.405v1.405h-15.7a4.211,4.211,0,0,0-1.487.27,15.456,15.456,0,1,0-19.864,15.938,9.821,9.821,0,0,0-3.7,7.679,1.405,1.405,0,0,0,1.405,1.405H34.486a6.98,6.98,0,0,0,4.968-2.058l6.373-6.373h2.228v1.405a1.405,1.405,0,0,0,1.405,1.405H70.538a1.405,1.405,0,0,0,1.405-1.405V128.646A1.405,1.405,0,0,0,70.538,127.241ZM15.456,144.1A12.646,12.646,0,1,1,28.1,131.456c0,.387-.02.775-.055,1.159l-6.279,6.279a5.381,5.381,0,0,0-1.386,5.209H17.143a9.872,9.872,0,0,0-1.225.079A1.4,1.4,0,0,0,15.456,144.1Zm29.789,0a1.406,1.406,0,0,0-.994.412L37.467,151.3a4.187,4.187,0,0,1-2.981,1.235H10.258a7.038,7.038,0,0,1,6.885-5.621h5.09a5.385,5.385,0,0,0,7.144-.412L35,140.881a1.405,1.405,0,0,0-1.987-1.987l-5.621,5.621a2.569,2.569,0,0,1-3.633-3.633l7.608-7.608a1.4,1.4,0,0,1,.994-.412h15.7V144.1Zm5.621-14.051h4.215v16.862H50.866Zm18.267,16.862H57.892V130.051H69.133Z" transform="translate(0 -116)"/>
    </g>
  </g>
</svg>
