<svg id="Easy_Onboarding" data-name="Easy Onboarding" xmlns="http://www.w3.org/2000/svg" width="100" height="100" viewBox="0 0 100 100">
  <defs>
    <style>
      .cls-1 {
        fill: rgba(194,206,227,0.71);
      }

      .cls-2 {
        fill: #0e3e90;
      }
    </style>
  </defs>
  <rect id="Rectangle_1352" data-name="Rectangle 1352" class="cls-1" width="100" height="100" rx="8"/>
  <g id="onbaording" transform="translate(18 -42.657)">
    <path id="Path_37778" data-name="Path 37778" class="cls-2" d="M64.839,74.525V94.339s-4.2.835-5.066.945-3.574.993-5.538-.913C51.2,91.439,40.439,80.632,40.439,80.632s-1.856-1.839-4.836-.25c-2.736,1.456-6.791,3.589-8.485,4.42a3.9,3.9,0,0,1-5.856-3.089A4.023,4.023,0,0,1,23.684,78.2c3.862-2.364,12-6.977,15.394-8.8,2.061-1.107,3.546-1.2,6.376,1.2,3.485,2.959,6.586,5.656,6.586,5.656a3.2,3.2,0,0,0,2.625.509C58.625,75.93,64.839,74.525,64.839,74.525ZM21.991,108.1a3.652,3.652,0,0,0-.652-3.9,3.593,3.593,0,0,0-3.46-.883,3.6,3.6,0,0,0-.746-3.525,3.594,3.594,0,0,0-3.46-.883,3.592,3.592,0,0,0-.749-3.52,3.88,3.88,0,0,0-5.469.145c-1.6,1.549-2.623,4.355-1.2,6.007s3.062.644,4.31.356c-.347,1.25-1.388,2.413-.106,4.049s3.062.644,4.311.359c-.348,1.245-1.343,2.525-.111,4.042s3.279.711,4.624.289c-.519,1.347-1.63,2.8-.2,4.426s4.718.881,6.326-.669a3.9,3.9,0,0,0,.347-5.473A3.628,3.628,0,0,0,21.991,108.1ZM51.34,97.789c-11.628-11.738-6.158-6.215-12.416-12.545a4.05,4.05,0,0,0-4.359-.792c-1.74.77-3.98,1.819-5.666,2.62a9.286,9.286,0,0,1-3.811,1.28,6.538,6.538,0,0,1-3.416-12.08c2.584-1.8,8.531-5,8.531-5a7.437,7.437,0,0,0-5.781-2.318c-3.968,0-12.257,5.482-12.257,5.482a6.426,6.426,0,0,1-5.7.151L0,72.317V94.99s1.845.539,3.5,1.223a7.465,7.465,0,0,1,1.817-2.9,7.1,7.1,0,0,1,9.811-.071,6.265,6.265,0,0,1,1.548,2.777,6.25,6.25,0,0,1,4.206,4.405,6.281,6.281,0,0,1,2.655,1.637,6.424,6.424,0,0,1,1.64,3.036,6.345,6.345,0,0,1,2.77,1.676,6.638,6.638,0,0,1,1.714,5.716.01.01,0,0,1,.01,0c.025.032.932,1.053,1.5,1.629a2.837,2.837,0,0,0,4.031,0,2.908,2.908,0,0,0,0-4.069c-.04-.04-4-4.221-3.681-4.545s5.361,4.977,5.455,5.074a2.838,2.838,0,0,0,4.028,0,2.9,2.9,0,0,0,0-4.066c-.054-.052-.282-.272-.366-.359,0,0-5-4.5-4.621-4.882s6.6,5.466,6.608,5.466a2.822,2.822,0,0,0,3.912-.077,2.876,2.876,0,0,0,.141-3.849c-.02-.06-4.735-5.034-4.367-5.409s5.039,4.471,5.049,4.481a2.839,2.839,0,0,0,4.028,0,2.911,2.911,0,0,0,0-4.072C51.375,97.809,51.355,97.8,51.34,97.789Z" transform="translate(0 0)"/>
  </g>
</svg>
