<svg xmlns="http://www.w3.org/2000/svg" xmlns:xlink="http://www.w3.org/1999/xlink" width="893.191" height="494.991" viewBox="0 0 893.191 494.991"><defs><style>.cls-1,.cls-20,.cls-6{fill:#0e3e90}.cls-1{font-size:25px}.cls-1,.cls-20{font-family:BalooTammudu2-Medium,&apos;Baloo Tammudu \32 &apos;;font-weight:500}.cls-2{fill:url(#linear-gradient)}.cls-3{fill:#fff}.cls-4{fill:url(#linear-gradient-2)}.cls-5,.cls-9{fill:none;stroke-miterlimit:10}.cls-5{stroke:#000;stroke-linecap:round;stroke-linejoin:round;stroke-width:4px}.cls-7{fill:#7171ec}.cls-8{fill:#d7e8f0}.cls-9{stroke:#fff;stroke-width:7.24px}.cls-10{fill:rgba(15,143,191,.2)}.cls-11{fill:#f7f7f7}.cls-12{fill:url(#linear-gradient-3)}.cls-13{fill:#0e538c}.cls-14{fill:#fab9af}.cls-15{fill:#da9b5b}.cls-16{fill:#eea886}.cls-17{fill:#2a94f4}.cls-18{fill:#fa968c}.cls-19{fill:#efa8a0}.cls-20{font-size:30px}</style><linearGradient id="linear-gradient" x1=".5" x2=".5" y2="1" gradientUnits="objectBoundingBox"><stop offset="0" stop-color="#aa80f9"/><stop offset="1" stop-color="#6165d7"/></linearGradient><linearGradient id="linear-gradient-2" x1=".5" x2=".5" y2="1" gradientUnits="objectBoundingBox"><stop offset="0" stop-color="#ab316d"/><stop offset="1" stop-color="#792d3d"/></linearGradient><linearGradient id="linear-gradient-3" x1=".5" x2=".5" y2="1" gradientUnits="objectBoundingBox"><stop offset="0" stop-color="#ff9085"/><stop offset="1" stop-color="#fb6fbb"/></linearGradient></defs><g id="Scholarship" transform="translate(-181.809 -1391.45)"><text id="Congratulations" class="cls-1" transform="translate(899 1666)"><tspan x="0" y="0">Congratulations</tspan></text><g id="envelope" transform="translate(-597.735 1253.244) rotate(-48)"><path id="Path" d="M96.343,74.533a12.685,12.685,0,0,1-6.542,8.75l-39.473,20.97a12.818,12.818,0,0,1-17.366-5.316L1.5,39.7A12.833,12.833,0,0,1,6.808,22.352L46.311,1.39A13.2,13.2,0,0,1,63.648,6.7L95.117,65.916a12.633,12.633,0,0,1,1.226,8.617Z" class="cls-2" transform="translate(677.402 1268.42)"/><path id="Path-2" d="M39.906,59.972,1.415,45.3A2.215,2.215,0,0,1,.049,42.775L8.975,1.715a2.215,2.215,0,0,1,4.1-.569L42.638,56.863a2.215,2.215,0,0,1-2.732,3.109Z" class="cls-3" data-name="Path" transform="translate(722.121 1278.491)"/></g><g id="envelope-2" data-name="envelope" transform="matrix(0.454, -0.891, 0.891, 0.454, -931.432, 1570.03)"><path id="Path-3" d="M63.936,49.462a8.418,8.418,0,0,1-4.341,5.807L33.4,69.184a8.506,8.506,0,0,1-11.525-3.528L1,26.344a8.516,8.516,0,0,1,3.523-11.51L30.733.922A8.763,8.763,0,0,1,42.238,4.445l20.884,39.3a8.384,8.384,0,0,1,.813,5.718Z" class="cls-4" data-name="Path" transform="translate(677.402 1268.42)"/><path id="Path-4" d="M26.482,39.8.939,30.063a1.47,1.47,0,0,1-.907-1.676L5.956,1.138A1.47,1.47,0,0,1,8.676.761L28.3,37.736A1.47,1.47,0,0,1,26.482,39.8Z" class="cls-3" data-name="Path" transform="translate(707.079 1275.103)"/></g><g id="Why_PressPAy.Ng" data-name="Why PressPAy.Ng"><g id="Easy_Onboarding_" data-name="Easy Onboarding" transform="translate(37.5 53)"><g id="Business_error_comment_review_account_profile_user_list_problem" data-name="Business, error | comment, review, account, profile, user, list, problem" transform="translate(102 1290)"><g id="Group" transform="translate(44.309 50.45)"><g id="Group-2" data-name="Group" transform="translate(0 0)"><path id="Path-5" d="M254.193,86.687V17.846C254.17,8,246.481.025,236.989,0H17.2C7.713.025.024,8,0,17.846V341.54c.017,9.843,7.716,17.811,17.2,17.808H236.989a15.751,15.751,0,0,0,6.221-1.24" class="cls-5" data-name="Path" transform="translate(0 0)"/></g><rect id="Rectangle" width="238.757" height="337.566" class="cls-6" rx="24.95" transform="translate(7.718 10.907)"/><rect id="Rectangle-2" width="213.255" height="63.205" class="cls-7" data-name="Rectangle" rx="12.48" transform="translate(21.775 37.027)"/><g id="Group-3" data-name="Group" transform="translate(94.399 50.573)"><ellipse id="Oval" cx="6.302" cy="6.536" class="cls-8" rx="6.302" ry="6.536" transform="translate(26.396 0)"/><path id="Path-6" d="M0,18.268C0,8.179,7.885,0,17.611,0S35.222,8.179,35.222,18.268Z" class="cls-8" data-name="Path" transform="translate(15.086 17.846)"/><path id="Shape" d="M9.947,60.134a36.189,36.189,0,0,1-7.358-38.4A33.971,33.971,0,0,1,33.979,0C52.719.011,67.91,15.767,67.92,35.206A35.264,35.264,0,0,1,46.965,67.766a32.845,32.845,0,0,1-13,2.686A33.348,33.348,0,0,1,9.947,60.134Z" class="cls-8" transform="translate(0 117.382)"/></g><g id="Group-4" data-name="Group" transform="translate(43.101 128.449)"><path id="Path-7" d="M0,.49H165.818" class="cls-9" data-name="Path" transform="translate(0 -0.49)"/><path id="Path-8" d="M0,.49H165.818" class="cls-9" data-name="Path" transform="translate(0 16.436)"/><path id="Path-9" d="M0,.49H165.818" class="cls-9" data-name="Path" transform="translate(0 125.461)"/><path id="Path-10" d="M0,.49H88.782" class="cls-9" data-name="Path" transform="translate(38.518 141.473)"/></g><path id="Shape-2" d="M7.192,35.891A20.729,20.729,0,0,1,4.367,7.461,19.01,19.01,0,0,1,31.774,4.529,20.728,20.728,0,0,1,34.6,32.958a19.3,19.3,0,0,1-13.12,7.355,18.786,18.786,0,0,1-2,.107A19.056,19.056,0,0,1,7.192,35.891Z" class="cls-10" data-name="Shape" transform="translate(555.01 192.559)"/></g><path id="Path_39809" d="M1029.944,739.031s-19.839,20.982-4.96,16.392c2.643-.815-5.208-8.852,21.823-11.8s48.615,7.884,86.3,0c57.533-10.491,68.444-53.766,5.951-65.568C943.644,659.694,1029.944,739.031,1029.944,739.031Z" class="cls-10" data-name="Path 39809" transform="translate(-435.472 -370.538)"/></g></g></g><g id="messaging" transform="translate(-20.105 1147.407)"><ellipse id="Ellipse_375" cx="340.98" cy="16.793" class="cls-11" data-name="Ellipse 375" rx="340.98" ry="16.793" transform="translate(274.106 705.449)"/><path id="Path_39810" d="M628.594,425.591H380.064V569.109h34.474c15.2,11.221,40.241,29.622,40.331,29.171s.056-18,.027-29.171h173.7V425.591Z" class="cls-12" data-name="Path 39810" transform="translate(18.608 0.878)"/><rect id="Rectangle_1404" width="200.108" height="14.585" class="cls-11" data-name="Rectangle 1404" transform="translate(422.624 458.102)"/><rect id="Rectangle_1405" width="200.108" height="14.585" class="cls-11" data-name="Rectangle 1405" transform="translate(422.624 486.365)"/><rect id="Rectangle_1406" width="200.108" height="14.585" class="cls-11" data-name="Rectangle 1406" transform="translate(422.624 514.628)"/><path id="Path_39811" d="M798.638,476.54H550.106V620.058H584.58c15.2,11.221,40.241,29.622,40.331,29.171s.056-18,.027-29.171h173.7V476.54Z" class="cls-2" data-name="Path 39811" transform="translate(48.471 9.825)"/><rect id="Rectangle_1407" width="200.108" height="14.585" class="cls-11" data-name="Rectangle 1407" transform="translate(622.529 517.999)"/><rect id="Rectangle_1408" width="200.108" height="14.585" class="cls-11" data-name="Rectangle 1408" transform="translate(622.529 546.262)"/><path id="Path_39812" d="M413.472,515v.712L404.3,526.95l-4.972,3.77-7.241-3.921-.15-.427Z" class="cls-13" data-name="Path 39812" transform="translate(20.693 16.58)"/><path id="Path_39813" d="M404.874,526.131l8.6-10.458-10.206-4.5-11.331,15.876,8.779,4.686Z" class="cls-13" data-name="Path 39813" transform="translate(20.693 15.907)"/><rect id="Rectangle_1409" width="200.108" height="14.585" class="cls-11" data-name="Rectangle 1409" transform="translate(622.529 574.525)"/><path id="Path_39814" d="M403.188,512.064l8.386,3.621-9.267,12.1-8.1-3.564Z" class="cls-11" data-name="Path 39814" transform="translate(21.091 16.064)"/><circle id="Ellipse_376" cx="1.191" cy="1.191" r="1.191" class="cls-11" data-name="Ellipse 376" transform="translate(417.339 542.516)"/><g id="Group_34440" data-name="Group 34440" transform="translate(336.113 487.979)"><path id="Path_39815" d="M359.9,659.878l.026,7.142a15.582,15.582,0,0,1-.587,4.3l-.621,2.2a2.822,2.822,0,0,0,2.724,3.591c4.865-.018,13.179,0,15.321,0a.7.7,0,0,0,.724-.585c.181-2.086-5.842-3.481-10.378-5.237-3.455-1.338-3.271-7.549-2.845-11.174a2.183,2.183,0,0,0-2.357-2.422h0A2.186,2.186,0,0,0,359.9,659.878Z" class="cls-14" data-name="Path 39815" transform="translate(-321.273 -446.342)"/><path id="Path_39816" d="M332.043,658.106l-2.461,8.171a3.771,3.771,0,0,1-.482,1.017l-1.745,2.591a2.95,2.95,0,0,0,1.586,4.47s3.517,1.237,7.143,2.429c3.711,1.219,8.38.2,8.38-.779,0-2.176-2.029-.449-5.428-2.722-1.139-.762-2.315-1.559-3.362-2.381-2.925-2.3-.372-8.108,1.42-11.382a2.005,2.005,0,0,0-1.352-2.918l-.848-.181A2.445,2.445,0,0,0,332.043,658.106Z" class="cls-14" data-name="Path 39816" transform="translate(-326.851 -446.573)"/><path id="Path_39817" d="M352.648,576.9l26.958-2.263s2.714,19.621-4.1,55.138c-3.2,16.656-9.854,48.484-9.854,48.484a7.644,7.644,0,0,1-5.038.477s-.506-14.039-.815-29.159c-.3-14.5-.376-29.994-1.3-35.063C356.613,604.155,352.648,576.9,352.648,576.9Z" class="cls-13" data-name="Path 39817" transform="translate(-322.32 -460.927)"/><path id="Path_39818" d="M362.159,577.826c2.783,14.937,9,37.273-2.975,58.257s-24.555,42.8-24.555,42.8a6.815,6.815,0,0,1-4.457-1.559s2.1-9.513,5.135-20.62c3.473-12.707,7.871-27.653,6.618-35.446-2.349-14.6-5.047-34.056-4.229-43.5S360.7,569.972,362.159,577.826Z" class="cls-13" data-name="Path 39818" transform="translate(-326.267 -461.515)"/><g id="Group_34406" data-name="Group 34406" transform="translate(50.201 49.603)"><g id="Group_34405" data-name="Group 34405"><g id="Group_34404" data-name="Group 34404"><path id="Path_39819" d="M369.552,527.082s3.7-1.768,5.321-2.693,5.8-2.194,6.136-2.493,12.376-1.044,13.107-1.673,1.439,1.475-1.681,2.16-7.462,2.355-7.7,3.575,3.2,1.508,3.554,2.512-.1.781-.59.995-4.095-1.779-5.678-1.212-4-.218-5.219.2-7.115,2.4-7.115,2.4Z" class="cls-14" data-name="Path 39819" transform="translate(-369.552 -520.106)"/></g></g></g><g id="Group_34409" data-name="Group 34409" transform="translate(52.681 53.044)"><g id="Group_34408" data-name="Group 34408"><g id="Group_34407" data-name="Group 34407"><path id="Path_39820" d="M375.854,529.179l1.9-.7s-2.375-5.575-3.412-5.44a26.156,26.156,0,0,0-2.685.55Z" class="cls-11" data-name="Path 39820" transform="translate(-371.662 -523.033)"/></g></g></g><g id="Group_34412" data-name="Group 34412" transform="translate(45.129 52.671)"><g id="Group_34411" data-name="Group 34411"><g id="Group_34410" data-name="Group 34410"><path id="Path_39821" d="M377.417,530.2c-.245-.181-4.049-7.483-4.049-7.483l-8.131,1.1,4.393,8.648Z" class="cls-15" data-name="Path 39821" transform="translate(-365.238 -522.716)"/></g></g></g><g id="Group_34415" data-name="Group 34415" transform="translate(74.911 49.636)"><g id="Group_34414" data-name="Group 34414"><g id="Group_34413" data-name="Group 34413"><path id="Path_39822" d="M394.07,541.422s3.106-2.794,4.608-3.965,4.325-4.61,4.74-4.808,5.8-11.259,6.682-11.7-.831-1.934-2.691.742-5.125,6.116-6.366,5.865-.174-3.609-.984-4.326-.772-.214-1.167.167.082,4.553-1.069,5.825-1.354,3.858-2.218,4.839-5.034,5.772-5.034,5.772Z" class="cls-14" data-name="Path 39822" transform="translate(-390.571 -520.134)"/></g></g></g><g id="Group_34418" data-name="Group 34418" transform="translate(23.047 1.074)"><g id="Group_34417" data-name="Group 34417"><g id="Group_34416" data-name="Group 34416"><path id="Path_39823" d="M352.288,479.681s9.323-3.482,13.621,3.615,3.884,21.3-.816,23.047-11.756.832-14.161-3.607-4.578-10.857-4.473-15.148S349.841,480.919,352.288,479.681Z" class="cls-14" data-name="Path 39823" transform="translate(-346.455 -478.826)"/></g></g></g><g id="Group_34421" data-name="Group 34421" transform="translate(25.703 20.067)"><g id="Group_34420" data-name="Group 34420"><g id="Group_34419" data-name="Group 34419"><path id="Path_39824" d="M363.686,503.831s-.752,6.69-.112,7.932-11.636,0-11.636,0-1.109-9.646-3.065-15.346S363.686,503.831,363.686,503.831Z" class="cls-14" data-name="Path 39824" transform="translate(-348.714 -494.983)"/></g></g></g><g id="Group_34424" data-name="Group 34424" transform="translate(22.271)"><g id="Group_34423" data-name="Group 34423"><g id="Group_34422" data-name="Group 34422"><path id="Path_39825" d="M349.385,499.415s.451,7.182,4.035,6.619,8.38-11.06,9.875-11.583,1.511-1.4,1.511-1.4l.937,1.368,1.588.1s-1.448-4.264.737-6-2.269-13.8-13.759-9.787c0,0-8.825,2.434-8.506,7.452S347.41,496.917,349.385,499.415Z" class="cls-13" data-name="Path 39825" transform="translate(-345.795 -477.913)"/></g></g></g><g id="Group_34427" data-name="Group 34427" transform="translate(27.736 34.856)"><g id="Group_34426" data-name="Group 34426"><g id="Group_34425" data-name="Group 34425"><path id="Path_39826" d="M364.727,511.047s-.04-2.367-1.114-2.6-11.853-1.263-13.169-.744v2.76S352.982,512.028,364.727,511.047Z" class="cls-11" data-name="Path 39826" transform="translate(-350.443 -507.562)"/></g></g></g><g id="Group_34430" data-name="Group 34430" transform="translate(37.696 11.48)"><g id="Group_34429" data-name="Group 34429"><g id="Group_34428" data-name="Group 34428"><path id="Path_39827" d="M362.264,489.508c-.2-.843-2.342-3.248-3.161-.671s1.239,6.04,2.388,5.742S362.774,491.643,362.264,489.508Z" class="cls-16" data-name="Path 39827" transform="translate(-358.915 -487.678)"/></g></g></g><g id="Group_34433" data-name="Group 34433" transform="translate(7.628 37.76)"><g id="Group_34432" data-name="Group 34432"><g id="Group_34431" data-name="Group 34431"><path id="Path_39828" d="M335.506,599.072a98.538,98.538,0,0,0,15.465,2.758c9.748,1.075,34.1-.387,34.259-1.539s-5.239-42.887-4.932-45.036.47-9.807.47-9.807a53.966,53.966,0,0,0,4.839,15.341c.931,1.688,4.059,6.978,5.567,5.775,7.3-5.825,18.6-27.78,19.313-27.964-.6-.262-5.355-2.45-6.023-2.671-.583-.2-5.848,5.377-9.038,8.832-1.422,1.54-2.431,2.659-2.431,2.659-.922-2.073-4.277-15.128-5.318-19.646-2.351-10.19-1.99-10.613-1.99-10.613-7.131-2.157-17.956-6.548-17.956-6.548l-14.284-.581s-13.109,2.885-18.271,5.216c-.49.222-.491,11.7-1.835,14.7l4.28,9.031s2.472,17.888,2.985,25.844C340.841,568.478,335.506,599.072,335.506,599.072Z" class="cls-2" data-name="Path 39828" transform="translate(-333.339 -510.032)"/></g></g></g><g id="Group_34436" data-name="Group 34436" transform="translate(5.908 42.976)"><g id="Group_34435" data-name="Group 34435"><g id="Group_34434" data-name="Group 34434"><path id="Path_39829" d="M333,544.071c.373,1.2,2.067,2.22,3.166,2.665a4.091,4.091,0,0,0,2.288.229l.56-.1v0l9.788-1.816s2.141-24.666-13.373-30.576C335.022,514.6,329.576,533.026,333,544.071Z" class="cls-17" data-name="Path 39829" transform="translate(-331.876 -514.469)"/></g></g></g><g id="Group_34439" data-name="Group 34439" transform="translate(20.952 2.765)"><g id="Group_34438" data-name="Group 34438"><g id="Group_34437" data-name="Group 34437"><path id="Path_39830" d="M349.948,480.265s-11.729,1.19-.209,19Z" class="cls-13" data-name="Path 39830" transform="translate(-344.673 -480.265)"/></g></g></g></g><path id="Path_39831" d="M404.143,515.475l-2.508-1.22a.63.63,0,0,1-.29-.841h0a.629.629,0,0,1,.841-.29l2.508,1.22a.63.63,0,0,1,.29.841h0A.628.628,0,0,1,404.143,515.475Z" class="cls-17" data-name="Path 39831" transform="translate(22.334 16.239)"/><path id="Path_39832" d="M401.143,519.529l-2.508-1.22a.63.63,0,0,1-.29-.841h0a.63.63,0,0,1,.841-.29l2.508,1.22a.63.63,0,0,1,.29.841h0A.63.63,0,0,1,401.143,519.529Z" class="cls-17" data-name="Path 39832" transform="translate(21.808 16.951)"/><path id="Path_39833" d="M400.237,520.853l-2.508-1.22a.63.63,0,0,1-.29-.841h0a.63.63,0,0,1,.841-.29l2.508,1.22a.63.63,0,0,1,.29.841h0A.629.629,0,0,1,400.237,520.853Z" class="cls-17" data-name="Path 39833" transform="translate(21.649 17.184)"/><path id="Path_39834" d="M405.866,518.029l-2.508-1.22a.629.629,0,0,1-.29-.841h0a.63.63,0,0,1,.841-.29l2.508,1.22a.629.629,0,0,1,.29.841h0A.63.63,0,0,1,405.866,518.029Z" class="cls-17" data-name="Path 39834" transform="translate(22.637 16.688)"/><path id="Path_39835" d="M404.861,519.385l-2.508-1.22a.63.63,0,0,1-.29-.841h0a.63.63,0,0,1,.841-.29l2.508,1.22a.63.63,0,0,1,.29.841h0A.629.629,0,0,1,404.861,519.385Z" class="cls-17" data-name="Path 39835" transform="translate(22.461 16.926)"/><path id="Path_39836" d="M401.7,523.486l-2.508-1.22a.63.63,0,0,1-.29-.841h0a.63.63,0,0,1,.841-.29l2.508,1.22a.63.63,0,0,1,.29.841h0A.628.628,0,0,1,401.7,523.486Z" class="cls-17" data-name="Path 39836" transform="translate(21.905 17.646)"/><path id="Path_39837" d="M767.72,648.231s-4.178,10.4-5.013,12.115a9.216,9.216,0,0,1-3.345,3.214,6.033,6.033,0,0,0-1.214,1.535,1.712,1.712,0,0,0-.122,1.531c3.281,8.944,13.3,12.54,13.534,11.869.423-1.211-1.063-3.649-3.162-4.868a7.209,7.209,0,0,1-3.426-6.011h0a11.313,11.313,0,0,1,1.244-5.6l4.083-7.745Z" class="cls-18" data-name="Path 39837" transform="translate(84.963 39.977)"/><path id="Path_39838" d="M778.509,659.644l2.5,11.11a14.576,14.576,0,0,1-1.351,10.035,0,0,0,0,1,0,0,3.182,3.182,0,0,0,1.734,4.5c5.931,2.116,17.433,6.14,17.946,5.705,2.613-2.216-4.3-5.866-9.4-9.706-3.445-2.589-4.761-14.654-5.067-23.907l-5.478,1.379A1.271,1.271,0,0,0,778.509,659.644Z" class="cls-18" data-name="Path 39838" transform="translate(88.582 41.585)"/><path id="Path_39839" d="M788.947,681.425a40.144,40.144,0,0,0,7.616,1.374,1.592,1.592,0,0,1,.779.32c2.367,1.834,3.561,3.679,2.175,4.854-.557.473-14.07-4.313-19.34-6.2a1.91,1.91,0,0,1-1.032-2.706l1-1.881A39.309,39.309,0,0,0,788.947,681.425Z" class="cls-13" data-name="Path 39839" transform="translate(88.654 45.062)"/><path id="Path_39840" d="M785.376,554.121c-6.533.892-12.1,8.422-10.95,16.831.66,4.832,5.156,22.128,10.1,35.8a15.861,15.861,0,0,1-2.432,15.5,13.578,13.578,0,0,0-1.481,2.162c-2.062,3.8-10,26.225-14.656,41.19.37,1.96,1.54,4.443,3.006,5.307,8.2-12.708,21.523-35.907,23.717-39.945a71.077,71.077,0,0,0,3.52-7.272c5.307-7.023,4.279-46.262,3.214-54.063C798.266,561.22,791.909,553.23,785.376,554.121Z" class="cls-13" data-name="Path 39840" transform="translate(86.378 23.438)"/><path id="Path_39841" d="M783.988,499.922s5.658,3.561,4.971,8.359c0,0,3.022-2.141,3.706-9.512C793.139,493.66,783.988,499.922,783.988,499.922Z" class="cls-13" data-name="Path 39841" transform="translate(89.545 13.377)"/><g id="Group_34441" data-name="Group 34441" transform="translate(876.786 538.22)"><path id="Path_39842" d="M794.987,524.961a19.767,19.767,0,0,0,1.261,8.674,8.875,8.875,0,0,0,5.836,5.026,20.467,20.467,0,0,0,9.459.166,42.678,42.678,0,0,0,9.806-3.213l.012-.006a1.181,1.181,0,0,1,1.175,2.039,41.172,41.172,0,0,1-9.881,5.233,24.591,24.591,0,0,1-11.78,1.454,15.036,15.036,0,0,1-6.2-2.323,15.547,15.547,0,0,1-4.737-4.926,25.308,25.308,0,0,1-3.181-12.124,4.119,4.119,0,0,1,8.229-.386c0,.109.006.219,0,.327Z" class="cls-19" data-name="Path 39842" transform="translate(-786.755 -520.648)"/></g><path id="Path_39843" d="M793.128,550.144c2.264-6.823,6.819-21.27,6.429-25.993a5.822,5.822,0,0,0-5.813-5.342h-19.7a6.028,6.028,0,0,0-6.032,5.853c-.166,5.7,2.462,18.686,3.941,25.482Z" class="cls-17" data-name="Path 39843" transform="translate(86.739 17.249)"/><path id="Path_39844" d="M787.513,676.953a1.018,1.018,0,0,0,.471-.9c-.417-14.486-1.3-32.95-1.616-36.489-.036-.4-.085-.8-.143-1.2,3.1-17.124,3.573-53.937,3.882-60.385.406-8.477-4.7-18.041-11.286-18.356s-13.734,6.5-15.849,14.268c-1.4,5.126,4,32.4,9.847,52.166a30.05,30.05,0,0,1,.8,12.832,38.148,38.148,0,0,0-.346,8.37c.314,3.482,4.215,17.662,7.872,29.8a1.016,1.016,0,0,0,.745.708A7.5,7.5,0,0,0,787.513,676.953Z" class="cls-13" data-name="Path 39844" transform="translate(85.815 24.415)"/><path id="Path_39845" d="M770.271,558.794a18.722,18.722,0,0,0,.9-8.928c-.993-6.981-2.73-20.129-2.57-25.711a5.506,5.506,0,0,1,5.515-5.346h2.92a7.848,7.848,0,0,0,14.264,0h2.743c-2.98,6.38-1.909,14.8,3.218,19.709-.952,3.367-1.754,6.756-2.354,9.5a18.575,18.575,0,0,0,1.012,11.113c2.517,6.041,4.512,15.729,3.918,19.568-20.718,5.872-35.045-4.52-35.045-4.52Z" class="cls-4" data-name="Path 39845" transform="translate(86.173 17.249)"/><g id="Group_34442" data-name="Group 34442" transform="translate(864.599 526.698)"><path id="Path_39846" d="M785.322,521.564l-8.934-.939,2.826-9.776,5.779.715Z" class="cls-14" data-name="Path 39846" transform="translate(-776.389 -510.848)"/></g><path id="Path_39847" d="M784.7,511.563l-5.779-.715-.883,3.052c1.293,1.459,2.957,4.61,5.059,4.61a3.341,3.341,0,0,0,1.821-.535Z" class="cls-18" data-name="Path 39847" transform="translate(88.5 15.85)"/><path id="Path_39848" d="M785.361,518.292c-1.962,0-4.084-.982-7.008-3.536A8.861,8.861,0,0,1,775.431,509V499.45H790.14a27.217,27.217,0,0,1,.033,10.107C789.37,513.334,786.905,518.292,785.361,518.292Z" class="cls-14" data-name="Path 39848" transform="translate(88.042 13.849)"/><path id="Path_39849" d="M778.2,506.544c0,1.865-.892,3.375-1.993,3.375s-2.315-2.443-2.315-4.307a2.183,2.183,0,0,1,2.315-2.443C777.3,503.169,778.2,504.68,778.2,506.544Z" class="cls-14" data-name="Path 39849" transform="translate(87.771 14.502)"/><path id="Path_39850" d="M773.889,501.483a5.4,5.4,0,0,1,5.4-5.4l4.965,0a8.119,8.119,0,0,0,4-1.056,3.938,3.938,0,0,1,5.161.958c1.292,1.752,1.85,4.1-1.425,6.272-1.628,1.08-4.009-.116-5.595.4-.1,0-.185-.02-.287-.02h-4.376a2.769,2.769,0,0,0-2.729,2.763,1.786,1.786,0,0,1-1.785,1.733h-.194l-.7-2.245-2.443,3.294v-6.7Z" class="cls-13" data-name="Path 39850" transform="translate(87.771 12.974)"/><path id="Path_39851" d="M789.785,499.911c-.493,2.183.235,3.376-6.92,6.783s-9.419,1.952-11.653,5.618c0,0,.977-6.076,4.928-8.161s10.805-3.448,13-8.276C789.143,495.875,790.123,498.419,789.785,499.911Z" class="cls-13" data-name="Path 39851" transform="translate(87.301 13.221)"/><path id="Path_39852" d="M785.845,499.883s.272,7.352,6.7,10.883c0,0-2.831-5.557-2.638-9.19S785.421,497.372,785.845,499.883Z" class="cls-13" data-name="Path 39852" transform="translate(89.866 13.655)"/><path id="Path_39853" d="M756.043,666.688a1.309,1.309,0,0,1-.016-1.706c.341-.4,1.249-1.515,1.93-2.348a.627.627,0,0,1,1.056.143c2.283,4.776,6.1,8.5,11.07,9.186,1.613,1.09,2.642,3.553,2.307,4.512-.079.224-2.285.256-4.606-1.072C757.482,669.507,756.043,666.688,756.043,666.688Z" class="cls-13" data-name="Path 39853" transform="translate(84.58 42.467)"/><g id="Group_34443" data-name="Group 34443" transform="translate(854.45 534.799)"><path id="Path_39854" d="M776.01,522.273l-.019.609c0,.248,0,.5.008.756.007.511.036,1.032.083,1.551a24.56,24.56,0,0,0,.49,3.073,17.2,17.2,0,0,0,2.257,5.554,14.719,14.719,0,0,0,4.051,4.251,20.293,20.293,0,0,0,5.689,2.631,31.108,31.108,0,0,0,6.663,1.123,60.124,60.124,0,0,0,7.063-.069,106.787,106.787,0,0,0,14.4-2.2l.015,0a1.181,1.181,0,0,1,.695,2.247,80.224,80.224,0,0,1-14.471,4.567,41.973,41.973,0,0,1-15.789.582,24.55,24.55,0,0,1-8.02-2.854,21.608,21.608,0,0,1-6.628-5.9,25.034,25.034,0,0,1-3.761-7.928,29.349,29.349,0,0,1-.8-4.229c-.081-.712-.139-1.425-.167-2.151-.015-.36-.015-.729-.012-1.1.007-.4.012-.7.054-1.244a4.11,4.11,0,0,1,8.206.43Z" class="cls-14" data-name="Path 39854" transform="translate(-767.756 -517.739)"/></g><path id="Path_39855" d="M816.622,539.564h-4.943a1.993,1.993,0,0,1-1.993-1.993V526.31a1.993,1.993,0,0,1,1.993-1.993h4.943a1.993,1.993,0,0,1,1.993,1.993v11.261A1.993,1.993,0,0,1,816.622,539.564Z" class="cls-17" data-name="Path 39855" transform="translate(94.058 18.216)"/><circle id="Ellipse_377" cx=".738" cy=".738" r=".738" class="cls-11" data-name="Ellipse 377" transform="translate(904.637 544.561)"/><path id="Path_39856" d="M738.524,425.591H704.906V447.6h12.257l5.253,6.3,4.692-6.3h11.416Z" class="cls-11" data-name="Path 39856" transform="translate(39.656 34.074)"/><path id="Path_39857" d="M511.979,591.71H478.362v22.012h12.256l5.253,6.3,4.693-6.3h11.415Z" class="cls-11" data-name="Path 39857" transform="translate(35.871 30.051)"/><path id="Path_39885" d="M358.833,671.376s8.4-.287,10.378-1.508c0,0,6.7,1.18,8.4,2.606s1.915,3.977-3.262,3.977-15.511-.75-15.511-.75S356.83,673.129,358.833,671.376Z" class="cls-13" data-name="Path 39885" transform="translate(14.723 43.777)"/><path id="Path_39886" d="M328.8,665.638s4.727,2.026,6.379,1.351c0,0,.75,3.94,6.153,5.028s4.54,4.015,1.464,4.352-13.957-1.087-15.683-3.376S326.622,666.576,328.8,665.638Z" class="cls-13" data-name="Path 39886" transform="translate(9.166 43.035)"/></g><text id="Interview" class="cls-20" transform="translate(645 1660)"><tspan x="0" y="0">Interview</tspan></text><text id="Successful" class="cls-20" transform="translate(443 1598)"><tspan x="0" y="0">Successful</tspan></text></g></svg>