<svg xmlns="http://www.w3.org/2000/svg" xmlns:xlink="http://www.w3.org/1999/xlink" width="466" height="541.891" viewBox="0 0 466 541.891"><defs><style>.cls-1{fill:url(#linear-gradient)}.cls-2{fill:#91b3fa}.cls-3{fill:url(#linear-gradient-2)}</style><linearGradient id="linear-gradient" x1=".305" x2="1.262" y1=".553" y2=".004" gradientUnits="objectBoundingBox"><stop offset="0" stop-color="#aa80f9"/><stop offset="1" stop-color="#6165d7"/></linearGradient><linearGradient id="linear-gradient-2" x1="-.145" x2="2.55" y1="1" y2="-1.609" gradientUnits="objectBoundingBox"><stop offset="0" stop-color="#ab316d"/><stop offset="1" stop-color="#792d3d"/></linearGradient></defs><g id="Shield" transform="translate(-208.807 -342.109)"><path id="Path_40305" d="M1507.279,1205.1a16.379,16.379,0,0,1,12.424-4.147c48.8,4.257,139.843-18.541,199.343-77.589,4.133-4.088,11.665-1.789,16.4,1.651,66.176,47.967,175.871,57.9,213.951,59.932a15.862,15.862,0,0,1,15.082,13.958c34.629,324.383-183.142,441.924-228.306,462.673a16.543,16.543,0,0,1-15.387-.861c-225.105-135.985-215.476-312.829-218.588-443.863A15.376,15.376,0,0,1,1507.279,1205.1Z" class="cls-1" data-name="Path 40305" transform="translate(-1293.386 -779.073)"/><path id="Path_40306" d="M1792.107,1706.139a5.588,5.588,0,0,1-2.931-.827c-84.2-52.057-139.087-114.295-167.785-190.268-25.628-67.851-26.882-136.925-27.986-197.864l-.149-8.122a5.076,5.076,0,0,1,1.541-3.749,5.488,5.488,0,0,1,3.887-1.573h0c52.08,0,130.258-22.24,187.59-71.926a5.56,5.56,0,0,1,6.608-.462c63,40.428,152.893,52.2,200.868,55.622a5.312,5.312,0,0,1,4.992,4.768c11.16,123.137-15.325,227.27-78.723,309.5-47.353,61.418-103.506,93.423-125.449,104.329h0A5.568,5.568,0,0,1,1792.107,1706.139Zm-193.379-399.924a2.937,2.937,0,0,0-2.1.832,2.686,2.686,0,0,0-.809,1.965l.151,8.122c1.1,60.745,2.354,129.6,27.832,197.056,28.5,75.447,83.044,137.278,166.757,189.031a2.949,2.949,0,0,0,2.842.137h0c21.787-10.831,77.533-42.6,124.565-103.61,63.012-81.73,89.331-185.289,78.227-307.8a2.782,2.782,0,0,0-2.626-2.509c-48.224-3.439-138.608-15.288-202.1-56.032a2.928,2.928,0,0,0-3.479.248c-57.843,50.126-136.733,72.552-189.258,72.552Z" class="cls-2" data-name="Path 40306" transform="translate(-1355.435 -857.141)"/><path id="Path_40319" d="M2644.34,1546.834l63.5,127.684,81.624-181.378-84.786,93.87Z" class="cls-3" data-name="Path 40319" transform="translate(-2282.957 -1007.908)"/></g></svg>